<svg width="624" height="243" viewBox="0 0 624 243" fill="none" xmlns="http://www.w3.org/2000/svg">
<path d="M118.191 240.264V241.264H119.191H148.649H149.649V240.264V186.256H179.708H180.708V185.256V159.35V158.35H179.708H149.649V2V1H148.649H118.55H118.047L117.747 1.40479L1.19643 158.755L1 159.02V159.35V185.256V186.256H2H118.191V240.264ZM118.191 158.35H35.903L118.191 46.4577V158.35ZM560.483 240.264V241.264H561.483H590.941H591.941V240.264V186.256H622H623V185.256V159.35V158.35H622H591.941V2V1H590.941H560.843H560.339L560.039 1.40479L443.489 158.755L443.293 159.02V159.35V185.256V186.256H444.293H560.483V240.264ZM560.483 158.35H478.196L560.483 46.4576V158.35Z" stroke="url(#paint0_linear_861_70365)" stroke-opacity="0.5" stroke-width="2"/>
<path d="M371.19 175.015C370.755 175.015 370.313 174.919 369.896 174.716C368.418 173.998 367.8 172.218 368.517 170.739C368.822 170.072 370.22 166.494 366.52 164.123C362.072 161.274 351.73 160.818 348.107 160.871C348.09 160.872 348.073 160.872 348.055 160.872C346.437 160.872 345.111 159.573 345.082 157.947C345.054 156.304 346.361 154.949 348.002 154.92C349.519 154.89 362.97 154.781 369.725 159.11C376.384 163.376 375.346 170.281 373.868 173.336C373.354 174.397 372.293 175.015 371.19 175.015Z" fill="#263238"/>
<path d="M384.897 190.725L384.244 192.947L374.323 176.612L374.062 173.083L384.897 190.725Z" fill="white" stroke="#263238" stroke-width="1.0816" stroke-miterlimit="10" stroke-linecap="round" stroke-linejoin="round"/>
<path d="M384.242 192.946L387.34 191.417L387.897 189.287L384.895 190.725L384.242 192.946Z" fill="white" stroke="#263238" stroke-width="1.0816" stroke-miterlimit="10" stroke-linecap="round" stroke-linejoin="round"/>
<path d="M372.758 171.254L384.245 170.861L387.899 189.287L384.897 190.725L372.758 171.254Z" fill="white" stroke="#263238" stroke-width="1.0816" stroke-miterlimit="10" stroke-linecap="round" stroke-linejoin="round"/>
<path d="M371.189 172.038L382.676 191.379L378.891 193.209L361.922 179.356L371.189 172.038Z" fill="white" stroke="#263238" stroke-width="1.0816" stroke-miterlimit="10" stroke-linecap="round" stroke-linejoin="round"/>
<path d="M378.891 193.209L378.369 195.169L361.27 181.578L361.922 179.356L378.891 193.209Z" fill="white" stroke="#263238" stroke-width="1.0816" stroke-miterlimit="10" stroke-linecap="round" stroke-linejoin="round"/>
<path d="M378.889 193.209L382.675 191.379L382.152 193.339L378.367 195.169L378.889 193.209Z" fill="white" stroke="#263238" stroke-width="1.0816" stroke-miterlimit="10" stroke-linecap="round" stroke-linejoin="round"/>
<path d="M367.625 174.887C367.625 178.106 370.231 180.716 373.447 180.716C376.663 180.716 379.269 178.106 379.269 174.887C379.269 171.667 376.663 169.058 373.447 169.058C370.231 169.058 367.625 171.668 367.625 174.887Z" fill="url(#paint1_linear_861_70365)" stroke="#263238" stroke-width="1.0816" stroke-miterlimit="10" stroke-linecap="round" stroke-linejoin="round"/>
<path d="M250.758 190.725L251.411 192.947L261.331 176.612L261.592 173.083L250.758 190.725Z" fill="white" stroke="#263238" stroke-width="1.0816" stroke-miterlimit="10" stroke-linecap="round" stroke-linejoin="round"/>
<path d="M251.409 192.946L248.311 191.417L247.754 189.287L250.756 190.725L251.409 192.946Z" fill="white" stroke="#263238" stroke-width="1.0816" stroke-miterlimit="10" stroke-linecap="round" stroke-linejoin="round"/>
<path d="M262.896 171.254L251.409 170.861L247.754 189.287L250.756 190.725L262.896 171.254Z" fill="white" stroke="#263238" stroke-width="1.0816" stroke-miterlimit="10" stroke-linecap="round" stroke-linejoin="round"/>
<path d="M264.463 172.038L252.977 191.379L256.762 193.209L273.731 179.356L264.463 172.038Z" fill="white" stroke="#263238" stroke-width="1.0816" stroke-miterlimit="10" stroke-linecap="round" stroke-linejoin="round"/>
<path d="M256.762 193.209L257.283 195.169L274.383 181.578L273.73 179.356L256.762 193.209Z" fill="white" stroke="#263238" stroke-width="1.0816" stroke-miterlimit="10" stroke-linecap="round" stroke-linejoin="round"/>
<path d="M256.762 193.209L252.977 191.379L253.499 193.339L257.284 195.169L256.762 193.209Z" fill="white" stroke="#263238" stroke-width="1.0816" stroke-miterlimit="10" stroke-linecap="round" stroke-linejoin="round"/>
<path d="M262.58 176.995C261.717 176.995 260.86 176.62 260.273 175.897C259.236 174.622 259.428 172.747 260.702 171.71C284.341 152.451 279.524 123.734 279.472 123.446C279.183 121.828 280.259 120.281 281.875 119.992C283.49 119.7 285.036 120.78 285.325 122.398C285.56 123.713 290.782 154.879 264.455 176.327C263.904 176.776 263.24 176.995 262.58 176.995Z" fill="#263238"/>
<path d="M285.617 126.891C292.048 126.891 297.261 121.672 297.261 115.233C297.261 108.795 292.048 103.575 285.617 103.575C279.186 103.575 273.973 108.795 273.973 115.233C273.973 121.672 279.186 126.891 285.617 126.891Z" fill="#ADADAD" stroke="#263238" stroke-width="1.0816" stroke-miterlimit="10" stroke-linecap="round" stroke-linejoin="round"/>
<path d="M268.027 174.887C268.027 178.106 265.421 180.716 262.205 180.716C258.989 180.716 256.383 178.106 256.383 174.887C256.383 171.667 258.989 169.058 262.205 169.058C265.421 169.058 268.027 171.668 268.027 174.887Z" fill="url(#paint2_linear_861_70365)" stroke="#263238" stroke-width="1.0816" stroke-miterlimit="10" stroke-linecap="round" stroke-linejoin="round"/>
<path d="M316.8 163.239C327.006 163.239 335.279 155.514 335.279 145.984C335.279 136.455 327.006 128.729 316.8 128.729C306.594 128.729 298.32 136.455 298.32 145.984C298.32 155.514 306.594 163.239 316.8 163.239Z" fill="#ADADAD" stroke="#263238" stroke-width="1.0816" stroke-miterlimit="10" stroke-linecap="round" stroke-linejoin="round"/>
<path d="M307.168 138.614L308.896 145.358C309.946 148.802 313.318 150.992 316.887 150.547C320.454 150.103 323.185 147.156 323.362 143.562L323.698 136.76L307.168 138.614Z" fill="#263238" stroke="#263238" stroke-width="1.0816" stroke-miterlimit="10" stroke-linecap="round" stroke-linejoin="round"/>
<path d="M343.597 104.688C340.603 104.688 338.616 104.039 338.445 103.981L338.921 102.57C339.004 102.597 347.279 105.267 355.701 99.0996L356.58 100.301C351.745 103.84 347.015 104.688 343.597 104.688Z" fill="#263238"/>
<path d="M352.881 115.875C346.069 105.899 338.313 106.655 338.237 106.662L338.07 105.183C338.424 105.142 346.8 104.332 354.107 115.035L352.881 115.875Z" fill="#263238"/>
<path d="M351.159 122.919C342.341 120.203 337.034 108.446 336.812 107.946L338.171 107.342C338.223 107.458 343.429 118.981 351.596 121.498L351.159 122.919Z" fill="#263238"/>
<path d="M355.742 100.097L358.122 98.5088" stroke="#263238" stroke-width="1.0816" stroke-miterlimit="10"/>
<path d="M352.832 114.132L354.419 117.31" stroke="#263238" stroke-width="1.0816" stroke-miterlimit="10"/>
<path d="M350.055 121.679C350.055 121.679 352.039 122.209 353.89 122.209" stroke="#263238" stroke-width="1.0816" stroke-miterlimit="10"/>
<path d="M283.176 102.497L285.373 117.892L340.091 112.293L339.891 96.2988L283.176 102.497Z" fill="white" stroke="#263238" stroke-width="1.0816" stroke-miterlimit="10" stroke-linecap="round" stroke-linejoin="round"/>
<path d="M285.371 117.892L295.156 142.683L337.293 138.485L340.089 112.293L285.371 117.892Z" fill="#E5E5E5" stroke="#263238" stroke-width="1.0816" stroke-miterlimit="10" stroke-linecap="round" stroke-linejoin="round"/>
<path d="M298.572 124.39L302.414 135.749C302.973 137.445 304.65 138.512 306.422 138.296L323.297 136.452C325.053 136.238 326.419 134.823 326.574 133.06L327.623 121.116C327.769 119.449 326.354 118.064 324.692 118.25L300.791 120.927C299.121 121.115 298.046 122.792 298.572 124.39Z" fill="#263238"/>
<mask id="mask0_861_70365" style="mask-type:luminance" maskUnits="userSpaceOnUse" x="298" y="118" width="30" height="21">
<path d="M298.568 124.391L302.41 135.749C302.969 137.446 304.646 138.513 306.418 138.297L323.294 136.453C325.049 136.239 326.415 134.824 326.57 133.06L327.619 121.117C327.766 119.45 326.351 118.065 324.688 118.251L300.787 120.928C299.117 121.116 298.042 122.793 298.568 124.391Z" fill="white"/>
</mask>
<g mask="url(#mask0_861_70365)">
<path d="M298.566 130.609L305.539 129.991L307.745 123.982L312.952 133.348L315.6 126.368L316.924 128.577L329.545 127.075" stroke="white" stroke-width="1.0816" stroke-miterlimit="10" stroke-linecap="round" stroke-linejoin="round"/>
</g>
<path d="M298.572 124.39L302.414 135.749C302.973 137.445 304.65 138.512 306.422 138.296L323.297 136.452C325.053 136.238 326.419 134.823 326.574 133.06L327.623 121.116C327.769 119.449 326.354 118.064 324.692 118.25L300.791 120.927C299.121 121.115 298.046 122.792 298.572 124.39Z" stroke="#263238" stroke-width="1.0816" stroke-miterlimit="10" stroke-linecap="round" stroke-linejoin="round"/>
<path d="M333.744 122.595C335.436 122.595 336.807 121.222 336.807 119.527C336.807 117.833 335.436 116.46 333.744 116.46C332.051 116.46 330.68 117.833 330.68 119.527C330.68 121.222 332.051 122.595 333.744 122.595Z" fill="white" stroke="#263238" stroke-width="1.0816" stroke-miterlimit="10" stroke-linecap="round" stroke-linejoin="round"/>
<path d="M336.233 129.114C336.233 130.702 334.947 131.99 333.361 131.99C331.774 131.99 330.488 130.702 330.488 129.114C330.488 127.526 331.774 126.238 333.361 126.238C334.946 126.238 336.233 127.526 336.233 129.114Z" fill="url(#paint3_linear_861_70365)" stroke="#263238" stroke-width="1.0816" stroke-miterlimit="10" stroke-linecap="round" stroke-linejoin="round"/>
<path d="M296.464 122.86C296.952 124.482 296.034 126.194 294.414 126.682C292.794 127.171 291.084 126.253 290.596 124.631C290.108 123.008 291.025 121.297 292.646 120.808C294.266 120.319 295.975 121.238 296.464 122.86Z" fill="url(#paint4_linear_861_70365)" stroke="#263238" stroke-width="1.0816" stroke-miterlimit="10" stroke-linecap="round" stroke-linejoin="round"/>
<path d="M298.674 132.204C299.132 133.724 298.272 135.328 296.753 135.787C295.234 136.246 293.632 135.384 293.174 133.864C292.716 132.343 293.576 130.739 295.095 130.28C296.614 129.822 298.216 130.683 298.674 132.204Z" fill="white" stroke="#263238" stroke-width="1.0816" stroke-miterlimit="10" stroke-linecap="round" stroke-linejoin="round"/>
<path d="M305.686 166.117C310.181 166.117 313.824 162.598 313.824 158.256C313.824 153.915 310.181 150.396 305.686 150.396C301.191 150.396 297.547 153.915 297.547 158.256C297.547 162.598 301.191 166.117 305.686 166.117Z" fill="url(#paint5_linear_861_70365)" stroke="#263238" stroke-width="1.0816" stroke-miterlimit="10" stroke-linecap="round" stroke-linejoin="round"/>
<path d="M293.723 175.894L301.179 159.14C301.841 157.651 303.511 156.893 305.065 157.377C306.663 157.873 307.613 159.514 307.248 161.149L302.34 183.179L293.723 175.894Z" fill="#263238" stroke="#263238" stroke-width="1.0816" stroke-miterlimit="10" stroke-linecap="round" stroke-linejoin="round"/>
<path d="M291.23 150.203L307.507 188.548L287.974 191.232C287.974 191.232 276.293 179.345 268.441 156.722L291.23 150.203Z" fill="#ADADAD" stroke="#263238" stroke-width="1.0816" stroke-miterlimit="10" stroke-linecap="round" stroke-linejoin="round"/>
<path d="M291.23 150.203L291.997 146.561L308.274 185.672L307.508 188.548L291.23 150.203Z" fill="white" stroke="#263238" stroke-width="1.0816" stroke-miterlimit="10" stroke-linecap="round" stroke-linejoin="round"/>
<path d="M291.996 146.561L269.782 153.271L268.441 156.722L291.23 150.203L291.996 146.561Z" fill="white" stroke="#263238" stroke-width="1.0816" stroke-miterlimit="10" stroke-linecap="round" stroke-linejoin="round"/>
<path d="M269.977 160.364L292.382 153.462" stroke="#263238" stroke-width="1.0816" stroke-miterlimit="10" stroke-linecap="round" stroke-linejoin="round"/>
<path d="M271.695 164.391L294.292 158.256" stroke="#263238" stroke-width="1.0816" stroke-miterlimit="10" stroke-linecap="round" stroke-linejoin="round"/>
<path d="M273.422 168.609L296.21 162.474" stroke="#263238" stroke-width="1.0816" stroke-miterlimit="10" stroke-linecap="round" stroke-linejoin="round"/>
<path d="M275.91 173.786L298.124 167.268" stroke="#263238" stroke-width="1.0816" stroke-miterlimit="10" stroke-linecap="round" stroke-linejoin="round"/>
<path d="M278.27 177.899L300.423 172.061" stroke="#263238" stroke-width="1.0816" stroke-miterlimit="10" stroke-linecap="round" stroke-linejoin="round"/>
<path d="M280.699 181.661L302.337 176.47" stroke="#263238" stroke-width="1.0816" stroke-miterlimit="10" stroke-linecap="round" stroke-linejoin="round"/>
<path d="M283.5 185.275L303.678 180.496" stroke="#263238" stroke-width="1.0816" stroke-miterlimit="10" stroke-linecap="round" stroke-linejoin="round"/>
<path d="M285.488 188.225L305.529 184.906" stroke="#263238" stroke-width="1.0816" stroke-miterlimit="10" stroke-linecap="round" stroke-linejoin="round"/>
<path d="M327.373 166.117C331.868 166.117 335.512 162.598 335.512 158.256C335.512 153.915 331.868 150.396 327.373 150.396C322.878 150.396 319.234 153.915 319.234 158.256C319.234 162.598 322.878 166.117 327.373 166.117Z" fill="url(#paint6_linear_861_70365)" stroke="#263238" stroke-width="1.0816" stroke-miterlimit="10" stroke-linecap="round" stroke-linejoin="round"/>
<path d="M339.342 175.894L331.886 159.14C331.224 157.651 329.553 156.893 327.999 157.377C326.401 157.873 325.451 159.514 325.816 161.149L330.725 183.179L339.342 175.894Z" fill="#263238" stroke="#263238" stroke-width="1.0816" stroke-miterlimit="10" stroke-linecap="round" stroke-linejoin="round"/>
<path d="M341.832 150.203L325.555 188.548L345.088 191.232C345.088 191.232 356.769 179.345 364.621 156.722L341.832 150.203Z" fill="#ADADAD" stroke="#263238" stroke-width="1.0816" stroke-miterlimit="10" stroke-linecap="round" stroke-linejoin="round"/>
<path d="M341.833 150.203L341.067 146.561L324.789 185.672L325.555 188.548L341.833 150.203Z" fill="white" stroke="#263238" stroke-width="1.0816" stroke-miterlimit="10" stroke-linecap="round" stroke-linejoin="round"/>
<path d="M341.066 146.561L363.28 153.271L364.621 156.722L341.833 150.203L341.066 146.561Z" fill="white" stroke="#263238" stroke-width="1.0816" stroke-miterlimit="10" stroke-linecap="round" stroke-linejoin="round"/>
<path d="M363.089 160.364L340.684 153.462" stroke="#263238" stroke-width="1.0816" stroke-miterlimit="10" stroke-linecap="round" stroke-linejoin="round"/>
<path d="M361.363 164.391L338.766 158.256" stroke="#263238" stroke-width="1.0816" stroke-miterlimit="10" stroke-linecap="round" stroke-linejoin="round"/>
<path d="M359.64 168.609L336.852 162.474" stroke="#263238" stroke-width="1.0816" stroke-miterlimit="10" stroke-linecap="round" stroke-linejoin="round"/>
<path d="M357.152 173.786L334.938 167.268" stroke="#263238" stroke-width="1.0816" stroke-miterlimit="10" stroke-linecap="round" stroke-linejoin="round"/>
<path d="M354.795 177.899L332.641 172.061" stroke="#263238" stroke-width="1.0816" stroke-miterlimit="10" stroke-linecap="round" stroke-linejoin="round"/>
<path d="M352.365 181.661L330.727 176.47" stroke="#263238" stroke-width="1.0816" stroke-miterlimit="10" stroke-linecap="round" stroke-linejoin="round"/>
<path d="M349.565 185.274L329.387 180.495" stroke="#263238" stroke-width="1.0816" stroke-miterlimit="10" stroke-linecap="round" stroke-linejoin="round"/>
<path d="M347.576 188.225L327.535 184.906" stroke="#263238" stroke-width="1.0816" stroke-miterlimit="10" stroke-linecap="round" stroke-linejoin="round"/>
<path d="M356.668 117.442L358.784 118.369" stroke="#263238" stroke-width="1.0816" stroke-miterlimit="10"/>
<path d="M355.344 118.236L357.46 121.547" stroke="#263238" stroke-width="1.0816" stroke-miterlimit="10"/>
<path d="M354.154 118.368L353.758 120.487" stroke="#263238" stroke-width="1.0816" stroke-miterlimit="10"/>
<path d="M359.312 104.599H364.47" stroke="#263238" stroke-width="1.0816" stroke-miterlimit="10"/>
<path d="M355.344 104.863L362.75 106.982" stroke="#263238" stroke-width="1.0816" stroke-miterlimit="10"/>
<path d="M358.121 102.084L362.882 101.422" stroke="#263238" stroke-width="1.0816" stroke-miterlimit="10"/>
<path d="M341.062 118.501L342.385 122.341" stroke="#263238" stroke-width="1.0816" stroke-miterlimit="10"/>
<path d="M342.781 118.236L346.485 124.327" stroke="#263238" stroke-width="1.0816" stroke-miterlimit="10"/>
<path d="M344.105 114.662L347.677 115.854" stroke="#263238" stroke-width="1.0816" stroke-miterlimit="10"/>
<path d="M363.809 112.676L362.614 113.975L363.479 115.514L361.876 114.778L360.681 116.076L360.885 114.322L359.281 113.586L361.011 113.239L361.215 111.484L362.08 113.023L363.809 112.676Z" fill="url(#paint7_linear_861_70365)" stroke="#263238" stroke-width="0.5408" stroke-miterlimit="10" stroke-linecap="round" stroke-linejoin="round"/>
<path d="M365.66 95.1984L364.466 96.4971L365.33 98.0362L363.727 97.3001L362.532 98.5989L362.736 96.8453L361.133 96.1086L362.862 95.761L363.066 94.0068L363.931 95.5459L365.66 95.1984Z" fill="url(#paint8_linear_861_70365)" stroke="#263238" stroke-width="0.5408" stroke-miterlimit="10" stroke-linecap="round" stroke-linejoin="round"/>
<path d="M346.352 125.784L345.156 127.083L346.022 128.622L344.418 127.885L343.224 129.185L343.428 127.431L341.824 126.695L343.554 126.346L343.758 124.593L344.622 126.132L346.352 125.784Z" fill="url(#paint9_linear_861_70365)" stroke="#263238" stroke-width="0.5408" stroke-miterlimit="10" stroke-linecap="round" stroke-linejoin="round"/>
<path d="M289.269 96.8975C294.177 96.8975 298.156 92.9588 298.156 88.1001C298.156 83.2415 294.177 79.3027 289.269 79.3027C284.362 79.3027 280.383 83.2415 280.383 88.1001C280.383 92.9588 284.362 96.8975 289.269 96.8975Z" fill="#ADADAD" stroke="#263238" stroke-width="1.0816" stroke-miterlimit="10" stroke-linecap="round" stroke-linejoin="round"/>
<path d="M328.008 94.4991C332.916 94.4991 336.894 90.5604 336.894 85.7017C336.894 80.843 332.916 76.9043 328.008 76.9043C323.1 76.9043 319.121 80.843 319.121 85.7017C319.121 90.5604 323.1 94.4991 328.008 94.4991Z" fill="#ADADAD" stroke="#263238" stroke-width="1.0816" stroke-miterlimit="10" stroke-linecap="round" stroke-linejoin="round"/>
<path d="M310.136 114.892C316.313 114.892 321.319 110.103 321.319 104.196C321.319 98.2881 316.313 93.499 310.136 93.499C303.96 93.499 298.953 98.2881 298.953 104.196C298.953 110.103 303.96 114.892 310.136 114.892Z" fill="url(#paint10_linear_861_70365)" stroke="#263238" stroke-width="1.0816" stroke-miterlimit="10" stroke-linecap="round" stroke-linejoin="round"/>
<path d="M301.949 98.6979L303.492 105.488C304.447 108.959 307.758 111.241 311.338 110.894C314.915 110.548 317.727 107.677 318.003 104.089L318.524 97.2988L301.949 98.6979Z" fill="#263238" stroke="#263238" stroke-width="1.0816" stroke-miterlimit="10" stroke-linecap="round" stroke-linejoin="round"/>
<path d="M291.761 70.1062L287.566 86.9006L329.304 83.502L323.114 67.5068L291.761 70.1062Z" fill="white" stroke="#263238" stroke-width="1.0816" stroke-miterlimit="10" stroke-linecap="round" stroke-linejoin="round"/>
<path d="M287.566 86.8996L294.955 105.294L327.707 102.095L329.304 83.501L287.566 86.8996Z" fill="#E5E5E5" stroke="#263238" stroke-width="1.0816" stroke-miterlimit="10" stroke-linecap="round" stroke-linejoin="round"/>
<path d="M306.332 94.4015C306.223 97.0129 303.944 99.0711 301.214 99.2774C298.469 99.4849 295.811 97.7787 295.23 95.1868C294.566 92.226 296.809 89.3137 300.305 89.0879C303.776 88.864 306.456 91.4236 306.332 94.4015Z" fill="url(#paint11_linear_861_70365)" stroke="#263238" stroke-width="1.0816" stroke-miterlimit="10" stroke-linecap="round" stroke-linejoin="round"/>
<path d="M304.246 94.5492C304.259 96.2069 302.84 97.563 301.072 97.6936C299.298 97.8248 297.64 96.6869 297.355 95.0368C297.046 93.2454 298.453 91.5637 300.513 91.425C302.565 91.2875 304.233 92.7509 304.246 94.5492Z" fill="white" stroke="#263238" stroke-width="1.0816" stroke-miterlimit="10" stroke-linecap="round" stroke-linejoin="round"/>
<path d="M324.906 92.6026C324.797 95.214 322.517 97.2722 319.788 97.4785C317.043 97.686 314.385 95.9798 313.804 93.3879C313.14 90.4271 315.383 87.5148 318.879 87.289C322.35 87.0657 325.03 89.6247 324.906 92.6026Z" fill="url(#paint12_linear_861_70365)" stroke="#263238" stroke-width="1.0816" stroke-miterlimit="10" stroke-linecap="round" stroke-linejoin="round"/>
<path d="M322.821 92.7508C322.833 94.4085 321.414 95.7646 319.647 95.8958C317.872 96.027 316.214 94.8891 315.929 93.239C315.62 91.4476 317.027 89.766 319.088 89.6272C321.139 89.4891 322.807 90.9525 322.821 92.7508Z" fill="white" stroke="#263238" stroke-width="1.0816" stroke-miterlimit="10" stroke-linecap="round" stroke-linejoin="round"/>
<path d="M306.536 101.984C305.781 101.984 305.135 101.412 305.058 100.645C304.976 99.8264 305.573 99.0972 306.39 99.0152L314.377 98.2154C315.195 98.1284 315.923 98.7301 316.005 99.5482C316.086 100.366 315.49 101.096 314.673 101.178L306.686 101.977C306.635 101.982 306.585 101.984 306.536 101.984Z" fill="#263238" stroke="#263238" stroke-width="1.0816" stroke-miterlimit="10" stroke-linecap="round" stroke-linejoin="round"/>
<path d="M295.553 75.3482C295.553 77.0172 294.201 78.3702 292.534 78.3702C290.867 78.3702 289.516 77.0172 289.516 75.3482C289.516 73.6792 290.867 72.3262 292.534 72.3262C294.201 72.3262 295.553 73.6792 295.553 75.3482Z" fill="url(#paint13_linear_861_70365)" stroke="#263238" stroke-width="1.0816" stroke-miterlimit="10" stroke-linecap="round" stroke-linejoin="round"/>
<path d="M293.245 73.5892C293.245 75.0154 292.09 76.1716 290.665 76.1716C289.241 76.1716 288.086 75.0154 288.086 73.5892C288.086 72.163 289.241 71.0068 290.665 71.0068C292.09 71.0068 293.245 72.163 293.245 73.5892Z" fill="url(#paint14_linear_861_70365)" stroke="#263238" stroke-width="1.0816" stroke-miterlimit="10" stroke-linecap="round" stroke-linejoin="round"/>
<path d="M290.174 70.8416C290.174 71.9643 289.265 72.8746 288.144 72.8746C287.022 72.8746 286.113 71.9643 286.113 70.8416C286.113 69.7188 287.022 68.8086 288.144 68.8086C289.265 68.8086 290.174 69.7188 290.174 70.8416Z" fill="url(#paint15_linear_861_70365)" stroke="#263238" stroke-width="1.0816" stroke-miterlimit="10" stroke-linecap="round" stroke-linejoin="round"/>
<path d="M287.649 70.1279L283.039 65.8418" stroke="#263238" stroke-width="1.0816" stroke-miterlimit="10" stroke-linecap="round" stroke-linejoin="round"/>
<path d="M319.148 73.2593C319.148 74.9284 320.5 76.2814 322.167 76.2814C323.834 76.2814 325.185 74.9284 325.185 73.2593C325.185 71.5903 323.834 70.2373 322.167 70.2373C320.5 70.2373 319.148 71.5903 319.148 73.2593Z" fill="url(#paint16_linear_861_70365)" stroke="#263238" stroke-width="1.0816" stroke-miterlimit="10" stroke-linecap="round" stroke-linejoin="round"/>
<path d="M321.453 71.5013C321.453 72.9275 322.608 74.0837 324.032 74.0837C325.457 74.0837 326.612 72.9275 326.612 71.5013C326.612 70.0751 325.457 68.9189 324.032 68.9189C322.609 68.9189 321.453 70.0751 321.453 71.5013Z" fill="url(#paint17_linear_861_70365)" stroke="#263238" stroke-width="1.0816" stroke-miterlimit="10" stroke-linecap="round" stroke-linejoin="round"/>
<path d="M324.527 68.7547C324.527 69.8774 325.436 70.7876 326.558 70.7876C327.679 70.7876 328.589 69.8774 328.589 68.7547C328.589 67.6319 327.679 66.7217 326.558 66.7217C325.436 66.7217 324.527 67.6319 324.527 68.7547Z" fill="url(#paint18_linear_861_70365)" stroke="#263238" stroke-width="1.0816" stroke-miterlimit="10" stroke-linecap="round" stroke-linejoin="round"/>
<path d="M327.051 68.04L331.661 63.7539" stroke="#263238" stroke-width="1.0816" stroke-miterlimit="10" stroke-linecap="round" stroke-linejoin="round"/>
<path d="M320.297 178.983C320.297 180.439 319.334 181.618 318.146 181.618C316.959 181.618 315.996 180.439 315.996 178.983C315.996 177.528 316.959 176.349 318.146 176.349C319.334 176.349 320.297 177.528 320.297 178.983Z" fill="white" stroke="#263238" stroke-width="1.0816" stroke-miterlimit="10" stroke-linecap="round" stroke-linejoin="round"/>
<path d="M324.556 181.188C324.502 181.188 324.447 181.185 324.392 181.177L318.415 180.302C317.805 180.212 317.384 179.646 317.473 179.036C317.562 178.426 318.129 178.005 318.737 178.093L324.715 178.968C325.325 179.058 325.746 179.624 325.657 180.234C325.576 180.789 325.1 181.188 324.556 181.188Z" fill="white" stroke="#263238" stroke-width="1.0816" stroke-miterlimit="10"/>
<path d="M240.995 191.309C240.216 190.08 240.398 188.568 241.401 187.931C242.404 187.294 243.848 187.774 244.626 189.003C245.405 190.232 245.223 191.744 244.22 192.381C243.218 193.018 241.774 192.538 240.995 191.309Z" fill="white" stroke="#263238" stroke-width="1.0816" stroke-miterlimit="10" stroke-linecap="round" stroke-linejoin="round"/>
<path d="M236.216 191.732C236.261 191.703 236.309 191.678 236.36 191.655L241.876 189.188C242.438 188.937 243.097 189.189 243.348 189.752C243.599 190.315 243.346 190.974 242.785 191.227L237.269 193.694C236.706 193.945 236.047 193.693 235.796 193.13C235.568 192.617 235.756 192.025 236.216 191.732Z" fill="white" stroke="#263238" stroke-width="1.0816" stroke-miterlimit="10"/>
<path d="M383.776 163.051C382.997 161.822 383.179 160.31 384.182 159.673C385.185 159.036 386.629 159.516 387.407 160.745C388.186 161.974 388.004 163.486 387.001 164.123C385.999 164.759 384.555 164.28 383.776 163.051Z" fill="white" stroke="#263238" stroke-width="1.0816" stroke-miterlimit="10" stroke-linecap="round" stroke-linejoin="round"/>
<path d="M379.001 163.474C379.047 163.445 379.094 163.419 379.145 163.396L384.661 160.929C385.223 160.678 385.882 160.93 386.133 161.493C386.384 162.056 386.131 162.715 385.57 162.968L380.054 165.435C379.491 165.686 378.832 165.434 378.581 164.872C378.354 164.359 378.541 163.766 379.001 163.474Z" fill="white" stroke="#263238" stroke-width="1.0816" stroke-miterlimit="10"/>
<path d="M277.225 192.498C274.71 192.498 272.672 193.706 272.672 195.196C272.672 196.686 274.71 197.893 277.225 197.893C279.739 197.893 281.777 196.685 281.777 195.196C281.777 193.706 279.739 192.498 277.225 192.498ZM277.225 196.591C275.924 196.591 274.87 195.967 274.87 195.196C274.87 194.425 275.924 193.801 277.225 193.801C278.525 193.801 279.579 194.425 279.579 195.196C279.579 195.967 278.525 196.591 277.225 196.591Z" fill="white" stroke="#263238" stroke-width="1.0816" stroke-miterlimit="10"/>
<path d="M318.229 192.929L315.118 191.693L312.007 192.929L311.238 195.706L313.391 197.932H316.844L318.997 195.706L318.229 192.929ZM315.994 196.477H314.241L313.148 195.346L313.538 193.936L315.117 193.308L316.698 193.936L317.088 195.346L315.994 196.477Z" fill="white" stroke="#263238" stroke-width="1.0816" stroke-miterlimit="10" stroke-linecap="round" stroke-linejoin="round"/>
<path d="M377.171 152.633L374.059 151.397L370.948 152.633L370.18 155.41L372.333 157.637H375.786L377.939 155.41L377.171 152.633ZM374.936 156.181H373.183L372.09 155.05L372.48 153.64L374.06 153.012L375.64 153.64L376.03 155.05L374.936 156.181Z" fill="white" stroke="#263238" stroke-width="1.0816" stroke-miterlimit="10" stroke-linecap="round" stroke-linejoin="round"/>
<path d="M339.02 199.264C338.935 199.264 338.848 199.249 338.764 199.217C338.661 199.179 338.128 198.955 337.738 198.344C337.396 197.807 337.103 196.856 337.657 195.376C338.078 194.253 338.94 193.466 340.085 193.16C341.449 192.796 343.063 193.165 344.2 194.103C344.517 194.364 344.562 194.833 344.301 195.15C344.041 195.466 343.572 195.512 343.255 195.251C342.488 194.619 341.367 194.356 340.47 194.597C339.997 194.724 339.367 195.052 339.049 195.899C338.492 197.385 339.163 197.768 339.303 197.83C339.671 197.992 339.854 198.423 339.703 198.796C339.586 199.086 339.313 199.264 339.02 199.264Z" fill="white" stroke="#263238" stroke-width="1.0816" stroke-miterlimit="10" stroke-linecap="round" stroke-linejoin="round"/>
<path d="M354.378 202.003C354.149 202.003 353.916 201.968 353.687 201.893L341.595 197.954C340.424 197.572 339.784 196.313 340.165 195.14C340.546 193.969 341.804 193.326 342.975 193.708L355.067 197.647C356.238 198.029 356.878 199.288 356.498 200.461C356.191 201.403 355.317 202.003 354.378 202.003Z" fill="white" stroke="#263238" stroke-width="1.0816" stroke-miterlimit="10" stroke-linecap="round" stroke-linejoin="round"/>
<path d="M341.234 197.849C341.234 197.849 341.714 194.774 345.553 194.678" stroke="#263238" stroke-width="1.0816" stroke-miterlimit="10" stroke-linecap="round" stroke-linejoin="round"/>
<path d="M343.824 198.521C343.824 198.521 344.304 195.447 348.143 195.351" stroke="#263238" stroke-width="1.0816" stroke-miterlimit="10" stroke-linecap="round" stroke-linejoin="round"/>
<path d="M346.129 199.386C346.129 199.386 346.609 196.311 350.448 196.215" stroke="#263238" stroke-width="1.0816" stroke-miterlimit="10" stroke-linecap="round" stroke-linejoin="round"/>
<path d="M348.527 200.059C348.527 200.059 349.007 196.984 352.846 196.888" stroke="#263238" stroke-width="1.0816" stroke-miterlimit="10" stroke-linecap="round" stroke-linejoin="round"/>
<path d="M350.926 200.924C350.926 200.924 351.406 197.849 355.245 197.753" stroke="#263238" stroke-width="1.0816" stroke-miterlimit="10" stroke-linecap="round" stroke-linejoin="round"/>
<path d="M354.372 201.955C354.287 201.955 354.2 201.941 354.116 201.908C354.012 201.87 353.48 201.646 353.09 201.035C352.747 200.499 352.455 199.547 353.009 198.068C353.429 196.945 354.292 196.158 355.437 195.851C356.8 195.487 358.415 195.856 359.552 196.794C359.868 197.055 359.914 197.524 359.652 197.841C359.393 198.158 358.925 198.203 358.606 197.942C357.839 197.311 356.719 197.047 355.822 197.288C355.349 197.415 354.718 197.743 354.401 198.59C353.845 200.075 354.515 200.459 354.655 200.521C355.023 200.683 355.206 201.114 355.054 201.486C354.937 201.777 354.664 201.955 354.372 201.955Z" fill="white" stroke="#263238" stroke-width="1.0816" stroke-miterlimit="10" stroke-linecap="round" stroke-linejoin="round"/>
<defs>
<linearGradient id="paint0_linear_861_70365" x1="2" y1="-19.8409" x2="669.209" y2="96.4627" gradientUnits="userSpaceOnUse">
<stop stop-color="#76E288"/>
<stop offset="0.529249" stop-color="#30CC71"/>
<stop offset="1" stop-color="#0DBE58"/>
</linearGradient>
<linearGradient id="paint1_linear_861_70365" x1="367.625" y1="167.989" x2="380.479" y2="168.849" gradientUnits="userSpaceOnUse">
<stop stop-color="#76E288"/>
<stop offset="0.529249" stop-color="#30CC71"/>
<stop offset="1" stop-color="#0DBE58"/>
</linearGradient>
<linearGradient id="paint2_linear_861_70365" x1="256.383" y1="167.989" x2="269.237" y2="168.849" gradientUnits="userSpaceOnUse">
<stop stop-color="#76E288"/>
<stop offset="0.529249" stop-color="#30CC71"/>
<stop offset="1" stop-color="#0DBE58"/>
</linearGradient>
<linearGradient id="paint3_linear_861_70365" x1="330.488" y1="125.711" x2="336.83" y2="126.135" gradientUnits="userSpaceOnUse">
<stop stop-color="#76E288"/>
<stop offset="0.529249" stop-color="#30CC71"/>
<stop offset="1" stop-color="#0DBE58"/>
</linearGradient>
<linearGradient id="paint4_linear_861_70365" x1="290.465" y1="120.114" x2="297.232" y2="120.567" gradientUnits="userSpaceOnUse">
<stop stop-color="#76E288"/>
<stop offset="0.529249" stop-color="#30CC71"/>
<stop offset="1" stop-color="#0DBE58"/>
</linearGradient>
<linearGradient id="paint5_linear_861_70365" x1="297.547" y1="148.954" x2="315.51" y2="150.2" gradientUnits="userSpaceOnUse">
<stop stop-color="#76E288"/>
<stop offset="0.529249" stop-color="#30CC71"/>
<stop offset="1" stop-color="#0DBE58"/>
</linearGradient>
<linearGradient id="paint6_linear_861_70365" x1="319.234" y1="148.954" x2="337.197" y2="150.2" gradientUnits="userSpaceOnUse">
<stop stop-color="#76E288"/>
<stop offset="0.529249" stop-color="#30CC71"/>
<stop offset="1" stop-color="#0DBE58"/>
</linearGradient>
<linearGradient id="paint7_linear_861_70365" x1="359.281" y1="111.063" x2="364.28" y2="111.394" gradientUnits="userSpaceOnUse">
<stop stop-color="#76E288"/>
<stop offset="0.529249" stop-color="#30CC71"/>
<stop offset="1" stop-color="#0DBE58"/>
</linearGradient>
<linearGradient id="paint8_linear_861_70365" x1="361.133" y1="93.5859" x2="366.131" y2="93.916" gradientUnits="userSpaceOnUse">
<stop stop-color="#76E288"/>
<stop offset="0.529249" stop-color="#30CC71"/>
<stop offset="1" stop-color="#0DBE58"/>
</linearGradient>
<linearGradient id="paint9_linear_861_70365" x1="341.824" y1="124.172" x2="346.823" y2="124.502" gradientUnits="userSpaceOnUse">
<stop stop-color="#76E288"/>
<stop offset="0.529249" stop-color="#30CC71"/>
<stop offset="1" stop-color="#0DBE58"/>
</linearGradient>
<linearGradient id="paint10_linear_861_70365" x1="298.953" y1="91.538" x2="323.633" y2="93.2664" gradientUnits="userSpaceOnUse">
<stop stop-color="#76E288"/>
<stop offset="0.529249" stop-color="#30CC71"/>
<stop offset="1" stop-color="#0DBE58"/>
</linearGradient>
<linearGradient id="paint11_linear_861_70365" x1="295.113" y1="88.1374" x2="307.491" y2="89.0479" gradientUnits="userSpaceOnUse">
<stop stop-color="#76E288"/>
<stop offset="0.529249" stop-color="#30CC71"/>
<stop offset="1" stop-color="#0DBE58"/>
</linearGradient>
<linearGradient id="paint12_linear_861_70365" x1="313.687" y1="86.3385" x2="326.064" y2="87.249" gradientUnits="userSpaceOnUse">
<stop stop-color="#76E288"/>
<stop offset="0.529249" stop-color="#30CC71"/>
<stop offset="1" stop-color="#0DBE58"/>
</linearGradient>
<linearGradient id="paint13_linear_861_70365" x1="289.516" y1="71.7721" x2="296.18" y2="72.218" gradientUnits="userSpaceOnUse">
<stop stop-color="#76E288"/>
<stop offset="0.529249" stop-color="#30CC71"/>
<stop offset="1" stop-color="#0DBE58"/>
</linearGradient>
<linearGradient id="paint14_linear_861_70365" x1="288.086" y1="70.5334" x2="293.781" y2="70.9144" gradientUnits="userSpaceOnUse">
<stop stop-color="#76E288"/>
<stop offset="0.529249" stop-color="#30CC71"/>
<stop offset="1" stop-color="#0DBE58"/>
</linearGradient>
<linearGradient id="paint15_linear_861_70365" x1="286.113" y1="68.4359" x2="290.596" y2="68.7358" gradientUnits="userSpaceOnUse">
<stop stop-color="#76E288"/>
<stop offset="0.529249" stop-color="#30CC71"/>
<stop offset="1" stop-color="#0DBE58"/>
</linearGradient>
<linearGradient id="paint16_linear_861_70365" x1="319.148" y1="69.6833" x2="325.813" y2="70.1292" gradientUnits="userSpaceOnUse">
<stop stop-color="#76E288"/>
<stop offset="0.529249" stop-color="#30CC71"/>
<stop offset="1" stop-color="#0DBE58"/>
</linearGradient>
<linearGradient id="paint17_linear_861_70365" x1="321.453" y1="68.4455" x2="327.148" y2="68.8265" gradientUnits="userSpaceOnUse">
<stop stop-color="#76E288"/>
<stop offset="0.529249" stop-color="#30CC71"/>
<stop offset="1" stop-color="#0DBE58"/>
</linearGradient>
<linearGradient id="paint18_linear_861_70365" x1="324.527" y1="66.349" x2="329.011" y2="66.6489" gradientUnits="userSpaceOnUse">
<stop stop-color="#76E288"/>
<stop offset="0.529249" stop-color="#30CC71"/>
<stop offset="1" stop-color="#0DBE58"/>
</linearGradient>
</defs>
</svg>
