<svg width="166" height="22" viewBox="0 0 166 22" fill="none" xmlns="http://www.w3.org/2000/svg">
<g clip-path="url(#clip0_837_70323)">
<path d="M14.5484 0.0072937H18.1049L17.9432 0.330608L17.2158 1.30055L16.165 2.67464L15.3567 3.72541L13.2552 6.47359L12.4469 7.52436L10.3453 10.2725L9.53703 11.3233L8.97123 12.0508L26.6727 12.1316L30.4717 15.9305H45.9908L46.8799 15.6072L47.5265 15.0414L47.8498 14.314V12.7782L47.4457 11.9699L46.7991 11.4041L46.1524 11.0808L45.5058 10.9192L29.825 10.8383L29.1784 10.2725L25.2178 6.31193V0.0072937H46.4757L47.6882 0.168951L48.7389 0.573095L49.5472 1.05807L50.1939 1.62387L50.7597 2.43215L51.1638 3.48293L51.2446 3.9679V5.82696L51.0022 6.7969L50.4364 7.84768L49.7897 8.57513L48.9814 9.14094L48.6581 9.30259L49.7089 10.0301L50.2747 10.5959L50.8405 11.485L51.1638 12.2933L51.3255 13.0207V14.7181L51.083 15.7689L50.598 16.7388L49.7089 17.7088L48.9814 18.2746L48.0923 18.6787L47.2032 18.9212L46.5566 19.002H39.8478L29.3401 18.9212L25.5411 15.1223H6.6272L5.57643 16.4963L4.76814 17.5471L3.71737 18.9212L3.63654 19.002H0.0800781L0.241736 18.5979L1.37334 17.143L2.42411 15.7689L3.2324 14.7181L5.33394 11.9699L6.14223 10.9192L8.24378 8.17099L9.05206 7.12022L11.1536 4.37204L11.9619 3.32127L13.0127 1.94718L13.821 0.896409L14.4676 0.0881224L14.5484 0.0072937ZM28.6126 2.99796V5.58447L30.9566 7.92851H45.2633L46.1524 7.68602L46.9607 7.20105L47.6073 6.47359L47.8498 5.82696V4.61453L47.6073 3.9679L47.0415 3.4021L46.3949 3.07878L46.0716 2.99796H28.6126Z" fill="white"/>
<path d="M61.5102 0.0072937H80.7474V2.99796L61.7527 3.07878L60.6211 3.4021L59.8936 3.88707L59.3278 4.5337L58.9236 5.50364L58.8428 5.90779L58.762 16.0114H80.7474V19.002H55.448L55.3672 18.9212V5.42282L55.6097 4.12956L56.0138 3.15961L56.5796 2.2705L57.0646 1.7047L58.0345 0.977238L59.247 0.411437L60.6211 0.0881224L61.5102 0.0072937Z" fill="white"/>
<path d="M111.059 9.38342H123.587V19.002L123.345 19.8912L122.86 20.6994L122.133 21.3461L121.082 21.831L120.112 21.9927H109.119V20.1336L119.95 20.0528L120.678 19.8103L121.243 19.3254L121.486 18.6787V17.4663L120.758 17.9513L120.193 18.1129H111.14L110.089 17.8704L109.2 17.3855L108.634 16.8197L108.23 16.0114L108.068 15.4456V12.1316L108.392 11.0808L108.957 10.3534L109.685 9.78757L110.574 9.46425L111.059 9.38342ZM111.867 11.2425L111.14 11.4041L110.493 11.8891L110.17 12.6166V14.9606L110.574 15.6072L111.059 16.0114L111.786 16.2539H119.708L120.597 15.9305L121.163 15.4456L121.486 14.8798L121.567 14.4756V11.3233L118.738 11.2425H111.867Z" fill="white"/>
<path d="M146.865 9.38342H157.858L158.828 9.62591L159.636 10.0301L160.283 10.7575L160.606 11.5658L160.687 12.0508V18.9212L160.606 19.002H158.666L158.586 18.9212L158.505 18.3554L158.02 18.7596L157.535 18.9212L156.969 19.002H148.805L147.916 18.8404L147.27 18.5171L146.704 18.0321L146.3 17.3046L146.219 16.9813V15.3647L146.623 14.3948L147.189 13.829L147.835 13.5057L148.401 13.344H158.586L158.505 12.2124L158.181 11.7275L157.616 11.4041L157.131 11.3233L146.865 11.2425V9.38342ZM149.048 14.9606L148.563 15.2839L148.32 15.6072V16.4155L148.644 16.9005L148.967 17.0621H157.373L158.02 16.7388L158.505 16.173L158.586 15.9305V14.9606H149.048Z" fill="white"/>
<path d="M100.147 6.4736H100.308V19.002H98.3683L98.2875 18.9212L98.2066 18.3554L97.6408 18.7596L96.6709 19.002H88.2647L87.2139 18.8404L86.244 18.4362L85.4357 17.7088L84.9507 16.7388L84.7891 15.9306V12.5358L85.0315 11.4042L85.4357 10.6767L85.759 10.2726L86.6481 9.70675L87.3756 9.46426L87.8606 9.38344H98.2875V7.20106L100.147 6.4736ZM88.588 11.2425L87.7797 11.485L87.2139 11.97L86.8906 12.7782V15.6072L87.1331 16.2539L87.6989 16.8197L88.2647 17.0622H96.7517L97.56 16.658L98.1258 16.0114L98.2875 15.6072V11.3233L95.4584 11.2425H88.588Z" fill="white"/>
<path d="M136.924 6.63525H137.166V9.38343H144.199V11.2425H137.166L137.247 15.7689L137.571 16.4155L137.975 16.7388L138.621 16.9813L144.36 17.0622V18.9212L144.279 19.002H138.541L137.49 18.8404L136.52 18.4362L135.712 17.7088L135.227 16.7388L135.065 16.0114V11.2425H131.023V9.38343H135.065V7.36271L136.681 6.71608L136.924 6.63525Z" fill="white"/>
<path d="M165.375 6.4736H165.537V18.9212L165.456 19.002H163.436V7.20106L165.375 6.4736Z" fill="white"/>
<path d="M126.578 9.38342H128.68V19.002H126.659L126.578 18.9212V9.38342Z" fill="white"/>
<path d="M103.137 9.38342H105.238V19.002H103.218L103.137 18.9212V9.38342Z" fill="white"/>
<path d="M126.578 6.4736H128.68V8.09018H126.578V6.4736Z" fill="white"/>
<path d="M103.137 6.4736H105.238V8.09018H103.137V6.4736Z" fill="white"/>
</g>
<defs>
<clipPath id="clip0_837_70323">
<rect width="165.537" height="22" fill="white"/>
</clipPath>
</defs>
</svg>
