<svg width="521" height="369" viewBox="0 0 521 369" fill="none" xmlns="http://www.w3.org/2000/svg">
<path d="M85 71V151C85 156.523 89.4772 161 95 161H200" stroke="url(#paint0_linear_860_72696)"/>
<rect y="46" width="230" height="31" rx="4" fill="#1F302C"/>
<path d="M16.012 59.568H17.14L18.532 63.228C18.612 63.444 18.684 63.652 18.748 63.852C18.82 64.052 18.884 64.248 18.94 64.44C18.996 64.624 19.04 64.804 19.072 64.98H19.12C19.168 64.78 19.244 64.52 19.348 64.2C19.452 63.872 19.56 63.544 19.672 63.216L20.98 59.568H22.12L19.348 66.888C19.196 67.288 19.016 67.636 18.808 67.932C18.608 68.236 18.36 68.468 18.064 68.628C17.776 68.796 17.424 68.88 17.008 68.88C16.816 68.88 16.648 68.868 16.504 68.844C16.36 68.828 16.236 68.808 16.132 68.784V67.944C16.22 67.96 16.324 67.976 16.444 67.992C16.572 68.008 16.704 68.016 16.84 68.016C17.088 68.016 17.3 67.968 17.476 67.872C17.66 67.784 17.816 67.652 17.944 67.476C18.072 67.308 18.18 67.108 18.268 66.876L18.604 66.024L16.012 59.568ZM28.8132 59.568V66H27.7572V60.468H24.4332V66H23.3772V59.568H28.8132ZM34.1655 59.448C34.9575 59.448 35.5935 59.724 36.0735 60.276C36.5615 60.828 36.8055 61.66 36.8055 62.772C36.8055 63.5 36.6935 64.116 36.4695 64.62C36.2535 65.116 35.9455 65.492 35.5455 65.748C35.1535 65.996 34.6895 66.12 34.1535 66.12C33.8255 66.12 33.5335 66.076 33.2775 65.988C33.0215 65.9 32.8015 65.788 32.6175 65.652C32.4415 65.508 32.2895 65.352 32.1615 65.184H32.0895C32.1055 65.32 32.1215 65.492 32.1375 65.7C32.1535 65.908 32.1615 66.088 32.1615 66.24V68.88H31.1055V59.568H31.9695L32.1135 60.444H32.1615C32.2895 60.26 32.4415 60.092 32.6175 59.94C32.8015 59.788 33.0175 59.668 33.2655 59.58C33.5215 59.492 33.8215 59.448 34.1655 59.448ZM33.9735 60.336C33.5415 60.336 33.1935 60.42 32.9295 60.588C32.6655 60.748 32.4735 60.992 32.3535 61.32C32.2335 61.648 32.1695 62.064 32.1615 62.568V62.772C32.1615 63.3 32.2175 63.748 32.3295 64.116C32.4415 64.484 32.6295 64.764 32.8935 64.956C33.1655 65.148 33.5335 65.244 33.9975 65.244C34.3895 65.244 34.7095 65.136 34.9575 64.92C35.2135 64.704 35.4015 64.412 35.5215 64.044C35.6495 63.668 35.7135 63.24 35.7135 62.76C35.7135 62.024 35.5695 61.436 35.2815 60.996C35.0015 60.556 34.5655 60.336 33.9735 60.336ZM41.1643 59.46C41.9483 59.46 42.5283 59.632 42.9043 59.976C43.2803 60.32 43.4683 60.868 43.4683 61.62V66H42.7003L42.4963 65.088H42.4483C42.2643 65.32 42.0723 65.516 41.8723 65.676C41.6803 65.828 41.4563 65.94 41.2003 66.012C40.9523 66.084 40.6483 66.12 40.2883 66.12C39.9043 66.12 39.5563 66.052 39.2443 65.916C38.9403 65.78 38.7003 65.572 38.5243 65.292C38.3483 65.004 38.2603 64.644 38.2603 64.212C38.2603 63.572 38.5123 63.08 39.0163 62.736C39.5203 62.384 40.2963 62.192 41.3443 62.16L42.4363 62.124V61.74C42.4363 61.204 42.3203 60.832 42.0883 60.624C41.8563 60.416 41.5283 60.312 41.1043 60.312C40.7683 60.312 40.4483 60.364 40.1443 60.468C39.8403 60.564 39.5563 60.676 39.2923 60.804L38.9683 60.012C39.2483 59.86 39.5803 59.732 39.9643 59.628C40.3483 59.516 40.7483 59.46 41.1643 59.46ZM41.4763 62.892C40.6763 62.924 40.1203 63.052 39.8083 63.276C39.5043 63.5 39.3523 63.816 39.3523 64.224C39.3523 64.584 39.4603 64.848 39.6763 65.016C39.9003 65.184 40.1843 65.268 40.5283 65.268C41.0723 65.268 41.5243 65.12 41.8843 64.824C42.2443 64.52 42.4243 64.056 42.4243 63.432V62.856L41.4763 62.892ZM50.8668 61.188C50.8668 61.588 50.7468 61.9 50.5068 62.124C50.2668 62.348 49.9588 62.5 49.5828 62.58V62.628C49.9828 62.684 50.3308 62.828 50.6268 63.06C50.9228 63.284 51.0708 63.636 51.0708 64.116C51.0708 64.388 51.0188 64.64 50.9148 64.872C50.8188 65.104 50.6668 65.304 50.4588 65.472C50.2508 65.64 49.9828 65.772 49.6548 65.868C49.3268 65.956 48.9308 66 48.4668 66H45.6948V59.568H48.4548C48.9108 59.568 49.3188 59.62 49.6788 59.724C50.0468 59.82 50.3348 59.988 50.5428 60.228C50.7588 60.46 50.8668 60.78 50.8668 61.188ZM49.9788 64.116C49.9788 63.748 49.8388 63.484 49.5588 63.324C49.2788 63.164 48.8668 63.084 48.3228 63.084H46.7508V65.148H48.3468C48.8748 65.148 49.2788 65.072 49.5588 64.92C49.8388 64.76 49.9788 64.492 49.9788 64.116ZM49.7988 61.32C49.7988 61.016 49.6868 60.796 49.4628 60.66C49.2468 60.516 48.8908 60.444 48.3948 60.444H46.7508V62.208H48.2028C48.7228 62.208 49.1188 62.136 49.3908 61.992C49.6628 61.848 49.7988 61.624 49.7988 61.32ZM57.7449 66H56.6769V60.444H54.7809C54.7009 61.46 54.6009 62.328 54.4809 63.048C54.3609 63.76 54.2089 64.34 54.0249 64.788C53.8409 65.236 53.6209 65.564 53.3649 65.772C53.1089 65.98 52.8089 66.084 52.4649 66.084C52.3609 66.084 52.2569 66.076 52.1529 66.06C52.0569 66.052 51.9769 66.032 51.9129 66V65.208C51.9609 65.224 52.0129 65.236 52.0689 65.244C52.1249 65.252 52.1809 65.256 52.2369 65.256C52.4129 65.256 52.5729 65.184 52.7169 65.04C52.8609 64.896 52.9889 64.676 53.1009 64.38C53.2209 64.084 53.3289 63.712 53.4249 63.264C53.5209 62.808 53.6049 62.272 53.6769 61.656C53.7489 61.04 53.8129 60.344 53.8689 59.568H57.7449V66ZM61.0824 59.568V66H60.0264V59.568H61.0824ZM60.5664 57.156C60.7264 57.156 60.8664 57.212 60.9864 57.324C61.1144 57.428 61.1784 57.596 61.1784 57.828C61.1784 58.052 61.1144 58.22 60.9864 58.332C60.8664 58.444 60.7264 58.5 60.5664 58.5C60.3904 58.5 60.2424 58.444 60.1224 58.332C60.0024 58.22 59.9424 58.052 59.9424 57.828C59.9424 57.596 60.0024 57.428 60.1224 57.324C60.2424 57.212 60.3904 57.156 60.5664 57.156ZM64.4162 59.568V62.244H67.9082V59.568H68.9642V66H67.9082V63.132H64.4162V66H63.3602V59.568H64.4162ZM72.2968 59.568V62.244H75.7888V59.568H76.8448V66H75.7888V63.132H72.2968V66H71.2408V59.568H72.2968ZM79.5174 66H78.2934L80.1294 63.3C79.8814 63.236 79.6414 63.136 79.4094 63C79.1774 62.856 78.9894 62.66 78.8454 62.412C78.7014 62.156 78.6294 61.84 78.6294 61.464C78.6294 60.848 78.8374 60.38 79.2534 60.06C79.6694 59.732 80.2214 59.568 80.9094 59.568H83.7894V66H82.7334V63.444H81.1734L79.5174 66ZM79.6494 61.476C79.6494 61.844 79.7854 62.12 80.0574 62.304C80.3374 62.48 80.7254 62.568 81.2214 62.568H82.7334V60.444H81.0174C80.5294 60.444 80.1774 60.54 79.9614 60.732C79.7534 60.924 79.6494 61.172 79.6494 61.476ZM93.1547 59.568V65.112H94.0907V68.232H93.0707V66H88.5947V68.232H87.5867V65.112H88.1027C88.4707 64.6 88.7747 64.044 89.0147 63.444C89.2627 62.836 89.4467 62.204 89.5667 61.548C89.6947 60.884 89.7627 60.224 89.7707 59.568H93.1547ZM90.7067 60.396C90.6747 60.94 90.5907 61.504 90.4547 62.088C90.3187 62.664 90.1427 63.216 89.9267 63.744C89.7187 64.272 89.4747 64.728 89.1947 65.112H92.1347V60.396H90.7067ZM98.0274 59.46C98.8114 59.46 99.3914 59.632 99.7674 59.976C100.143 60.32 100.331 60.868 100.331 61.62V66H99.5634L99.3594 65.088H99.3114C99.1274 65.32 98.9354 65.516 98.7354 65.676C98.5434 65.828 98.3194 65.94 98.0634 66.012C97.8154 66.084 97.5114 66.12 97.1514 66.12C96.7674 66.12 96.4194 66.052 96.1074 65.916C95.8034 65.78 95.5634 65.572 95.3874 65.292C95.2114 65.004 95.1234 64.644 95.1234 64.212C95.1234 63.572 95.3754 63.08 95.8794 62.736C96.3834 62.384 97.1594 62.192 98.2074 62.16L99.2994 62.124V61.74C99.2994 61.204 99.1834 60.832 98.9514 60.624C98.7194 60.416 98.3914 60.312 97.9674 60.312C97.6314 60.312 97.3114 60.364 97.0074 60.468C96.7034 60.564 96.4194 60.676 96.1554 60.804L95.8314 60.012C96.1114 59.86 96.4434 59.732 96.8274 59.628C97.2114 59.516 97.6114 59.46 98.0274 59.46ZM98.3394 62.892C97.5394 62.924 96.9834 63.052 96.6714 63.276C96.3674 63.5 96.2154 63.816 96.2154 64.224C96.2154 64.584 96.3234 64.848 96.5394 65.016C96.7634 65.184 97.0474 65.268 97.3914 65.268C97.9354 65.268 98.3874 65.12 98.7474 64.824C99.1074 64.52 99.2874 64.056 99.2874 63.432V62.856L98.3394 62.892ZM103.614 59.568V62.244H107.106V59.568H108.162V66H107.106V63.132H103.614V66H102.558V59.568H103.614ZM111.435 63.492C111.435 63.564 111.431 63.668 111.423 63.804C111.423 63.932 111.419 64.072 111.411 64.224C111.403 64.368 111.395 64.508 111.387 64.644C111.379 64.772 111.371 64.876 111.363 64.956L114.807 59.568H116.103V66H115.119V62.208C115.119 62.08 115.119 61.912 115.119 61.704C115.127 61.496 115.135 61.292 115.143 61.092C115.151 60.884 115.159 60.728 115.167 60.624L111.747 66H110.439V59.568H111.435V63.492ZM125.29 59.568V66H124.342V61.896C124.342 61.728 124.346 61.552 124.354 61.368C124.37 61.184 124.386 61.004 124.402 60.828H124.366L122.266 66H121.378L119.338 60.828H119.302C119.318 61.004 119.326 61.184 119.326 61.368C119.334 61.552 119.338 61.74 119.338 61.932V66H118.39V59.568H119.794L121.822 64.74L123.886 59.568H125.29ZM128.579 63.492C128.579 63.564 128.575 63.668 128.567 63.804C128.567 63.932 128.563 64.072 128.555 64.224C128.547 64.368 128.539 64.508 128.531 64.644C128.523 64.772 128.515 64.876 128.507 64.956L131.951 59.568H133.247V66H132.263V62.208C132.263 62.08 132.263 61.912 132.263 61.704C132.271 61.496 132.279 61.292 132.287 61.092C132.295 60.884 132.303 60.728 132.311 60.624L128.891 66H127.583V59.568H128.579V63.492ZM141.652 59.568H142.804L140.056 62.664L143.032 66H141.808L138.904 62.736V66H137.848V59.568H138.904V62.688L141.652 59.568ZM149.797 62.772C149.797 63.308 149.725 63.784 149.581 64.2C149.445 64.608 149.245 64.956 148.981 65.244C148.725 65.532 148.409 65.752 148.033 65.904C147.665 66.048 147.253 66.12 146.797 66.12C146.373 66.12 145.981 66.048 145.621 65.904C145.261 65.752 144.949 65.532 144.685 65.244C144.421 64.956 144.213 64.608 144.061 64.2C143.917 63.784 143.845 63.308 143.845 62.772C143.845 62.06 143.965 61.46 144.205 60.972C144.445 60.476 144.789 60.1 145.237 59.844C145.685 59.58 146.217 59.448 146.833 59.448C147.417 59.448 147.929 59.58 148.369 59.844C148.817 60.1 149.165 60.476 149.413 60.972C149.669 61.46 149.797 62.06 149.797 62.772ZM144.937 62.772C144.937 63.276 145.001 63.716 145.129 64.092C145.265 64.46 145.473 64.744 145.753 64.944C146.033 65.144 146.389 65.244 146.821 65.244C147.253 65.244 147.609 65.144 147.889 64.944C148.169 64.744 148.373 64.46 148.501 64.092C148.637 63.716 148.705 63.276 148.705 62.772C148.705 62.26 148.637 61.824 148.501 61.464C148.365 61.104 148.157 60.828 147.877 60.636C147.605 60.436 147.249 60.336 146.809 60.336C146.153 60.336 145.677 60.552 145.381 60.984C145.085 61.416 144.937 62.012 144.937 62.772ZM154.771 59.448C155.563 59.448 156.199 59.724 156.679 60.276C157.167 60.828 157.411 61.66 157.411 62.772C157.411 63.5 157.299 64.116 157.075 64.62C156.859 65.116 156.551 65.492 156.151 65.748C155.759 65.996 155.295 66.12 154.759 66.12C154.431 66.12 154.139 66.076 153.883 65.988C153.627 65.9 153.407 65.788 153.223 65.652C153.047 65.508 152.895 65.352 152.767 65.184H152.695C152.711 65.32 152.727 65.492 152.743 65.7C152.759 65.908 152.767 66.088 152.767 66.24V68.88H151.711V59.568H152.575L152.719 60.444H152.767C152.895 60.26 153.047 60.092 153.223 59.94C153.407 59.788 153.623 59.668 153.871 59.58C154.127 59.492 154.427 59.448 154.771 59.448ZM154.579 60.336C154.147 60.336 153.799 60.42 153.535 60.588C153.271 60.748 153.079 60.992 152.959 61.32C152.839 61.648 152.775 62.064 152.767 62.568V62.772C152.767 63.3 152.823 63.748 152.935 64.116C153.047 64.484 153.235 64.764 153.499 64.956C153.771 65.148 154.139 65.244 154.603 65.244C154.995 65.244 155.315 65.136 155.563 64.92C155.819 64.704 156.007 64.412 156.127 64.044C156.255 63.668 156.319 63.24 156.319 62.76C156.319 62.024 156.175 61.436 155.887 60.996C155.607 60.556 155.171 60.336 154.579 60.336ZM160.329 63.492C160.329 63.564 160.325 63.668 160.317 63.804C160.317 63.932 160.313 64.072 160.305 64.224C160.297 64.368 160.289 64.508 160.281 64.644C160.273 64.772 160.265 64.876 160.257 64.956L163.701 59.568H164.997V66H164.013V62.208C164.013 62.08 164.013 61.912 164.013 61.704C164.021 61.496 164.029 61.292 164.037 61.092C164.045 60.884 164.053 60.728 164.061 60.624L160.641 66H159.333V59.568H160.329V63.492ZM169.864 66.12C169.296 66.12 168.788 66.004 168.34 65.772C167.9 65.54 167.552 65.18 167.296 64.692C167.048 64.204 166.924 63.58 166.924 62.82C166.924 62.028 167.056 61.384 167.32 60.888C167.584 60.392 167.94 60.028 168.388 59.796C168.844 59.564 169.36 59.448 169.936 59.448C170.264 59.448 170.58 59.484 170.884 59.556C171.188 59.62 171.436 59.7 171.628 59.796L171.304 60.672C171.112 60.6 170.888 60.532 170.632 60.468C170.376 60.404 170.136 60.372 169.912 60.372C169.48 60.372 169.124 60.464 168.844 60.648C168.564 60.832 168.356 61.104 168.22 61.464C168.084 61.824 168.016 62.272 168.016 62.808C168.016 63.32 168.084 63.756 168.22 64.116C168.356 64.476 168.56 64.748 168.832 64.932C169.104 65.116 169.444 65.208 169.852 65.208C170.204 65.208 170.512 65.172 170.776 65.1C171.048 65.028 171.296 64.94 171.52 64.836V65.772C171.304 65.884 171.064 65.968 170.8 66.024C170.544 66.088 170.232 66.12 169.864 66.12ZM177.73 60.456H175.63V66H174.586V60.456H172.51V59.568H177.73V60.456ZM178.229 59.568H179.357L180.749 63.228C180.829 63.444 180.901 63.652 180.965 63.852C181.037 64.052 181.101 64.248 181.157 64.44C181.213 64.624 181.257 64.804 181.289 64.98H181.337C181.385 64.78 181.461 64.52 181.565 64.2C181.669 63.872 181.777 63.544 181.889 63.216L183.197 59.568H184.337L181.565 66.888C181.413 67.288 181.233 67.636 181.025 67.932C180.825 68.236 180.577 68.468 180.281 68.628C179.993 68.796 179.641 68.88 179.225 68.88C179.033 68.88 178.865 68.868 178.721 68.844C178.577 68.828 178.453 68.808 178.349 68.784V67.944C178.437 67.96 178.541 67.976 178.661 67.992C178.789 68.008 178.921 68.016 179.057 68.016C179.305 68.016 179.517 67.968 179.693 67.872C179.877 67.784 180.033 67.652 180.161 67.476C180.289 67.308 180.397 67.108 180.485 66.876L180.821 66.024L178.229 59.568ZM190.766 61.188C190.766 61.588 190.646 61.9 190.406 62.124C190.166 62.348 189.858 62.5 189.482 62.58V62.628C189.882 62.684 190.23 62.828 190.526 63.06C190.822 63.284 190.97 63.636 190.97 64.116C190.97 64.388 190.918 64.64 190.814 64.872C190.718 65.104 190.566 65.304 190.358 65.472C190.15 65.64 189.882 65.772 189.554 65.868C189.226 65.956 188.83 66 188.366 66H185.594V59.568H188.354C188.81 59.568 189.218 59.62 189.578 59.724C189.946 59.82 190.234 59.988 190.442 60.228C190.658 60.46 190.766 60.78 190.766 61.188ZM189.878 64.116C189.878 63.748 189.738 63.484 189.458 63.324C189.178 63.164 188.766 63.084 188.222 63.084H186.65V65.148H188.246C188.774 65.148 189.178 65.072 189.458 64.92C189.738 64.76 189.878 64.492 189.878 64.116ZM189.698 61.32C189.698 61.016 189.586 60.796 189.362 60.66C189.146 60.516 188.79 60.444 188.294 60.444H186.65V62.208H188.102C188.622 62.208 189.018 62.136 189.29 61.992C189.562 61.848 189.698 61.624 189.698 61.32ZM195.184 59.46C195.968 59.46 196.548 59.632 196.924 59.976C197.3 60.32 197.488 60.868 197.488 61.62V66H196.72L196.516 65.088H196.468C196.284 65.32 196.092 65.516 195.892 65.676C195.7 65.828 195.476 65.94 195.22 66.012C194.972 66.084 194.668 66.12 194.308 66.12C193.924 66.12 193.576 66.052 193.264 65.916C192.96 65.78 192.72 65.572 192.544 65.292C192.368 65.004 192.28 64.644 192.28 64.212C192.28 63.572 192.532 63.08 193.036 62.736C193.54 62.384 194.316 62.192 195.364 62.16L196.456 62.124V61.74C196.456 61.204 196.34 60.832 196.108 60.624C195.876 60.416 195.548 60.312 195.124 60.312C194.788 60.312 194.468 60.364 194.164 60.468C193.86 60.564 193.576 60.676 193.312 60.804L192.988 60.012C193.268 59.86 193.6 59.732 193.984 59.628C194.368 59.516 194.768 59.46 195.184 59.46ZM195.496 62.892C194.696 62.924 194.14 63.052 193.828 63.276C193.524 63.5 193.372 63.816 193.372 64.224C193.372 64.584 193.48 64.848 193.696 65.016C193.92 65.184 194.204 65.268 194.548 65.268C195.092 65.268 195.544 65.12 195.904 64.824C196.264 64.52 196.444 64.056 196.444 63.432V62.856L195.496 62.892ZM200.639 61.908C200.639 62.284 200.743 62.564 200.951 62.748C201.167 62.924 201.475 63.012 201.875 63.012C202.275 63.012 202.639 62.952 202.967 62.832C203.295 62.704 203.631 62.536 203.975 62.328V59.568H205.031V66H203.975V63.132C203.615 63.364 203.259 63.548 202.907 63.684C202.563 63.812 202.147 63.876 201.659 63.876C201.003 63.876 200.491 63.704 200.123 63.36C199.763 63.016 199.583 62.556 199.583 61.98V59.568H200.639V61.908ZM209.75 59.46C210.534 59.46 211.114 59.632 211.49 59.976C211.866 60.32 212.054 60.868 212.054 61.62V66H211.286L211.082 65.088H211.034C210.85 65.32 210.658 65.516 210.458 65.676C210.266 65.828 210.042 65.94 209.786 66.012C209.538 66.084 209.234 66.12 208.874 66.12C208.49 66.12 208.142 66.052 207.83 65.916C207.526 65.78 207.286 65.572 207.11 65.292C206.934 65.004 206.846 64.644 206.846 64.212C206.846 63.572 207.098 63.08 207.602 62.736C208.106 62.384 208.882 62.192 209.93 62.16L211.022 62.124V61.74C211.022 61.204 210.906 60.832 210.674 60.624C210.442 60.416 210.114 60.312 209.69 60.312C209.354 60.312 209.034 60.364 208.73 60.468C208.426 60.564 208.142 60.676 207.878 60.804L207.554 60.012C207.834 59.86 208.166 59.732 208.55 59.628C208.934 59.516 209.334 59.46 209.75 59.46ZM210.062 62.892C209.262 62.924 208.706 63.052 208.394 63.276C208.09 63.5 207.938 63.816 207.938 64.224C207.938 64.584 208.046 64.848 208.262 65.016C208.486 65.184 208.77 65.268 209.114 65.268C209.658 65.268 210.11 65.12 210.47 64.824C210.83 64.52 211.01 64.056 211.01 63.432V62.856L210.062 62.892Z" fill="#66E19D"/>
<path d="M286 30V88C286 93.5228 281.523 98 276 98H254C248.477 98 244 102.477 244 108V140" stroke="url(#paint1_linear_860_72696)"/>
<rect x="218" width="134" height="31" rx="4" fill="#1F302C"/>
<path d="M238.068 20.144C237.5 20.144 236.98 20.04 236.508 19.832C236.036 19.616 235.636 19.324 235.308 18.956C234.98 18.588 234.744 18.176 234.6 17.72L235.62 17.3C235.836 17.876 236.156 18.32 236.58 18.632C237.012 18.936 237.516 19.088 238.092 19.088C238.444 19.088 238.752 19.032 239.016 18.92C239.28 18.808 239.484 18.652 239.628 18.452C239.78 18.244 239.856 18.004 239.856 17.732C239.856 17.356 239.748 17.06 239.532 16.844C239.324 16.62 239.016 16.452 238.608 16.34L236.964 15.836C236.316 15.636 235.82 15.32 235.476 14.888C235.132 14.456 234.96 13.96 234.96 13.4C234.96 12.912 235.076 12.484 235.308 12.116C235.548 11.74 235.876 11.448 236.292 11.24C236.716 11.024 237.196 10.916 237.732 10.916C238.268 10.916 238.752 11.012 239.184 11.204C239.624 11.396 239.996 11.656 240.3 11.984C240.604 12.304 240.828 12.672 240.972 13.088L239.964 13.508C239.772 13.004 239.484 12.624 239.1 12.368C238.716 12.104 238.264 11.972 237.744 11.972C237.424 11.972 237.14 12.028 236.892 12.14C236.652 12.244 236.464 12.4 236.328 12.608C236.2 12.808 236.136 13.048 236.136 13.328C236.136 13.656 236.24 13.948 236.448 14.204C236.656 14.46 236.972 14.656 237.396 14.792L238.896 15.236C239.6 15.452 240.132 15.76 240.492 16.16C240.852 16.56 241.032 17.056 241.032 17.648C241.032 18.136 240.904 18.568 240.648 18.944C240.4 19.32 240.052 19.616 239.604 19.832C239.164 20.04 238.652 20.144 238.068 20.144ZM242.994 20V11.06H248.814V12.14H244.17V14.972H248.574V16.052H244.17V18.92H248.814V20H242.994ZM254.783 20.144C254.151 20.144 253.559 20.032 253.007 19.808C252.455 19.576 251.971 19.252 251.555 18.836C251.147 18.42 250.827 17.932 250.595 17.372C250.363 16.804 250.247 16.188 250.247 15.524C250.247 14.852 250.363 14.236 250.595 13.676C250.827 13.116 251.147 12.628 251.555 12.212C251.971 11.796 252.451 11.476 252.995 11.252C253.547 11.028 254.143 10.916 254.783 10.916C255.423 10.916 256.015 11.032 256.559 11.264C257.111 11.488 257.591 11.808 257.999 12.224C258.415 12.632 258.739 13.116 258.971 13.676C259.211 14.236 259.331 14.852 259.331 15.524C259.331 16.188 259.211 16.804 258.971 17.372C258.739 17.932 258.415 18.42 257.999 18.836C257.591 19.252 257.111 19.576 256.559 19.808C256.015 20.032 255.423 20.144 254.783 20.144ZM254.783 19.052C255.279 19.052 255.731 18.964 256.139 18.788C256.547 18.604 256.899 18.352 257.195 18.032C257.499 17.704 257.731 17.328 257.891 16.904C258.059 16.472 258.143 16.012 258.143 15.524C258.143 15.036 258.059 14.58 257.891 14.156C257.731 13.732 257.499 13.36 257.195 13.04C256.899 12.712 256.547 12.46 256.139 12.284C255.731 12.1 255.279 12.008 254.783 12.008C254.295 12.008 253.847 12.1 253.439 12.284C253.031 12.46 252.675 12.712 252.371 13.04C252.075 13.36 251.843 13.732 251.675 14.156C251.507 14.58 251.423 15.036 251.423 15.524C251.423 16.012 251.507 16.472 251.675 16.904C251.843 17.328 252.075 17.704 252.371 18.032C252.675 18.352 253.031 18.604 253.439 18.788C253.847 18.964 254.295 19.052 254.783 19.052ZM269.217 16.772C269.217 17.308 269.145 17.784 269.001 18.2C268.865 18.608 268.665 18.956 268.401 19.244C268.145 19.532 267.829 19.752 267.453 19.904C267.085 20.048 266.673 20.12 266.217 20.12C265.793 20.12 265.401 20.048 265.041 19.904C264.681 19.752 264.369 19.532 264.105 19.244C263.841 18.956 263.633 18.608 263.481 18.2C263.337 17.784 263.265 17.308 263.265 16.772C263.265 16.06 263.385 15.46 263.625 14.972C263.865 14.476 264.209 14.1 264.657 13.844C265.105 13.58 265.637 13.448 266.253 13.448C266.837 13.448 267.349 13.58 267.789 13.844C268.237 14.1 268.585 14.476 268.833 14.972C269.089 15.46 269.217 16.06 269.217 16.772ZM264.357 16.772C264.357 17.276 264.421 17.716 264.549 18.092C264.685 18.46 264.893 18.744 265.173 18.944C265.453 19.144 265.809 19.244 266.241 19.244C266.673 19.244 267.029 19.144 267.309 18.944C267.589 18.744 267.793 18.46 267.921 18.092C268.057 17.716 268.125 17.276 268.125 16.772C268.125 16.26 268.057 15.824 267.921 15.464C267.785 15.104 267.577 14.828 267.297 14.636C267.025 14.436 266.669 14.336 266.229 14.336C265.573 14.336 265.097 14.552 264.801 14.984C264.505 15.416 264.357 16.012 264.357 16.772ZM276.566 13.568V20H275.51V14.468H272.186V20H271.13V13.568H276.566ZM283.298 14.456H281.198V20H280.154V14.456H278.078V13.568H283.298V14.456ZM285.801 17.492C285.801 17.564 285.797 17.668 285.789 17.804C285.789 17.932 285.785 18.072 285.777 18.224C285.769 18.368 285.761 18.508 285.753 18.644C285.745 18.772 285.737 18.876 285.729 18.956L289.173 13.568H290.469V20H289.485V16.208C289.485 16.08 289.485 15.912 289.485 15.704C289.493 15.496 289.501 15.292 289.509 15.092C289.517 14.884 289.525 14.728 289.533 14.624L286.113 20H284.805V13.568H285.801V17.492ZM299.656 13.568V20H298.708V15.896C298.708 15.728 298.712 15.552 298.72 15.368C298.736 15.184 298.752 15.004 298.768 14.828H298.732L296.632 20H295.744L293.704 14.828H293.668C293.684 15.004 293.692 15.184 293.692 15.368C293.7 15.552 293.704 15.74 293.704 15.932V20H292.756V13.568H294.16L296.188 18.74L298.252 13.568H299.656ZM303.006 13.568V20H301.95V13.568H303.006ZM302.49 11.156C302.65 11.156 302.79 11.212 302.91 11.324C303.038 11.428 303.102 11.596 303.102 11.828C303.102 12.052 303.038 12.22 302.91 12.332C302.79 12.444 302.65 12.5 302.49 12.5C302.314 12.5 302.166 12.444 302.046 12.332C301.926 12.22 301.866 12.052 301.866 11.828C301.866 11.596 301.926 11.428 302.046 11.324C302.166 11.212 302.314 11.156 302.49 11.156ZM306.975 13.448C307.463 13.448 307.887 13.516 308.247 13.652C308.607 13.78 308.887 13.972 309.087 14.228C309.287 14.476 309.387 14.78 309.387 15.14C309.387 15.532 309.279 15.844 309.063 16.076C308.847 16.3 308.551 16.464 308.175 16.568V16.616C308.431 16.688 308.667 16.788 308.883 16.916C309.099 17.044 309.271 17.212 309.399 17.42C309.535 17.628 309.603 17.896 309.603 18.224C309.603 18.576 309.503 18.896 309.303 19.184C309.111 19.472 308.811 19.7 308.403 19.868C308.003 20.036 307.487 20.12 306.855 20.12C306.551 20.12 306.259 20.104 305.979 20.072C305.707 20.04 305.459 19.992 305.235 19.928C305.019 19.864 304.827 19.788 304.659 19.7V18.752C304.931 18.88 305.251 18.996 305.619 19.1C305.995 19.204 306.403 19.256 306.843 19.256C307.163 19.256 307.451 19.22 307.707 19.148C307.971 19.076 308.179 18.964 308.331 18.812C308.483 18.652 308.559 18.436 308.559 18.164C308.559 17.916 308.491 17.716 308.355 17.564C308.219 17.404 308.015 17.284 307.743 17.204C307.479 17.124 307.139 17.084 306.723 17.084H305.859V16.22H306.555C307.107 16.22 307.547 16.148 307.875 16.004C308.211 15.852 308.379 15.596 308.379 15.236C308.379 14.932 308.251 14.704 307.995 14.552C307.747 14.4 307.387 14.324 306.915 14.324C306.563 14.324 306.251 14.36 305.979 14.432C305.715 14.496 305.423 14.596 305.103 14.732L304.731 13.892C305.075 13.74 305.435 13.628 305.811 13.556C306.187 13.484 306.575 13.448 306.975 13.448ZM313.842 13.46C314.626 13.46 315.206 13.632 315.582 13.976C315.958 14.32 316.146 14.868 316.146 15.62V20H315.378L315.174 19.088H315.126C314.942 19.32 314.75 19.516 314.55 19.676C314.358 19.828 314.134 19.94 313.878 20.012C313.63 20.084 313.326 20.12 312.966 20.12C312.582 20.12 312.234 20.052 311.922 19.916C311.618 19.78 311.378 19.572 311.202 19.292C311.026 19.004 310.938 18.644 310.938 18.212C310.938 17.572 311.19 17.08 311.694 16.736C312.198 16.384 312.974 16.192 314.022 16.16L315.114 16.124V15.74C315.114 15.204 314.998 14.832 314.766 14.624C314.534 14.416 314.206 14.312 313.782 14.312C313.446 14.312 313.126 14.364 312.822 14.468C312.518 14.564 312.234 14.676 311.97 14.804L311.646 14.012C311.926 13.86 312.258 13.732 312.642 13.628C313.026 13.516 313.426 13.46 313.842 13.46ZM314.154 16.892C313.354 16.924 312.798 17.052 312.486 17.276C312.182 17.5 312.03 17.816 312.03 18.224C312.03 18.584 312.138 18.848 312.354 19.016C312.578 19.184 312.862 19.268 313.206 19.268C313.75 19.268 314.202 19.12 314.562 18.824C314.922 18.52 315.102 18.056 315.102 17.432V16.856L314.154 16.892ZM324.721 22.232H323.689V20H318.373V13.568H319.429V19.112H322.753V13.568H323.809V19.124H324.721V22.232ZM327.251 13.568V20H326.195V13.568H327.251ZM326.735 11.156C326.895 11.156 327.035 11.212 327.155 11.324C327.283 11.428 327.347 11.596 327.347 11.828C327.347 12.052 327.283 12.22 327.155 12.332C327.035 12.444 326.895 12.5 326.735 12.5C326.559 12.5 326.411 12.444 326.291 12.332C326.171 12.22 326.111 12.052 326.111 11.828C326.111 11.596 326.171 11.428 326.291 11.324C326.411 11.212 326.559 11.156 326.735 11.156ZM329.924 20H328.7L330.536 17.3C330.288 17.236 330.048 17.136 329.816 17C329.584 16.856 329.396 16.66 329.252 16.412C329.108 16.156 329.036 15.84 329.036 15.464C329.036 14.848 329.244 14.38 329.66 14.06C330.076 13.732 330.628 13.568 331.316 13.568H334.196V20H333.14V17.444H331.58L329.924 20ZM330.056 15.476C330.056 15.844 330.192 16.12 330.464 16.304C330.744 16.48 331.132 16.568 331.628 16.568H333.14V14.444H331.424C330.936 14.444 330.584 14.54 330.368 14.732C330.16 14.924 330.056 15.172 330.056 15.476Z" fill="#66E19D"/>
<g filter="url(#filter0_f_860_72696)">
<circle cx="256" cy="98" r="8" fill="#30CC71" fill-opacity="0.4"/>
</g>
<circle cx="256" cy="98" r="4" fill="#30CC71"/>
<path d="M424 97V150C424 155.523 419.523 160 414 160H260" stroke="url(#paint2_linear_860_72696)"/>
<rect x="344" y="66" width="150" height="31" rx="4" fill="#1F302C"/>
<path d="M366.192 81.188C366.192 81.588 366.072 81.9 365.832 82.124C365.592 82.348 365.284 82.5 364.908 82.58V82.628C365.308 82.684 365.656 82.828 365.952 83.06C366.248 83.284 366.396 83.636 366.396 84.116C366.396 84.388 366.344 84.64 366.24 84.872C366.144 85.104 365.992 85.304 365.784 85.472C365.576 85.64 365.308 85.772 364.98 85.868C364.652 85.956 364.256 86 363.792 86H361.02V79.568H363.78C364.236 79.568 364.644 79.62 365.004 79.724C365.372 79.82 365.66 79.988 365.868 80.228C366.084 80.46 366.192 80.78 366.192 81.188ZM365.304 84.116C365.304 83.748 365.164 83.484 364.884 83.324C364.604 83.164 364.192 83.084 363.648 83.084H362.076V85.148H363.672C364.2 85.148 364.604 85.072 364.884 84.92C365.164 84.76 365.304 84.492 365.304 84.116ZM365.124 81.32C365.124 81.016 365.012 80.796 364.788 80.66C364.572 80.516 364.216 80.444 363.72 80.444H362.076V82.208H363.528C364.048 82.208 364.444 82.136 364.716 81.992C364.988 81.848 365.124 81.624 365.124 81.32ZM369.17 83.492C369.17 83.564 369.166 83.668 369.158 83.804C369.158 83.932 369.154 84.072 369.146 84.224C369.138 84.368 369.13 84.508 369.122 84.644C369.114 84.772 369.106 84.876 369.098 84.956L372.542 79.568H373.838V86H372.854V82.208C372.854 82.08 372.854 81.912 372.854 81.704C372.862 81.496 372.87 81.292 372.878 81.092C372.886 80.884 372.894 80.728 372.902 80.624L369.482 86H368.174V79.568H369.17V83.492ZM383.025 79.568V86H382.077V81.896C382.077 81.728 382.081 81.552 382.089 81.368C382.105 81.184 382.121 81.004 382.137 80.828H382.101L380.001 86H379.113L377.073 80.828H377.037C377.053 81.004 377.061 81.184 377.061 81.368C377.069 81.552 377.073 81.74 377.073 81.932V86H376.125V79.568H377.529L379.557 84.74L381.621 79.568H383.025ZM390.91 82.772C390.91 83.308 390.838 83.784 390.694 84.2C390.558 84.608 390.358 84.956 390.094 85.244C389.838 85.532 389.522 85.752 389.146 85.904C388.778 86.048 388.366 86.12 387.91 86.12C387.486 86.12 387.094 86.048 386.734 85.904C386.374 85.752 386.062 85.532 385.798 85.244C385.534 84.956 385.326 84.608 385.174 84.2C385.03 83.784 384.958 83.308 384.958 82.772C384.958 82.06 385.078 81.46 385.318 80.972C385.558 80.476 385.902 80.1 386.35 79.844C386.798 79.58 387.33 79.448 387.946 79.448C388.53 79.448 389.042 79.58 389.482 79.844C389.93 80.1 390.278 80.476 390.526 80.972C390.782 81.46 390.91 82.06 390.91 82.772ZM386.05 82.772C386.05 83.276 386.114 83.716 386.242 84.092C386.378 84.46 386.586 84.744 386.866 84.944C387.146 85.144 387.502 85.244 387.934 85.244C388.366 85.244 388.722 85.144 389.002 84.944C389.282 84.744 389.486 84.46 389.614 84.092C389.75 83.716 389.818 83.276 389.818 82.772C389.818 82.26 389.75 81.824 389.614 81.464C389.478 81.104 389.27 80.828 388.99 80.636C388.718 80.436 388.362 80.336 387.922 80.336C387.266 80.336 386.79 80.552 386.494 80.984C386.198 81.416 386.05 82.012 386.05 82.772ZM396.748 79.568V80.456H393.88V86H392.824V79.568H396.748ZM399.251 83.492C399.251 83.564 399.247 83.668 399.239 83.804C399.239 83.932 399.235 84.072 399.227 84.224C399.219 84.368 399.211 84.508 399.203 84.644C399.195 84.772 399.187 84.876 399.179 84.956L402.623 79.568H403.919V86H402.935V82.208C402.935 82.08 402.935 81.912 402.935 81.704C402.943 81.496 402.951 81.292 402.959 81.092C402.967 80.884 402.975 80.728 402.983 80.624L399.563 86H398.255V79.568H399.251V83.492ZM413.296 79.568V85.112H414.232V88.232H413.212V86H408.736V88.232H407.728V85.112H408.244C408.612 84.6 408.916 84.044 409.156 83.444C409.404 82.836 409.588 82.204 409.708 81.548C409.836 80.884 409.904 80.224 409.912 79.568H413.296ZM410.848 80.396C410.816 80.94 410.732 81.504 410.596 82.088C410.46 82.664 410.284 83.216 410.068 83.744C409.86 84.272 409.616 84.728 409.336 85.112H412.276V80.396H410.848ZM421.325 82.772C421.325 83.308 421.253 83.784 421.109 84.2C420.973 84.608 420.773 84.956 420.509 85.244C420.253 85.532 419.937 85.752 419.561 85.904C419.193 86.048 418.781 86.12 418.325 86.12C417.901 86.12 417.509 86.048 417.149 85.904C416.789 85.752 416.477 85.532 416.213 85.244C415.949 84.956 415.741 84.608 415.589 84.2C415.445 83.784 415.373 83.308 415.373 82.772C415.373 82.06 415.493 81.46 415.733 80.972C415.973 80.476 416.317 80.1 416.765 79.844C417.213 79.58 417.745 79.448 418.361 79.448C418.945 79.448 419.457 79.58 419.897 79.844C420.345 80.1 420.693 80.476 420.941 80.972C421.197 81.46 421.325 82.06 421.325 82.772ZM416.465 82.772C416.465 83.276 416.529 83.716 416.657 84.092C416.793 84.46 417.001 84.744 417.281 84.944C417.561 85.144 417.917 85.244 418.349 85.244C418.781 85.244 419.137 85.144 419.417 84.944C419.697 84.744 419.901 84.46 420.029 84.092C420.165 83.716 420.233 83.276 420.233 82.772C420.233 82.26 420.165 81.824 420.029 81.464C419.893 81.104 419.685 80.828 419.405 80.636C419.133 80.436 418.777 80.336 418.337 80.336C417.681 80.336 417.205 80.552 416.909 80.984C416.613 81.416 416.465 82.012 416.465 82.772ZM427.077 82.712L424.857 79.568H426.057L427.713 81.992L429.357 79.568H430.545L428.325 82.712L430.665 86H429.465L427.713 83.432L425.937 86H424.749L427.077 82.712ZM437.502 82.772C437.502 83.308 437.43 83.784 437.286 84.2C437.15 84.608 436.95 84.956 436.686 85.244C436.43 85.532 436.114 85.752 435.738 85.904C435.37 86.048 434.958 86.12 434.502 86.12C434.078 86.12 433.686 86.048 433.326 85.904C432.966 85.752 432.654 85.532 432.39 85.244C432.126 84.956 431.918 84.608 431.766 84.2C431.622 83.784 431.55 83.308 431.55 82.772C431.55 82.06 431.67 81.46 431.91 80.972C432.15 80.476 432.494 80.1 432.942 79.844C433.39 79.58 433.922 79.448 434.538 79.448C435.122 79.448 435.634 79.58 436.074 79.844C436.522 80.1 436.87 80.476 437.118 80.972C437.374 81.46 437.502 82.06 437.502 82.772ZM432.642 82.772C432.642 83.276 432.706 83.716 432.834 84.092C432.97 84.46 433.178 84.744 433.458 84.944C433.738 85.144 434.094 85.244 434.526 85.244C434.958 85.244 435.314 85.144 435.594 84.944C435.874 84.744 436.078 84.46 436.206 84.092C436.342 83.716 436.41 83.276 436.41 82.772C436.41 82.26 436.342 81.824 436.206 81.464C436.07 81.104 435.862 80.828 435.582 80.636C435.31 80.436 434.954 80.336 434.514 80.336C433.858 80.336 433.382 80.552 433.086 80.984C432.79 81.416 432.642 82.012 432.642 82.772ZM441.996 86.12C441.428 86.12 440.92 86.004 440.472 85.772C440.032 85.54 439.684 85.18 439.428 84.692C439.18 84.204 439.056 83.58 439.056 82.82C439.056 82.028 439.188 81.384 439.452 80.888C439.716 80.392 440.072 80.028 440.52 79.796C440.976 79.564 441.492 79.448 442.068 79.448C442.396 79.448 442.712 79.484 443.016 79.556C443.32 79.62 443.568 79.7 443.76 79.796L443.436 80.672C443.244 80.6 443.02 80.532 442.764 80.468C442.508 80.404 442.268 80.372 442.044 80.372C441.612 80.372 441.256 80.464 440.976 80.648C440.696 80.832 440.488 81.104 440.352 81.464C440.216 81.824 440.148 82.272 440.148 82.808C440.148 83.32 440.216 83.756 440.352 84.116C440.488 84.476 440.692 84.748 440.964 84.932C441.236 85.116 441.576 85.208 441.984 85.208C442.336 85.208 442.644 85.172 442.908 85.1C443.18 85.028 443.428 84.94 443.652 84.836V85.772C443.436 85.884 443.196 85.968 442.932 86.024C442.676 86.088 442.364 86.12 441.996 86.12ZM449.861 80.456H447.761V86H446.717V80.456H444.641V79.568H449.861V80.456ZM452.364 83.492C452.364 83.564 452.36 83.668 452.352 83.804C452.352 83.932 452.348 84.072 452.34 84.224C452.332 84.368 452.324 84.508 452.316 84.644C452.308 84.772 452.3 84.876 452.292 84.956L455.736 79.568H457.032V86H456.048V82.208C456.048 82.08 456.048 81.912 456.048 81.704C456.056 81.496 456.064 81.292 456.072 81.092C456.08 80.884 456.088 80.728 456.096 80.624L452.676 86H451.368V79.568H452.364V83.492ZM460.375 79.568V82.244H463.867V79.568H464.923V86H463.867V83.132H460.375V86H459.319V79.568H460.375ZM471.124 79.568V80.456H468.256V86H467.2V79.568H471.124ZM471.623 79.568H472.751L474.143 83.228C474.223 83.444 474.295 83.652 474.359 83.852C474.431 84.052 474.495 84.248 474.551 84.44C474.607 84.624 474.651 84.804 474.683 84.98H474.731C474.779 84.78 474.855 84.52 474.959 84.2C475.063 83.872 475.171 83.544 475.283 83.216L476.591 79.568H477.731L474.959 86.888C474.807 87.288 474.627 87.636 474.419 87.932C474.219 88.236 473.971 88.468 473.675 88.628C473.387 88.796 473.035 88.88 472.619 88.88C472.427 88.88 472.259 88.868 472.115 88.844C471.971 88.828 471.847 88.808 471.743 88.784V87.944C471.831 87.96 471.935 87.976 472.055 87.992C472.183 88.008 472.315 88.016 472.451 88.016C472.699 88.016 472.911 87.968 473.087 87.872C473.271 87.784 473.427 87.652 473.555 87.476C473.683 87.308 473.791 87.108 473.879 86.876L474.215 86.024L471.623 79.568Z" fill="#66E19D"/>
<path d="M145 273V226C145 220.477 149.477 216 155 216H209" stroke="url(#paint3_linear_860_72696)"/>
<rect x="85" y="268" width="126" height="31" rx="4" fill="#1F302C"/>
<path d="M104.576 288H101.48V287.376L102.488 287.148V280.296L101.48 280.056V279.432H104.576V280.056L103.568 280.296V287.148L104.576 287.376V288ZM107.382 281.568V284.244H110.874V281.568H111.93V288H110.874V285.132H107.382V288H106.326V281.568H107.382ZM118.647 282.456H116.547V288H115.503V282.456H113.427V281.568H118.647V282.456ZM122.521 281.448C123.073 281.448 123.545 281.568 123.937 281.808C124.337 282.048 124.641 282.388 124.849 282.828C125.065 283.26 125.173 283.768 125.173 284.352V284.988H120.769C120.785 285.716 120.969 286.272 121.321 286.656C121.681 287.032 122.181 287.22 122.821 287.22C123.229 287.22 123.589 287.184 123.901 287.112C124.221 287.032 124.549 286.92 124.885 286.776V287.7C124.557 287.844 124.233 287.948 123.913 288.012C123.593 288.084 123.213 288.12 122.773 288.12C122.165 288.12 121.625 287.996 121.153 287.748C120.689 287.5 120.325 287.132 120.061 286.644C119.805 286.148 119.677 285.544 119.677 284.832C119.677 284.128 119.793 283.524 120.025 283.02C120.265 282.516 120.597 282.128 121.021 281.856C121.453 281.584 121.953 281.448 122.521 281.448ZM122.509 282.312C122.005 282.312 121.605 282.476 121.309 282.804C121.021 283.124 120.849 283.572 120.793 284.148H124.069C124.069 283.78 124.013 283.46 123.901 283.188C123.789 282.916 123.617 282.704 123.385 282.552C123.161 282.392 122.869 282.312 122.509 282.312ZM130.974 281.568V282.456H128.106V288H127.05V281.568H130.974ZM135.542 281.448C136.334 281.448 136.97 281.724 137.45 282.276C137.938 282.828 138.182 283.66 138.182 284.772C138.182 285.5 138.07 286.116 137.846 286.62C137.63 287.116 137.322 287.492 136.922 287.748C136.53 287.996 136.066 288.12 135.53 288.12C135.202 288.12 134.91 288.076 134.654 287.988C134.398 287.9 134.178 287.788 133.994 287.652C133.818 287.508 133.666 287.352 133.538 287.184H133.466C133.482 287.32 133.498 287.492 133.514 287.7C133.53 287.908 133.538 288.088 133.538 288.24V290.88H132.482V281.568H133.346L133.49 282.444H133.538C133.666 282.26 133.818 282.092 133.994 281.94C134.178 281.788 134.394 281.668 134.642 281.58C134.898 281.492 135.198 281.448 135.542 281.448ZM135.35 282.336C134.918 282.336 134.57 282.42 134.306 282.588C134.042 282.748 133.85 282.992 133.73 283.32C133.61 283.648 133.546 284.064 133.538 284.568V284.772C133.538 285.3 133.594 285.748 133.706 286.116C133.818 286.484 134.006 286.764 134.27 286.956C134.542 287.148 134.91 287.244 135.374 287.244C135.766 287.244 136.086 287.136 136.334 286.92C136.59 286.704 136.778 286.412 136.898 286.044C137.026 285.668 137.09 285.24 137.09 284.76C137.09 284.024 136.946 283.436 136.658 282.996C136.378 282.556 135.942 282.336 135.35 282.336ZM142.541 281.46C143.325 281.46 143.905 281.632 144.281 281.976C144.657 282.32 144.845 282.868 144.845 283.62V288H144.077L143.873 287.088H143.825C143.641 287.32 143.449 287.516 143.249 287.676C143.057 287.828 142.833 287.94 142.577 288.012C142.329 288.084 142.025 288.12 141.665 288.12C141.281 288.12 140.933 288.052 140.621 287.916C140.317 287.78 140.077 287.572 139.901 287.292C139.725 287.004 139.637 286.644 139.637 286.212C139.637 285.572 139.889 285.08 140.393 284.736C140.897 284.384 141.673 284.192 142.721 284.16L143.813 284.124V283.74C143.813 283.204 143.697 282.832 143.465 282.624C143.233 282.416 142.905 282.312 142.481 282.312C142.145 282.312 141.825 282.364 141.521 282.468C141.217 282.564 140.933 282.676 140.669 282.804L140.345 282.012C140.625 281.86 140.957 281.732 141.341 281.628C141.725 281.516 142.125 281.46 142.541 281.46ZM142.853 284.892C142.053 284.924 141.497 285.052 141.185 285.276C140.881 285.5 140.729 285.816 140.729 286.224C140.729 286.584 140.837 286.848 141.053 287.016C141.277 287.184 141.561 287.268 141.905 287.268C142.449 287.268 142.901 287.12 143.261 286.824C143.621 286.52 143.801 286.056 143.801 285.432V284.856L142.853 284.892ZM153.419 290.232H152.387V288H147.071V281.568H148.127V287.112H151.451V281.568H152.507V287.124H153.419V290.232ZM155.949 281.568V288H154.893V281.568H155.949ZM155.433 279.156C155.593 279.156 155.733 279.212 155.853 279.324C155.981 279.428 156.045 279.596 156.045 279.828C156.045 280.052 155.981 280.22 155.853 280.332C155.733 280.444 155.593 280.5 155.433 280.5C155.257 280.5 155.109 280.444 154.989 280.332C154.869 280.22 154.809 280.052 154.809 279.828C154.809 279.596 154.869 279.428 154.989 279.324C155.109 279.212 155.257 279.156 155.433 279.156ZM158.623 288H157.399L159.235 285.3C158.987 285.236 158.747 285.136 158.515 285C158.283 284.856 158.095 284.66 157.951 284.412C157.807 284.156 157.735 283.84 157.735 283.464C157.735 282.848 157.943 282.38 158.359 282.06C158.775 281.732 159.327 281.568 160.015 281.568H162.895V288H161.839V285.444H160.279L158.623 288ZM158.755 283.476C158.755 283.844 158.891 284.12 159.163 284.304C159.443 284.48 159.831 284.568 160.327 284.568H161.839V282.444H160.123C159.635 282.444 159.283 282.54 159.067 282.732C158.859 282.924 158.755 283.172 158.755 283.476ZM169.176 281.448C169.664 281.448 170.088 281.516 170.448 281.652C170.808 281.78 171.088 281.972 171.288 282.228C171.488 282.476 171.588 282.78 171.588 283.14C171.588 283.532 171.48 283.844 171.264 284.076C171.048 284.3 170.752 284.464 170.376 284.568V284.616C170.632 284.688 170.868 284.788 171.084 284.916C171.3 285.044 171.472 285.212 171.6 285.42C171.736 285.628 171.804 285.896 171.804 286.224C171.804 286.576 171.704 286.896 171.504 287.184C171.312 287.472 171.012 287.7 170.604 287.868C170.204 288.036 169.688 288.12 169.056 288.12C168.752 288.12 168.46 288.104 168.18 288.072C167.908 288.04 167.66 287.992 167.436 287.928C167.22 287.864 167.028 287.788 166.86 287.7V286.752C167.132 286.88 167.452 286.996 167.82 287.1C168.196 287.204 168.604 287.256 169.044 287.256C169.364 287.256 169.652 287.22 169.908 287.148C170.172 287.076 170.38 286.964 170.532 286.812C170.684 286.652 170.76 286.436 170.76 286.164C170.76 285.916 170.692 285.716 170.556 285.564C170.42 285.404 170.216 285.284 169.944 285.204C169.68 285.124 169.34 285.084 168.924 285.084H168.06V284.22H168.756C169.308 284.22 169.748 284.148 170.076 284.004C170.412 283.852 170.58 283.596 170.58 283.236C170.58 282.932 170.452 282.704 170.196 282.552C169.948 282.4 169.588 282.324 169.116 282.324C168.764 282.324 168.452 282.36 168.18 282.432C167.916 282.496 167.624 282.596 167.304 282.732L166.932 281.892C167.276 281.74 167.636 281.628 168.012 281.556C168.388 281.484 168.776 281.448 169.176 281.448ZM175.033 288L178.237 279.06H179.629L182.833 288H181.573L180.841 285.9H177.025L176.293 288H175.033ZM177.397 284.82H180.469L178.765 279.912H179.101L177.397 284.82ZM184.2 288V279.06H187.356C187.948 279.06 188.468 279.172 188.916 279.396C189.364 279.62 189.712 279.94 189.96 280.356C190.216 280.772 190.344 281.26 190.344 281.82C190.344 282.38 190.216 282.868 189.96 283.284C189.712 283.692 189.364 284.012 188.916 284.244C188.476 284.468 187.956 284.58 187.356 284.58H185.376V288H184.2ZM185.376 283.5H187.392C187.752 283.5 188.064 283.432 188.328 283.296C188.592 283.16 188.796 282.964 188.94 282.708C189.084 282.452 189.156 282.156 189.156 281.82C189.156 281.476 189.084 281.18 188.94 280.932C188.796 280.676 188.592 280.48 188.328 280.344C188.064 280.208 187.752 280.14 187.392 280.14H185.376V283.5ZM192.174 288V279.06H193.35V288H192.174Z" fill="#66E19D"/>
<g filter="url(#filter1_f_860_72696)">
<circle cx="182" cy="216" r="8" fill="#30CC71" fill-opacity="0.4"/>
</g>
<circle cx="182" cy="216" r="4" fill="#30CC71"/>
<path d="M287 346V321.19C287 315.667 282.523 311.19 277 311.19H255C249.477 311.19 245 306.713 245 301.19V241" stroke="url(#paint4_linear_860_72696)"/>
<rect x="205" y="338" width="148" height="31" rx="4" fill="#1F302C"/>
<path d="M223.712 351.448C224.2 351.448 224.624 351.516 224.984 351.652C225.344 351.78 225.624 351.972 225.824 352.228C226.024 352.476 226.124 352.78 226.124 353.14C226.124 353.532 226.016 353.844 225.8 354.076C225.584 354.3 225.288 354.464 224.912 354.568V354.616C225.168 354.688 225.404 354.788 225.62 354.916C225.836 355.044 226.008 355.212 226.136 355.42C226.272 355.628 226.34 355.896 226.34 356.224C226.34 356.576 226.24 356.896 226.04 357.184C225.848 357.472 225.548 357.7 225.14 357.868C224.74 358.036 224.224 358.12 223.592 358.12C223.288 358.12 222.996 358.104 222.716 358.072C222.444 358.04 222.196 357.992 221.972 357.928C221.756 357.864 221.564 357.788 221.396 357.7V356.752C221.668 356.88 221.988 356.996 222.356 357.1C222.732 357.204 223.14 357.256 223.58 357.256C223.9 357.256 224.188 357.22 224.444 357.148C224.708 357.076 224.916 356.964 225.068 356.812C225.22 356.652 225.296 356.436 225.296 356.164C225.296 355.916 225.228 355.716 225.092 355.564C224.956 355.404 224.752 355.284 224.48 355.204C224.216 355.124 223.876 355.084 223.46 355.084H222.596V354.22H223.292C223.844 354.22 224.284 354.148 224.612 354.004C224.948 353.852 225.116 353.596 225.116 353.236C225.116 352.932 224.988 352.704 224.732 352.552C224.484 352.4 224.124 352.324 223.652 352.324C223.3 352.324 222.988 352.36 222.716 352.432C222.452 352.496 222.16 352.596 221.84 352.732L221.468 351.892C221.812 351.74 222.172 351.628 222.548 351.556C222.924 351.484 223.312 351.448 223.712 351.448ZM235.043 351.568V358H234.095V353.896C234.095 353.728 234.099 353.552 234.107 353.368C234.123 353.184 234.139 353.004 234.155 352.828H234.119L232.019 358H231.131L229.091 352.828H229.055C229.071 353.004 229.079 353.184 229.079 353.368C229.087 353.552 229.091 353.74 229.091 353.932V358H228.143V351.568H229.547L231.575 356.74L233.639 351.568H235.043ZM238.392 351.568V358H237.336V351.568H238.392ZM237.876 349.156C238.036 349.156 238.176 349.212 238.296 349.324C238.424 349.428 238.488 349.596 238.488 349.828C238.488 350.052 238.424 350.22 238.296 350.332C238.176 350.444 238.036 350.5 237.876 350.5C237.7 350.5 237.552 350.444 237.432 350.332C237.312 350.22 237.252 350.052 237.252 349.828C237.252 349.596 237.312 349.428 237.432 349.324C237.552 349.212 237.7 349.156 237.876 349.156ZM241.726 351.568V354.244H245.218V351.568H246.274V358H245.218V355.132H241.726V358H240.67V351.568H241.726ZM249.606 351.568V354.244H253.098V351.568H254.154V358H253.098V355.132H249.606V358H248.55V351.568H249.606ZM257.487 351.568V358H256.431V351.568H257.487ZM256.971 349.156C257.131 349.156 257.271 349.212 257.391 349.324C257.519 349.428 257.583 349.596 257.583 349.828C257.583 350.052 257.519 350.22 257.391 350.332C257.271 350.444 257.131 350.5 256.971 350.5C256.795 350.5 256.647 350.444 256.527 350.332C256.407 350.22 256.347 350.052 256.347 349.828C256.347 349.596 256.407 349.428 256.527 349.324C256.647 349.212 256.795 349.156 256.971 349.156ZM264.659 358.12C264.091 358.12 263.583 358.004 263.135 357.772C262.695 357.54 262.347 357.18 262.091 356.692C261.843 356.204 261.719 355.58 261.719 354.82C261.719 354.028 261.851 353.384 262.115 352.888C262.379 352.392 262.735 352.028 263.183 351.796C263.639 351.564 264.155 351.448 264.731 351.448C265.059 351.448 265.375 351.484 265.679 351.556C265.983 351.62 266.231 351.7 266.423 351.796L266.099 352.672C265.907 352.6 265.683 352.532 265.427 352.468C265.171 352.404 264.931 352.372 264.707 352.372C264.275 352.372 263.919 352.464 263.639 352.648C263.359 352.832 263.151 353.104 263.015 353.464C262.879 353.824 262.811 354.272 262.811 354.808C262.811 355.32 262.879 355.756 263.015 356.116C263.151 356.476 263.355 356.748 263.627 356.932C263.899 357.116 264.239 357.208 264.647 357.208C264.999 357.208 265.307 357.172 265.571 357.1C265.843 357.028 266.091 356.94 266.315 356.836V357.772C266.099 357.884 265.859 357.968 265.595 358.024C265.339 358.088 265.027 358.12 264.659 358.12ZM270.569 351.448C271.121 351.448 271.593 351.568 271.985 351.808C272.385 352.048 272.689 352.388 272.897 352.828C273.113 353.26 273.221 353.768 273.221 354.352V354.988H268.817C268.833 355.716 269.017 356.272 269.369 356.656C269.729 357.032 270.229 357.22 270.869 357.22C271.277 357.22 271.637 357.184 271.949 357.112C272.269 357.032 272.597 356.92 272.933 356.776V357.7C272.605 357.844 272.281 357.948 271.961 358.012C271.641 358.084 271.261 358.12 270.821 358.12C270.213 358.12 269.673 357.996 269.201 357.748C268.737 357.5 268.373 357.132 268.109 356.644C267.853 356.148 267.725 355.544 267.725 354.832C267.725 354.128 267.841 353.524 268.073 353.02C268.313 352.516 268.645 352.128 269.069 351.856C269.501 351.584 270.001 351.448 270.569 351.448ZM270.557 352.312C270.053 352.312 269.653 352.476 269.357 352.804C269.069 353.124 268.897 353.572 268.841 354.148H272.117C272.117 353.78 272.061 353.46 271.949 353.188C271.837 352.916 271.665 352.704 271.433 352.552C271.209 352.392 270.917 352.312 270.557 352.312ZM278.158 351.448C278.95 351.448 279.586 351.724 280.066 352.276C280.554 352.828 280.798 353.66 280.798 354.772C280.798 355.5 280.686 356.116 280.462 356.62C280.246 357.116 279.938 357.492 279.538 357.748C279.146 357.996 278.682 358.12 278.146 358.12C277.818 358.12 277.526 358.076 277.27 357.988C277.014 357.9 276.794 357.788 276.61 357.652C276.434 357.508 276.282 357.352 276.154 357.184H276.082C276.098 357.32 276.114 357.492 276.13 357.7C276.146 357.908 276.154 358.088 276.154 358.24V360.88H275.098V351.568H275.962L276.106 352.444H276.154C276.282 352.26 276.434 352.092 276.61 351.94C276.794 351.788 277.01 351.668 277.258 351.58C277.514 351.492 277.814 351.448 278.158 351.448ZM277.966 352.336C277.534 352.336 277.186 352.42 276.922 352.588C276.658 352.748 276.466 352.992 276.346 353.32C276.226 353.648 276.162 354.064 276.154 354.568V354.772C276.154 355.3 276.21 355.748 276.322 356.116C276.434 356.484 276.622 356.764 276.886 356.956C277.158 357.148 277.526 357.244 277.99 357.244C278.382 357.244 278.702 357.136 278.95 356.92C279.206 356.704 279.394 356.412 279.514 356.044C279.642 355.668 279.706 355.24 279.706 354.76C279.706 354.024 279.562 353.436 279.274 352.996C278.994 352.556 278.558 352.336 277.966 352.336ZM285.205 351.448C285.757 351.448 286.229 351.568 286.621 351.808C287.021 352.048 287.325 352.388 287.533 352.828C287.749 353.26 287.857 353.768 287.857 354.352V354.988H283.453C283.469 355.716 283.653 356.272 284.005 356.656C284.365 357.032 284.865 357.22 285.505 357.22C285.913 357.22 286.273 357.184 286.585 357.112C286.905 357.032 287.233 356.92 287.569 356.776V357.7C287.241 357.844 286.917 357.948 286.597 358.012C286.277 358.084 285.897 358.12 285.457 358.12C284.849 358.12 284.309 357.996 283.837 357.748C283.373 357.5 283.009 357.132 282.745 356.644C282.489 356.148 282.361 355.544 282.361 354.832C282.361 354.128 282.477 353.524 282.709 353.02C282.949 352.516 283.281 352.128 283.705 351.856C284.137 351.584 284.637 351.448 285.205 351.448ZM285.193 352.312C284.689 352.312 284.289 352.476 283.993 352.804C283.705 353.124 283.533 353.572 283.477 354.148H286.753C286.753 353.78 286.697 353.46 286.585 353.188C286.473 352.916 286.301 352.704 286.069 352.552C285.845 352.392 285.553 352.312 285.193 352.312ZM294.51 351.568V357.112H295.446V360.232H294.426V358H289.95V360.232H288.942V357.112H289.458C289.826 356.6 290.13 356.044 290.37 355.444C290.618 354.836 290.802 354.204 290.922 353.548C291.05 352.884 291.118 352.224 291.126 351.568H294.51ZM292.062 352.396C292.03 352.94 291.946 353.504 291.81 354.088C291.674 354.664 291.498 355.216 291.282 355.744C291.074 356.272 290.83 356.728 290.55 357.112H293.49V352.396H292.062ZM302.539 354.772C302.539 355.308 302.467 355.784 302.323 356.2C302.187 356.608 301.987 356.956 301.723 357.244C301.467 357.532 301.151 357.752 300.775 357.904C300.407 358.048 299.995 358.12 299.539 358.12C299.115 358.12 298.723 358.048 298.363 357.904C298.003 357.752 297.691 357.532 297.427 357.244C297.163 356.956 296.955 356.608 296.803 356.2C296.659 355.784 296.587 355.308 296.587 354.772C296.587 354.06 296.707 353.46 296.947 352.972C297.187 352.476 297.531 352.1 297.979 351.844C298.427 351.58 298.959 351.448 299.575 351.448C300.159 351.448 300.671 351.58 301.111 351.844C301.559 352.1 301.907 352.476 302.155 352.972C302.411 353.46 302.539 354.06 302.539 354.772ZM297.679 354.772C297.679 355.276 297.743 355.716 297.871 356.092C298.007 356.46 298.215 356.744 298.495 356.944C298.775 357.144 299.131 357.244 299.563 357.244C299.995 357.244 300.351 357.144 300.631 356.944C300.911 356.744 301.115 356.46 301.243 356.092C301.379 355.716 301.447 355.276 301.447 354.772C301.447 354.26 301.379 353.824 301.243 353.464C301.107 353.104 300.899 352.828 300.619 352.636C300.347 352.436 299.991 352.336 299.551 352.336C298.895 352.336 298.419 352.552 298.123 352.984C297.827 353.416 297.679 354.012 297.679 354.772ZM309.625 353.188C309.625 353.588 309.505 353.9 309.265 354.124C309.025 354.348 308.717 354.5 308.341 354.58V354.628C308.741 354.684 309.089 354.828 309.385 355.06C309.681 355.284 309.829 355.636 309.829 356.116C309.829 356.388 309.777 356.64 309.673 356.872C309.577 357.104 309.425 357.304 309.217 357.472C309.009 357.64 308.741 357.772 308.413 357.868C308.085 357.956 307.689 358 307.225 358H304.453V351.568H307.213C307.669 351.568 308.077 351.62 308.437 351.724C308.805 351.82 309.093 351.988 309.301 352.228C309.517 352.46 309.625 352.78 309.625 353.188ZM308.737 356.116C308.737 355.748 308.597 355.484 308.317 355.324C308.037 355.164 307.625 355.084 307.081 355.084H305.509V357.148H307.105C307.633 357.148 308.037 357.072 308.317 356.92C308.597 356.76 308.737 356.492 308.737 356.116ZM308.557 353.32C308.557 353.016 308.445 352.796 308.221 352.66C308.005 352.516 307.649 352.444 307.153 352.444H305.509V354.208H306.961C307.481 354.208 307.877 354.136 308.149 353.992C308.421 353.848 308.557 353.624 308.557 353.32ZM312.603 355.492C312.603 355.564 312.599 355.668 312.591 355.804C312.591 355.932 312.587 356.072 312.579 356.224C312.571 356.368 312.563 356.508 312.555 356.644C312.547 356.772 312.539 356.876 312.531 356.956L315.975 351.568H317.271V358H316.287V354.208C316.287 354.08 316.287 353.912 316.287 353.704C316.295 353.496 316.303 353.292 316.311 353.092C316.319 352.884 316.327 352.728 316.335 352.624L312.915 358H311.607V351.568H312.603V355.492ZM328.269 351.568V357.124H329.205V360.22H328.149V358H319.557V351.568H320.613V357.112H323.385V351.568H324.441V357.112H327.225V351.568H328.269ZM333.108 351.46C333.892 351.46 334.472 351.632 334.848 351.976C335.224 352.32 335.412 352.868 335.412 353.62V358H334.644L334.44 357.088H334.392C334.208 357.32 334.016 357.516 333.816 357.676C333.624 357.828 333.4 357.94 333.144 358.012C332.896 358.084 332.592 358.12 332.232 358.12C331.848 358.12 331.5 358.052 331.188 357.916C330.884 357.78 330.644 357.572 330.468 357.292C330.292 357.004 330.204 356.644 330.204 356.212C330.204 355.572 330.456 355.08 330.96 354.736C331.464 354.384 332.24 354.192 333.288 354.16L334.38 354.124V353.74C334.38 353.204 334.264 352.832 334.032 352.624C333.8 352.416 333.472 352.312 333.048 352.312C332.712 352.312 332.392 352.364 332.088 352.468C331.784 352.564 331.5 352.676 331.236 352.804L330.912 352.012C331.192 351.86 331.524 351.732 331.908 351.628C332.292 351.516 332.692 351.46 333.108 351.46ZM333.42 354.892C332.62 354.924 332.064 355.052 331.752 355.276C331.448 355.5 331.296 355.816 331.296 356.224C331.296 356.584 331.404 356.848 331.62 357.016C331.844 357.184 332.128 357.268 332.472 357.268C333.016 357.268 333.468 357.12 333.828 356.824C334.188 356.52 334.368 356.056 334.368 355.432V354.856L333.42 354.892Z" fill="#66E19D"/>
<path d="M433 238V223C433 217.477 428.523 213 423 213H286" stroke="url(#paint5_linear_860_72696)"/>
<rect x="352" y="233" width="169" height="31" rx="4" fill="#1F302C"/>
<path d="M368.012 246.568H369.14L370.532 250.228C370.612 250.444 370.684 250.652 370.748 250.852C370.82 251.052 370.884 251.248 370.94 251.44C370.996 251.624 371.04 251.804 371.072 251.98H371.12C371.168 251.78 371.244 251.52 371.348 251.2C371.452 250.872 371.56 250.544 371.672 250.216L372.98 246.568H374.12L371.348 253.888C371.196 254.288 371.016 254.636 370.808 254.932C370.608 255.236 370.36 255.468 370.064 255.628C369.776 255.796 369.424 255.88 369.008 255.88C368.816 255.88 368.648 255.868 368.504 255.844C368.36 255.828 368.236 255.808 368.132 255.784V254.944C368.22 254.96 368.324 254.976 368.444 254.992C368.572 255.008 368.704 255.016 368.84 255.016C369.088 255.016 369.3 254.968 369.476 254.872C369.66 254.784 369.816 254.652 369.944 254.476C370.072 254.308 370.18 254.108 370.268 253.876L370.604 253.024L368.012 246.568ZM380.813 246.568V253H379.757V247.468H376.433V253H375.377V246.568H380.813ZM386.165 246.448C386.957 246.448 387.593 246.724 388.073 247.276C388.561 247.828 388.805 248.66 388.805 249.772C388.805 250.5 388.693 251.116 388.469 251.62C388.253 252.116 387.945 252.492 387.545 252.748C387.153 252.996 386.689 253.12 386.153 253.12C385.825 253.12 385.533 253.076 385.277 252.988C385.021 252.9 384.801 252.788 384.617 252.652C384.441 252.508 384.289 252.352 384.161 252.184H384.089C384.105 252.32 384.121 252.492 384.137 252.7C384.153 252.908 384.161 253.088 384.161 253.24V255.88H383.105V246.568H383.969L384.113 247.444H384.161C384.289 247.26 384.441 247.092 384.617 246.94C384.801 246.788 385.017 246.668 385.265 246.58C385.521 246.492 385.821 246.448 386.165 246.448ZM385.973 247.336C385.541 247.336 385.193 247.42 384.929 247.588C384.665 247.748 384.473 247.992 384.353 248.32C384.233 248.648 384.169 249.064 384.161 249.568V249.772C384.161 250.3 384.217 250.748 384.329 251.116C384.441 251.484 384.629 251.764 384.893 251.956C385.165 252.148 385.533 252.244 385.997 252.244C386.389 252.244 386.709 252.136 386.957 251.92C387.213 251.704 387.401 251.412 387.521 251.044C387.649 250.668 387.713 250.24 387.713 249.76C387.713 249.024 387.569 248.436 387.281 247.996C387.001 247.556 386.565 247.336 385.973 247.336ZM393.164 246.46C393.948 246.46 394.528 246.632 394.904 246.976C395.28 247.32 395.468 247.868 395.468 248.62V253H394.7L394.496 252.088H394.448C394.264 252.32 394.072 252.516 393.872 252.676C393.68 252.828 393.456 252.94 393.2 253.012C392.952 253.084 392.648 253.12 392.288 253.12C391.904 253.12 391.556 253.052 391.244 252.916C390.94 252.78 390.7 252.572 390.524 252.292C390.348 252.004 390.26 251.644 390.26 251.212C390.26 250.572 390.512 250.08 391.016 249.736C391.52 249.384 392.296 249.192 393.344 249.16L394.436 249.124V248.74C394.436 248.204 394.32 247.832 394.088 247.624C393.856 247.416 393.528 247.312 393.104 247.312C392.768 247.312 392.448 247.364 392.144 247.468C391.84 247.564 391.556 247.676 391.292 247.804L390.968 247.012C391.248 246.86 391.58 246.732 391.964 246.628C392.348 246.516 392.748 246.46 393.164 246.46ZM393.476 249.892C392.676 249.924 392.12 250.052 391.808 250.276C391.504 250.5 391.352 250.816 391.352 251.224C391.352 251.584 391.46 251.848 391.676 252.016C391.9 252.184 392.184 252.268 392.528 252.268C393.072 252.268 393.524 252.12 393.884 251.824C394.244 251.52 394.424 251.056 394.424 250.432V249.856L393.476 249.892ZM402.867 248.188C402.867 248.588 402.747 248.9 402.507 249.124C402.267 249.348 401.959 249.5 401.583 249.58V249.628C401.983 249.684 402.331 249.828 402.627 250.06C402.923 250.284 403.071 250.636 403.071 251.116C403.071 251.388 403.019 251.64 402.915 251.872C402.819 252.104 402.667 252.304 402.459 252.472C402.251 252.64 401.983 252.772 401.655 252.868C401.327 252.956 400.931 253 400.467 253H397.695V246.568H400.455C400.911 246.568 401.319 246.62 401.679 246.724C402.047 246.82 402.335 246.988 402.543 247.228C402.759 247.46 402.867 247.78 402.867 248.188ZM401.979 251.116C401.979 250.748 401.839 250.484 401.559 250.324C401.279 250.164 400.867 250.084 400.323 250.084H398.751V252.148H400.347C400.875 252.148 401.279 252.072 401.559 251.92C401.839 251.76 401.979 251.492 401.979 251.116ZM401.799 248.32C401.799 248.016 401.687 247.796 401.463 247.66C401.247 247.516 400.891 247.444 400.395 247.444H398.751V249.208H400.203C400.723 249.208 401.119 249.136 401.391 248.992C401.663 248.848 401.799 248.624 401.799 248.32ZM409.745 253H408.677V247.444H406.781C406.701 248.46 406.601 249.328 406.481 250.048C406.361 250.76 406.209 251.34 406.025 251.788C405.841 252.236 405.621 252.564 405.365 252.772C405.109 252.98 404.809 253.084 404.465 253.084C404.361 253.084 404.257 253.076 404.153 253.06C404.057 253.052 403.977 253.032 403.913 253V252.208C403.961 252.224 404.013 252.236 404.069 252.244C404.125 252.252 404.181 252.256 404.237 252.256C404.413 252.256 404.573 252.184 404.717 252.04C404.861 251.896 404.989 251.676 405.101 251.38C405.221 251.084 405.329 250.712 405.425 250.264C405.521 249.808 405.605 249.272 405.677 248.656C405.749 248.04 405.813 247.344 405.869 246.568H409.745V253ZM413.082 246.568V253H412.026V246.568H413.082ZM412.566 244.156C412.726 244.156 412.866 244.212 412.986 244.324C413.114 244.428 413.178 244.596 413.178 244.828C413.178 245.052 413.114 245.22 412.986 245.332C412.866 245.444 412.726 245.5 412.566 245.5C412.39 245.5 412.242 245.444 412.122 245.332C412.002 245.22 411.942 245.052 411.942 244.828C411.942 244.596 412.002 244.428 412.122 244.324C412.242 244.212 412.39 244.156 412.566 244.156ZM416.416 246.568V249.244H419.908V246.568H420.964V253H419.908V250.132H416.416V253H415.36V246.568H416.416ZM424.297 246.568V249.244H427.789V246.568H428.845V253H427.789V250.132H424.297V253H423.241V246.568H424.297ZM431.517 253H430.293L432.129 250.3C431.881 250.236 431.641 250.136 431.409 250C431.177 249.856 430.989 249.66 430.845 249.412C430.701 249.156 430.629 248.84 430.629 248.464C430.629 247.848 430.837 247.38 431.253 247.06C431.669 246.732 432.221 246.568 432.909 246.568H435.789V253H434.733V250.444H433.173L431.517 253ZM431.649 248.476C431.649 248.844 431.785 249.12 432.057 249.304C432.337 249.48 432.725 249.568 433.221 249.568H434.733V247.444H433.017C432.529 247.444 432.177 247.54 431.961 247.732C431.753 247.924 431.649 248.172 431.649 248.476ZM444.183 246.568H445.335L442.587 249.664L445.563 253H444.339L441.435 249.736V253H440.379V246.568H441.435V249.688L444.183 246.568ZM452.328 249.772C452.328 250.308 452.256 250.784 452.112 251.2C451.976 251.608 451.776 251.956 451.512 252.244C451.256 252.532 450.94 252.752 450.564 252.904C450.196 253.048 449.784 253.12 449.328 253.12C448.904 253.12 448.512 253.048 448.152 252.904C447.792 252.752 447.48 252.532 447.216 252.244C446.952 251.956 446.744 251.608 446.592 251.2C446.448 250.784 446.376 250.308 446.376 249.772C446.376 249.06 446.496 248.46 446.736 247.972C446.976 247.476 447.32 247.1 447.768 246.844C448.216 246.58 448.748 246.448 449.364 246.448C449.948 246.448 450.46 246.58 450.9 246.844C451.348 247.1 451.696 247.476 451.944 247.972C452.2 248.46 452.328 249.06 452.328 249.772ZM447.468 249.772C447.468 250.276 447.532 250.716 447.66 251.092C447.796 251.46 448.004 251.744 448.284 251.944C448.564 252.144 448.92 252.244 449.352 252.244C449.784 252.244 450.14 252.144 450.42 251.944C450.7 251.744 450.904 251.46 451.032 251.092C451.168 250.716 451.236 250.276 451.236 249.772C451.236 249.26 451.168 248.824 451.032 248.464C450.896 248.104 450.688 247.828 450.408 247.636C450.136 247.436 449.78 247.336 449.34 247.336C448.684 247.336 448.208 247.552 447.912 247.984C447.616 248.416 447.468 249.012 447.468 249.772ZM455.298 246.568V249.244H458.79V246.568H459.846V253H458.79V250.132H455.298V253H454.242V246.568H455.298ZM466.562 247.456H464.462V253H463.418V247.456H461.342V246.568H466.562V247.456ZM470.436 246.448C470.988 246.448 471.46 246.568 471.852 246.808C472.252 247.048 472.556 247.388 472.764 247.828C472.98 248.26 473.088 248.768 473.088 249.352V249.988H468.684C468.7 250.716 468.884 251.272 469.236 251.656C469.596 252.032 470.096 252.22 470.736 252.22C471.144 252.22 471.504 252.184 471.816 252.112C472.136 252.032 472.464 251.92 472.8 251.776V252.7C472.472 252.844 472.148 252.948 471.828 253.012C471.508 253.084 471.128 253.12 470.688 253.12C470.08 253.12 469.54 252.996 469.068 252.748C468.604 252.5 468.24 252.132 467.976 251.644C467.72 251.148 467.592 250.544 467.592 249.832C467.592 249.128 467.708 248.524 467.94 248.02C468.18 247.516 468.512 247.128 468.936 246.856C469.368 246.584 469.868 246.448 470.436 246.448ZM470.424 247.312C469.92 247.312 469.52 247.476 469.224 247.804C468.936 248.124 468.764 248.572 468.708 249.148H471.984C471.984 248.78 471.928 248.46 471.816 248.188C471.704 247.916 471.532 247.704 471.3 247.552C471.076 247.392 470.784 247.312 470.424 247.312ZM476.021 246.568V249.244H479.513V246.568H480.569V253H479.513V250.132H476.021V253H474.965V246.568H476.021ZM487.286 247.456H485.186V253H484.142V247.456H482.066V246.568H487.286V247.456ZM494.268 249.772C494.268 250.308 494.196 250.784 494.052 251.2C493.916 251.608 493.716 251.956 493.452 252.244C493.196 252.532 492.88 252.752 492.504 252.904C492.136 253.048 491.724 253.12 491.268 253.12C490.844 253.12 490.452 253.048 490.092 252.904C489.732 252.752 489.42 252.532 489.156 252.244C488.892 251.956 488.684 251.608 488.532 251.2C488.388 250.784 488.316 250.308 488.316 249.772C488.316 249.06 488.436 248.46 488.676 247.972C488.916 247.476 489.26 247.1 489.708 246.844C490.156 246.58 490.688 246.448 491.304 246.448C491.888 246.448 492.4 246.58 492.84 246.844C493.288 247.1 493.636 247.476 493.884 247.972C494.14 248.46 494.268 249.06 494.268 249.772ZM489.408 249.772C489.408 250.276 489.472 250.716 489.6 251.092C489.736 251.46 489.944 251.744 490.224 251.944C490.504 252.144 490.86 252.244 491.292 252.244C491.724 252.244 492.08 252.144 492.36 251.944C492.64 251.744 492.844 251.46 492.972 251.092C493.108 250.716 493.176 250.276 493.176 249.772C493.176 249.26 493.108 248.824 492.972 248.464C492.836 248.104 492.628 247.828 492.348 247.636C492.076 247.436 491.72 247.336 491.28 247.336C490.624 247.336 490.148 247.552 489.852 247.984C489.556 248.416 489.408 249.012 489.408 249.772ZM503.082 246.568V253H502.134V248.896C502.134 248.728 502.138 248.552 502.146 248.368C502.162 248.184 502.178 248.004 502.194 247.828H502.158L500.058 253H499.17L497.13 247.828H497.094C497.11 248.004 497.118 248.184 497.118 248.368C497.126 248.552 497.13 248.74 497.13 248.932V253H496.182V246.568H497.586L499.614 251.74L501.678 246.568H503.082Z" fill="#66E19D"/>
<g filter="url(#filter2_f_860_72696)">
<circle cx="362" cy="213" r="8" fill="#30CC71" fill-opacity="0.4"/>
</g>
<circle cx="362" cy="213" r="4" fill="#30CC71"/>
<g filter="url(#filter3_di_860_72696)">
<path d="M304.054 182.456C305.874 185.572 305.874 189.428 304.054 192.544L278.645 236.044C276.852 239.113 273.565 241 270.01 241H218.99C215.435 241 212.148 239.113 210.355 236.044L184.946 192.544C183.126 189.428 183.126 185.572 184.946 182.456L210.355 138.956C212.148 135.887 215.435 134 218.99 134H270.01C273.565 134 276.852 135.887 278.645 138.956L304.054 182.456Z" fill="#181818"/>
<path d="M303.622 192.292L278.213 235.792C276.51 238.707 273.387 240.5 270.01 240.5H218.99C215.613 240.5 212.49 238.707 210.787 235.792L185.378 192.292C183.649 189.331 183.649 185.669 185.378 182.708L210.787 139.208C212.49 136.293 215.613 134.5 218.99 134.5H270.01C273.387 134.5 276.51 136.293 278.213 139.208L303.622 182.708C305.351 185.669 305.351 189.331 303.622 192.292Z" stroke="url(#paint6_linear_860_72696)"/>
</g>
<path d="M250.848 175.493L243.355 182.794L253.07 192.265L260.563 184.965L250.848 175.493Z" fill="#1A7C43"/>
<path d="M253.476 165.975L236.208 182.807L228.715 190.108V175.505L245.984 158.674L253.477 165.975H253.476ZM235.802 209.096L253.071 192.263L260.564 184.962V199.565L243.295 216.397L235.802 209.096Z" fill="#30CC71"/>
<path d="M236.208 182.809L228.715 190.109L238.43 199.581L245.923 192.28L236.208 182.809Z" fill="#1A7C43"/>
<defs>
<filter id="filter0_f_860_72696" x="246" y="88" width="20" height="20" filterUnits="userSpaceOnUse" color-interpolation-filters="sRGB">
<feFlood flood-opacity="0" result="BackgroundImageFix"/>
<feBlend mode="normal" in="SourceGraphic" in2="BackgroundImageFix" result="shape"/>
<feGaussianBlur stdDeviation="1" result="effect1_foregroundBlur_860_72696"/>
</filter>
<filter id="filter1_f_860_72696" x="172" y="206" width="20" height="20" filterUnits="userSpaceOnUse" color-interpolation-filters="sRGB">
<feFlood flood-opacity="0" result="BackgroundImageFix"/>
<feBlend mode="normal" in="SourceGraphic" in2="BackgroundImageFix" result="shape"/>
<feGaussianBlur stdDeviation="1" result="effect1_foregroundBlur_860_72696"/>
</filter>
<filter id="filter2_f_860_72696" x="352" y="203" width="20" height="20" filterUnits="userSpaceOnUse" color-interpolation-filters="sRGB">
<feFlood flood-opacity="0" result="BackgroundImageFix"/>
<feBlend mode="normal" in="SourceGraphic" in2="BackgroundImageFix" result="shape"/>
<feGaussianBlur stdDeviation="1" result="effect1_foregroundBlur_860_72696"/>
</filter>
<filter id="filter3_di_860_72696" x="133.58" y="84" width="221.84" height="207" filterUnits="userSpaceOnUse" color-interpolation-filters="sRGB">
<feFlood flood-opacity="0" result="BackgroundImageFix"/>
<feColorMatrix in="SourceAlpha" type="matrix" values="0 0 0 0 0 0 0 0 0 0 0 0 0 0 0 0 0 0 127 0" result="hardAlpha"/>
<feOffset/>
<feGaussianBlur stdDeviation="25"/>
<feComposite in2="hardAlpha" operator="out"/>
<feColorMatrix type="matrix" values="0 0 0 0 0.188235 0 0 0 0 0.8 0 0 0 0 0.443137 0 0 0 0.3 0"/>
<feBlend mode="normal" in2="BackgroundImageFix" result="effect1_dropShadow_860_72696"/>
<feBlend mode="normal" in="SourceGraphic" in2="effect1_dropShadow_860_72696" result="shape"/>
<feColorMatrix in="SourceAlpha" type="matrix" values="0 0 0 0 0 0 0 0 0 0 0 0 0 0 0 0 0 0 127 0" result="hardAlpha"/>
<feOffset dy="30"/>
<feGaussianBlur stdDeviation="15"/>
<feComposite in2="hardAlpha" operator="arithmetic" k2="-1" k3="1"/>
<feColorMatrix type="matrix" values="0 0 0 0 0.503438 0 0 0 0 0.977507 0 0 0 0 0.700966 0 0 0 0.04 0"/>
<feBlend mode="normal" in2="shape" result="effect2_innerShadow_860_72696"/>
</filter>
<linearGradient id="paint0_linear_860_72696" x1="102.394" y1="236.65" x2="221.92" y2="236.532" gradientUnits="userSpaceOnUse">
<stop stop-color="white" stop-opacity="0.1"/>
<stop offset="0.05" stop-color="#59F499" stop-opacity="0.16"/>
<stop offset="0.18" stop-color="#30CC71" stop-opacity="0.401399"/>
<stop offset="0.305" stop-color="#30CC71"/>
<stop offset="0.465" stop-color="#30CC71" stop-opacity="0.4"/>
<stop offset="0.605" stop-color="#52B69A" stop-opacity="0.16"/>
<stop offset="0.86" stop-color="#52B69A" stop-opacity="0.02"/>
<stop offset="0.996703" stop-color="white" stop-opacity="0"/>
</linearGradient>
<linearGradient id="paint1_linear_860_72696" x1="250.352" y1="232.462" x2="294.006" y2="232.449" gradientUnits="userSpaceOnUse">
<stop stop-color="white" stop-opacity="0.04"/>
<stop offset="0.09" stop-color="#52B69A"/>
<stop offset="0.19" stop-color="#2BBC93" stop-opacity="0.8"/>
<stop offset="0.55" stop-color="#41D0A8" stop-opacity="0.7"/>
<stop offset="0.635" stop-color="#30CC71" stop-opacity="0.8"/>
<stop offset="0.76" stop-color="#52B69A" stop-opacity="0.76"/>
<stop offset="0.82" stop-color="#52B69A" stop-opacity="0.06"/>
<stop offset="0.996703" stop-color="white" stop-opacity="0"/>
</linearGradient>
<linearGradient id="paint2_linear_860_72696" x1="284.805" y1="212.955" x2="455.26" y2="212.611" gradientUnits="userSpaceOnUse">
<stop stop-color="#30CC71"/>
<stop offset="0.0777673" stop-color="#30CC71"/>
<stop offset="0.320104" stop-color="#30CC71" stop-opacity="0.2"/>
<stop offset="0.382295" stop-color="#1DA254" stop-opacity="0.3"/>
<stop offset="0.451095" stop-color="#1EB05B" stop-opacity="0.2"/>
<stop offset="0.708389" stop-color="#52B69A" stop-opacity="0.1"/>
<stop offset="0.827999" stop-color="#52B69A" stop-opacity="0.1"/>
<stop offset="0.996703" stop-color="white" stop-opacity="0"/>
</linearGradient>
<linearGradient id="paint3_linear_860_72696" x1="154.68" y1="320.912" x2="221.199" y2="320.854" gradientUnits="userSpaceOnUse">
<stop stop-color="white" stop-opacity="0.1"/>
<stop offset="0.035" stop-color="#30CC71" stop-opacity="0.2"/>
<stop offset="0.1" stop-color="#56E993" stop-opacity="0.4"/>
<stop offset="0.23" stop-color="#30CC71"/>
<stop offset="0.425" stop-color="#0F9949" stop-opacity="0.7"/>
<stop offset="0.47" stop-color="#52B69A" stop-opacity="0.22"/>
<stop offset="0.935" stop-color="#38B7DD" stop-opacity="0.4"/>
</linearGradient>
<linearGradient id="paint4_linear_860_72696" x1="251.352" y1="434.259" x2="295.006" y2="434.245" gradientUnits="userSpaceOnUse">
<stop stop-color="white" stop-opacity="0.05"/>
<stop offset="0.22" stop-color="#76F9AC" stop-opacity="0.3"/>
<stop offset="0.345" stop-color="#51E28D" stop-opacity="0.8"/>
<stop offset="0.48" stop-color="#30CC71"/>
<stop offset="0.55" stop-color="#51E28D" stop-opacity="0.3"/>
<stop offset="0.675" stop-color="#52B69A" stop-opacity="0.5"/>
<stop offset="0.82" stop-color="#52B69A" stop-opacity="0.1"/>
<stop offset="0.996703" stop-color="white" stop-opacity="0"/>
</linearGradient>
<linearGradient id="paint5_linear_860_72696" x1="308.234" y1="259.014" x2="461.017" y2="258.317" gradientUnits="userSpaceOnUse">
<stop stop-color="white" stop-opacity="0.04"/>
<stop offset="0.15" stop-color="#7EFDB3" stop-opacity="0.1"/>
<stop offset="0.27" stop-color="#4EEB8F" stop-opacity="0.3"/>
<stop offset="0.43" stop-color="#30CC71"/>
<stop offset="0.525" stop-color="#4EEB8F" stop-opacity="0.6"/>
<stop offset="0.645" stop-color="#52B69A" stop-opacity="0.2"/>
<stop offset="0.755" stop-color="#52B69A" stop-opacity="0.1"/>
<stop offset="0.996703" stop-color="white" stop-opacity="0"/>
</linearGradient>
<linearGradient id="paint6_linear_860_72696" x1="182" y1="124.192" x2="319.762" y2="134.973" gradientUnits="userSpaceOnUse">
<stop stop-color="#BEFFC9"/>
<stop offset="0.529249" stop-color="#30CC71"/>
<stop offset="1" stop-color="#0DBE58"/>
</linearGradient>
</defs>
</svg>
