<svg width="2205" height="437" viewBox="0 0 2205 437" fill="none" xmlns="http://www.w3.org/2000/svg">
<path d="M145 142.054L95.9102 191.127L159.555 254.794L208.645 205.721L145 142.054Z" fill="url(#paint0_linear_8_76)"/>
<path d="M162.224 78.0762L49.0942 191.219L0.00488281 240.296V142.137L113.141 29L162.231 78.0762H162.224ZM46.4349 367.924L159.571 254.781L208.661 205.704V303.863L95.5242 417L46.4349 367.924Z" fill="url(#paint1_linear_8_76)"/>
<path d="M49.0902 191.228L0 240.301L63.645 303.969L112.735 254.895L49.0902 191.228Z" fill="url(#paint2_linear_8_76)"/>
<path d="M519.55 353.2C499.95 353.2 481.167 350.633 463.2 345.5C445.233 340.133 430.767 333.25 419.8 324.85L439.05 282.15C449.55 289.616 461.917 295.8 476.15 300.7C490.617 305.366 505.2 307.7 519.9 307.7C531.1 307.7 540.083 306.65 546.85 304.55C553.85 302.216 558.983 299.066 562.25 295.1C565.517 291.133 567.15 286.583 567.15 281.45C567.15 274.916 564.583 269.783 559.45 266.05C554.317 262.083 547.55 258.933 539.15 256.6C530.75 254.033 521.417 251.7 511.15 249.6C501.117 247.266 490.967 244.466 480.7 241.2C470.667 237.933 461.45 233.733 453.05 228.6C444.65 223.466 437.767 216.7 432.4 208.3C427.267 199.9 424.7 189.166 424.7 176.1C424.7 162.1 428.433 149.383 435.9 137.95C443.6 126.283 455.033 117.066 470.2 110.3C485.6 103.3 504.85 99.7998 527.95 99.7998C543.35 99.7998 558.517 101.666 573.45 105.4C588.383 108.9 601.567 114.266 613 121.5L595.5 164.55C584.067 158.016 572.633 153.233 561.2 150.2C549.767 146.933 538.567 145.3 527.6 145.3C516.633 145.3 507.65 146.583 500.65 149.15C493.65 151.716 488.633 155.1 485.6 159.3C482.567 163.266 481.05 167.933 481.05 173.3C481.05 179.6 483.617 184.733 488.75 188.7C493.883 192.433 500.65 195.466 509.05 197.8C517.45 200.133 526.667 202.466 536.7 204.8C546.967 207.133 557.117 209.816 567.15 212.85C577.417 215.883 586.75 219.966 595.15 225.1C603.55 230.233 610.317 237 615.45 245.4C620.817 253.8 623.5 264.416 623.5 277.25C623.5 291.016 619.65 303.616 611.95 315.05C604.25 326.483 592.7 335.7 577.3 342.7C562.133 349.7 542.883 353.2 519.55 353.2ZM781.243 353.2C761.877 353.2 743.91 350.05 727.343 343.75C711.01 337.45 696.777 328.583 684.643 317.15C672.743 305.716 663.41 292.3 656.643 276.9C650.11 261.5 646.843 244.7 646.843 226.5C646.843 208.3 650.11 191.5 656.643 176.1C663.41 160.7 672.86 147.283 684.993 135.85C697.127 124.416 711.36 115.55 727.693 109.25C744.027 102.95 761.76 99.7998 780.893 99.7998C800.26 99.7998 817.993 102.95 834.093 109.25C850.427 115.55 864.543 124.416 876.443 135.85C888.577 147.283 898.027 160.7 904.793 176.1C911.56 191.266 914.943 208.066 914.943 226.5C914.943 244.7 911.56 261.616 904.793 277.25C898.027 292.65 888.577 306.066 876.443 317.5C864.543 328.7 850.427 337.45 834.093 343.75C817.993 350.05 800.377 353.2 781.243 353.2ZM780.893 304.9C791.86 304.9 801.893 303.033 810.993 299.3C820.327 295.566 828.493 290.2 835.493 283.2C842.493 276.2 847.86 267.916 851.593 258.35C855.56 248.783 857.543 238.166 857.543 226.5C857.543 214.833 855.56 204.216 851.593 194.65C847.86 185.083 842.493 176.8 835.493 169.8C828.727 162.8 820.677 157.433 811.343 153.7C802.01 149.966 791.86 148.1 780.893 148.1C769.927 148.1 759.777 149.966 750.443 153.7C741.343 157.433 733.293 162.8 726.293 169.8C719.293 176.8 713.81 185.083 709.843 194.65C706.11 204.216 704.243 214.833 704.243 226.5C704.243 237.933 706.11 248.55 709.843 258.35C713.81 267.916 719.177 276.2 725.943 283.2C732.943 290.2 741.11 295.566 750.443 299.3C759.777 303.033 769.927 304.9 780.893 304.9ZM957.556 349V104H1004.46L1108.76 276.9H1083.91L1186.46 104H1233.01L1233.71 349H1180.51L1180.16 185.55H1189.96L1108.06 323.1H1082.51L998.856 185.55H1010.76V349H957.556ZM1291.83 349V104H1338.73L1443.03 276.9H1418.18L1520.73 104H1567.28L1567.98 349H1514.78L1514.43 185.55H1524.23L1442.33 323.1H1416.78L1333.13 185.55H1345.03V349H1291.83ZM1678.26 202.7H1796.21V246.8H1678.26V202.7ZM1682.46 303.5H1815.81V349H1626.11V104H1811.26V149.5H1682.46V303.5ZM1860.93 349V104H1966.98C1988.91 104 2007.81 107.616 2023.68 114.85C2039.54 121.85 2051.79 132 2060.43 145.3C2069.06 158.6 2073.38 174.466 2073.38 192.9C2073.38 211.1 2069.06 226.85 2060.43 240.15C2051.79 253.216 2039.54 263.25 2023.68 270.25C2007.81 277.25 1988.91 280.75 1966.98 280.75H1892.43L1917.63 255.9V349H1860.93ZM2016.67 349L1955.43 260.1H2015.98L2077.93 349H2016.67ZM1917.63 262.2L1892.43 235.6H1963.83C1981.33 235.6 1994.39 231.866 2003.03 224.4C2011.66 216.7 2015.98 206.2 2015.98 192.9C2015.98 179.366 2011.66 168.866 2003.03 161.4C1994.39 153.933 1981.33 150.2 1963.83 150.2H1892.43L1917.63 123.25V262.2ZM2118.3 349V104H2175V349H2118.3Z" fill="white"/>
<path fill-rule="evenodd" clip-rule="evenodd" d="M2189.96 37.4456L2178.1 8.52771L2149.18 20.3907L2132.53 60.2L2144.39 89.1184L2173.31 77.2556L2189.96 37.4456Z" fill="url(#paint3_linear_8_76)"/>
<path fill-rule="evenodd" clip-rule="evenodd" d="M801.549 208.694L780.694 188.16L760.16 209.015L760.473 249.417L781.327 269.951L801.862 249.097L801.549 208.694Z" fill="url(#paint4_linear_8_76)"/>
<defs>
<linearGradient id="paint0_linear_8_76" x1="183.262" y1="229.066" x2="122.36" y2="168.164" gradientUnits="userSpaceOnUse">
<stop offset="0.02" stop-color="#1EA562"/>
<stop offset="0.18" stop-color="#27B76C"/>
<stop offset="0.71" stop-color="#30CC71"/>
<stop offset="1" stop-color="#38D97A"/>
</linearGradient>
<linearGradient id="paint1_linear_8_76" x1="-11.4861" y1="383.394" x2="213.52" y2="71.7857" gradientUnits="userSpaceOnUse">
<stop stop-color="#30CC71"/>
<stop offset="0.44" stop-color="#30D980"/>
<stop offset="0.8" stop-color="#26E389"/>
<stop offset="1" stop-color="#1DE88E"/>
</linearGradient>
<linearGradient id="paint2_linear_8_76" x1="25.6835" y1="216.999" x2="86.5855" y2="277.901" gradientUnits="userSpaceOnUse">
<stop offset="0.02" stop-color="#1EA562"/>
<stop offset="0.18" stop-color="#27B76C"/>
<stop offset="0.71" stop-color="#30CC71"/>
<stop offset="1" stop-color="#38D97A"/>
</linearGradient>
<linearGradient id="paint3_linear_8_76" x1="2163.24" y1="10.5818" x2="2162.02" y2="89.3914" gradientUnits="userSpaceOnUse">
<stop stop-color="#30CC71"/>
<stop offset="1" stop-color="#1FC486"/>
</linearGradient>
<linearGradient id="paint4_linear_8_76" x1="768.663" y1="195.393" x2="796.61" y2="263.699" gradientUnits="userSpaceOnUse">
<stop stop-color="#30CC71"/>
<stop offset="1" stop-color="#1FC486"/>
</linearGradient>
</defs>
</svg>
