<svg width="119" height="22" viewBox="0 0 119 22" fill="none" xmlns="http://www.w3.org/2000/svg">
<path fill-rule="evenodd" clip-rule="evenodd" d="M8.26027 1.69245C7.39653 2.55497 6.71987 3.1921 6.67425 3.18569C6.62659 3.17902 6.62003 3.18575 6.65793 3.20256C6.69577 3.21935 5.46228 4.49008 3.58121 6.37212C1.85424 8.09993 0.385115 9.60217 0.31649 9.7104C0.000600554 10.2085 -0.0893501 10.9042 0.0944428 11.4273C0.146442 11.5751 0.276164 11.8304 0.38274 11.9945C0.489366 12.1587 0.571889 12.3101 0.566229 12.3309C0.560519 12.3518 0.578408 12.3632 0.605899 12.3562C0.675737 12.3385 2.22602 13.8904 2.19263 13.9445C2.17766 13.9686 2.18904 13.9822 2.21788 13.9745C2.28789 13.956 9.09822 20.7637 9.06447 20.8184C9.04995 20.8419 9.06148 20.8549 9.09008 20.8472C9.11868 20.8395 9.28671 20.975 9.46348 21.1484L9.78483 21.4636L10.6659 20.5804C11.1506 20.0945 11.547 19.674 11.547 19.646C11.547 19.618 9.61983 17.6666 7.26429 15.3094C4.90878 12.9523 2.97899 10.9966 2.9759 10.9636C2.96868 10.8861 2.96868 10.7161 2.9759 10.6488C2.97899 10.62 4.91444 8.65991 7.27692 6.29314C9.63938 3.92638 11.5723 1.98308 11.5723 1.97479C11.5723 1.96646 11.4984 1.88848 11.4081 1.80145C11.3177 1.71443 11.2514 1.61761 11.2607 1.58623C11.27 1.5549 11.2612 1.54555 11.2412 1.56551C11.1968 1.60998 10.8146 1.24169 10.8483 1.18686C10.8615 1.16533 10.8498 1.15396 10.8223 1.16159C10.7947 1.16922 10.5459 0.953339 10.2694 0.681769L9.76668 0.188049L8.26027 1.69245ZM14.9898 5.46942C14.4999 5.95713 14.099 6.37592 14.099 6.40006C14.099 6.42417 14.1329 6.47202 14.1743 6.50639C14.2157 6.54075 14.2349 6.59249 14.217 6.62145C14.1991 6.65037 14.2072 6.66005 14.2349 6.64292C14.2626 6.62579 14.6016 6.93143 14.9881 7.3221C15.3746 7.7128 15.7452 8.08144 15.8117 8.14137C16.0518 8.35766 16.297 8.64282 16.2834 8.68983C16.2758 8.71625 16.2893 8.72559 16.3135 8.71064C16.3769 8.67148 17.9454 10.2466 17.9062 10.31C17.887 10.3411 17.8978 10.348 17.9322 10.3268C18.0363 10.2625 18.2938 10.6012 18.2926 10.8009C18.2916 10.9767 18.1739 11.1848 18.0871 11.1644C18.0477 11.1551 18.0334 11.1655 18.0553 11.1874C18.1071 11.2393 15.7125 13.6359 15.6484 13.5962C15.6215 13.5796 15.6138 13.5892 15.6313 13.6175C15.6488 13.6459 15.5216 13.8065 15.3485 13.9745C15.1755 14.1426 14.8188 14.4977 14.5558 14.7636L14.0778 15.2473L14.6316 15.7827C14.9363 16.0772 15.3515 16.4803 15.5545 16.6784L15.9234 17.0387L18.3955 14.5655C21.2764 11.6833 21.1871 11.7986 21.2165 10.9155C21.236 10.3241 21.1631 10.0155 20.922 9.66832C20.8235 9.52667 16.2057 4.8661 15.8974 4.59721C15.8882 4.58922 15.4798 4.98168 14.9898 5.46942Z" fill="white"/>
<path d="M31.416 17.4872V4.85129H36.7411C38.089 4.85129 39.2743 5.11604 40.2972 5.64555C41.3322 6.17505 42.1325 6.91515 42.6981 7.86585C43.2757 8.81655 43.5645 9.91768 43.5645 11.1692C43.5645 12.4208 43.2757 13.5219 42.6981 14.4726C42.1325 15.4233 41.3322 16.1634 40.2972 16.6929C39.2743 17.2224 38.089 17.4872 36.7411 17.4872H31.416ZM33.2211 15.9167H36.6328C37.6798 15.9167 38.5824 15.7182 39.3405 15.321C40.1107 14.9239 40.7064 14.3703 41.1276 13.6603C41.5488 12.9383 41.7594 12.1079 41.7594 11.1692C41.7594 10.2185 41.5488 9.38818 41.1276 8.67816C40.7064 7.96814 40.1107 7.41457 39.3405 7.01744C38.5824 6.62031 37.6798 6.42175 36.6328 6.42175H33.2211V15.9167ZM44.2398 17.4872L49.962 4.85129H51.7491L57.4894 17.4872H55.594L50.4855 5.86216H51.2076L46.099 17.4872H44.2398ZM46.6767 14.3282L47.1641 12.8841H54.2763L54.7998 14.3282H46.6767ZM59.3744 17.4872V4.85129H64.3024C65.4096 4.85129 66.3543 5.02578 67.1365 5.37478C67.9187 5.72377 68.5204 6.2292 68.9416 6.89108C69.3628 7.55296 69.5734 8.3412 69.5734 9.2558C69.5734 10.1704 69.3628 10.9586 68.9416 11.6205C68.5204 12.2704 67.9187 12.7698 67.1365 13.1188C66.3543 13.4678 65.4096 13.6423 64.3024 13.6423H60.3673L61.1796 12.8119V17.4872H59.3744ZM67.8224 17.4872L64.6093 12.9022H66.5408L69.79 17.4872H67.8224ZM61.1796 12.9924L60.3673 12.1079H64.2483C65.4036 12.1079 66.2761 11.8612 66.8657 11.3678C67.4674 10.8624 67.7683 10.1584 67.7683 9.2558C67.7683 8.35324 67.4674 7.65526 66.8657 7.16185C66.2761 6.66845 65.4036 6.42175 64.2483 6.42175H60.3673L61.1796 5.51919V12.9924ZM78.194 17.6316C77.2313 17.6316 76.3347 17.4691 75.5044 17.1442C74.6861 16.8193 73.976 16.368 73.3743 15.7904C72.7726 15.2007 72.3033 14.5147 71.9663 13.7325C71.6294 12.9503 71.4609 12.0959 71.4609 11.1692C71.4609 10.2426 71.6294 9.38818 71.9663 8.60596C72.3033 7.82373 72.7726 7.1438 73.3743 6.56616C73.976 5.97649 74.6861 5.51919 75.5044 5.19426C76.3227 4.86934 77.2193 4.70688 78.194 4.70688C79.1568 4.70688 80.0413 4.86934 80.8476 5.19426C81.6659 5.50715 82.3759 5.95843 82.9776 6.54811C83.5914 7.12575 84.0607 7.80568 84.3856 8.5879C84.7226 9.37013 84.8911 10.2306 84.8911 11.1692C84.8911 12.1079 84.7226 12.9683 84.3856 13.7506C84.0607 14.5328 83.5914 15.2187 82.9776 15.8084C82.3759 16.3861 81.6659 16.8373 80.8476 17.1623C80.0413 17.4752 79.1568 17.6316 78.194 17.6316ZM78.194 16.025C78.892 16.025 79.5358 15.9047 80.1253 15.664C80.7272 15.4233 81.2447 15.0864 81.6779 14.6531C82.1232 14.2079 82.4662 13.6904 82.7069 13.1007C82.9596 12.511 83.0859 11.8672 83.0859 11.1692C83.0859 10.4713 82.9596 9.82743 82.7069 9.23775C82.4662 8.64808 82.1232 8.13662 81.6779 7.70339C81.2447 7.25813 80.7272 6.91515 80.1253 6.67447C79.5358 6.43378 78.892 6.31344 78.194 6.31344C77.484 6.31344 76.8282 6.43378 76.2264 6.67447C75.6368 6.91515 75.1193 7.25813 74.674 7.70339C74.2288 8.13662 73.8798 8.64808 73.6271 9.23775C73.3864 9.82743 73.266 10.4713 73.266 11.1692C73.266 11.8672 73.3864 12.511 73.6271 13.1007C73.8798 13.6904 74.2288 14.2079 74.674 14.6531C75.1193 15.0864 75.6368 15.4233 76.2264 15.664C76.8282 15.9047 77.484 16.025 78.194 16.025ZM87.6501 17.4872V4.85129H89.1303L97.488 15.2308H96.7118V4.85129H98.517V17.4872H97.0366L88.679 7.1077H89.4552V17.4872H87.6501ZM102.299 17.4872V4.85129H104.104V17.4872H102.299ZM106.227 17.4872L111.479 10.3208V11.7108L106.515 4.85129H108.573L112.508 10.2486L111.696 10.2667L115.613 4.85129H117.581L112.653 11.6025V10.3028L117.906 17.4872H115.83L111.642 11.7288H112.436L108.302 17.4872H106.227Z" fill="white"/>
</svg>
