<svg width="164" height="164" viewBox="0 0 164 164" fill="none" xmlns="http://www.w3.org/2000/svg">
<g filter="url(#filter0_bd_80_20)">
<rect x="20" y="20" width="124" height="124" rx="62" fill="url(#paint0_linear_80_20)" fill-opacity="0.1" shape-rendering="crispEdges"/>
<rect x="32.4" y="32.3999" width="99.2" height="99.2" rx="49.6" stroke="#2696A8"/>
<path d="M57.6953 94.7171C56.6724 94.7171 55.7113 94.5408 54.8119 94.1881C53.9125 93.8177 53.1277 93.2975 52.4575 92.6273C51.805 91.9395 51.3289 91.1371 51.0291 90.2201L53.1453 89.3206C53.5157 90.2906 54.1153 91.0489 54.9441 91.5956C55.7907 92.1247 56.7077 92.3892 57.6953 92.3892C58.5065 92.3892 59.2208 92.2129 59.838 91.8602C60.4729 91.4898 60.9667 90.9872 61.3194 90.3523C61.6721 89.6998 61.8485 88.9768 61.8485 88.1832C61.8485 87.3543 61.6633 86.6224 61.2929 85.9875C60.9402 85.3526 60.4553 84.8588 59.838 84.5061C59.2208 84.1358 58.5153 83.9506 57.7217 83.9506C56.9105 83.9506 56.1698 84.1358 55.4997 84.5061C54.8295 84.8765 54.3445 85.3438 54.0447 85.9082L51.9549 85.4585L53.4628 74.692H63.6737V76.9405H54.4415L55.4468 75.9353L54.2828 84.2945L53.3834 83.7654C53.9654 83.0248 54.6443 82.4957 55.4203 82.1782C56.2139 81.8432 57.0692 81.6756 57.9863 81.6756C59.2737 81.6756 60.4024 81.9666 61.3723 82.5486C62.3423 83.1306 63.1006 83.9065 63.6473 84.8765C64.194 85.8464 64.4673 86.9487 64.4673 88.1832C64.4673 89.4176 64.1675 90.5287 63.5679 91.5163C62.986 92.5039 62.1835 93.2886 61.1607 93.8706C60.1555 94.435 59.0003 94.7171 57.6953 94.7171Z" fill="url(#paint1_linear_80_20)"/>
<path d="M76.1918 94.7171C74.6222 94.7171 73.2466 94.2939 72.065 93.4474C70.9011 92.5832 69.9929 91.3928 69.3403 89.8762C68.6878 88.3419 68.3616 86.5607 68.3616 84.5326C68.3616 82.5045 68.6878 80.7321 69.3403 79.2155C69.9929 77.6812 70.9011 76.4908 72.065 75.6443C73.229 74.7978 74.5957 74.3745 76.1653 74.3745C77.7349 74.3745 79.1016 74.7978 80.2656 75.6443C81.4295 76.4908 82.3377 77.6812 82.9903 79.2155C83.6604 80.7321 83.9955 82.5045 83.9955 84.5326C83.9955 86.5607 83.6692 88.3419 83.0167 89.8762C82.3642 91.4105 81.4471 92.6009 80.2656 93.4474C79.1016 94.2939 77.7437 94.7171 76.1918 94.7171ZM76.1918 92.3099C77.2499 92.3099 78.1669 91.9924 78.9429 91.3576C79.7189 90.705 80.3185 89.7968 80.7417 88.6329C81.1826 87.4689 81.4031 86.1022 81.4031 84.5326C81.4031 82.963 81.1826 81.5963 80.7417 80.4323C80.3185 79.2684 79.71 78.369 78.9164 77.7341C78.1405 77.0992 77.2234 76.7818 76.1653 76.7818C75.1072 76.7818 74.1901 77.0992 73.4142 77.7341C72.6382 78.369 72.0298 79.2684 71.5889 80.4323C71.1656 81.5963 70.954 82.963 70.954 84.5326C70.954 86.0845 71.1656 87.4425 71.5889 88.6064C72.0298 89.7704 72.6382 90.6786 73.4142 91.3311C74.2078 91.9836 75.1336 92.3099 76.1918 92.3099Z" fill="url(#paint2_linear_80_20)"/>
<path d="M90.0436 94.3997L106.127 74.692H109.064L92.9799 94.3997H90.0436ZM93.0064 84.6913C92.0364 84.6913 91.1634 84.462 90.3875 84.0035C89.6115 83.5274 88.9855 82.9013 88.5093 82.1253C88.0508 81.3494 87.8215 80.4852 87.8215 79.5329C87.8215 78.5806 88.0508 77.7164 88.5093 76.9405C88.9855 76.1469 89.6115 75.5208 90.3875 75.0623C91.1634 74.6038 92.0364 74.3745 93.0064 74.3745C93.9587 74.3745 94.8228 74.6038 95.5988 75.0623C96.3748 75.5208 96.992 76.1469 97.4505 76.9405C97.909 77.7164 98.1383 78.5806 98.1383 79.5329C98.1383 80.4852 97.909 81.3494 97.4505 82.1253C96.992 82.9013 96.3748 83.5274 95.5988 84.0035C94.8228 84.462 93.9587 84.6913 93.0064 84.6913ZM92.9799 82.5221C93.5795 82.5221 94.0909 82.3811 94.5142 82.0989C94.9375 81.8167 95.2725 81.4464 95.5194 80.9878C95.7663 80.5293 95.8898 80.0443 95.8898 79.5329C95.8898 79.0038 95.7663 78.5189 95.5194 78.078C95.2725 77.6195 94.9375 77.2491 94.5142 76.9669C94.0909 76.6671 93.5795 76.5172 92.9799 76.5172C92.4156 76.5172 91.913 76.6671 91.4721 76.9669C91.0312 77.2491 90.6873 77.6195 90.4404 78.078C90.1935 78.5365 90.07 79.0215 90.07 79.5329C90.07 80.0267 90.1935 80.5117 90.4404 80.9878C90.6873 81.4464 91.0312 81.8167 91.4721 82.0989C91.913 82.3811 92.4156 82.5221 92.9799 82.5221ZM105.942 94.7171C104.972 94.7171 104.099 94.4879 103.323 94.0293C102.547 93.5532 101.921 92.9271 101.445 92.1512C100.986 91.3752 100.757 90.511 100.757 89.5587C100.757 88.6064 100.986 87.7423 101.445 86.9663C101.921 86.1727 102.547 85.5466 103.323 85.0881C104.099 84.6296 104.972 84.4003 105.942 84.4003C106.894 84.4003 107.759 84.6296 108.534 85.0881C109.31 85.5466 109.928 86.1727 110.386 86.9663C110.845 87.7423 111.074 88.6064 111.074 89.5587C111.074 90.511 110.845 91.3752 110.386 92.1512C109.928 92.9271 109.31 93.5532 108.534 94.0293C107.759 94.4879 106.894 94.7171 105.942 94.7171ZM105.942 92.548C106.524 92.548 107.027 92.4069 107.45 92.1247C107.891 91.8425 108.226 91.4722 108.455 91.0137C108.702 90.5551 108.825 90.0702 108.825 89.5587C108.825 89.0297 108.702 88.5447 108.455 88.1038C108.226 87.6453 107.891 87.2749 107.45 86.9928C107.027 86.6929 106.524 86.543 105.942 86.543C105.378 86.543 104.866 86.6929 104.408 86.9928C103.967 87.2749 103.623 87.6453 103.376 88.1038C103.129 88.5623 103.006 89.0473 103.006 89.5587C103.006 90.0525 103.129 90.5375 103.376 91.0137C103.623 91.4722 103.967 91.8425 104.408 92.1247C104.866 92.4069 105.378 92.548 105.942 92.548Z" fill="url(#paint3_linear_80_20)"/>
<g filter="url(#filter1_f_80_20)">
<rect x="47" y="47" width="70" height="70" rx="35" stroke="#54B8F4" stroke-opacity="0.1" stroke-width="10"/>
</g>
<g filter="url(#filter2_f_80_20)">
<path d="M83.24 131.6C110.633 131.6 132.84 109.393 132.84 81.9999C132.84 54.6066 110.633 32.3999 83.24 32.3999" stroke="url(#paint4_linear_80_20)" stroke-width="2"/>
</g>
<g filter="url(#filter3_f_80_20)">
<path d="M83.6315 135.842L83.6315 126.053C83.6312 125.953 83.6039 125.856 83.5524 125.772C83.501 125.687 83.4275 125.618 83.3397 125.572C83.2519 125.526 83.1533 125.504 83.0543 125.51C82.9554 125.516 82.8599 125.549 82.7782 125.605L75.708 130.5C75.4149 130.703 75.4149 131.191 75.708 131.394L82.7782 136.289C82.8597 136.346 82.9553 136.379 83.0544 136.385C83.1535 136.391 83.2524 136.37 83.3403 136.324C83.4283 136.278 83.5019 136.209 83.5533 136.124C83.6046 136.039 83.6317 135.941 83.6315 135.842Z" fill="url(#paint5_linear_80_20)" stroke="url(#paint6_linear_80_20)" stroke-width="0.3"/>
</g>
</g>
<defs>
<filter id="filter0_bd_80_20" x="0" y="0" width="164" height="164" filterUnits="userSpaceOnUse" color-interpolation-filters="sRGB">
<feFlood flood-opacity="0" result="BackgroundImageFix"/>
<feGaussianBlur in="BackgroundImageFix" stdDeviation="5"/>
<feComposite in2="SourceAlpha" operator="in" result="effect1_backgroundBlur_80_20"/>
<feColorMatrix in="SourceAlpha" type="matrix" values="0 0 0 0 0 0 0 0 0 0 0 0 0 0 0 0 0 0 127 0" result="hardAlpha"/>
<feOffset/>
<feGaussianBlur stdDeviation="10"/>
<feComposite in2="hardAlpha" operator="out"/>
<feColorMatrix type="matrix" values="0 0 0 0 0.0862745 0 0 0 0 0.541176 0 0 0 0 0.678431 0 0 0 0.6 0"/>
<feBlend mode="normal" in2="effect1_backgroundBlur_80_20" result="effect2_dropShadow_80_20"/>
<feBlend mode="normal" in="SourceGraphic" in2="effect2_dropShadow_80_20" result="shape"/>
</filter>
<filter id="filter1_f_80_20" x="34" y="34" width="96" height="96" filterUnits="userSpaceOnUse" color-interpolation-filters="sRGB">
<feFlood flood-opacity="0" result="BackgroundImageFix"/>
<feBlend mode="normal" in="SourceGraphic" in2="BackgroundImageFix" result="shape"/>
<feGaussianBlur stdDeviation="4" result="effect1_foregroundBlur_80_20"/>
</filter>
<filter id="filter2_f_80_20" x="81.24" y="29.3999" width="54.6" height="105.2" filterUnits="userSpaceOnUse" color-interpolation-filters="sRGB">
<feFlood flood-opacity="0" result="BackgroundImageFix"/>
<feBlend mode="normal" in="SourceGraphic" in2="BackgroundImageFix" result="shape"/>
<feGaussianBlur stdDeviation="1" result="effect1_foregroundBlur_80_20"/>
</filter>
<filter id="filter3_f_80_20" x="72.2982" y="123.421" width="15.0526" height="15.0527" filterUnits="userSpaceOnUse" color-interpolation-filters="sRGB">
<feFlood flood-opacity="0" result="BackgroundImageFix"/>
<feBlend mode="normal" in="SourceGraphic" in2="BackgroundImageFix" result="shape"/>
<feGaussianBlur stdDeviation="0.5" result="effect1_foregroundBlur_80_20"/>
</filter>
<linearGradient id="paint0_linear_80_20" x1="82" y1="20" x2="82" y2="144" gradientUnits="userSpaceOnUse">
<stop stop-color="#52B69A"/>
<stop offset="0.495" stop-color="#2696A8"/>
<stop offset="1" stop-color="#168AAD"/>
</linearGradient>
<linearGradient id="paint1_linear_80_20" x1="81.0515" y1="74.3745" x2="81.0515" y2="94.7171" gradientUnits="userSpaceOnUse">
<stop stop-color="#52B69A"/>
<stop offset="0.495" stop-color="#2696A8"/>
<stop offset="1" stop-color="#168AAD"/>
</linearGradient>
<linearGradient id="paint2_linear_80_20" x1="81.0515" y1="74.3745" x2="81.0515" y2="94.7171" gradientUnits="userSpaceOnUse">
<stop stop-color="#52B69A"/>
<stop offset="0.495" stop-color="#2696A8"/>
<stop offset="1" stop-color="#168AAD"/>
</linearGradient>
<linearGradient id="paint3_linear_80_20" x1="81.0515" y1="74.3745" x2="81.0515" y2="94.7171" gradientUnits="userSpaceOnUse">
<stop stop-color="#52B69A"/>
<stop offset="0.495" stop-color="#2696A8"/>
<stop offset="1" stop-color="#168AAD"/>
</linearGradient>
<linearGradient id="paint4_linear_80_20" x1="108.04" y1="32.3999" x2="108.04" y2="131.6" gradientUnits="userSpaceOnUse">
<stop stop-color="#12D7F6"/>
<stop offset="1" stop-color="#21D6A4"/>
</linearGradient>
<linearGradient id="paint5_linear_80_20" x1="75.4882" y1="130.948" x2="83.6315" y2="130.948" gradientUnits="userSpaceOnUse">
<stop stop-color="#52B69A"/>
<stop offset="0.495" stop-color="#2696A8"/>
<stop offset="1" stop-color="#168AAD"/>
</linearGradient>
<linearGradient id="paint6_linear_80_20" x1="75.4882" y1="130.948" x2="83.6315" y2="130.948" gradientUnits="userSpaceOnUse">
<stop stop-color="#0EE8AB"/>
<stop offset="0.495" stop-color="#12DCFD"/>
<stop offset="1" stop-color="#05C0F9"/>
</linearGradient>
</defs>
</svg>
