<svg width="115" height="115" viewBox="0 0 115 115" fill="none" xmlns="http://www.w3.org/2000/svg">
<g filter="url(#filter0_bd_80_50)">
<rect x="20" y="20" width="75" height="75" rx="37.5" fill="url(#paint0_linear_80_50)" fill-opacity="0.3" shape-rendering="crispEdges"/>
<g clip-path="url(#clip0_80_50)">
<path d="M57.5 31.25C57.9142 31.25 58.25 30.9374 58.25 30.5517V27.4483C58.25 27.0626 57.9142 26.75 57.5 26.75C57.0858 26.75 56.75 27.0626 56.75 27.4483V30.5517C56.75 30.9374 57.0858 31.25 57.5 31.25Z" fill="white" fill-opacity="0.5"/>
<path d="M49.0513 28.6663C48.9375 28.35 48.5612 28.1769 48.211 28.2796C47.8607 28.3824 47.669 28.7221 47.7828 29.0384L48.6987 31.5837C48.8125 31.9 49.1888 32.0731 49.539 31.9704C49.8893 31.8676 50.081 31.5279 49.9672 31.2116L49.0513 28.6663Z" fill="white" fill-opacity="0.5"/>
<path d="M40.6766 32.2763C40.4655 31.9769 40.0587 31.9105 39.7681 32.128C39.4776 32.3456 39.4131 32.7647 39.6242 33.0641L41.3234 35.4737C41.5345 35.7731 41.9413 35.8395 42.2318 35.622C42.5225 35.4044 42.5869 34.9854 42.3757 34.6859L40.6766 32.2763Z" fill="white" fill-opacity="0.5"/>
<path d="M35.4737 41.0292L33.0641 38.9053C32.7646 38.6414 32.3456 38.7219 32.128 39.0852C31.9105 39.4485 31.9769 39.9569 32.2763 40.2208L34.6859 42.3447C34.9854 42.6086 35.4044 42.5281 35.622 42.1648C35.8395 41.8015 35.7731 41.2931 35.4737 41.0292Z" fill="white" fill-opacity="0.5"/>
<path d="M31.5838 47.9487L29.0384 47.0328C28.7221 46.919 28.3824 47.1107 28.2796 47.461C28.1769 47.8112 28.3499 48.1875 28.6663 48.3013L31.2116 49.2172C31.5279 49.331 31.8676 49.1393 31.9704 48.789C32.0731 48.4388 31.9 48.0625 31.5838 47.9487Z" fill="white" fill-opacity="0.5"/>
<path d="M31.25 57.125C31.25 56.9179 30.9374 56.75 30.5517 56.75H27.4483C27.0626 56.75 26.75 56.9179 26.75 57.125C26.75 57.3321 27.0626 57.5 27.4483 57.5H30.5517C30.9374 57.5 31.25 57.3321 31.25 57.125Z" fill="white" fill-opacity="0.5"/>
<path d="M31.9704 65.461C31.8676 65.1107 31.5279 64.919 31.2116 65.0328L28.6663 65.9487C28.35 66.0625 28.1769 66.4388 28.2796 66.789C28.3824 67.1393 28.7221 67.331 29.0384 67.2172L31.5837 66.3013C31.9001 66.1875 32.0731 65.8112 31.9704 65.461Z" fill="white" fill-opacity="0.5"/>
<path d="M34.6859 72.6243L32.2763 74.3234C31.9769 74.5345 31.9105 74.9412 32.128 75.2318C32.3456 75.5224 32.7646 75.5869 33.0641 75.3757L35.4737 73.6766C35.7731 73.4655 35.8395 73.0588 35.622 72.7682C35.4044 72.4776 34.9854 72.4131 34.6859 72.6243Z" fill="white" fill-opacity="0.5"/>
<path d="M42.2318 78.628C41.9412 78.4105 41.5345 78.4769 41.3234 78.7763L39.6243 81.1859C39.4131 81.4854 39.4776 81.9044 39.7682 82.122C40.0588 82.3395 40.4655 82.2731 40.6766 81.9737L42.3757 79.5641C42.5869 79.2646 42.5224 78.8456 42.2318 78.628Z" fill="white" fill-opacity="0.5"/>
<path d="M49.539 83.0237C49.1888 82.9415 48.8125 83.0799 48.6987 83.333L47.7828 85.3693C47.669 85.6223 47.8607 85.8941 48.211 85.9763C48.5613 86.0585 48.9375 85.92 49.0513 85.667L49.9672 83.6307C50.081 83.3777 49.8893 83.1059 49.539 83.0237Z" fill="white" fill-opacity="0.5"/>
<path d="M57.5 83C57.0858 83 56.75 83.3647 56.75 83.8147V87.4353C56.75 87.8853 57.0858 88.25 57.5 88.25C57.9142 88.25 58.25 87.8853 58.25 87.4353V83.8147C58.25 83.3647 57.9142 83 57.5 83Z" fill="white" fill-opacity="0.5"/>
<path d="M66.3013 83.333C66.1875 83.08 65.8112 82.9415 65.461 83.0237C65.1107 83.1059 64.919 83.3777 65.0328 83.6307L65.9487 85.667C66.0625 85.92 66.4388 86.0585 66.789 85.9763C67.1393 85.8941 67.331 85.6223 67.2172 85.3693L66.3013 83.333Z" fill="white" fill-opacity="0.5"/>
<path d="M74.1325 78.7763C73.9742 78.4769 73.6691 78.4105 73.4511 78.628C73.2332 78.8456 73.1848 79.2646 73.3432 79.5641L74.6175 81.9737C74.7758 82.2731 75.0809 82.3395 75.2989 82.122C75.5168 81.9044 75.5652 81.4854 75.4068 81.1859L74.1325 78.7763Z" fill="white" fill-opacity="0.5"/>
<path d="M82.6685 74.3234L79.7769 72.6243C79.4176 72.4131 78.9147 72.4776 78.6536 72.7682C78.3926 73.0588 78.4722 73.4655 78.8316 73.6766L81.7231 75.3757C82.0824 75.5869 82.5853 75.5224 82.8463 75.2318C83.1074 74.9412 83.0278 74.5345 82.6685 74.3234Z" fill="white" fill-opacity="0.5"/>
<path d="M86.3337 65.9487L83.7884 65.0328C83.4721 64.919 83.1324 65.1107 83.0296 65.461C82.9269 65.8112 83.0999 66.1875 83.4163 66.3013L85.9616 67.2172C86.2779 67.331 86.6176 67.1393 86.7204 66.789C86.8231 66.4388 86.65 66.0625 86.3337 65.9487Z" fill="white" fill-opacity="0.5"/>
<path d="M84.4483 56.75C84.0626 56.75 83.75 56.9179 83.75 57.125C83.75 57.3321 84.0626 57.5 84.4483 57.5H87.5517C87.9374 57.5 88.25 57.3321 88.25 57.125C88.25 56.9179 87.9374 56.75 87.5517 56.75H84.4483Z" fill="white" fill-opacity="0.5"/>
<path d="M83.0296 48.789C83.1324 49.1393 83.4721 49.331 83.7884 49.2172L86.3337 48.3013C86.65 48.1875 86.8231 47.8112 86.7204 47.461C86.6176 47.1107 86.2779 46.919 85.9616 47.0328L83.4163 47.9487C83.0999 48.0625 82.9269 48.4388 83.0296 48.789Z" fill="white" fill-opacity="0.5"/>
<path d="M82.8463 39.0852C82.5853 38.7219 82.0824 38.6414 81.7231 38.9053L78.8316 41.0292C78.4722 41.2931 78.3926 41.8016 78.6536 42.1648C78.9147 42.5281 79.4176 42.6086 79.7769 42.3447L82.6685 40.2208C83.0278 39.9569 83.1074 39.4485 82.8463 39.0852Z" fill="white" fill-opacity="0.5"/>
<path d="M75.2989 32.128C75.0809 31.9105 74.7759 31.9769 74.6175 32.2763L73.3432 34.6859C73.1848 34.9854 73.2332 35.4044 73.4511 35.622C73.6691 35.8395 73.9741 35.7731 74.1325 35.4737L75.4068 33.0641C75.5652 32.7646 75.5168 32.3456 75.2989 32.128Z" fill="white" fill-opacity="0.5"/>
<path d="M65.461 31.9704C65.8112 32.0731 66.1875 31.9001 66.3013 31.5837L67.2172 29.0384C67.331 28.7221 67.1393 28.3824 66.789 28.2796C66.4388 28.1769 66.0625 28.3499 65.9487 28.6663L65.0328 31.2116C64.919 31.5279 65.1107 31.8676 65.461 31.9704Z" fill="white" fill-opacity="0.5"/>
<path d="M47.096 65.147L52.493 58.112L52.871 58.154C52.661 58.434 52.43 58.658 52.178 58.826C51.926 58.98 51.646 59.092 51.338 59.162C51.044 59.232 50.722 59.267 50.372 59.267C49.448 59.267 48.615 59.057 47.873 58.637C47.145 58.203 46.564 57.615 46.13 56.873C45.71 56.117 45.5 55.256 45.5 54.29C45.5 53.324 45.724 52.463 46.172 51.707C46.62 50.951 47.236 50.356 48.02 49.922C48.804 49.474 49.686 49.25 50.666 49.25C51.674 49.25 52.563 49.474 53.333 49.922C54.117 50.356 54.733 50.965 55.181 51.749C55.629 52.519 55.853 53.408 55.853 54.416C55.853 54.962 55.79 55.501 55.664 56.033C55.538 56.565 55.335 57.104 55.055 57.65C54.789 58.196 54.432 58.763 53.984 59.351L49.574 65.147H47.096ZM50.666 57.461C51.268 57.461 51.8 57.328 52.262 57.062C52.738 56.782 53.109 56.404 53.375 55.928C53.641 55.438 53.774 54.892 53.774 54.29C53.774 53.66 53.634 53.107 53.354 52.631C53.088 52.155 52.724 51.777 52.262 51.497C51.8 51.217 51.268 51.077 50.666 51.077C50.078 51.077 49.553 51.217 49.091 51.497C48.629 51.777 48.258 52.155 47.978 52.631C47.712 53.107 47.579 53.66 47.579 54.29C47.579 54.892 47.712 55.438 47.978 55.928C48.244 56.404 48.608 56.782 49.07 57.062C49.546 57.328 50.078 57.461 50.666 57.461Z" fill="white"/>
<path d="M63.5943 65.399C62.5443 65.399 61.6133 65.189 60.8013 64.769C60.0033 64.349 59.3733 63.782 58.9113 63.068C58.4633 62.34 58.2393 61.528 58.2393 60.632C58.2393 59.624 58.5193 58.742 59.0793 57.986C59.6393 57.23 60.4093 56.691 61.3893 56.369L61.3473 56.894C60.6053 56.6 60.0243 56.131 59.6043 55.487C59.1983 54.829 58.9953 54.122 58.9953 53.366C58.9953 52.568 59.1913 51.861 59.5833 51.245C59.9893 50.629 60.5353 50.146 61.2213 49.796C61.9213 49.432 62.7123 49.25 63.5943 49.25C64.4763 49.25 65.2603 49.425 65.9463 49.775C66.6323 50.125 67.1713 50.615 67.5633 51.245C67.9693 51.861 68.1723 52.568 68.1723 53.366C68.1723 54.164 67.9553 54.878 67.5213 55.508C67.1013 56.138 66.5413 56.607 65.8413 56.915L65.7783 56.369C66.7723 56.691 67.5493 57.237 68.1093 58.007C68.6693 58.763 68.9493 59.638 68.9493 60.632C68.9493 61.528 68.7183 62.34 68.2563 63.068C67.8083 63.782 67.1783 64.349 66.3663 64.769C65.5683 65.189 64.6443 65.399 63.5943 65.399ZM63.5943 63.614C64.2523 63.614 64.8263 63.488 65.3163 63.236C65.8063 62.984 66.1843 62.634 66.4503 62.186C66.7303 61.724 66.8703 61.199 66.8703 60.611C66.8703 60.009 66.7303 59.484 66.4503 59.036C66.1843 58.574 65.8063 58.224 65.3163 57.986C64.8263 57.734 64.2523 57.608 63.5943 57.608C62.9363 57.608 62.3553 57.734 61.8513 57.986C61.3613 58.224 60.9833 58.574 60.7173 59.036C60.4513 59.484 60.3183 60.009 60.3183 60.611C60.3183 61.199 60.4513 61.724 60.7173 62.186C60.9833 62.634 61.3613 62.984 61.8513 63.236C62.3553 63.488 62.9363 63.614 63.5943 63.614ZM63.5943 55.823C64.0703 55.823 64.4903 55.718 64.8543 55.508C65.2323 55.298 65.5333 55.018 65.7573 54.668C65.9813 54.304 66.0933 53.884 66.0933 53.408C66.0933 52.932 65.9813 52.519 65.7573 52.169C65.5333 51.819 65.2323 51.546 64.8543 51.35C64.4903 51.14 64.0703 51.035 63.5943 51.035C63.1043 51.035 62.6703 51.14 62.2923 51.35C61.9143 51.546 61.6133 51.819 61.3893 52.169C61.1653 52.519 61.0533 52.932 61.0533 53.408C61.0533 53.884 61.1653 54.304 61.3893 54.668C61.6133 55.018 61.9143 55.298 62.2923 55.508C62.6703 55.718 63.1043 55.823 63.5943 55.823Z" fill="white"/>
</g>
<rect x="27.5" y="27.5" width="60" height="60" rx="30" stroke="#2696A8"/>
<g filter="url(#filter1_f_80_50)">
<path d="M58.25 87.5C74.8185 87.5 88.25 74.0685 88.25 57.5C88.25 40.9315 74.8185 27.5 58.25 27.5" stroke="url(#paint1_linear_80_50)" stroke-width="2"/>
</g>
</g>
<defs>
<filter id="filter0_bd_80_50" x="0" y="0" width="115" height="115" filterUnits="userSpaceOnUse" color-interpolation-filters="sRGB">
<feFlood flood-opacity="0" result="BackgroundImageFix"/>
<feGaussianBlur in="BackgroundImageFix" stdDeviation="5"/>
<feComposite in2="SourceAlpha" operator="in" result="effect1_backgroundBlur_80_50"/>
<feColorMatrix in="SourceAlpha" type="matrix" values="0 0 0 0 0 0 0 0 0 0 0 0 0 0 0 0 0 0 127 0" result="hardAlpha"/>
<feOffset/>
<feGaussianBlur stdDeviation="10"/>
<feComposite in2="hardAlpha" operator="out"/>
<feColorMatrix type="matrix" values="0 0 0 0 0.0862745 0 0 0 0 0.541176 0 0 0 0 0.678431 0 0 0 1 0"/>
<feBlend mode="normal" in2="effect1_backgroundBlur_80_50" result="effect2_dropShadow_80_50"/>
<feBlend mode="normal" in="SourceGraphic" in2="effect2_dropShadow_80_50" result="shape"/>
</filter>
<filter id="filter1_f_80_50" x="56.25" y="24.5" width="35" height="66" filterUnits="userSpaceOnUse" color-interpolation-filters="sRGB">
<feFlood flood-opacity="0" result="BackgroundImageFix"/>
<feBlend mode="normal" in="SourceGraphic" in2="BackgroundImageFix" result="shape"/>
<feGaussianBlur stdDeviation="1" result="effect1_foregroundBlur_80_50"/>
</filter>
<linearGradient id="paint0_linear_80_50" x1="57.5" y1="20" x2="57.5" y2="95" gradientUnits="userSpaceOnUse">
<stop stop-color="#52B69A"/>
<stop offset="0.495" stop-color="#2696A8"/>
<stop offset="1" stop-color="#168AAD"/>
</linearGradient>
<linearGradient id="paint1_linear_80_50" x1="73.25" y1="27.5" x2="73.25" y2="87.5" gradientUnits="userSpaceOnUse">
<stop stop-color="#12D7F6"/>
<stop offset="1" stop-color="#21D6A4"/>
</linearGradient>
<clipPath id="clip0_80_50">
<rect x="27.5" y="27.5" width="60" height="60" rx="30" fill="white"/>
</clipPath>
</defs>
</svg>
