<svg width="1038" height="605" viewBox="0 0 1038 605" fill="none" xmlns="http://www.w3.org/2000/svg">
<path d="M55.5264 1H1.00008V61.3M55.5264 1V61.3M55.5264 1L110.053 1.00014M55.5264 61.3H1.00008M55.5264 61.3L110.053 61.3001M55.5264 61.3L55.5263 121.6M1.00008 61.3L1 121.6M110.053 1.00014V61.3001M110.053 1.00014H164.579M110.053 61.3001H164.579M110.053 61.3001V121.6M164.579 1.00014V61.3001M164.579 1.00014H219.105M164.579 61.3001H219.105M164.579 61.3001V121.6M219.105 1.00014V61.3001M219.105 1.00014H273.632M219.105 61.3001H273.632M219.105 61.3001V121.6M273.632 1.00014V61.3001M273.632 1.00014H328.158M273.632 61.3001H328.158M273.632 61.3001V121.6M328.158 1.00014V61.3001M328.158 1.00014H382.685M328.158 61.3001H382.685M328.158 61.3001V121.6M382.685 1.00014V61.3001M382.685 1.00014H437.21M382.685 61.3001H437.21M382.685 61.3001V121.6M437.21 1.00014V61.3001M437.21 1.00014H491.737M437.21 61.3001H491.737M437.21 61.3001V121.6M491.737 1.00014V61.3001M491.737 1.00014H546.263M491.737 61.3001H546.263M491.737 61.3001V121.6M546.263 1.00014V61.3001M546.263 1.00014H600.789M546.263 61.3001H600.789M546.263 61.3001V121.6M600.789 1.00014V61.3001M600.789 1.00014H655.316M600.789 61.3001H655.316M600.789 61.3001V121.6M655.316 1.00014V61.3001M655.316 1.00014H709.842M655.316 61.3001H709.842M655.316 61.3001V121.6M709.842 1.00014V61.3001M709.842 1.00014H764.369M709.842 61.3001H764.369M709.842 61.3001V121.6M764.369 1.00014V61.3001M764.369 1.00014H818.895M764.369 61.3001H818.895M764.369 61.3001V121.6M818.895 1.00014V61.3001M818.895 1.00014H873.421M818.895 61.3001H873.421M818.895 61.3001V121.6M873.421 1.00014V61.3001M873.421 1.00014H927.948M873.421 61.3001H927.948M873.421 61.3001V121.6M927.948 1.00014V61.3001M927.948 1.00014H982.474M927.948 61.3001H982.474M927.948 61.3001V121.6M982.474 1.00014V61.3001M982.474 1.00014H1037V61.3001M982.474 61.3001H1037M982.474 61.3001V121.6M1037 61.3001V121.6M55.5263 121.6H1M55.5263 121.6H110.053M55.5263 121.6V181.9M1 121.6V181.9M110.053 121.6H164.579M110.053 121.6V181.9M164.579 121.6H219.105M164.579 121.6V181.9M219.105 121.6H273.632M219.105 121.6V181.9M273.632 121.6H328.158M273.632 121.6V181.9M328.158 121.6H382.685M328.158 121.6V181.9M382.685 121.6H437.21M382.685 121.6V181.9M437.21 121.6H491.737M437.21 121.6V181.9M491.737 121.6H546.263M491.737 121.6V181.9M546.263 121.6H600.789M546.263 121.6V181.9M600.789 121.6H655.316M600.789 121.6V181.9M655.316 121.6H709.842M655.316 121.6V181.9M709.842 121.6H764.369M709.842 121.6V181.9M764.369 121.6H818.895M764.369 121.6V181.9M818.895 121.6H873.421M818.895 121.6V181.9M873.421 121.6H927.948M873.421 121.6V181.9M927.948 121.6H982.474M927.948 121.6V181.9M982.474 121.6H1037M982.474 121.6V181.9M1037 121.6V181.9M55.5263 181.9H1M55.5263 181.9H110.053M55.5263 181.9V242.2M1 181.9V242.2M110.053 181.9H164.579M110.053 181.9V242.2M164.579 181.9H219.105M164.579 181.9V242.2M219.105 181.9H273.632M219.105 181.9V242.2M273.632 181.9H328.158M273.632 181.9V242.2M328.158 181.9H382.685M328.158 181.9V242.2M382.685 181.9H437.21M382.685 181.9V242.2M437.21 181.9H491.737M437.21 181.9V242.2M491.737 181.9H546.263M491.737 181.9V242.2M546.263 181.9H600.789M546.263 181.9V242.2M600.789 181.9H655.316M600.789 181.9V242.2M655.316 181.9H709.842M655.316 181.9V242.2M709.842 181.9H764.369M709.842 181.9V242.2M764.369 181.9H818.895M764.369 181.9V242.2M818.895 181.9H873.421M818.895 181.9V242.2M873.421 181.9H927.948M873.421 181.9V242.2M927.948 181.9H982.474M927.948 181.9V242.2M982.474 181.9H1037M982.474 181.9V242.2M1037 181.9V242.2M55.5263 242.2H1M55.5263 242.2H110.053M55.5263 242.2V302.5M1 242.2V302.5M110.053 242.2H164.579M110.053 242.2V302.5M164.579 242.2H219.105M164.579 242.2V302.5M219.105 242.2H273.632M219.105 242.2V302.5M273.632 242.2H328.158M273.632 242.2V302.5M328.158 242.2H382.685M328.158 242.2V302.5M382.685 242.2H437.21M382.685 242.2V302.5M437.21 242.2H491.737M437.21 242.2V302.5M491.737 242.2H546.263M491.737 242.2V302.5M546.263 242.2H600.789M546.263 242.2V302.5M600.789 242.2H655.316M600.789 242.2V302.5M655.316 242.2H709.842M655.316 242.2V302.5M709.842 242.2H764.369M709.842 242.2V302.5M764.369 242.2H818.895M764.369 242.2V302.5M818.895 242.2H873.421M818.895 242.2V302.5M873.421 242.2H927.948M873.421 242.2V302.5M927.948 242.2H982.474M927.948 242.2V302.5M982.474 242.2H1037M982.474 242.2V302.5M1037 242.2V302.5M55.5263 302.5H1M55.5263 302.5H110.053M55.5263 302.5V362.8M1 302.5V362.8M110.053 302.5H164.579M110.053 302.5V362.8M164.579 302.5H219.105M164.579 302.5V362.8M219.105 302.5H273.632M219.105 302.5V362.8M273.632 302.5H328.158M273.632 302.5V362.8M328.158 302.5H382.685M328.158 302.5V362.8M382.685 302.5H437.21M382.685 302.5V362.8M437.21 302.5H491.737M437.21 302.5V362.8M491.737 302.5H546.263M491.737 302.5V362.8M546.263 302.5H600.789M546.263 302.5V362.8M600.789 302.5H655.316M600.789 302.5V362.8M655.316 302.5H709.842M655.316 302.5V362.8M709.842 302.5H764.369M709.842 302.5V362.8M764.369 302.5H818.895M764.369 302.5V362.8M818.895 302.5H873.421M818.895 302.5V362.8M873.421 302.5H927.948M873.421 302.5V362.8M927.948 302.5H982.474M927.948 302.5V362.8M982.474 302.5H1037M982.474 302.5V362.8M1037 302.5V362.8M55.5263 362.8H1M55.5263 362.8H110.053M55.5263 362.8V423.1M1 362.8V423.1M110.053 362.8H164.579M110.053 362.8V423.1M164.579 362.8H219.105M164.579 362.8V423.1M219.105 362.8H273.632M219.105 362.8V423.1M273.632 362.8H328.158M273.632 362.8V423.1M328.158 362.8H382.685M328.158 362.8V423.1M382.685 362.8H437.21M382.685 362.8V423.1M437.21 362.8H491.737M437.21 362.8V423.1M491.737 362.8H546.263M491.737 362.8V423.1M546.263 362.8H600.789M546.263 362.8V423.1M600.789 362.8H655.316M600.789 362.8V423.1M655.316 362.8H709.842M655.316 362.8V423.1M709.842 362.8H764.369M709.842 362.8V423.1M764.369 362.8H818.895M764.369 362.8V423.1M818.895 362.8H873.421M818.895 362.8V423.1M873.421 362.8H927.948M873.421 362.8V423.1M927.948 362.8H982.474M927.948 362.8V423.1M982.474 362.8H1037M982.474 362.8V423.1M1037 362.8V423.1M55.5263 423.1H1M55.5263 423.1H110.053M55.5263 423.1V483.4M1 423.1V483.4M110.053 423.1H164.579M110.053 423.1V483.4M164.579 423.1H219.105M164.579 423.1V483.4M219.105 423.1H273.632M219.105 423.1V483.4M273.632 423.1H328.158M273.632 423.1V483.4M328.158 423.1H382.685M328.158 423.1V483.4M382.685 423.1H437.21M382.685 423.1V483.4M437.21 423.1H491.737M437.21 423.1V483.4M491.737 423.1H546.263M491.737 423.1V483.4M546.263 423.1H600.789M546.263 423.1V483.4M600.789 423.1H655.316M600.789 423.1V483.4M655.316 423.1H709.842M655.316 423.1V483.4M709.842 423.1H764.369M709.842 423.1V483.4M764.369 423.1H818.895M764.369 423.1V483.4M818.895 423.1H873.421M818.895 423.1V483.4M873.421 423.1H927.948M873.421 423.1V483.4M927.948 423.1H982.474M927.948 423.1V483.4M982.474 423.1H1037M982.474 423.1V483.4M1037 423.1V483.4M55.5263 483.4H1M55.5263 483.4H110.053M55.5263 483.4V543.7M1 483.4V543.7M110.053 483.4H164.579M110.053 483.4V543.7M164.579 483.4H219.105M164.579 483.4V543.7M219.105 483.4H273.632M219.105 483.4V543.7M273.632 483.4H328.158M273.632 483.4V543.7M328.158 483.4H382.685M328.158 483.4V543.7M382.685 483.4H437.21M382.685 483.4V543.7M437.21 483.4H491.737M437.21 483.4V543.7M491.737 483.4H546.263M491.737 483.4V543.7M546.263 483.4H600.789M546.263 483.4V543.7M600.789 483.4H655.316M600.789 483.4V543.7M655.316 483.4H709.842M655.316 483.4V543.7M709.842 483.4H764.369M709.842 483.4V543.7M764.369 483.4H818.895M764.369 483.4V543.7M818.895 483.4H873.421M818.895 483.4V543.7M873.421 483.4H927.948M873.421 483.4V543.7M927.948 483.4H982.474M927.948 483.4V543.7M982.474 483.4H1037M982.474 483.4V543.7M1037 483.4V543.7M55.5263 543.7H1M55.5263 543.7H110.053M55.5263 543.7V604M1 543.7V604H55.5263M110.053 543.7H164.579M110.053 543.7V604M164.579 543.7H219.105M164.579 543.7V604M219.105 543.7H273.632M219.105 543.7V604M273.632 543.7H328.158M273.632 543.7V604M328.158 543.7H382.685M328.158 543.7V604M382.685 543.7H437.21M382.685 543.7V604M437.21 543.7H491.737M437.21 543.7V604M491.737 543.7H546.263M491.737 543.7V604M546.263 543.7H600.789M546.263 543.7V604M600.789 543.7H655.316M600.789 543.7V604M655.316 543.7H709.842M655.316 543.7V604M709.842 543.7H764.369M709.842 543.7V604M764.369 543.7H818.895M764.369 543.7V604M818.895 543.7H873.421M818.895 543.7V604M873.421 543.7H927.948M873.421 543.7V604M927.948 543.7H982.474M927.948 543.7V604M982.474 543.7H1037M982.474 543.7V604M1037 543.7V604H982.474M55.5263 604H110.053M110.053 604H164.579M164.579 604H219.105M219.105 604H273.632M273.632 604H328.158M328.158 604H382.685M382.685 604H437.21M437.21 604H491.737M491.737 604H546.263M546.263 604H600.789M600.789 604H655.316M655.316 604H709.842M709.842 604H764.369M764.369 604H818.895M818.895 604H873.421M873.421 604H927.948M927.948 604H982.474" stroke="url(#paint0_radial_192_22)"/>
<defs>
<radialGradient id="paint0_radial_192_22" cx="0" cy="0" r="1" gradientUnits="userSpaceOnUse" gradientTransform="translate(519 303) rotate(90) scale(301 613.186)">
<stop stop-color="#52B69A" stop-opacity="0.14"/>
<stop offset="0.74927" stop-color="#2696A8" stop-opacity="0.12"/>
<stop offset="1" stop-color="#168AAD" stop-opacity="0"/>
</radialGradient>
</defs>
</svg>
