<svg width="83" height="22" viewBox="0 0 83 22" fill="none" xmlns="http://www.w3.org/2000/svg">
<g clip-path="url(#clip0_837_70335)">
<path fill-rule="evenodd" clip-rule="evenodd" d="M8.61456 0.195977C4.49919 1.17401 1.34566 4.257 0.270655 8.35304C0.0811477 9.075 0.0491182 9.37766 0.0185447 10.7344C-0.0121097 12.0957 0.00503737 12.3937 0.157096 13.1361C0.93745 16.9462 3.44213 19.9226 7.09947 21.3859C8.37402 21.8958 9.01598 21.9963 11.0137 21.9982C12.963 22.0002 13.5084 21.9279 14.6807 21.5117C17.956 20.3493 20.4265 17.8843 21.5443 14.6638C21.9501 13.4945 22.0893 12.7415 22.1392 11.4449C22.1936 10.0328 22.0307 8.82653 21.6217 7.61248C20.3948 3.97108 17.6393 1.3568 13.9124 0.298131C13.103 0.0681826 12.9776 0.0556457 11.2432 0.0303295C9.55522 0.00566047 9.36483 0.0176311 8.61456 0.195977ZM29.2138 2.51487C28.4947 2.63798 27.6727 3.069 27.2414 3.54912C26.8099 4.02931 26.4323 4.77109 26.2978 5.40286C26.1696 6.00487 26.1863 7.46665 26.3283 8.06882C26.6797 9.55948 27.6126 10.4781 28.9673 10.6675C29.6522 10.7633 31.0586 10.6524 31.9014 10.4362C32.2532 10.3459 32.5536 10.2721 32.5687 10.2721C32.6364 10.2721 32.5877 6.86319 32.5173 6.67813C32.474 6.56401 32.3192 6.39795 32.1736 6.30915C31.9419 6.16793 31.7654 6.14762 30.7656 6.14738C29.4751 6.14706 29.5261 6.11826 29.5238 6.8458C29.522 7.3882 29.713 7.54972 30.4026 7.58862L30.9785 7.62122V8.41079V9.20037L30.7258 9.25092C30.5867 9.27874 30.227 9.30147 29.9262 9.30147C29.1589 9.30147 28.6212 9.01782 28.2962 8.44169C27.8173 7.59291 27.7965 5.74451 28.2559 4.86038C28.7575 3.89513 29.9976 3.65879 31.2716 4.28571C31.5439 4.41973 31.801 4.52941 31.8428 4.52941C32.0469 4.52941 32.5962 3.70821 32.5962 3.40304C32.5962 3.27088 31.9003 2.90465 31.2784 2.70948C30.5749 2.48867 29.7956 2.41523 29.2138 2.51487ZM42.0416 2.50978C41.0866 2.67073 40.2045 3.31715 39.7961 4.15549C39.38 5.00937 39.2881 5.54279 39.3279 6.8695C39.3728 8.36 39.5732 8.97204 40.2582 9.71203C40.7895 10.2859 41.3405 10.571 42.1001 10.6651C44.4999 10.9624 46.0262 9.39545 46.0213 6.63963C46.0188 5.30329 45.6462 4.11012 45.012 3.40814C44.6537 3.01149 43.9104 2.63701 43.2375 2.51415C42.7057 2.41701 42.5949 2.4166 42.0416 2.50978ZM34.0203 2.71619C33.9417 2.92106 33.9675 9.47132 34.0483 9.81968C34.0887 9.99358 34.2159 10.2302 34.3312 10.3454L34.5407 10.5551L36.2173 10.5811C37.2993 10.5979 38.0029 10.5748 38.2012 10.516C38.614 10.3937 38.8234 10.0442 38.8238 9.47715L38.8241 9.04621L37.2873 9.07273L35.7504 9.09926L35.7505 6.24557C35.7506 3.18426 35.7283 2.99443 35.3367 2.72015C35.0744 2.53639 34.0904 2.53348 34.0203 2.71619ZM47.3538 2.68934C47.3325 2.74498 47.3245 4.5375 47.3362 6.67279L47.3572 10.5551H49.2984H51.2396L51.7025 10.3278C52.7356 9.82049 53.1923 8.75665 52.8591 7.63432C52.7246 7.18162 52.2776 6.6114 51.9068 6.41963L51.6601 6.29208L51.9019 6.13897C52.7887 5.57748 52.7876 3.79573 51.9 3.11874C51.3436 2.69427 50.7688 2.58953 48.9926 2.58888C47.7867 2.5884 47.383 2.61315 47.3538 2.68934ZM55.9269 2.86793C55.8627 3.02176 55.4598 4.21373 55.0317 5.51682C54.6036 6.81992 54.0757 8.40958 53.8586 9.04944C53.6414 9.6893 53.4638 10.28 53.4638 10.3622C53.4638 10.5581 53.6907 10.609 54.4303 10.5793L55.0309 10.5551L55.3014 9.68566L55.5719 8.81618H56.8609H58.1498L58.3536 9.48418C58.4656 9.85155 58.6137 10.2327 58.6827 10.3311C58.8444 10.562 59.3617 10.6995 59.8138 10.6317C60.4904 10.5302 60.4879 10.5813 59.9027 8.81529C59.6154 7.94831 59.0494 6.21435 58.6448 4.96213C58.1654 3.47786 57.8654 2.66839 57.7829 2.63676C57.7134 2.61007 57.2936 2.58823 56.8501 2.58823H56.0438L55.9269 2.86793ZM61.3441 2.6954C61.3215 2.75429 61.3135 4.41949 61.3264 6.39577C61.348 9.69868 61.3616 10.0063 61.4954 10.2032C61.7469 10.5736 61.953 10.6067 63.8431 10.5799L65.5934 10.5551L65.844 10.3043C66.0546 10.0936 66.1019 9.97296 66.1404 9.54857L66.1862 9.04354L64.5997 9.07144L63.0133 9.09926L62.9904 6.03819L62.9675 2.9772L62.7249 2.78308C62.5226 2.62131 62.391 2.58896 61.9337 2.58864C61.5527 2.5884 61.3727 2.62099 61.3441 2.6954ZM67.3141 2.65537C67.234 2.70624 67.2167 3.55721 67.2332 6.63761L67.2543 10.5551L68.952 10.5771C69.932 10.5897 70.8251 10.5626 71.0644 10.5129C71.6858 10.3839 72.2994 9.98048 72.5896 9.50998C72.8182 9.1393 72.8351 9.05874 72.8351 8.33719C72.8351 7.63165 72.8146 7.52764 72.6053 7.17135C72.4788 6.95629 72.2196 6.67045 72.0292 6.53626L71.6831 6.29232L72.0182 5.95682C72.7183 5.25557 72.7298 4.04468 72.0431 3.32976C71.4558 2.71837 70.9196 2.59009 68.9528 2.59042C68.1076 2.59058 67.3702 2.61978 67.3141 2.65537ZM74.2079 2.68643C74.186 2.74361 74.1775 4.5375 74.1891 6.67279L74.2101 10.5551L75.0399 10.5782L75.8698 10.6012L75.8487 6.61496L75.8278 2.62868L75.0378 2.60554C74.4512 2.58831 74.2375 2.6091 74.2079 2.68643ZM77.5288 2.7187C77.4279 2.81956 77.4036 2.98019 77.4218 3.42642L77.4454 4.00368H79.144H80.8425L80.2165 4.85294C78.8184 6.74963 77.2452 9.08867 77.2048 9.33083C77.1815 9.47035 77.208 9.80294 77.2635 10.0699L77.3646 10.5551L79.5079 10.5791C81.9668 10.6066 82.2474 10.5812 82.5807 10.3004C82.8112 10.107 82.8241 10.0635 82.8241 9.49648C82.8241 8.84594 82.8241 8.8461 82.3388 8.97058C82.1827 9.01054 81.3901 9.06376 80.5763 9.08891L79.0969 9.13453L79.3756 8.79337C79.529 8.60572 80.3494 7.4529 81.1984 6.23158C82.4553 4.42491 82.7432 3.9604 82.7432 3.73984C82.7432 3.37926 82.5774 2.72452 82.4674 2.65011C82.4189 2.61743 81.3173 2.59018 80.0192 2.58945C77.9548 2.5884 77.6429 2.60457 77.5288 2.7187ZM42.1933 3.91762C41.4647 4.1817 41.1722 4.8057 41.1093 6.23004C41.0408 7.78153 41.2888 8.71151 41.8767 9.10776C42.7112 9.67005 43.7343 9.23927 44.0591 8.18869C44.2352 7.61928 44.2559 5.67058 44.0919 5.09559C43.8133 4.11829 43.0116 3.62094 42.1933 3.91762ZM48.9344 4.80465V5.74265H49.5855C50.6084 5.74265 50.8756 5.5372 50.8756 4.75103C50.8756 4.38698 50.8411 4.28256 50.667 4.11885C50.4825 3.94544 50.3706 3.91956 49.6964 3.89473L48.9344 3.86674V4.80465ZM68.9124 4.82051V5.75874L69.6339 5.73043C70.2633 5.70584 70.3819 5.67737 70.5628 5.50728C70.8201 5.26536 70.9038 4.85456 70.78 4.44117C70.6496 4.0061 70.3803 3.88235 69.5635 3.88235H68.9124V4.82051ZM56.589 5.3989C56.4712 5.83259 56.2897 6.46048 56.1855 6.79412L55.9962 7.40073H56.8743C57.6235 7.40073 57.7449 7.38294 57.7016 7.27941C57.6736 7.21268 57.4835 6.58479 57.2791 5.88419C57.0748 5.18359 56.8841 4.61029 56.8553 4.61029C56.8266 4.61029 56.7067 4.9652 56.589 5.3989ZM10.2322 4.77594C7.67446 5.17089 5.67149 6.92409 4.96952 9.38235C4.76319 10.1049 4.7555 11.8711 4.95552 12.6176C5.43815 14.4192 6.76874 15.9849 8.47455 16.7584C10.8544 17.8375 13.6673 17.3325 15.4925 15.4987C16.9082 14.0763 17.571 12.1628 17.3148 10.2374C16.9108 7.20168 14.4478 4.92606 11.3646 4.74003C11.0087 4.71859 10.4991 4.73469 10.2322 4.77594ZM10.2309 5.48593C9.81558 5.74208 9.22959 6.46565 8.92547 7.09799C8.69019 7.58717 8.65605 7.71593 8.74599 7.77425C9.0798 7.99029 10.6549 8.30451 10.7795 8.17996C10.8143 8.14509 10.8328 7.50054 10.8206 6.74761C10.7995 5.4484 10.7901 5.37754 10.6366 5.35708C10.5476 5.34519 10.3651 5.40318 10.2309 5.48593ZM11.3241 6.79905V8.25995L11.7083 8.20802C12.6946 8.07489 13.4271 7.82561 13.4271 7.62324C13.4271 7.40259 12.7311 6.22745 12.3987 5.88686C12.0982 5.57886 11.6836 5.33823 11.4535 5.33823C11.3397 5.33823 11.3241 5.51432 11.3241 6.79905ZM8.61456 5.79376C8.13501 6.04175 7.28 6.66082 7.28 6.75998C7.28 6.86448 8.01207 7.44118 8.14471 7.44118C8.18572 7.44118 8.34466 7.18146 8.49785 6.86408C8.65104 6.5467 8.85826 6.17561 8.95831 6.03957C9.05836 5.90344 9.1403 5.76279 9.1403 5.72695C9.1403 5.62367 8.87913 5.65691 8.61456 5.79376ZM13.0226 5.71531C13.0226 5.74483 13.1297 5.93587 13.2606 6.13994C13.3915 6.34409 13.5943 6.72035 13.7114 6.9761C13.8285 7.23185 13.9622 7.44118 14.0085 7.44118C14.1446 7.44118 14.8832 6.87015 14.8806 6.76702C14.8778 6.65443 14.091 6.07548 13.6123 5.83372C13.2743 5.66306 13.0226 5.61251 13.0226 5.71531ZM48.9344 8.22153V9.40621L49.7111 9.35162C50.8865 9.26904 51.2338 9.00859 51.2338 8.20956C51.2338 7.39281 50.7443 7.04162 49.6017 7.03854L48.9344 7.03676V8.22153ZM68.9124 8.19993V9.38235L69.2965 9.38187C70.568 9.38033 71.098 9.07629 71.1543 8.31624C71.1787 7.986 71.1483 7.82601 71.0236 7.62753C70.7485 7.18963 70.5082 7.08723 69.669 7.05059L68.9124 7.01743V8.19993ZM6.47183 7.50184C5.93016 8.14922 5.37765 9.53635 5.32014 10.3934L5.29838 10.7169L6.45096 10.7393L7.60353 10.7618V10.358C7.60353 10.0051 7.82749 8.69008 7.97106 8.20001C8.01045 8.06551 7.96184 7.99207 7.74419 7.85756C7.5918 7.76333 7.32902 7.57657 7.16021 7.44239C6.99141 7.30829 6.82463 7.19853 6.78945 7.19853C6.75435 7.19853 6.61143 7.33506 6.47183 7.50184ZM14.9163 7.46762C14.7345 7.60876 14.4856 7.79706 14.3631 7.88603L14.1404 8.04779L14.302 8.89706C14.3908 9.36415 14.4886 9.97384 14.5194 10.2518L14.5753 10.7574H15.7113H16.8472L16.7968 10.275C16.7089 9.43476 16.2025 8.21368 15.63 7.4614C15.52 7.31686 15.3888 7.20136 15.3384 7.20476C15.2881 7.20823 15.0982 7.32648 14.9163 7.46762ZM8.34029 8.8736C8.28529 9.17206 8.21897 9.71898 8.19284 10.0889L8.14536 10.7615L9.47191 10.7392L10.7984 10.7169V9.78676V8.85662L10.394 8.78706C10.1715 8.7488 9.67331 8.63055 9.28685 8.52419C8.90032 8.41791 8.5518 8.33088 8.51224 8.33088C8.47269 8.33088 8.39529 8.57507 8.34029 8.8736ZM12.9418 8.5013C12.6971 8.58857 12.2331 8.69954 11.9105 8.74791L11.3241 8.83583V9.79663V10.7574H12.6703H14.0165L13.9609 10.0905C13.9303 9.72368 13.8493 9.17772 13.781 8.87724C13.64 8.25736 13.6338 8.25461 12.9418 8.5013ZM5.35824 11.3098C5.27671 11.3615 5.28002 11.5109 5.37474 12.0567C5.50746 12.8211 6.11707 14.1591 6.54219 14.6191L6.78476 14.8815L7.39453 14.4573C7.88088 14.1189 7.99589 14.0003 7.96289 13.8713C7.81213 13.282 7.60353 12.0311 7.60353 11.7165C7.60353 11.4486 7.56681 11.3268 7.47557 11.2917C7.28623 11.2191 5.47681 11.2346 5.35824 11.3098ZM8.22366 11.2966C8.09416 11.426 8.31675 13.5269 8.47657 13.6837C8.50796 13.7145 8.74001 13.6698 8.9922 13.5844C9.24439 13.4989 9.75395 13.3829 10.1246 13.3265L10.7984 13.2241L10.8214 12.3461C10.8366 11.7681 10.8125 11.4297 10.7508 11.3555C10.6786 11.2683 10.3864 11.2426 9.46738 11.2426C8.81296 11.2426 8.25326 11.2669 8.22366 11.2966ZM11.4252 11.2951C11.3525 11.3253 11.3241 11.6028 11.3241 12.2847V13.2323L12.02 13.3329C12.4028 13.3883 12.9033 13.5048 13.1322 13.5917C13.3611 13.6787 13.5732 13.7499 13.6035 13.7499C13.706 13.75 13.921 12.5746 13.9369 11.9267L13.9528 11.2831L12.7396 11.2682C12.0723 11.26 11.4809 11.2722 11.4252 11.2951ZM14.6124 11.3033C14.5901 11.3391 14.5318 11.6769 14.4827 12.0537C14.4336 12.4306 14.333 13.0277 14.2593 13.3806C14.1319 13.9901 14.1324 14.0265 14.269 14.1086C14.348 14.156 14.6185 14.347 14.8701 14.5329C15.4131 14.9344 15.4177 14.9323 15.9743 14.0365C16.406 13.3416 16.7485 12.3509 16.7687 11.7385L16.7837 11.2831L15.7182 11.2606C15.1321 11.2481 14.6346 11.2674 14.6124 11.3033ZM60.6785 13.2809C60.5369 13.4225 60.5572 14.0378 60.7085 14.1891C60.8546 14.3351 61.4773 14.3619 61.7192 14.2325C61.8402 14.1677 61.8756 14.0616 61.8756 13.7633C61.8756 13.5514 61.8319 13.3343 61.7785 13.2809C61.7251 13.2275 61.4776 13.1838 61.2285 13.1838C60.9794 13.1838 60.7319 13.2275 60.6785 13.2809ZM35.1197 13.3618C35.006 13.4755 34.9798 18.4101 35.0919 18.5869C35.1383 18.66 35.3171 18.6847 35.6771 18.6678L36.1954 18.6434L36.1941 16.9035L36.1927 15.1637L36.4059 15.6094C36.5232 15.8546 36.8642 16.5647 37.1637 17.1875C37.4632 17.8103 37.7406 18.4032 37.7802 18.5052C37.8481 18.6803 37.8882 18.6891 38.5201 18.6669L39.1881 18.6434V15.9743V13.3051L38.8082 13.2806C38.5113 13.2616 38.3919 13.2925 38.2622 13.4222C38.1057 13.5787 38.0962 13.6822 38.0959 15.2261L38.0958 16.864L37.6217 15.8529C37.361 15.2969 36.9795 14.4871 36.7741 14.0533L36.4006 13.2647H35.8087C35.4562 13.2647 35.1775 13.3039 35.1197 13.3618ZM55.3278 13.4197C55.2334 13.5961 55.2209 13.8607 55.2942 14.1342C55.3396 14.3034 55.3878 14.3162 55.9806 14.3162H56.6182V16.5V18.6838H57.1844H57.7506V16.5V14.3162H58.3042C58.992 14.3162 59.1486 14.1882 59.1104 13.6571L59.0851 13.3051L57.2487 13.2834C55.498 13.2627 55.4084 13.2691 55.3278 13.4197ZM9.64937 13.9531C9.41772 14.0165 9.09913 14.1224 8.94124 14.1883L8.65427 14.3082L8.81976 14.7283C9.03588 15.2765 9.48178 15.9427 9.84769 16.2639C10.1965 16.5702 10.6684 16.7837 10.7706 16.6814C10.8104 16.6417 10.8328 15.9932 10.8206 15.2403L10.7984 13.8713L10.4344 13.8546C10.2342 13.8454 9.88094 13.8897 9.64937 13.9531ZM11.3241 15.275C11.3241 16.3002 11.3513 16.7426 11.4143 16.7426C11.6569 16.7426 12.3263 16.2717 12.6108 15.9007C12.954 15.4532 13.4271 14.5709 13.4271 14.3782C13.4271 14.2203 12.5063 13.9179 11.8345 13.8551L11.3241 13.8075V15.275ZM7.64292 14.897L7.17073 15.2351L7.50631 15.5329C7.83316 15.8229 8.87233 16.4191 9.051 16.4191C9.19263 16.4191 9.15591 16.2673 8.94691 15.9891C8.84055 15.8474 8.62168 15.4678 8.46064 15.1452C8.29952 14.8227 8.15588 14.5588 8.1414 14.5588C8.127 14.5588 7.90263 14.711 7.64292 14.897ZM13.6823 15.0829C13.5475 15.3711 13.3222 15.7741 13.1817 15.9783C13.0412 16.1825 12.9471 16.3705 12.9726 16.3961C13.1099 16.5334 14.8829 15.5043 14.8829 15.2872C14.8829 15.2135 14.0654 14.5588 13.9733 14.5588C13.9482 14.5588 13.8172 14.7947 13.6823 15.0829ZM42.4306 14.6574C41.9323 14.7614 41.5891 15.0216 41.3488 15.4772C41.1504 15.8533 41.1293 15.9751 41.1293 16.7426C41.1293 17.5228 41.1473 17.6226 41.351 17.9691C41.69 18.5458 42.0406 18.7243 42.8343 18.7243C43.3568 18.7243 43.5719 18.685 43.906 18.5284C44.3853 18.304 44.4456 18.1059 44.1421 17.7537C43.964 17.5469 43.9538 17.5452 43.6594 17.6683C43.3468 17.7991 42.7316 17.8354 42.5771 17.7322C42.4567 17.6518 42.3021 17.3485 42.3021 17.1928C42.3021 17.0847 42.449 17.0662 43.3083 17.0662C43.9222 17.0662 44.335 17.0332 44.3669 16.9815C44.3957 16.9349 44.4192 16.6481 44.4192 16.3442C44.4192 15.7911 44.2994 15.4245 44.0113 15.0965C43.6945 14.7359 42.9908 14.5404 42.4306 14.6574ZM45.962 14.7231C45.8619 14.7634 45.7802 14.843 45.7803 14.9C45.7805 14.957 45.9583 15.7661 46.1754 16.698C46.6454 18.7149 46.6372 18.7028 47.5087 18.6669L48.079 18.6434L48.1406 18.3603C48.1744 18.2046 48.2603 17.7314 48.3312 17.3088C48.4022 16.8862 48.4807 16.4858 48.5058 16.4191C48.5309 16.3524 48.6353 16.7706 48.7379 17.3485C48.9681 18.6456 49.0153 18.7015 49.8523 18.6669L50.4207 18.6434L50.8931 16.749C51.221 15.4341 51.3397 14.8288 51.2811 14.7702C51.1954 14.6845 50.3529 14.6501 50.2738 14.7292C50.25 14.7529 50.1058 15.3522 49.9534 16.0609C49.8009 16.7695 49.673 17.3194 49.6692 17.2829C49.6654 17.2465 49.5532 16.6699 49.4197 16.0016C49.2863 15.3333 49.1771 14.7716 49.1771 14.7535C49.1771 14.7354 48.8898 14.7206 48.5387 14.7206C47.7938 14.7206 47.9011 14.5418 47.6302 16.2344C47.5289 16.8668 47.4336 17.3717 47.4184 17.3565C47.4031 17.3413 47.2823 16.7875 47.1499 16.1258C46.9633 15.1937 46.871 14.8909 46.74 14.7812C46.5578 14.6287 46.2534 14.606 45.962 14.7231ZM64.0781 14.7073C63.9989 14.7576 63.9805 15.2135 63.9972 16.7079L64.019 18.6434H64.5447H65.0704L65.1109 17.3088L65.1513 15.9743L65.4516 15.8135C65.9226 15.5613 65.9538 15.6431 66.0006 17.252L66.041 18.6434L66.5594 18.6678C66.9194 18.6847 67.0982 18.66 67.1446 18.5869C67.1813 18.529 67.2119 17.9078 67.2126 17.2064L67.2138 15.9312L67.4985 15.7954C67.7662 15.6678 67.7916 15.668 67.9232 15.7996C68.0403 15.9168 68.0696 16.1502 68.1035 17.2339C68.1486 18.6757 68.1509 18.6813 68.7101 18.6813C69.2779 18.6813 69.2731 18.695 69.2458 17.1577C69.2176 15.5644 69.1671 15.2714 68.8671 14.9581C68.4904 14.565 67.8106 14.5505 67.2604 14.9238C67.0086 15.0947 66.9709 15.1007 66.8751 14.9853C66.7322 14.8129 66.3012 14.6397 66.0152 14.6397C65.887 14.6397 65.6115 14.7304 65.4032 14.8411C65.0966 15.0042 65.0159 15.0207 64.9803 14.9276C64.9003 14.7195 64.2927 14.5711 64.0781 14.7073ZM71.9439 14.7525C71.6239 14.8918 71.222 15.3561 71.0845 15.7449C70.9333 16.1727 70.956 17.426 71.1219 17.8026C71.2828 18.1679 71.7174 18.5552 72.1131 18.6858C72.7545 18.8974 74.1697 18.5483 74.1697 18.1784C74.1697 17.9928 73.9474 17.5515 73.8539 17.5515C73.8161 17.5515 73.6544 17.6061 73.4947 17.6728C73.335 17.7395 73.045 17.7941 72.8503 17.7941C72.4588 17.7941 72.2773 17.6561 72.1857 17.2886L72.1301 17.0662H73.1803H74.2304L74.2809 16.8134C74.4034 16.2012 74.2471 15.5074 73.9041 15.1396C73.4686 14.6728 72.5453 14.4904 71.9439 14.7525ZM60.3713 14.8334C60.3476 14.8955 60.3396 15.0863 60.3536 15.2574C60.373 15.4932 60.4184 15.5758 60.541 15.5987C60.63 15.6154 60.7296 15.6703 60.7622 15.7208C60.7949 15.7712 60.8222 16.4602 60.8229 17.2519L60.8241 18.6912L61.3701 18.6673L61.916 18.6434L61.9389 17.0257C61.9515 16.136 61.942 15.3272 61.9177 15.2284C61.8274 14.8602 61.5663 14.7206 60.9681 14.7206C60.5693 14.7206 60.4026 14.7521 60.3713 14.8334ZM42.5078 15.6398C42.3947 15.753 42.3021 15.9201 42.3021 16.0111C42.3021 16.1607 42.3521 16.1765 42.8278 16.1765C43.141 16.1765 43.3535 16.1422 43.3535 16.0915C43.3535 15.9535 43.1129 15.5294 43.0345 15.5294C42.9948 15.5294 42.9064 15.508 42.838 15.4817C42.7646 15.4535 42.6292 15.5184 42.5078 15.6398ZM72.4027 15.5901C72.3107 15.668 72.2117 15.8317 72.1828 15.954L72.1301 16.1765H72.6647C73.1491 16.1765 73.1991 16.161 73.1991 16.0111C73.1991 15.8215 72.8589 15.4485 72.686 15.4485C72.6222 15.4485 72.4947 15.5122 72.4027 15.5901Z" fill="white"/>
</g>
<defs>
<clipPath id="clip0_837_70335">
<rect width="82.8235" height="22" fill="white"/>
</clipPath>
</defs>
</svg>
