<svg width="1024" height="272" viewBox="0 0 1024 272" fill="none" xmlns="http://www.w3.org/2000/svg">
<path fill-rule="evenodd" clip-rule="evenodd" d="M106.5 2.423C55.619 14.515 16.63 52.632 3.33899 103.274C0.995992 112.2 0.599992 115.942 0.221992 132.716C-0.157008 149.547 0.054992 153.231 1.93499 162.41C11.583 209.517 42.55 246.316 87.768 264.407C103.526 270.712 111.463 271.954 136.162 271.978C160.262 272.002 167.006 271.108 181.5 265.963C221.994 251.591 252.539 221.115 266.359 181.298C271.376 166.841 273.097 157.531 273.714 141.5C274.386 124.042 272.372 109.128 267.315 94.118C252.147 49.097 218.079 16.775 172 3.686C161.993 0.843002 160.443 0.688001 139 0.375001C118.13 0.0700015 115.776 0.218002 106.5 2.423ZM361.181 31.093C352.291 32.615 342.128 37.944 336.795 43.88C331.46 49.817 326.792 58.988 325.129 66.799C323.544 74.242 323.75 92.315 325.506 99.76C329.851 118.19 341.385 129.547 358.134 131.889C366.602 133.073 383.99 131.702 394.41 129.029C398.76 127.913 402.473 127 402.66 127C403.497 127 402.895 84.854 402.025 82.566C401.489 81.155 399.576 79.102 397.775 78.004C394.911 76.258 392.728 76.007 380.367 76.004C364.412 76 365.043 75.644 365.014 84.639C364.992 91.345 367.354 93.342 375.88 93.823L383 94.226V103.988V113.75L379.875 114.375C378.156 114.719 373.708 115 369.989 115C360.503 115 353.855 111.493 349.837 104.37C343.916 93.876 343.659 71.023 349.339 60.092C355.54 48.158 370.872 45.236 386.623 52.987C389.99 54.644 393.169 56 393.686 56C396.209 56 403 45.847 403 42.074C403 40.44 394.396 35.912 386.708 33.499C378.01 30.769 368.375 29.861 361.181 31.093ZM519.78 31.03C507.972 33.02 497.067 41.012 492.017 51.377C486.873 61.934 485.736 68.529 486.229 84.932C486.784 103.36 489.261 110.927 497.73 120.076C504.299 127.171 511.112 130.696 520.503 131.86C550.173 135.535 569.044 116.162 568.983 82.09C568.953 65.568 564.346 50.816 556.505 42.137C552.075 37.233 542.885 32.603 534.566 31.084C527.991 29.883 526.621 29.878 519.78 31.03ZM420.607 33.582C419.635 36.115 419.955 117.1 420.954 121.407C421.453 123.557 423.026 126.482 424.451 127.907L427.041 130.5L447.77 130.821C461.148 131.028 469.847 130.743 472.298 130.016C477.402 128.504 479.991 124.183 479.996 117.172L480 111.844L460.999 112.172L441.998 112.5L441.999 77.218C442 39.369 441.725 37.022 436.883 33.631C433.64 31.359 421.474 31.323 420.607 33.582ZM585.458 33.25C585.195 33.938 585.096 56.1 585.24 82.5L585.5 130.5H609.5H633.5L639.224 127.689C651.996 121.417 657.643 108.264 653.523 94.388C651.86 88.791 646.334 81.741 641.749 79.37L638.699 77.793L641.689 75.9C652.653 68.958 652.64 46.929 641.666 38.559C634.786 33.311 627.68 32.016 605.719 32.008C590.81 32.002 585.819 32.308 585.458 33.25ZM691.453 35.458C690.659 37.36 685.678 52.097 680.385 68.208C675.092 84.319 668.565 103.973 665.881 111.884C663.196 119.795 661 127.098 661 128.115C661 130.536 663.805 131.166 672.949 130.799L680.375 130.5L683.719 119.75L687.064 109H703H718.936L721.455 117.259C722.84 121.801 724.671 126.513 725.524 127.73C727.523 130.585 733.919 132.285 739.509 131.446C747.874 130.192 747.843 130.823 740.608 108.989C737.056 98.27 730.058 76.832 725.056 61.35C719.128 42.999 715.419 32.991 714.4 32.6C713.54 32.27 708.35 32 702.867 32H692.898L691.453 35.458ZM758.429 33.325C758.149 34.053 758.051 54.641 758.21 79.075C758.477 119.911 758.645 123.714 760.299 126.149C763.409 130.728 765.957 131.137 789.326 130.806L810.966 130.5L814.064 127.399C816.668 124.794 817.253 123.302 817.729 118.055L818.295 111.811L798.68 112.156L779.066 112.5L778.783 74.654L778.5 36.809L775.5 34.409C772.999 32.409 771.372 32.009 765.719 32.005C761.008 32.002 758.782 32.405 758.429 33.325ZM832.24 32.83C831.25 33.459 831.036 43.98 831.24 82.065L831.5 130.5L852.49 130.771C864.607 130.927 875.648 130.592 878.607 129.978C886.29 128.383 893.876 123.395 897.464 117.578C900.291 112.995 900.5 111.999 900.5 103.078C900.5 94.355 900.246 93.069 897.658 88.664C896.094 86.005 892.89 82.471 890.536 80.812L886.257 77.796L890.399 73.648C899.055 64.978 899.198 50.007 890.707 41.168C883.446 33.609 876.817 32.023 852.5 32.027C842.05 32.029 832.933 32.39 832.24 32.83ZM917.472 33.214C917.201 33.921 917.096 56.1 917.24 82.5L917.5 130.5L927.759 130.785L938.019 131.07L937.759 81.785L937.5 32.5L927.733 32.214C920.48 32.001 917.838 32.258 917.472 33.214ZM958.53 33.613C957.283 34.86 956.983 36.846 957.208 42.363L957.5 49.5H978.5H999.5L991.76 60C974.475 83.45 955.024 112.369 954.525 115.363C954.237 117.088 954.564 121.2 955.251 124.5L956.5 130.5L983 130.796C1013.4 131.136 1016.87 130.822 1020.99 127.351C1023.84 124.959 1024 124.421 1024 117.411C1024 109.368 1024 109.37 1018 110.909C1016.07 111.403 1006.27 112.061 996.209 112.372L977.918 112.936L981.364 108.718C983.26 106.398 993.403 92.145 1003.9 77.045C1019.44 54.708 1023 48.965 1023 46.238C1023 41.78 1020.95 33.685 1019.59 32.765C1018.99 32.361 1005.37 32.024 989.321 32.015C963.797 32.002 959.941 32.202 958.53 33.613ZM521.655 48.436C512.647 51.701 509.031 59.416 508.253 77.026C507.406 96.208 510.472 107.706 517.741 112.605C528.058 119.557 540.708 114.231 544.724 101.242C546.901 94.202 547.157 70.109 545.129 63C541.684 50.917 531.772 44.768 521.655 48.436ZM605 59.403V71H613.05C625.696 71 629 68.46 629 58.74C629 54.239 628.574 52.948 626.421 50.924C624.14 48.78 622.756 48.46 614.421 48.153L605 47.807V59.403ZM852 59.599V71.199L860.921 70.849C868.703 70.545 870.169 70.193 872.405 68.09C875.587 65.099 876.622 60.02 875.091 54.909C873.479 49.53 870.149 48 860.05 48H852V59.599ZM699.638 66.75C698.182 72.112 695.938 79.875 694.65 84L692.309 91.5H703.166C712.429 91.5 713.93 91.28 713.394 90C713.048 89.175 710.698 81.412 708.171 72.75C705.645 64.088 703.287 57 702.931 57C702.576 57 701.094 61.388 699.638 66.75ZM126.5 59.048C94.877 63.931 70.113 85.607 61.434 116C58.883 124.933 58.788 146.77 61.261 156C67.228 178.274 83.679 197.632 104.769 207.195C134.192 220.536 168.97 214.293 191.536 191.62C209.04 174.034 217.234 150.377 214.066 126.572C209.072 89.039 178.62 60.904 140.5 58.604C136.1 58.339 129.8 58.538 126.5 59.048ZM126.484 67.826C121.349 70.993 114.104 79.939 110.344 87.757C107.435 93.805 107.013 95.397 108.125 96.118C112.252 98.789 131.726 102.674 133.266 101.134C133.697 100.703 133.926 92.734 133.775 83.425C133.514 67.362 133.398 66.486 131.5 66.233C130.4 66.086 128.143 66.803 126.484 67.826ZM140 84.061V102.123L144.75 101.481C156.944 99.835 166 96.753 166 94.251C166 91.523 157.395 76.994 153.286 72.783C149.57 68.975 144.444 66 141.599 66C140.193 66 140 68.177 140 84.061ZM106.5 71.632C100.571 74.698 90 82.352 90 83.578C90 84.87 99.051 92 100.691 92C101.198 92 103.163 88.789 105.057 84.865C106.951 80.941 109.513 76.353 110.75 74.671C111.987 72.988 113 71.249 113 70.806C113 69.529 109.771 69.94 106.5 71.632ZM161 70.662C161 71.027 162.324 73.389 163.942 75.912C165.56 78.436 168.068 83.088 169.516 86.25C170.963 89.412 172.616 92 173.189 92C174.871 92 184.003 84.94 183.971 83.665C183.936 82.273 174.209 75.115 168.29 72.126C164.111 70.016 161 69.391 161 70.662ZM605 101.648V116.295L614.603 115.62C629.135 114.599 633.429 111.379 633.429 101.5C633.429 91.402 627.377 87.06 613.25 87.022L605 87V101.648ZM852 101.381V116L856.75 115.994C872.47 115.975 879.022 112.216 879.718 102.819C880.02 98.736 879.645 96.758 878.103 94.304C874.701 88.89 871.731 87.624 861.355 87.171L852 86.761V101.381ZM80.008 92.75C73.311 100.754 66.48 117.904 65.769 128.5L65.5 132.5L79.75 132.777L94 133.055V128.063C94 123.699 96.769 107.441 98.544 101.382C99.031 99.719 98.43 98.811 95.739 97.148C93.855 95.983 90.606 93.674 88.519 92.015C86.432 90.357 84.37 89 83.935 89C83.501 89 81.734 90.688 80.008 92.75ZM184.413 92.327C182.165 94.072 179.087 96.4 177.573 97.5L174.82 99.5L176.817 110C177.915 115.775 179.125 123.313 179.505 126.75L180.196 133H194.241H208.285L207.662 127.036C206.576 116.648 200.315 101.551 193.236 92.25C191.876 90.463 190.254 89.035 189.631 89.077C189.009 89.12 186.661 90.582 184.413 92.327ZM103.109 109.71C102.429 113.4 101.609 120.162 101.286 124.735L100.699 133.051L117.1 132.775L133.5 132.5V121V109.5L128.5 108.64C125.75 108.167 119.59 106.705 114.812 105.39C110.033 104.076 105.724 103 105.235 103C104.746 103 103.789 106.019 103.109 109.71ZM160 105.107C156.975 106.186 151.238 107.558 147.25 108.156L140 109.243V121.122V133H156.644H173.288L172.6 124.755C172.222 120.22 171.221 113.47 170.376 109.755C168.633 102.091 168.556 102.057 160 105.107ZM66.24 139.83C65.232 140.47 65.273 142.317 66.444 149.065C68.085 158.516 75.622 175.058 80.878 180.745L83.877 183.989L91.416 178.745C97.429 174.561 98.851 173.095 98.443 171.5C96.579 164.214 94 148.748 94 144.859C94 141.546 93.546 140.04 92.418 139.607C90.077 138.709 67.706 138.9 66.24 139.83ZM101.667 139.667C100.066 141.267 102.818 167.242 104.794 169.18C105.182 169.561 108.051 169.009 111.169 167.952C114.287 166.895 120.587 165.461 125.169 164.764L133.5 163.498L133.785 152.643C133.972 145.497 133.674 141.313 132.912 140.395C132.019 139.317 128.406 139 117.044 139C108.953 139 102.033 139.3 101.667 139.667ZM141.25 139.649C140.351 140.022 140 143.453 140 151.883V163.599L148.604 164.843C153.337 165.528 159.524 166.968 162.354 168.043C165.184 169.119 167.807 169.999 168.182 169.999C169.449 170 172.107 155.468 172.304 147.458L172.5 139.5L157.5 139.316C149.25 139.215 141.938 139.365 141.25 139.649ZM180.655 139.75C180.38 140.193 179.659 144.369 179.051 149.028C178.444 153.688 177.201 161.07 176.289 165.433C174.714 172.969 174.72 173.418 176.409 174.433C177.386 175.02 180.73 177.381 183.841 179.68C190.555 184.643 190.611 184.618 197.493 173.542C202.831 164.951 207.065 152.702 207.315 145.131L207.5 139.5L194.327 139.222C187.081 139.068 180.929 139.306 180.655 139.75ZM750.2 164.2C748.449 165.951 748.7 173.558 750.571 175.429C752.377 177.234 760.076 177.565 763.066 175.965C764.563 175.164 765 173.852 765 170.165C765 167.544 764.46 164.86 763.8 164.2C763.14 163.54 760.08 163 757 163C753.92 163 750.86 163.54 750.2 164.2ZM434.2 165.2C432.794 166.606 432.47 227.616 433.856 229.802C434.43 230.706 436.64 231.011 441.091 230.802L447.5 230.5L447.483 208.989L447.466 187.479L450.102 192.989C451.552 196.02 455.768 204.8 459.471 212.5C463.174 220.2 466.604 227.531 467.093 228.791C467.933 230.957 468.429 231.065 476.241 230.791L484.5 230.5V197.5V164.5L479.803 164.197C476.133 163.961 474.656 164.344 473.053 165.947C471.118 167.882 471 169.162 470.997 188.25L470.995 208.5L465.134 196C461.91 189.125 457.194 179.113 454.654 173.75L450.036 164H442.718C438.36 164 434.915 164.485 434.2 165.2ZM684.045 165.916C682.878 168.097 682.724 171.369 683.63 174.75C684.191 176.842 684.787 177 692.117 177H700V204V231H707H714V204V177H720.845C729.348 177 731.284 175.418 730.812 168.852L730.5 164.5L707.795 164.231C686.15 163.975 685.042 164.054 684.045 165.916ZM119.294 172.511C116.43 173.295 112.491 174.604 110.539 175.419L106.991 176.902L109.037 182.095C111.709 188.873 117.222 197.11 121.746 201.081C126.058 204.868 131.893 207.507 133.157 206.243C133.648 205.752 133.926 197.734 133.775 188.425L133.5 171.5L129 171.293C126.525 171.179 122.157 171.727 119.294 172.511ZM140 188.855C140 201.53 140.336 207 141.115 207C144.114 207 152.39 201.177 155.908 196.59C160.151 191.058 166 180.149 166 177.767C166 175.815 154.616 172.076 146.31 171.3L140 170.711V188.855ZM94.487 184.181L88.649 188.361L92.798 192.043C96.839 195.629 109.687 203 111.896 203C113.647 203 113.193 201.123 110.609 197.683C109.294 195.932 106.588 191.238 104.597 187.25C102.605 183.262 100.829 180 100.65 180C100.472 180 97.698 181.881 94.487 184.181ZM169.156 186.48C167.489 190.043 164.703 195.025 162.966 197.55C161.229 200.075 160.066 202.399 160.381 202.715C162.079 204.413 184 191.69 184 189.006C184 188.094 173.892 180 172.753 180C172.443 180 170.824 182.916 169.156 186.48ZM524.589 181.219C518.429 182.505 514.185 185.722 511.214 191.354C508.761 196.005 508.5 197.51 508.5 207C508.5 216.646 508.723 217.879 511.241 222.163C515.433 229.293 519.767 231.5 529.581 231.5C536.041 231.5 538.7 231.014 542.831 229.079C548.756 226.304 549.502 223.855 545.75 219.5C543.548 216.944 543.421 216.922 539.782 218.444C535.917 220.061 528.311 220.511 526.4 219.235C524.912 218.241 523 214.491 523 212.566C523 211.229 524.817 211 535.441 211C543.031 211 548.134 210.592 548.529 209.953C548.885 209.377 549.176 205.831 549.176 202.074C549.176 195.236 547.694 190.703 544.132 186.648C540.216 182.189 531.515 179.772 524.589 181.219ZM568.25 182.031C567.013 182.529 566.002 183.513 566.004 184.218C566.006 184.923 568.204 194.926 570.889 206.448C576.699 231.384 576.598 231.235 587.373 230.791L594.424 230.5L595.185 227C595.604 225.075 596.665 219.225 597.542 214C598.42 208.775 599.391 203.825 599.701 203C600.011 202.175 601.302 207.346 602.57 214.49C605.416 230.528 606 231.218 616.349 230.791L623.376 230.5L629.217 207.079C633.27 190.822 634.738 183.338 634.014 182.614C632.954 181.554 622.538 181.129 621.56 182.106C621.266 182.4 619.483 189.809 617.598 198.571C615.713 207.332 614.132 214.131 614.085 213.68C614.038 213.23 612.65 206.1 611 197.838C609.35 189.575 608 182.631 608 182.407C608 182.183 604.449 182 600.108 182C590.898 182 592.224 179.789 588.875 200.716C587.623 208.535 586.445 214.778 586.256 214.59C586.068 214.401 584.574 207.554 582.937 199.373C580.63 187.85 579.489 184.106 577.869 182.75C575.616 180.864 571.853 180.583 568.25 182.031ZM792.231 181.836C791.252 182.457 791.024 188.094 791.231 206.57L791.5 230.5H798H804.5L805 214L805.5 197.5L809.212 195.512C815.036 192.394 815.422 193.406 816 213.297L816.5 230.5L822.909 230.802C827.36 231.011 829.57 230.706 830.144 229.802C830.598 229.086 830.976 221.405 830.985 212.734L831 196.968L834.52 195.289C837.829 193.711 838.143 193.714 839.77 195.341C841.218 196.789 841.581 199.675 842 213.074C842.557 230.9 842.586 230.969 849.5 230.969C856.519 230.969 856.46 231.138 856.123 212.132C855.774 192.432 855.15 188.81 851.44 184.937C846.783 180.076 838.378 179.897 831.576 184.513C828.463 186.625 827.996 186.7 826.812 185.273C825.045 183.141 819.717 181 816.181 181C814.595 181 811.19 182.121 808.614 183.49C804.824 185.506 803.826 185.71 803.385 184.56C802.397 181.987 794.884 180.152 792.231 181.836ZM889.481 182.394C885.525 184.117 880.555 189.857 878.856 194.664C876.986 199.954 877.267 215.449 879.318 220.105C881.307 224.621 886.681 229.41 891.573 231.024C899.503 233.641 917 229.325 917 224.751C917 222.457 914.252 217 913.096 217C912.628 217 910.629 217.675 908.654 218.5C906.68 219.325 903.095 220 900.687 220C895.847 220 893.603 218.293 892.47 213.75L891.783 211H904.767H917.75L918.375 207.875C919.889 200.306 917.957 191.728 913.716 187.181C908.332 181.409 896.916 179.154 889.481 182.394ZM746.402 183.395C746.108 184.162 746.009 186.521 746.183 188.637C746.423 191.552 746.984 192.574 748.5 192.857C749.6 193.063 750.831 193.742 751.235 194.366C751.639 194.99 751.976 203.508 751.985 213.296L752 231.091L758.75 230.796L765.5 230.5L765.783 210.5C765.939 199.5 765.821 189.5 765.521 188.278C764.404 183.726 761.176 182 753.78 182C748.849 182 746.788 182.39 746.402 183.395ZM525.544 193.365C524.145 194.764 523 196.83 523 197.955C523 199.805 523.619 200 529.5 200C533.372 200 536 199.576 536 198.95C536 197.243 533.025 192 532.056 192C531.565 192 530.472 191.735 529.626 191.41C528.719 191.062 527.045 191.864 525.544 193.365ZM895.153 192.75C894.016 193.713 892.792 195.738 892.434 197.25L891.783 200H898.392C904.382 200 905 199.809 905 197.955C905 195.611 900.794 191 898.656 191C897.867 191 896.291 191.787 895.153 192.75Z" fill="white"/>
</svg>
