<svg width="541" height="389" viewBox="0 0 541 389" fill="none" xmlns="http://www.w3.org/2000/svg">
<path d="M95 81V161C95 166.523 99.4772 171 105 171H210" stroke="url(#paint0_linear_865_70285)"/>
<g filter="url(#filter0_d_865_70285)">
<rect x="10" y="56" width="230" height="31" rx="4" fill="white" shape-rendering="crispEdges"/>
<path d="M26.012 69.568H27.14L28.532 73.228C28.612 73.444 28.684 73.652 28.748 73.852C28.82 74.052 28.884 74.248 28.94 74.44C28.996 74.624 29.04 74.804 29.072 74.98H29.12C29.168 74.78 29.244 74.52 29.348 74.2C29.452 73.872 29.56 73.544 29.672 73.216L30.98 69.568H32.12L29.348 76.888C29.196 77.288 29.016 77.636 28.808 77.932C28.608 78.236 28.36 78.468 28.064 78.628C27.776 78.796 27.424 78.88 27.008 78.88C26.816 78.88 26.648 78.868 26.504 78.844C26.36 78.828 26.236 78.808 26.132 78.784V77.944C26.22 77.96 26.324 77.976 26.444 77.992C26.572 78.008 26.704 78.016 26.84 78.016C27.088 78.016 27.3 77.968 27.476 77.872C27.66 77.784 27.816 77.652 27.944 77.476C28.072 77.308 28.18 77.108 28.268 76.876L28.604 76.024L26.012 69.568ZM38.8132 69.568V76H37.7572V70.468H34.4332V76H33.3772V69.568H38.8132ZM44.1655 69.448C44.9575 69.448 45.5935 69.724 46.0735 70.276C46.5615 70.828 46.8055 71.66 46.8055 72.772C46.8055 73.5 46.6935 74.116 46.4695 74.62C46.2535 75.116 45.9455 75.492 45.5455 75.748C45.1535 75.996 44.6895 76.12 44.1535 76.12C43.8255 76.12 43.5335 76.076 43.2775 75.988C43.0215 75.9 42.8015 75.788 42.6175 75.652C42.4415 75.508 42.2895 75.352 42.1615 75.184H42.0895C42.1055 75.32 42.1215 75.492 42.1375 75.7C42.1535 75.908 42.1615 76.088 42.1615 76.24V78.88H41.1055V69.568H41.9695L42.1135 70.444H42.1615C42.2895 70.26 42.4415 70.092 42.6175 69.94C42.8015 69.788 43.0175 69.668 43.2655 69.58C43.5215 69.492 43.8215 69.448 44.1655 69.448ZM43.9735 70.336C43.5415 70.336 43.1935 70.42 42.9295 70.588C42.6655 70.748 42.4735 70.992 42.3535 71.32C42.2335 71.648 42.1695 72.064 42.1615 72.568V72.772C42.1615 73.3 42.2175 73.748 42.3295 74.116C42.4415 74.484 42.6295 74.764 42.8935 74.956C43.1655 75.148 43.5335 75.244 43.9975 75.244C44.3895 75.244 44.7095 75.136 44.9575 74.92C45.2135 74.704 45.4015 74.412 45.5215 74.044C45.6495 73.668 45.7135 73.24 45.7135 72.76C45.7135 72.024 45.5695 71.436 45.2815 70.996C45.0015 70.556 44.5655 70.336 43.9735 70.336ZM51.1643 69.46C51.9483 69.46 52.5283 69.632 52.9043 69.976C53.2803 70.32 53.4683 70.868 53.4683 71.62V76H52.7003L52.4963 75.088H52.4483C52.2643 75.32 52.0723 75.516 51.8723 75.676C51.6803 75.828 51.4563 75.94 51.2003 76.012C50.9523 76.084 50.6483 76.12 50.2883 76.12C49.9043 76.12 49.5563 76.052 49.2443 75.916C48.9403 75.78 48.7003 75.572 48.5243 75.292C48.3483 75.004 48.2603 74.644 48.2603 74.212C48.2603 73.572 48.5123 73.08 49.0163 72.736C49.5203 72.384 50.2963 72.192 51.3443 72.16L52.4363 72.124V71.74C52.4363 71.204 52.3203 70.832 52.0883 70.624C51.8563 70.416 51.5283 70.312 51.1043 70.312C50.7683 70.312 50.4483 70.364 50.1443 70.468C49.8403 70.564 49.5563 70.676 49.2923 70.804L48.9683 70.012C49.2483 69.86 49.5803 69.732 49.9643 69.628C50.3483 69.516 50.7483 69.46 51.1643 69.46ZM51.4763 72.892C50.6763 72.924 50.1203 73.052 49.8083 73.276C49.5043 73.5 49.3523 73.816 49.3523 74.224C49.3523 74.584 49.4603 74.848 49.6763 75.016C49.9003 75.184 50.1843 75.268 50.5283 75.268C51.0723 75.268 51.5243 75.12 51.8843 74.824C52.2443 74.52 52.4243 74.056 52.4243 73.432V72.856L51.4763 72.892ZM60.8668 71.188C60.8668 71.588 60.7468 71.9 60.5068 72.124C60.2668 72.348 59.9588 72.5 59.5828 72.58V72.628C59.9828 72.684 60.3308 72.828 60.6268 73.06C60.9228 73.284 61.0708 73.636 61.0708 74.116C61.0708 74.388 61.0188 74.64 60.9148 74.872C60.8188 75.104 60.6668 75.304 60.4588 75.472C60.2508 75.64 59.9828 75.772 59.6548 75.868C59.3268 75.956 58.9308 76 58.4668 76H55.6948V69.568H58.4548C58.9108 69.568 59.3188 69.62 59.6788 69.724C60.0468 69.82 60.3348 69.988 60.5428 70.228C60.7588 70.46 60.8668 70.78 60.8668 71.188ZM59.9788 74.116C59.9788 73.748 59.8388 73.484 59.5588 73.324C59.2788 73.164 58.8668 73.084 58.3228 73.084H56.7508V75.148H58.3468C58.8748 75.148 59.2788 75.072 59.5588 74.92C59.8388 74.76 59.9788 74.492 59.9788 74.116ZM59.7988 71.32C59.7988 71.016 59.6868 70.796 59.4628 70.66C59.2468 70.516 58.8908 70.444 58.3948 70.444H56.7508V72.208H58.2028C58.7228 72.208 59.1188 72.136 59.3908 71.992C59.6628 71.848 59.7988 71.624 59.7988 71.32ZM67.7449 76H66.6769V70.444H64.7809C64.7009 71.46 64.6009 72.328 64.4809 73.048C64.3609 73.76 64.2089 74.34 64.0249 74.788C63.8409 75.236 63.6209 75.564 63.3649 75.772C63.1089 75.98 62.8089 76.084 62.4649 76.084C62.3609 76.084 62.2569 76.076 62.1529 76.06C62.0569 76.052 61.9769 76.032 61.9129 76V75.208C61.9609 75.224 62.0129 75.236 62.0689 75.244C62.1249 75.252 62.1809 75.256 62.2369 75.256C62.4129 75.256 62.5729 75.184 62.7169 75.04C62.8609 74.896 62.9889 74.676 63.1009 74.38C63.2209 74.084 63.3289 73.712 63.4249 73.264C63.5209 72.808 63.6049 72.272 63.6769 71.656C63.7489 71.04 63.8129 70.344 63.8689 69.568H67.7449V76ZM71.0824 69.568V76H70.0264V69.568H71.0824ZM70.5664 67.156C70.7264 67.156 70.8664 67.212 70.9864 67.324C71.1144 67.428 71.1784 67.596 71.1784 67.828C71.1784 68.052 71.1144 68.22 70.9864 68.332C70.8664 68.444 70.7264 68.5 70.5664 68.5C70.3904 68.5 70.2424 68.444 70.1224 68.332C70.0024 68.22 69.9424 68.052 69.9424 67.828C69.9424 67.596 70.0024 67.428 70.1224 67.324C70.2424 67.212 70.3904 67.156 70.5664 67.156ZM74.4162 69.568V72.244H77.9082V69.568H78.9642V76H77.9082V73.132H74.4162V76H73.3602V69.568H74.4162ZM82.2968 69.568V72.244H85.7888V69.568H86.8448V76H85.7888V73.132H82.2968V76H81.2408V69.568H82.2968ZM89.5174 76H88.2934L90.1294 73.3C89.8814 73.236 89.6414 73.136 89.4094 73C89.1774 72.856 88.9894 72.66 88.8454 72.412C88.7014 72.156 88.6294 71.84 88.6294 71.464C88.6294 70.848 88.8374 70.38 89.2534 70.06C89.6694 69.732 90.2214 69.568 90.9094 69.568H93.7894V76H92.7334V73.444H91.1734L89.5174 76ZM89.6494 71.476C89.6494 71.844 89.7854 72.12 90.0574 72.304C90.3374 72.48 90.7254 72.568 91.2214 72.568H92.7334V70.444H91.0174C90.5294 70.444 90.1774 70.54 89.9614 70.732C89.7534 70.924 89.6494 71.172 89.6494 71.476ZM103.155 69.568V75.112H104.091V78.232H103.071V76H98.5947V78.232H97.5867V75.112H98.1027C98.4707 74.6 98.7747 74.044 99.0147 73.444C99.2627 72.836 99.4467 72.204 99.5667 71.548C99.6947 70.884 99.7627 70.224 99.7707 69.568H103.155ZM100.707 70.396C100.675 70.94 100.591 71.504 100.455 72.088C100.319 72.664 100.143 73.216 99.9267 73.744C99.7187 74.272 99.4747 74.728 99.1947 75.112H102.135V70.396H100.707ZM108.027 69.46C108.811 69.46 109.391 69.632 109.767 69.976C110.143 70.32 110.331 70.868 110.331 71.62V76H109.563L109.359 75.088H109.311C109.127 75.32 108.935 75.516 108.735 75.676C108.543 75.828 108.319 75.94 108.063 76.012C107.815 76.084 107.511 76.12 107.151 76.12C106.767 76.12 106.419 76.052 106.107 75.916C105.803 75.78 105.563 75.572 105.387 75.292C105.211 75.004 105.123 74.644 105.123 74.212C105.123 73.572 105.375 73.08 105.879 72.736C106.383 72.384 107.159 72.192 108.207 72.16L109.299 72.124V71.74C109.299 71.204 109.183 70.832 108.951 70.624C108.719 70.416 108.391 70.312 107.967 70.312C107.631 70.312 107.311 70.364 107.007 70.468C106.703 70.564 106.419 70.676 106.155 70.804L105.831 70.012C106.111 69.86 106.443 69.732 106.827 69.628C107.211 69.516 107.611 69.46 108.027 69.46ZM108.339 72.892C107.539 72.924 106.983 73.052 106.671 73.276C106.367 73.5 106.215 73.816 106.215 74.224C106.215 74.584 106.323 74.848 106.539 75.016C106.763 75.184 107.047 75.268 107.391 75.268C107.935 75.268 108.387 75.12 108.747 74.824C109.107 74.52 109.287 74.056 109.287 73.432V72.856L108.339 72.892ZM113.614 69.568V72.244H117.106V69.568H118.162V76H117.106V73.132H113.614V76H112.558V69.568H113.614ZM121.435 73.492C121.435 73.564 121.431 73.668 121.423 73.804C121.423 73.932 121.419 74.072 121.411 74.224C121.403 74.368 121.395 74.508 121.387 74.644C121.379 74.772 121.371 74.876 121.363 74.956L124.807 69.568H126.103V76H125.119V72.208C125.119 72.08 125.119 71.912 125.119 71.704C125.127 71.496 125.135 71.292 125.143 71.092C125.151 70.884 125.159 70.728 125.167 70.624L121.747 76H120.439V69.568H121.435V73.492ZM135.29 69.568V76H134.342V71.896C134.342 71.728 134.346 71.552 134.354 71.368C134.37 71.184 134.386 71.004 134.402 70.828H134.366L132.266 76H131.378L129.338 70.828H129.302C129.318 71.004 129.326 71.184 129.326 71.368C129.334 71.552 129.338 71.74 129.338 71.932V76H128.39V69.568H129.794L131.822 74.74L133.886 69.568H135.29ZM138.579 73.492C138.579 73.564 138.575 73.668 138.567 73.804C138.567 73.932 138.563 74.072 138.555 74.224C138.547 74.368 138.539 74.508 138.531 74.644C138.523 74.772 138.515 74.876 138.507 74.956L141.951 69.568H143.247V76H142.263V72.208C142.263 72.08 142.263 71.912 142.263 71.704C142.271 71.496 142.279 71.292 142.287 71.092C142.295 70.884 142.303 70.728 142.311 70.624L138.891 76H137.583V69.568H138.579V73.492ZM151.652 69.568H152.804L150.056 72.664L153.032 76H151.808L148.904 72.736V76H147.848V69.568H148.904V72.688L151.652 69.568ZM159.797 72.772C159.797 73.308 159.725 73.784 159.581 74.2C159.445 74.608 159.245 74.956 158.981 75.244C158.725 75.532 158.409 75.752 158.033 75.904C157.665 76.048 157.253 76.12 156.797 76.12C156.373 76.12 155.981 76.048 155.621 75.904C155.261 75.752 154.949 75.532 154.685 75.244C154.421 74.956 154.213 74.608 154.061 74.2C153.917 73.784 153.845 73.308 153.845 72.772C153.845 72.06 153.965 71.46 154.205 70.972C154.445 70.476 154.789 70.1 155.237 69.844C155.685 69.58 156.217 69.448 156.833 69.448C157.417 69.448 157.929 69.58 158.369 69.844C158.817 70.1 159.165 70.476 159.413 70.972C159.669 71.46 159.797 72.06 159.797 72.772ZM154.937 72.772C154.937 73.276 155.001 73.716 155.129 74.092C155.265 74.46 155.473 74.744 155.753 74.944C156.033 75.144 156.389 75.244 156.821 75.244C157.253 75.244 157.609 75.144 157.889 74.944C158.169 74.744 158.373 74.46 158.501 74.092C158.637 73.716 158.705 73.276 158.705 72.772C158.705 72.26 158.637 71.824 158.501 71.464C158.365 71.104 158.157 70.828 157.877 70.636C157.605 70.436 157.249 70.336 156.809 70.336C156.153 70.336 155.677 70.552 155.381 70.984C155.085 71.416 154.937 72.012 154.937 72.772ZM164.771 69.448C165.563 69.448 166.199 69.724 166.679 70.276C167.167 70.828 167.411 71.66 167.411 72.772C167.411 73.5 167.299 74.116 167.075 74.62C166.859 75.116 166.551 75.492 166.151 75.748C165.759 75.996 165.295 76.12 164.759 76.12C164.431 76.12 164.139 76.076 163.883 75.988C163.627 75.9 163.407 75.788 163.223 75.652C163.047 75.508 162.895 75.352 162.767 75.184H162.695C162.711 75.32 162.727 75.492 162.743 75.7C162.759 75.908 162.767 76.088 162.767 76.24V78.88H161.711V69.568H162.575L162.719 70.444H162.767C162.895 70.26 163.047 70.092 163.223 69.94C163.407 69.788 163.623 69.668 163.871 69.58C164.127 69.492 164.427 69.448 164.771 69.448ZM164.579 70.336C164.147 70.336 163.799 70.42 163.535 70.588C163.271 70.748 163.079 70.992 162.959 71.32C162.839 71.648 162.775 72.064 162.767 72.568V72.772C162.767 73.3 162.823 73.748 162.935 74.116C163.047 74.484 163.235 74.764 163.499 74.956C163.771 75.148 164.139 75.244 164.603 75.244C164.995 75.244 165.315 75.136 165.563 74.92C165.819 74.704 166.007 74.412 166.127 74.044C166.255 73.668 166.319 73.24 166.319 72.76C166.319 72.024 166.175 71.436 165.887 70.996C165.607 70.556 165.171 70.336 164.579 70.336ZM170.329 73.492C170.329 73.564 170.325 73.668 170.317 73.804C170.317 73.932 170.313 74.072 170.305 74.224C170.297 74.368 170.289 74.508 170.281 74.644C170.273 74.772 170.265 74.876 170.257 74.956L173.701 69.568H174.997V76H174.013V72.208C174.013 72.08 174.013 71.912 174.013 71.704C174.021 71.496 174.029 71.292 174.037 71.092C174.045 70.884 174.053 70.728 174.061 70.624L170.641 76H169.333V69.568H170.329V73.492ZM179.864 76.12C179.296 76.12 178.788 76.004 178.34 75.772C177.9 75.54 177.552 75.18 177.296 74.692C177.048 74.204 176.924 73.58 176.924 72.82C176.924 72.028 177.056 71.384 177.32 70.888C177.584 70.392 177.94 70.028 178.388 69.796C178.844 69.564 179.36 69.448 179.936 69.448C180.264 69.448 180.58 69.484 180.884 69.556C181.188 69.62 181.436 69.7 181.628 69.796L181.304 70.672C181.112 70.6 180.888 70.532 180.632 70.468C180.376 70.404 180.136 70.372 179.912 70.372C179.48 70.372 179.124 70.464 178.844 70.648C178.564 70.832 178.356 71.104 178.22 71.464C178.084 71.824 178.016 72.272 178.016 72.808C178.016 73.32 178.084 73.756 178.22 74.116C178.356 74.476 178.56 74.748 178.832 74.932C179.104 75.116 179.444 75.208 179.852 75.208C180.204 75.208 180.512 75.172 180.776 75.1C181.048 75.028 181.296 74.94 181.52 74.836V75.772C181.304 75.884 181.064 75.968 180.8 76.024C180.544 76.088 180.232 76.12 179.864 76.12ZM187.73 70.456H185.63V76H184.586V70.456H182.51V69.568H187.73V70.456ZM188.229 69.568H189.357L190.749 73.228C190.829 73.444 190.901 73.652 190.965 73.852C191.037 74.052 191.101 74.248 191.157 74.44C191.213 74.624 191.257 74.804 191.289 74.98H191.337C191.385 74.78 191.461 74.52 191.565 74.2C191.669 73.872 191.777 73.544 191.889 73.216L193.197 69.568H194.337L191.565 76.888C191.413 77.288 191.233 77.636 191.025 77.932C190.825 78.236 190.577 78.468 190.281 78.628C189.993 78.796 189.641 78.88 189.225 78.88C189.033 78.88 188.865 78.868 188.721 78.844C188.577 78.828 188.453 78.808 188.349 78.784V77.944C188.437 77.96 188.541 77.976 188.661 77.992C188.789 78.008 188.921 78.016 189.057 78.016C189.305 78.016 189.517 77.968 189.693 77.872C189.877 77.784 190.033 77.652 190.161 77.476C190.289 77.308 190.397 77.108 190.485 76.876L190.821 76.024L188.229 69.568ZM200.766 71.188C200.766 71.588 200.646 71.9 200.406 72.124C200.166 72.348 199.858 72.5 199.482 72.58V72.628C199.882 72.684 200.23 72.828 200.526 73.06C200.822 73.284 200.97 73.636 200.97 74.116C200.97 74.388 200.918 74.64 200.814 74.872C200.718 75.104 200.566 75.304 200.358 75.472C200.15 75.64 199.882 75.772 199.554 75.868C199.226 75.956 198.83 76 198.366 76H195.594V69.568H198.354C198.81 69.568 199.218 69.62 199.578 69.724C199.946 69.82 200.234 69.988 200.442 70.228C200.658 70.46 200.766 70.78 200.766 71.188ZM199.878 74.116C199.878 73.748 199.738 73.484 199.458 73.324C199.178 73.164 198.766 73.084 198.222 73.084H196.65V75.148H198.246C198.774 75.148 199.178 75.072 199.458 74.92C199.738 74.76 199.878 74.492 199.878 74.116ZM199.698 71.32C199.698 71.016 199.586 70.796 199.362 70.66C199.146 70.516 198.79 70.444 198.294 70.444H196.65V72.208H198.102C198.622 72.208 199.018 72.136 199.29 71.992C199.562 71.848 199.698 71.624 199.698 71.32ZM205.184 69.46C205.968 69.46 206.548 69.632 206.924 69.976C207.3 70.32 207.488 70.868 207.488 71.62V76H206.72L206.516 75.088H206.468C206.284 75.32 206.092 75.516 205.892 75.676C205.7 75.828 205.476 75.94 205.22 76.012C204.972 76.084 204.668 76.12 204.308 76.12C203.924 76.12 203.576 76.052 203.264 75.916C202.96 75.78 202.72 75.572 202.544 75.292C202.368 75.004 202.28 74.644 202.28 74.212C202.28 73.572 202.532 73.08 203.036 72.736C203.54 72.384 204.316 72.192 205.364 72.16L206.456 72.124V71.74C206.456 71.204 206.34 70.832 206.108 70.624C205.876 70.416 205.548 70.312 205.124 70.312C204.788 70.312 204.468 70.364 204.164 70.468C203.86 70.564 203.576 70.676 203.312 70.804L202.988 70.012C203.268 69.86 203.6 69.732 203.984 69.628C204.368 69.516 204.768 69.46 205.184 69.46ZM205.496 72.892C204.696 72.924 204.14 73.052 203.828 73.276C203.524 73.5 203.372 73.816 203.372 74.224C203.372 74.584 203.48 74.848 203.696 75.016C203.92 75.184 204.204 75.268 204.548 75.268C205.092 75.268 205.544 75.12 205.904 74.824C206.264 74.52 206.444 74.056 206.444 73.432V72.856L205.496 72.892ZM210.639 71.908C210.639 72.284 210.743 72.564 210.951 72.748C211.167 72.924 211.475 73.012 211.875 73.012C212.275 73.012 212.639 72.952 212.967 72.832C213.295 72.704 213.631 72.536 213.975 72.328V69.568H215.031V76H213.975V73.132C213.615 73.364 213.259 73.548 212.907 73.684C212.563 73.812 212.147 73.876 211.659 73.876C211.003 73.876 210.491 73.704 210.123 73.36C209.763 73.016 209.583 72.556 209.583 71.98V69.568H210.639V71.908ZM219.75 69.46C220.534 69.46 221.114 69.632 221.49 69.976C221.866 70.32 222.054 70.868 222.054 71.62V76H221.286L221.082 75.088H221.034C220.85 75.32 220.658 75.516 220.458 75.676C220.266 75.828 220.042 75.94 219.786 76.012C219.538 76.084 219.234 76.12 218.874 76.12C218.49 76.12 218.142 76.052 217.83 75.916C217.526 75.78 217.286 75.572 217.11 75.292C216.934 75.004 216.846 74.644 216.846 74.212C216.846 73.572 217.098 73.08 217.602 72.736C218.106 72.384 218.882 72.192 219.93 72.16L221.022 72.124V71.74C221.022 71.204 220.906 70.832 220.674 70.624C220.442 70.416 220.114 70.312 219.69 70.312C219.354 70.312 219.034 70.364 218.73 70.468C218.426 70.564 218.142 70.676 217.878 70.804L217.554 70.012C217.834 69.86 218.166 69.732 218.55 69.628C218.934 69.516 219.334 69.46 219.75 69.46ZM220.062 72.892C219.262 72.924 218.706 73.052 218.394 73.276C218.09 73.5 217.938 73.816 217.938 74.224C217.938 74.584 218.046 74.848 218.262 75.016C218.486 75.184 218.77 75.268 219.114 75.268C219.658 75.268 220.11 75.12 220.47 74.824C220.83 74.52 221.01 74.056 221.01 73.432V72.856L220.062 72.892Z" fill="#30CC71"/>
</g>
<path d="M296 40V98C296 103.523 291.523 108 286 108H264C258.477 108 254 112.477 254 118V150" stroke="url(#paint1_linear_865_70285)"/>
<g filter="url(#filter1_d_865_70285)">
<rect x="228" y="10" width="134" height="31" rx="4" fill="white" shape-rendering="crispEdges"/>
<path d="M248.068 30.144C247.5 30.144 246.98 30.04 246.508 29.832C246.036 29.616 245.636 29.324 245.308 28.956C244.98 28.588 244.744 28.176 244.6 27.72L245.62 27.3C245.836 27.876 246.156 28.32 246.58 28.632C247.012 28.936 247.516 29.088 248.092 29.088C248.444 29.088 248.752 29.032 249.016 28.92C249.28 28.808 249.484 28.652 249.628 28.452C249.78 28.244 249.856 28.004 249.856 27.732C249.856 27.356 249.748 27.06 249.532 26.844C249.324 26.62 249.016 26.452 248.608 26.34L246.964 25.836C246.316 25.636 245.82 25.32 245.476 24.888C245.132 24.456 244.96 23.96 244.96 23.4C244.96 22.912 245.076 22.484 245.308 22.116C245.548 21.74 245.876 21.448 246.292 21.24C246.716 21.024 247.196 20.916 247.732 20.916C248.268 20.916 248.752 21.012 249.184 21.204C249.624 21.396 249.996 21.656 250.3 21.984C250.604 22.304 250.828 22.672 250.972 23.088L249.964 23.508C249.772 23.004 249.484 22.624 249.1 22.368C248.716 22.104 248.264 21.972 247.744 21.972C247.424 21.972 247.14 22.028 246.892 22.14C246.652 22.244 246.464 22.4 246.328 22.608C246.2 22.808 246.136 23.048 246.136 23.328C246.136 23.656 246.24 23.948 246.448 24.204C246.656 24.46 246.972 24.656 247.396 24.792L248.896 25.236C249.6 25.452 250.132 25.76 250.492 26.16C250.852 26.56 251.032 27.056 251.032 27.648C251.032 28.136 250.904 28.568 250.648 28.944C250.4 29.32 250.052 29.616 249.604 29.832C249.164 30.04 248.652 30.144 248.068 30.144ZM252.994 30V21.06H258.814V22.14H254.17V24.972H258.574V26.052H254.17V28.92H258.814V30H252.994ZM264.783 30.144C264.151 30.144 263.559 30.032 263.007 29.808C262.455 29.576 261.971 29.252 261.555 28.836C261.147 28.42 260.827 27.932 260.595 27.372C260.363 26.804 260.247 26.188 260.247 25.524C260.247 24.852 260.363 24.236 260.595 23.676C260.827 23.116 261.147 22.628 261.555 22.212C261.971 21.796 262.451 21.476 262.995 21.252C263.547 21.028 264.143 20.916 264.783 20.916C265.423 20.916 266.015 21.032 266.559 21.264C267.111 21.488 267.591 21.808 267.999 22.224C268.415 22.632 268.739 23.116 268.971 23.676C269.211 24.236 269.331 24.852 269.331 25.524C269.331 26.188 269.211 26.804 268.971 27.372C268.739 27.932 268.415 28.42 267.999 28.836C267.591 29.252 267.111 29.576 266.559 29.808C266.015 30.032 265.423 30.144 264.783 30.144ZM264.783 29.052C265.279 29.052 265.731 28.964 266.139 28.788C266.547 28.604 266.899 28.352 267.195 28.032C267.499 27.704 267.731 27.328 267.891 26.904C268.059 26.472 268.143 26.012 268.143 25.524C268.143 25.036 268.059 24.58 267.891 24.156C267.731 23.732 267.499 23.36 267.195 23.04C266.899 22.712 266.547 22.46 266.139 22.284C265.731 22.1 265.279 22.008 264.783 22.008C264.295 22.008 263.847 22.1 263.439 22.284C263.031 22.46 262.675 22.712 262.371 23.04C262.075 23.36 261.843 23.732 261.675 24.156C261.507 24.58 261.423 25.036 261.423 25.524C261.423 26.012 261.507 26.472 261.675 26.904C261.843 27.328 262.075 27.704 262.371 28.032C262.675 28.352 263.031 28.604 263.439 28.788C263.847 28.964 264.295 29.052 264.783 29.052ZM279.217 26.772C279.217 27.308 279.145 27.784 279.001 28.2C278.865 28.608 278.665 28.956 278.401 29.244C278.145 29.532 277.829 29.752 277.453 29.904C277.085 30.048 276.673 30.12 276.217 30.12C275.793 30.12 275.401 30.048 275.041 29.904C274.681 29.752 274.369 29.532 274.105 29.244C273.841 28.956 273.633 28.608 273.481 28.2C273.337 27.784 273.265 27.308 273.265 26.772C273.265 26.06 273.385 25.46 273.625 24.972C273.865 24.476 274.209 24.1 274.657 23.844C275.105 23.58 275.637 23.448 276.253 23.448C276.837 23.448 277.349 23.58 277.789 23.844C278.237 24.1 278.585 24.476 278.833 24.972C279.089 25.46 279.217 26.06 279.217 26.772ZM274.357 26.772C274.357 27.276 274.421 27.716 274.549 28.092C274.685 28.46 274.893 28.744 275.173 28.944C275.453 29.144 275.809 29.244 276.241 29.244C276.673 29.244 277.029 29.144 277.309 28.944C277.589 28.744 277.793 28.46 277.921 28.092C278.057 27.716 278.125 27.276 278.125 26.772C278.125 26.26 278.057 25.824 277.921 25.464C277.785 25.104 277.577 24.828 277.297 24.636C277.025 24.436 276.669 24.336 276.229 24.336C275.573 24.336 275.097 24.552 274.801 24.984C274.505 25.416 274.357 26.012 274.357 26.772ZM286.566 23.568V30H285.51V24.468H282.186V30H281.13V23.568H286.566ZM293.298 24.456H291.198V30H290.154V24.456H288.078V23.568H293.298V24.456ZM295.801 27.492C295.801 27.564 295.797 27.668 295.789 27.804C295.789 27.932 295.785 28.072 295.777 28.224C295.769 28.368 295.761 28.508 295.753 28.644C295.745 28.772 295.737 28.876 295.729 28.956L299.173 23.568H300.469V30H299.485V26.208C299.485 26.08 299.485 25.912 299.485 25.704C299.493 25.496 299.501 25.292 299.509 25.092C299.517 24.884 299.525 24.728 299.533 24.624L296.113 30H294.805V23.568H295.801V27.492ZM309.656 23.568V30H308.708V25.896C308.708 25.728 308.712 25.552 308.72 25.368C308.736 25.184 308.752 25.004 308.768 24.828H308.732L306.632 30H305.744L303.704 24.828H303.668C303.684 25.004 303.692 25.184 303.692 25.368C303.7 25.552 303.704 25.74 303.704 25.932V30H302.756V23.568H304.16L306.188 28.74L308.252 23.568H309.656ZM313.006 23.568V30H311.95V23.568H313.006ZM312.49 21.156C312.65 21.156 312.79 21.212 312.91 21.324C313.038 21.428 313.102 21.596 313.102 21.828C313.102 22.052 313.038 22.22 312.91 22.332C312.79 22.444 312.65 22.5 312.49 22.5C312.314 22.5 312.166 22.444 312.046 22.332C311.926 22.22 311.866 22.052 311.866 21.828C311.866 21.596 311.926 21.428 312.046 21.324C312.166 21.212 312.314 21.156 312.49 21.156ZM316.975 23.448C317.463 23.448 317.887 23.516 318.247 23.652C318.607 23.78 318.887 23.972 319.087 24.228C319.287 24.476 319.387 24.78 319.387 25.14C319.387 25.532 319.279 25.844 319.063 26.076C318.847 26.3 318.551 26.464 318.175 26.568V26.616C318.431 26.688 318.667 26.788 318.883 26.916C319.099 27.044 319.271 27.212 319.399 27.42C319.535 27.628 319.603 27.896 319.603 28.224C319.603 28.576 319.503 28.896 319.303 29.184C319.111 29.472 318.811 29.7 318.403 29.868C318.003 30.036 317.487 30.12 316.855 30.12C316.551 30.12 316.259 30.104 315.979 30.072C315.707 30.04 315.459 29.992 315.235 29.928C315.019 29.864 314.827 29.788 314.659 29.7V28.752C314.931 28.88 315.251 28.996 315.619 29.1C315.995 29.204 316.403 29.256 316.843 29.256C317.163 29.256 317.451 29.22 317.707 29.148C317.971 29.076 318.179 28.964 318.331 28.812C318.483 28.652 318.559 28.436 318.559 28.164C318.559 27.916 318.491 27.716 318.355 27.564C318.219 27.404 318.015 27.284 317.743 27.204C317.479 27.124 317.139 27.084 316.723 27.084H315.859V26.22H316.555C317.107 26.22 317.547 26.148 317.875 26.004C318.211 25.852 318.379 25.596 318.379 25.236C318.379 24.932 318.251 24.704 317.995 24.552C317.747 24.4 317.387 24.324 316.915 24.324C316.563 24.324 316.251 24.36 315.979 24.432C315.715 24.496 315.423 24.596 315.103 24.732L314.731 23.892C315.075 23.74 315.435 23.628 315.811 23.556C316.187 23.484 316.575 23.448 316.975 23.448ZM323.842 23.46C324.626 23.46 325.206 23.632 325.582 23.976C325.958 24.32 326.146 24.868 326.146 25.62V30H325.378L325.174 29.088H325.126C324.942 29.32 324.75 29.516 324.55 29.676C324.358 29.828 324.134 29.94 323.878 30.012C323.63 30.084 323.326 30.12 322.966 30.12C322.582 30.12 322.234 30.052 321.922 29.916C321.618 29.78 321.378 29.572 321.202 29.292C321.026 29.004 320.938 28.644 320.938 28.212C320.938 27.572 321.19 27.08 321.694 26.736C322.198 26.384 322.974 26.192 324.022 26.16L325.114 26.124V25.74C325.114 25.204 324.998 24.832 324.766 24.624C324.534 24.416 324.206 24.312 323.782 24.312C323.446 24.312 323.126 24.364 322.822 24.468C322.518 24.564 322.234 24.676 321.97 24.804L321.646 24.012C321.926 23.86 322.258 23.732 322.642 23.628C323.026 23.516 323.426 23.46 323.842 23.46ZM324.154 26.892C323.354 26.924 322.798 27.052 322.486 27.276C322.182 27.5 322.03 27.816 322.03 28.224C322.03 28.584 322.138 28.848 322.354 29.016C322.578 29.184 322.862 29.268 323.206 29.268C323.75 29.268 324.202 29.12 324.562 28.824C324.922 28.52 325.102 28.056 325.102 27.432V26.856L324.154 26.892ZM334.721 32.232H333.689V30H328.373V23.568H329.429V29.112H332.753V23.568H333.809V29.124H334.721V32.232ZM337.251 23.568V30H336.195V23.568H337.251ZM336.735 21.156C336.895 21.156 337.035 21.212 337.155 21.324C337.283 21.428 337.347 21.596 337.347 21.828C337.347 22.052 337.283 22.22 337.155 22.332C337.035 22.444 336.895 22.5 336.735 22.5C336.559 22.5 336.411 22.444 336.291 22.332C336.171 22.22 336.111 22.052 336.111 21.828C336.111 21.596 336.171 21.428 336.291 21.324C336.411 21.212 336.559 21.156 336.735 21.156ZM339.924 30H338.7L340.536 27.3C340.288 27.236 340.048 27.136 339.816 27C339.584 26.856 339.396 26.66 339.252 26.412C339.108 26.156 339.036 25.84 339.036 25.464C339.036 24.848 339.244 24.38 339.66 24.06C340.076 23.732 340.628 23.568 341.316 23.568H344.196V30H343.14V27.444H341.58L339.924 30ZM340.056 25.476C340.056 25.844 340.192 26.12 340.464 26.304C340.744 26.48 341.132 26.568 341.628 26.568H343.14V24.444H341.424C340.936 24.444 340.584 24.54 340.368 24.732C340.16 24.924 340.056 25.172 340.056 25.476Z" fill="#30CC71"/>
</g>
<g filter="url(#filter2_f_865_70285)">
<circle cx="266" cy="108" r="8" fill="#30CC71" fill-opacity="0.4"/>
</g>
<circle cx="266" cy="108" r="4" fill="#30CC71"/>
<path d="M434 107V160C434 165.523 429.523 170 424 170H270" stroke="url(#paint2_linear_865_70285)"/>
<g filter="url(#filter3_d_865_70285)">
<rect x="354" y="76" width="150" height="31" rx="4" fill="white" shape-rendering="crispEdges"/>
<path d="M376.192 91.188C376.192 91.588 376.072 91.9 375.832 92.124C375.592 92.348 375.284 92.5 374.908 92.58V92.628C375.308 92.684 375.656 92.828 375.952 93.06C376.248 93.284 376.396 93.636 376.396 94.116C376.396 94.388 376.344 94.64 376.24 94.872C376.144 95.104 375.992 95.304 375.784 95.472C375.576 95.64 375.308 95.772 374.98 95.868C374.652 95.956 374.256 96 373.792 96H371.02V89.568H373.78C374.236 89.568 374.644 89.62 375.004 89.724C375.372 89.82 375.66 89.988 375.868 90.228C376.084 90.46 376.192 90.78 376.192 91.188ZM375.304 94.116C375.304 93.748 375.164 93.484 374.884 93.324C374.604 93.164 374.192 93.084 373.648 93.084H372.076V95.148H373.672C374.2 95.148 374.604 95.072 374.884 94.92C375.164 94.76 375.304 94.492 375.304 94.116ZM375.124 91.32C375.124 91.016 375.012 90.796 374.788 90.66C374.572 90.516 374.216 90.444 373.72 90.444H372.076V92.208H373.528C374.048 92.208 374.444 92.136 374.716 91.992C374.988 91.848 375.124 91.624 375.124 91.32ZM379.17 93.492C379.17 93.564 379.166 93.668 379.158 93.804C379.158 93.932 379.154 94.072 379.146 94.224C379.138 94.368 379.13 94.508 379.122 94.644C379.114 94.772 379.106 94.876 379.098 94.956L382.542 89.568H383.838V96H382.854V92.208C382.854 92.08 382.854 91.912 382.854 91.704C382.862 91.496 382.87 91.292 382.878 91.092C382.886 90.884 382.894 90.728 382.902 90.624L379.482 96H378.174V89.568H379.17V93.492ZM393.025 89.568V96H392.077V91.896C392.077 91.728 392.081 91.552 392.089 91.368C392.105 91.184 392.121 91.004 392.137 90.828H392.101L390.001 96H389.113L387.073 90.828H387.037C387.053 91.004 387.061 91.184 387.061 91.368C387.069 91.552 387.073 91.74 387.073 91.932V96H386.125V89.568H387.529L389.557 94.74L391.621 89.568H393.025ZM400.91 92.772C400.91 93.308 400.838 93.784 400.694 94.2C400.558 94.608 400.358 94.956 400.094 95.244C399.838 95.532 399.522 95.752 399.146 95.904C398.778 96.048 398.366 96.12 397.91 96.12C397.486 96.12 397.094 96.048 396.734 95.904C396.374 95.752 396.062 95.532 395.798 95.244C395.534 94.956 395.326 94.608 395.174 94.2C395.03 93.784 394.958 93.308 394.958 92.772C394.958 92.06 395.078 91.46 395.318 90.972C395.558 90.476 395.902 90.1 396.35 89.844C396.798 89.58 397.33 89.448 397.946 89.448C398.53 89.448 399.042 89.58 399.482 89.844C399.93 90.1 400.278 90.476 400.526 90.972C400.782 91.46 400.91 92.06 400.91 92.772ZM396.05 92.772C396.05 93.276 396.114 93.716 396.242 94.092C396.378 94.46 396.586 94.744 396.866 94.944C397.146 95.144 397.502 95.244 397.934 95.244C398.366 95.244 398.722 95.144 399.002 94.944C399.282 94.744 399.486 94.46 399.614 94.092C399.75 93.716 399.818 93.276 399.818 92.772C399.818 92.26 399.75 91.824 399.614 91.464C399.478 91.104 399.27 90.828 398.99 90.636C398.718 90.436 398.362 90.336 397.922 90.336C397.266 90.336 396.79 90.552 396.494 90.984C396.198 91.416 396.05 92.012 396.05 92.772ZM406.748 89.568V90.456H403.88V96H402.824V89.568H406.748ZM409.251 93.492C409.251 93.564 409.247 93.668 409.239 93.804C409.239 93.932 409.235 94.072 409.227 94.224C409.219 94.368 409.211 94.508 409.203 94.644C409.195 94.772 409.187 94.876 409.179 94.956L412.623 89.568H413.919V96H412.935V92.208C412.935 92.08 412.935 91.912 412.935 91.704C412.943 91.496 412.951 91.292 412.959 91.092C412.967 90.884 412.975 90.728 412.983 90.624L409.563 96H408.255V89.568H409.251V93.492ZM423.296 89.568V95.112H424.232V98.232H423.212V96H418.736V98.232H417.728V95.112H418.244C418.612 94.6 418.916 94.044 419.156 93.444C419.404 92.836 419.588 92.204 419.708 91.548C419.836 90.884 419.904 90.224 419.912 89.568H423.296ZM420.848 90.396C420.816 90.94 420.732 91.504 420.596 92.088C420.46 92.664 420.284 93.216 420.068 93.744C419.86 94.272 419.616 94.728 419.336 95.112H422.276V90.396H420.848ZM431.325 92.772C431.325 93.308 431.253 93.784 431.109 94.2C430.973 94.608 430.773 94.956 430.509 95.244C430.253 95.532 429.937 95.752 429.561 95.904C429.193 96.048 428.781 96.12 428.325 96.12C427.901 96.12 427.509 96.048 427.149 95.904C426.789 95.752 426.477 95.532 426.213 95.244C425.949 94.956 425.741 94.608 425.589 94.2C425.445 93.784 425.373 93.308 425.373 92.772C425.373 92.06 425.493 91.46 425.733 90.972C425.973 90.476 426.317 90.1 426.765 89.844C427.213 89.58 427.745 89.448 428.361 89.448C428.945 89.448 429.457 89.58 429.897 89.844C430.345 90.1 430.693 90.476 430.941 90.972C431.197 91.46 431.325 92.06 431.325 92.772ZM426.465 92.772C426.465 93.276 426.529 93.716 426.657 94.092C426.793 94.46 427.001 94.744 427.281 94.944C427.561 95.144 427.917 95.244 428.349 95.244C428.781 95.244 429.137 95.144 429.417 94.944C429.697 94.744 429.901 94.46 430.029 94.092C430.165 93.716 430.233 93.276 430.233 92.772C430.233 92.26 430.165 91.824 430.029 91.464C429.893 91.104 429.685 90.828 429.405 90.636C429.133 90.436 428.777 90.336 428.337 90.336C427.681 90.336 427.205 90.552 426.909 90.984C426.613 91.416 426.465 92.012 426.465 92.772ZM437.077 92.712L434.857 89.568H436.057L437.713 91.992L439.357 89.568H440.545L438.325 92.712L440.665 96H439.465L437.713 93.432L435.937 96H434.749L437.077 92.712ZM447.502 92.772C447.502 93.308 447.43 93.784 447.286 94.2C447.15 94.608 446.95 94.956 446.686 95.244C446.43 95.532 446.114 95.752 445.738 95.904C445.37 96.048 444.958 96.12 444.502 96.12C444.078 96.12 443.686 96.048 443.326 95.904C442.966 95.752 442.654 95.532 442.39 95.244C442.126 94.956 441.918 94.608 441.766 94.2C441.622 93.784 441.55 93.308 441.55 92.772C441.55 92.06 441.67 91.46 441.91 90.972C442.15 90.476 442.494 90.1 442.942 89.844C443.39 89.58 443.922 89.448 444.538 89.448C445.122 89.448 445.634 89.58 446.074 89.844C446.522 90.1 446.87 90.476 447.118 90.972C447.374 91.46 447.502 92.06 447.502 92.772ZM442.642 92.772C442.642 93.276 442.706 93.716 442.834 94.092C442.97 94.46 443.178 94.744 443.458 94.944C443.738 95.144 444.094 95.244 444.526 95.244C444.958 95.244 445.314 95.144 445.594 94.944C445.874 94.744 446.078 94.46 446.206 94.092C446.342 93.716 446.41 93.276 446.41 92.772C446.41 92.26 446.342 91.824 446.206 91.464C446.07 91.104 445.862 90.828 445.582 90.636C445.31 90.436 444.954 90.336 444.514 90.336C443.858 90.336 443.382 90.552 443.086 90.984C442.79 91.416 442.642 92.012 442.642 92.772ZM451.996 96.12C451.428 96.12 450.92 96.004 450.472 95.772C450.032 95.54 449.684 95.18 449.428 94.692C449.18 94.204 449.056 93.58 449.056 92.82C449.056 92.028 449.188 91.384 449.452 90.888C449.716 90.392 450.072 90.028 450.52 89.796C450.976 89.564 451.492 89.448 452.068 89.448C452.396 89.448 452.712 89.484 453.016 89.556C453.32 89.62 453.568 89.7 453.76 89.796L453.436 90.672C453.244 90.6 453.02 90.532 452.764 90.468C452.508 90.404 452.268 90.372 452.044 90.372C451.612 90.372 451.256 90.464 450.976 90.648C450.696 90.832 450.488 91.104 450.352 91.464C450.216 91.824 450.148 92.272 450.148 92.808C450.148 93.32 450.216 93.756 450.352 94.116C450.488 94.476 450.692 94.748 450.964 94.932C451.236 95.116 451.576 95.208 451.984 95.208C452.336 95.208 452.644 95.172 452.908 95.1C453.18 95.028 453.428 94.94 453.652 94.836V95.772C453.436 95.884 453.196 95.968 452.932 96.024C452.676 96.088 452.364 96.12 451.996 96.12ZM459.861 90.456H457.761V96H456.717V90.456H454.641V89.568H459.861V90.456ZM462.364 93.492C462.364 93.564 462.36 93.668 462.352 93.804C462.352 93.932 462.348 94.072 462.34 94.224C462.332 94.368 462.324 94.508 462.316 94.644C462.308 94.772 462.3 94.876 462.292 94.956L465.736 89.568H467.032V96H466.048V92.208C466.048 92.08 466.048 91.912 466.048 91.704C466.056 91.496 466.064 91.292 466.072 91.092C466.08 90.884 466.088 90.728 466.096 90.624L462.676 96H461.368V89.568H462.364V93.492ZM470.375 89.568V92.244H473.867V89.568H474.923V96H473.867V93.132H470.375V96H469.319V89.568H470.375ZM481.124 89.568V90.456H478.256V96H477.2V89.568H481.124ZM481.623 89.568H482.751L484.143 93.228C484.223 93.444 484.295 93.652 484.359 93.852C484.431 94.052 484.495 94.248 484.551 94.44C484.607 94.624 484.651 94.804 484.683 94.98H484.731C484.779 94.78 484.855 94.52 484.959 94.2C485.063 93.872 485.171 93.544 485.283 93.216L486.591 89.568H487.731L484.959 96.888C484.807 97.288 484.627 97.636 484.419 97.932C484.219 98.236 483.971 98.468 483.675 98.628C483.387 98.796 483.035 98.88 482.619 98.88C482.427 98.88 482.259 98.868 482.115 98.844C481.971 98.828 481.847 98.808 481.743 98.784V97.944C481.831 97.96 481.935 97.976 482.055 97.992C482.183 98.008 482.315 98.016 482.451 98.016C482.699 98.016 482.911 97.968 483.087 97.872C483.271 97.784 483.427 97.652 483.555 97.476C483.683 97.308 483.791 97.108 483.879 96.876L484.215 96.024L481.623 89.568Z" fill="#30CC71"/>
</g>
<path d="M155 283V236C155 230.477 159.477 226 165 226H219" stroke="url(#paint3_linear_865_70285)"/>
<g filter="url(#filter4_d_865_70285)">
<rect x="95" y="278" width="126" height="31" rx="4" fill="white" shape-rendering="crispEdges"/>
<path d="M114.576 298H111.48V297.376L112.488 297.148V290.296L111.48 290.056V289.432H114.576V290.056L113.568 290.296V297.148L114.576 297.376V298ZM117.382 291.568V294.244H120.874V291.568H121.93V298H120.874V295.132H117.382V298H116.326V291.568H117.382ZM128.647 292.456H126.547V298H125.503V292.456H123.427V291.568H128.647V292.456ZM132.521 291.448C133.073 291.448 133.545 291.568 133.937 291.808C134.337 292.048 134.641 292.388 134.849 292.828C135.065 293.26 135.173 293.768 135.173 294.352V294.988H130.769C130.785 295.716 130.969 296.272 131.321 296.656C131.681 297.032 132.181 297.22 132.821 297.22C133.229 297.22 133.589 297.184 133.901 297.112C134.221 297.032 134.549 296.92 134.885 296.776V297.7C134.557 297.844 134.233 297.948 133.913 298.012C133.593 298.084 133.213 298.12 132.773 298.12C132.165 298.12 131.625 297.996 131.153 297.748C130.689 297.5 130.325 297.132 130.061 296.644C129.805 296.148 129.677 295.544 129.677 294.832C129.677 294.128 129.793 293.524 130.025 293.02C130.265 292.516 130.597 292.128 131.021 291.856C131.453 291.584 131.953 291.448 132.521 291.448ZM132.509 292.312C132.005 292.312 131.605 292.476 131.309 292.804C131.021 293.124 130.849 293.572 130.793 294.148H134.069C134.069 293.78 134.013 293.46 133.901 293.188C133.789 292.916 133.617 292.704 133.385 292.552C133.161 292.392 132.869 292.312 132.509 292.312ZM140.974 291.568V292.456H138.106V298H137.05V291.568H140.974ZM145.542 291.448C146.334 291.448 146.97 291.724 147.45 292.276C147.938 292.828 148.182 293.66 148.182 294.772C148.182 295.5 148.07 296.116 147.846 296.62C147.63 297.116 147.322 297.492 146.922 297.748C146.53 297.996 146.066 298.12 145.53 298.12C145.202 298.12 144.91 298.076 144.654 297.988C144.398 297.9 144.178 297.788 143.994 297.652C143.818 297.508 143.666 297.352 143.538 297.184H143.466C143.482 297.32 143.498 297.492 143.514 297.7C143.53 297.908 143.538 298.088 143.538 298.24V300.88H142.482V291.568H143.346L143.49 292.444H143.538C143.666 292.26 143.818 292.092 143.994 291.94C144.178 291.788 144.394 291.668 144.642 291.58C144.898 291.492 145.198 291.448 145.542 291.448ZM145.35 292.336C144.918 292.336 144.57 292.42 144.306 292.588C144.042 292.748 143.85 292.992 143.73 293.32C143.61 293.648 143.546 294.064 143.538 294.568V294.772C143.538 295.3 143.594 295.748 143.706 296.116C143.818 296.484 144.006 296.764 144.27 296.956C144.542 297.148 144.91 297.244 145.374 297.244C145.766 297.244 146.086 297.136 146.334 296.92C146.59 296.704 146.778 296.412 146.898 296.044C147.026 295.668 147.09 295.24 147.09 294.76C147.09 294.024 146.946 293.436 146.658 292.996C146.378 292.556 145.942 292.336 145.35 292.336ZM152.541 291.46C153.325 291.46 153.905 291.632 154.281 291.976C154.657 292.32 154.845 292.868 154.845 293.62V298H154.077L153.873 297.088H153.825C153.641 297.32 153.449 297.516 153.249 297.676C153.057 297.828 152.833 297.94 152.577 298.012C152.329 298.084 152.025 298.12 151.665 298.12C151.281 298.12 150.933 298.052 150.621 297.916C150.317 297.78 150.077 297.572 149.901 297.292C149.725 297.004 149.637 296.644 149.637 296.212C149.637 295.572 149.889 295.08 150.393 294.736C150.897 294.384 151.673 294.192 152.721 294.16L153.813 294.124V293.74C153.813 293.204 153.697 292.832 153.465 292.624C153.233 292.416 152.905 292.312 152.481 292.312C152.145 292.312 151.825 292.364 151.521 292.468C151.217 292.564 150.933 292.676 150.669 292.804L150.345 292.012C150.625 291.86 150.957 291.732 151.341 291.628C151.725 291.516 152.125 291.46 152.541 291.46ZM152.853 294.892C152.053 294.924 151.497 295.052 151.185 295.276C150.881 295.5 150.729 295.816 150.729 296.224C150.729 296.584 150.837 296.848 151.053 297.016C151.277 297.184 151.561 297.268 151.905 297.268C152.449 297.268 152.901 297.12 153.261 296.824C153.621 296.52 153.801 296.056 153.801 295.432V294.856L152.853 294.892ZM163.419 300.232H162.387V298H157.071V291.568H158.127V297.112H161.451V291.568H162.507V297.124H163.419V300.232ZM165.949 291.568V298H164.893V291.568H165.949ZM165.433 289.156C165.593 289.156 165.733 289.212 165.853 289.324C165.981 289.428 166.045 289.596 166.045 289.828C166.045 290.052 165.981 290.22 165.853 290.332C165.733 290.444 165.593 290.5 165.433 290.5C165.257 290.5 165.109 290.444 164.989 290.332C164.869 290.22 164.809 290.052 164.809 289.828C164.809 289.596 164.869 289.428 164.989 289.324C165.109 289.212 165.257 289.156 165.433 289.156ZM168.623 298H167.399L169.235 295.3C168.987 295.236 168.747 295.136 168.515 295C168.283 294.856 168.095 294.66 167.951 294.412C167.807 294.156 167.735 293.84 167.735 293.464C167.735 292.848 167.943 292.38 168.359 292.06C168.775 291.732 169.327 291.568 170.015 291.568H172.895V298H171.839V295.444H170.279L168.623 298ZM168.755 293.476C168.755 293.844 168.891 294.12 169.163 294.304C169.443 294.48 169.831 294.568 170.327 294.568H171.839V292.444H170.123C169.635 292.444 169.283 292.54 169.067 292.732C168.859 292.924 168.755 293.172 168.755 293.476ZM179.176 291.448C179.664 291.448 180.088 291.516 180.448 291.652C180.808 291.78 181.088 291.972 181.288 292.228C181.488 292.476 181.588 292.78 181.588 293.14C181.588 293.532 181.48 293.844 181.264 294.076C181.048 294.3 180.752 294.464 180.376 294.568V294.616C180.632 294.688 180.868 294.788 181.084 294.916C181.3 295.044 181.472 295.212 181.6 295.42C181.736 295.628 181.804 295.896 181.804 296.224C181.804 296.576 181.704 296.896 181.504 297.184C181.312 297.472 181.012 297.7 180.604 297.868C180.204 298.036 179.688 298.12 179.056 298.12C178.752 298.12 178.46 298.104 178.18 298.072C177.908 298.04 177.66 297.992 177.436 297.928C177.22 297.864 177.028 297.788 176.86 297.7V296.752C177.132 296.88 177.452 296.996 177.82 297.1C178.196 297.204 178.604 297.256 179.044 297.256C179.364 297.256 179.652 297.22 179.908 297.148C180.172 297.076 180.38 296.964 180.532 296.812C180.684 296.652 180.76 296.436 180.76 296.164C180.76 295.916 180.692 295.716 180.556 295.564C180.42 295.404 180.216 295.284 179.944 295.204C179.68 295.124 179.34 295.084 178.924 295.084H178.06V294.22H178.756C179.308 294.22 179.748 294.148 180.076 294.004C180.412 293.852 180.58 293.596 180.58 293.236C180.58 292.932 180.452 292.704 180.196 292.552C179.948 292.4 179.588 292.324 179.116 292.324C178.764 292.324 178.452 292.36 178.18 292.432C177.916 292.496 177.624 292.596 177.304 292.732L176.932 291.892C177.276 291.74 177.636 291.628 178.012 291.556C178.388 291.484 178.776 291.448 179.176 291.448ZM185.033 298L188.237 289.06H189.629L192.833 298H191.573L190.841 295.9H187.025L186.293 298H185.033ZM187.397 294.82H190.469L188.765 289.912H189.101L187.397 294.82ZM194.2 298V289.06H197.356C197.948 289.06 198.468 289.172 198.916 289.396C199.364 289.62 199.712 289.94 199.96 290.356C200.216 290.772 200.344 291.26 200.344 291.82C200.344 292.38 200.216 292.868 199.96 293.284C199.712 293.692 199.364 294.012 198.916 294.244C198.476 294.468 197.956 294.58 197.356 294.58H195.376V298H194.2ZM195.376 293.5H197.392C197.752 293.5 198.064 293.432 198.328 293.296C198.592 293.16 198.796 292.964 198.94 292.708C199.084 292.452 199.156 292.156 199.156 291.82C199.156 291.476 199.084 291.18 198.94 290.932C198.796 290.676 198.592 290.48 198.328 290.344C198.064 290.208 197.752 290.14 197.392 290.14H195.376V293.5ZM202.174 298V289.06H203.35V298H202.174Z" fill="#30CC71"/>
</g>
<g filter="url(#filter5_f_865_70285)">
<circle cx="192" cy="226" r="8" fill="#30CC71" fill-opacity="0.4"/>
</g>
<circle cx="192" cy="226" r="4" fill="#30CC71"/>
<path d="M297 356V331.19C297 325.667 292.523 321.19 287 321.19H265C259.477 321.19 255 316.713 255 311.19V251" stroke="url(#paint4_linear_865_70285)"/>
<g filter="url(#filter6_d_865_70285)">
<rect x="215" y="348" width="148" height="31" rx="4" fill="white" shape-rendering="crispEdges"/>
<path d="M233.712 361.448C234.2 361.448 234.624 361.516 234.984 361.652C235.344 361.78 235.624 361.972 235.824 362.228C236.024 362.476 236.124 362.78 236.124 363.14C236.124 363.532 236.016 363.844 235.8 364.076C235.584 364.3 235.288 364.464 234.912 364.568V364.616C235.168 364.688 235.404 364.788 235.62 364.916C235.836 365.044 236.008 365.212 236.136 365.42C236.272 365.628 236.34 365.896 236.34 366.224C236.34 366.576 236.24 366.896 236.04 367.184C235.848 367.472 235.548 367.7 235.14 367.868C234.74 368.036 234.224 368.12 233.592 368.12C233.288 368.12 232.996 368.104 232.716 368.072C232.444 368.04 232.196 367.992 231.972 367.928C231.756 367.864 231.564 367.788 231.396 367.7V366.752C231.668 366.88 231.988 366.996 232.356 367.1C232.732 367.204 233.14 367.256 233.58 367.256C233.9 367.256 234.188 367.22 234.444 367.148C234.708 367.076 234.916 366.964 235.068 366.812C235.22 366.652 235.296 366.436 235.296 366.164C235.296 365.916 235.228 365.716 235.092 365.564C234.956 365.404 234.752 365.284 234.48 365.204C234.216 365.124 233.876 365.084 233.46 365.084H232.596V364.22H233.292C233.844 364.22 234.284 364.148 234.612 364.004C234.948 363.852 235.116 363.596 235.116 363.236C235.116 362.932 234.988 362.704 234.732 362.552C234.484 362.4 234.124 362.324 233.652 362.324C233.3 362.324 232.988 362.36 232.716 362.432C232.452 362.496 232.16 362.596 231.84 362.732L231.468 361.892C231.812 361.74 232.172 361.628 232.548 361.556C232.924 361.484 233.312 361.448 233.712 361.448ZM245.043 361.568V368H244.095V363.896C244.095 363.728 244.099 363.552 244.107 363.368C244.123 363.184 244.139 363.004 244.155 362.828H244.119L242.019 368H241.131L239.091 362.828H239.055C239.071 363.004 239.079 363.184 239.079 363.368C239.087 363.552 239.091 363.74 239.091 363.932V368H238.143V361.568H239.547L241.575 366.74L243.639 361.568H245.043ZM248.392 361.568V368H247.336V361.568H248.392ZM247.876 359.156C248.036 359.156 248.176 359.212 248.296 359.324C248.424 359.428 248.488 359.596 248.488 359.828C248.488 360.052 248.424 360.22 248.296 360.332C248.176 360.444 248.036 360.5 247.876 360.5C247.7 360.5 247.552 360.444 247.432 360.332C247.312 360.22 247.252 360.052 247.252 359.828C247.252 359.596 247.312 359.428 247.432 359.324C247.552 359.212 247.7 359.156 247.876 359.156ZM251.726 361.568V364.244H255.218V361.568H256.274V368H255.218V365.132H251.726V368H250.67V361.568H251.726ZM259.606 361.568V364.244H263.098V361.568H264.154V368H263.098V365.132H259.606V368H258.55V361.568H259.606ZM267.487 361.568V368H266.431V361.568H267.487ZM266.971 359.156C267.131 359.156 267.271 359.212 267.391 359.324C267.519 359.428 267.583 359.596 267.583 359.828C267.583 360.052 267.519 360.22 267.391 360.332C267.271 360.444 267.131 360.5 266.971 360.5C266.795 360.5 266.647 360.444 266.527 360.332C266.407 360.22 266.347 360.052 266.347 359.828C266.347 359.596 266.407 359.428 266.527 359.324C266.647 359.212 266.795 359.156 266.971 359.156ZM274.659 368.12C274.091 368.12 273.583 368.004 273.135 367.772C272.695 367.54 272.347 367.18 272.091 366.692C271.843 366.204 271.719 365.58 271.719 364.82C271.719 364.028 271.851 363.384 272.115 362.888C272.379 362.392 272.735 362.028 273.183 361.796C273.639 361.564 274.155 361.448 274.731 361.448C275.059 361.448 275.375 361.484 275.679 361.556C275.983 361.62 276.231 361.7 276.423 361.796L276.099 362.672C275.907 362.6 275.683 362.532 275.427 362.468C275.171 362.404 274.931 362.372 274.707 362.372C274.275 362.372 273.919 362.464 273.639 362.648C273.359 362.832 273.151 363.104 273.015 363.464C272.879 363.824 272.811 364.272 272.811 364.808C272.811 365.32 272.879 365.756 273.015 366.116C273.151 366.476 273.355 366.748 273.627 366.932C273.899 367.116 274.239 367.208 274.647 367.208C274.999 367.208 275.307 367.172 275.571 367.1C275.843 367.028 276.091 366.94 276.315 366.836V367.772C276.099 367.884 275.859 367.968 275.595 368.024C275.339 368.088 275.027 368.12 274.659 368.12ZM280.569 361.448C281.121 361.448 281.593 361.568 281.985 361.808C282.385 362.048 282.689 362.388 282.897 362.828C283.113 363.26 283.221 363.768 283.221 364.352V364.988H278.817C278.833 365.716 279.017 366.272 279.369 366.656C279.729 367.032 280.229 367.22 280.869 367.22C281.277 367.22 281.637 367.184 281.949 367.112C282.269 367.032 282.597 366.92 282.933 366.776V367.7C282.605 367.844 282.281 367.948 281.961 368.012C281.641 368.084 281.261 368.12 280.821 368.12C280.213 368.12 279.673 367.996 279.201 367.748C278.737 367.5 278.373 367.132 278.109 366.644C277.853 366.148 277.725 365.544 277.725 364.832C277.725 364.128 277.841 363.524 278.073 363.02C278.313 362.516 278.645 362.128 279.069 361.856C279.501 361.584 280.001 361.448 280.569 361.448ZM280.557 362.312C280.053 362.312 279.653 362.476 279.357 362.804C279.069 363.124 278.897 363.572 278.841 364.148H282.117C282.117 363.78 282.061 363.46 281.949 363.188C281.837 362.916 281.665 362.704 281.433 362.552C281.209 362.392 280.917 362.312 280.557 362.312ZM288.158 361.448C288.95 361.448 289.586 361.724 290.066 362.276C290.554 362.828 290.798 363.66 290.798 364.772C290.798 365.5 290.686 366.116 290.462 366.62C290.246 367.116 289.938 367.492 289.538 367.748C289.146 367.996 288.682 368.12 288.146 368.12C287.818 368.12 287.526 368.076 287.27 367.988C287.014 367.9 286.794 367.788 286.61 367.652C286.434 367.508 286.282 367.352 286.154 367.184H286.082C286.098 367.32 286.114 367.492 286.13 367.7C286.146 367.908 286.154 368.088 286.154 368.24V370.88H285.098V361.568H285.962L286.106 362.444H286.154C286.282 362.26 286.434 362.092 286.61 361.94C286.794 361.788 287.01 361.668 287.258 361.58C287.514 361.492 287.814 361.448 288.158 361.448ZM287.966 362.336C287.534 362.336 287.186 362.42 286.922 362.588C286.658 362.748 286.466 362.992 286.346 363.32C286.226 363.648 286.162 364.064 286.154 364.568V364.772C286.154 365.3 286.21 365.748 286.322 366.116C286.434 366.484 286.622 366.764 286.886 366.956C287.158 367.148 287.526 367.244 287.99 367.244C288.382 367.244 288.702 367.136 288.95 366.92C289.206 366.704 289.394 366.412 289.514 366.044C289.642 365.668 289.706 365.24 289.706 364.76C289.706 364.024 289.562 363.436 289.274 362.996C288.994 362.556 288.558 362.336 287.966 362.336ZM295.205 361.448C295.757 361.448 296.229 361.568 296.621 361.808C297.021 362.048 297.325 362.388 297.533 362.828C297.749 363.26 297.857 363.768 297.857 364.352V364.988H293.453C293.469 365.716 293.653 366.272 294.005 366.656C294.365 367.032 294.865 367.22 295.505 367.22C295.913 367.22 296.273 367.184 296.585 367.112C296.905 367.032 297.233 366.92 297.569 366.776V367.7C297.241 367.844 296.917 367.948 296.597 368.012C296.277 368.084 295.897 368.12 295.457 368.12C294.849 368.12 294.309 367.996 293.837 367.748C293.373 367.5 293.009 367.132 292.745 366.644C292.489 366.148 292.361 365.544 292.361 364.832C292.361 364.128 292.477 363.524 292.709 363.02C292.949 362.516 293.281 362.128 293.705 361.856C294.137 361.584 294.637 361.448 295.205 361.448ZM295.193 362.312C294.689 362.312 294.289 362.476 293.993 362.804C293.705 363.124 293.533 363.572 293.477 364.148H296.753C296.753 363.78 296.697 363.46 296.585 363.188C296.473 362.916 296.301 362.704 296.069 362.552C295.845 362.392 295.553 362.312 295.193 362.312ZM304.51 361.568V367.112H305.446V370.232H304.426V368H299.95V370.232H298.942V367.112H299.458C299.826 366.6 300.13 366.044 300.37 365.444C300.618 364.836 300.802 364.204 300.922 363.548C301.05 362.884 301.118 362.224 301.126 361.568H304.51ZM302.062 362.396C302.03 362.94 301.946 363.504 301.81 364.088C301.674 364.664 301.498 365.216 301.282 365.744C301.074 366.272 300.83 366.728 300.55 367.112H303.49V362.396H302.062ZM312.539 364.772C312.539 365.308 312.467 365.784 312.323 366.2C312.187 366.608 311.987 366.956 311.723 367.244C311.467 367.532 311.151 367.752 310.775 367.904C310.407 368.048 309.995 368.12 309.539 368.12C309.115 368.12 308.723 368.048 308.363 367.904C308.003 367.752 307.691 367.532 307.427 367.244C307.163 366.956 306.955 366.608 306.803 366.2C306.659 365.784 306.587 365.308 306.587 364.772C306.587 364.06 306.707 363.46 306.947 362.972C307.187 362.476 307.531 362.1 307.979 361.844C308.427 361.58 308.959 361.448 309.575 361.448C310.159 361.448 310.671 361.58 311.111 361.844C311.559 362.1 311.907 362.476 312.155 362.972C312.411 363.46 312.539 364.06 312.539 364.772ZM307.679 364.772C307.679 365.276 307.743 365.716 307.871 366.092C308.007 366.46 308.215 366.744 308.495 366.944C308.775 367.144 309.131 367.244 309.563 367.244C309.995 367.244 310.351 367.144 310.631 366.944C310.911 366.744 311.115 366.46 311.243 366.092C311.379 365.716 311.447 365.276 311.447 364.772C311.447 364.26 311.379 363.824 311.243 363.464C311.107 363.104 310.899 362.828 310.619 362.636C310.347 362.436 309.991 362.336 309.551 362.336C308.895 362.336 308.419 362.552 308.123 362.984C307.827 363.416 307.679 364.012 307.679 364.772ZM319.625 363.188C319.625 363.588 319.505 363.9 319.265 364.124C319.025 364.348 318.717 364.5 318.341 364.58V364.628C318.741 364.684 319.089 364.828 319.385 365.06C319.681 365.284 319.829 365.636 319.829 366.116C319.829 366.388 319.777 366.64 319.673 366.872C319.577 367.104 319.425 367.304 319.217 367.472C319.009 367.64 318.741 367.772 318.413 367.868C318.085 367.956 317.689 368 317.225 368H314.453V361.568H317.213C317.669 361.568 318.077 361.62 318.437 361.724C318.805 361.82 319.093 361.988 319.301 362.228C319.517 362.46 319.625 362.78 319.625 363.188ZM318.737 366.116C318.737 365.748 318.597 365.484 318.317 365.324C318.037 365.164 317.625 365.084 317.081 365.084H315.509V367.148H317.105C317.633 367.148 318.037 367.072 318.317 366.92C318.597 366.76 318.737 366.492 318.737 366.116ZM318.557 363.32C318.557 363.016 318.445 362.796 318.221 362.66C318.005 362.516 317.649 362.444 317.153 362.444H315.509V364.208H316.961C317.481 364.208 317.877 364.136 318.149 363.992C318.421 363.848 318.557 363.624 318.557 363.32ZM322.603 365.492C322.603 365.564 322.599 365.668 322.591 365.804C322.591 365.932 322.587 366.072 322.579 366.224C322.571 366.368 322.563 366.508 322.555 366.644C322.547 366.772 322.539 366.876 322.531 366.956L325.975 361.568H327.271V368H326.287V364.208C326.287 364.08 326.287 363.912 326.287 363.704C326.295 363.496 326.303 363.292 326.311 363.092C326.319 362.884 326.327 362.728 326.335 362.624L322.915 368H321.607V361.568H322.603V365.492ZM338.269 361.568V367.124H339.205V370.22H338.149V368H329.557V361.568H330.613V367.112H333.385V361.568H334.441V367.112H337.225V361.568H338.269ZM343.108 361.46C343.892 361.46 344.472 361.632 344.848 361.976C345.224 362.32 345.412 362.868 345.412 363.62V368H344.644L344.44 367.088H344.392C344.208 367.32 344.016 367.516 343.816 367.676C343.624 367.828 343.4 367.94 343.144 368.012C342.896 368.084 342.592 368.12 342.232 368.12C341.848 368.12 341.5 368.052 341.188 367.916C340.884 367.78 340.644 367.572 340.468 367.292C340.292 367.004 340.204 366.644 340.204 366.212C340.204 365.572 340.456 365.08 340.96 364.736C341.464 364.384 342.24 364.192 343.288 364.16L344.38 364.124V363.74C344.38 363.204 344.264 362.832 344.032 362.624C343.8 362.416 343.472 362.312 343.048 362.312C342.712 362.312 342.392 362.364 342.088 362.468C341.784 362.564 341.5 362.676 341.236 362.804L340.912 362.012C341.192 361.86 341.524 361.732 341.908 361.628C342.292 361.516 342.692 361.46 343.108 361.46ZM343.42 364.892C342.62 364.924 342.064 365.052 341.752 365.276C341.448 365.5 341.296 365.816 341.296 366.224C341.296 366.584 341.404 366.848 341.62 367.016C341.844 367.184 342.128 367.268 342.472 367.268C343.016 367.268 343.468 367.12 343.828 366.824C344.188 366.52 344.368 366.056 344.368 365.432V364.856L343.42 364.892Z" fill="#30CC71"/>
</g>
<path d="M443 248V233C443 227.477 438.523 223 433 223H296" stroke="url(#paint5_linear_865_70285)"/>
<g filter="url(#filter7_d_865_70285)">
<rect x="362" y="243" width="169" height="31" rx="4" fill="white" shape-rendering="crispEdges"/>
<path d="M378.012 256.568H379.14L380.532 260.228C380.612 260.444 380.684 260.652 380.748 260.852C380.82 261.052 380.884 261.248 380.94 261.44C380.996 261.624 381.04 261.804 381.072 261.98H381.12C381.168 261.78 381.244 261.52 381.348 261.2C381.452 260.872 381.56 260.544 381.672 260.216L382.98 256.568H384.12L381.348 263.888C381.196 264.288 381.016 264.636 380.808 264.932C380.608 265.236 380.36 265.468 380.064 265.628C379.776 265.796 379.424 265.88 379.008 265.88C378.816 265.88 378.648 265.868 378.504 265.844C378.36 265.828 378.236 265.808 378.132 265.784V264.944C378.22 264.96 378.324 264.976 378.444 264.992C378.572 265.008 378.704 265.016 378.84 265.016C379.088 265.016 379.3 264.968 379.476 264.872C379.66 264.784 379.816 264.652 379.944 264.476C380.072 264.308 380.18 264.108 380.268 263.876L380.604 263.024L378.012 256.568ZM390.813 256.568V263H389.757V257.468H386.433V263H385.377V256.568H390.813ZM396.165 256.448C396.957 256.448 397.593 256.724 398.073 257.276C398.561 257.828 398.805 258.66 398.805 259.772C398.805 260.5 398.693 261.116 398.469 261.62C398.253 262.116 397.945 262.492 397.545 262.748C397.153 262.996 396.689 263.12 396.153 263.12C395.825 263.12 395.533 263.076 395.277 262.988C395.021 262.9 394.801 262.788 394.617 262.652C394.441 262.508 394.289 262.352 394.161 262.184H394.089C394.105 262.32 394.121 262.492 394.137 262.7C394.153 262.908 394.161 263.088 394.161 263.24V265.88H393.105V256.568H393.969L394.113 257.444H394.161C394.289 257.26 394.441 257.092 394.617 256.94C394.801 256.788 395.017 256.668 395.265 256.58C395.521 256.492 395.821 256.448 396.165 256.448ZM395.973 257.336C395.541 257.336 395.193 257.42 394.929 257.588C394.665 257.748 394.473 257.992 394.353 258.32C394.233 258.648 394.169 259.064 394.161 259.568V259.772C394.161 260.3 394.217 260.748 394.329 261.116C394.441 261.484 394.629 261.764 394.893 261.956C395.165 262.148 395.533 262.244 395.997 262.244C396.389 262.244 396.709 262.136 396.957 261.92C397.213 261.704 397.401 261.412 397.521 261.044C397.649 260.668 397.713 260.24 397.713 259.76C397.713 259.024 397.569 258.436 397.281 257.996C397.001 257.556 396.565 257.336 395.973 257.336ZM403.164 256.46C403.948 256.46 404.528 256.632 404.904 256.976C405.28 257.32 405.468 257.868 405.468 258.62V263H404.7L404.496 262.088H404.448C404.264 262.32 404.072 262.516 403.872 262.676C403.68 262.828 403.456 262.94 403.2 263.012C402.952 263.084 402.648 263.12 402.288 263.12C401.904 263.12 401.556 263.052 401.244 262.916C400.94 262.78 400.7 262.572 400.524 262.292C400.348 262.004 400.26 261.644 400.26 261.212C400.26 260.572 400.512 260.08 401.016 259.736C401.52 259.384 402.296 259.192 403.344 259.16L404.436 259.124V258.74C404.436 258.204 404.32 257.832 404.088 257.624C403.856 257.416 403.528 257.312 403.104 257.312C402.768 257.312 402.448 257.364 402.144 257.468C401.84 257.564 401.556 257.676 401.292 257.804L400.968 257.012C401.248 256.86 401.58 256.732 401.964 256.628C402.348 256.516 402.748 256.46 403.164 256.46ZM403.476 259.892C402.676 259.924 402.12 260.052 401.808 260.276C401.504 260.5 401.352 260.816 401.352 261.224C401.352 261.584 401.46 261.848 401.676 262.016C401.9 262.184 402.184 262.268 402.528 262.268C403.072 262.268 403.524 262.12 403.884 261.824C404.244 261.52 404.424 261.056 404.424 260.432V259.856L403.476 259.892ZM412.867 258.188C412.867 258.588 412.747 258.9 412.507 259.124C412.267 259.348 411.959 259.5 411.583 259.58V259.628C411.983 259.684 412.331 259.828 412.627 260.06C412.923 260.284 413.071 260.636 413.071 261.116C413.071 261.388 413.019 261.64 412.915 261.872C412.819 262.104 412.667 262.304 412.459 262.472C412.251 262.64 411.983 262.772 411.655 262.868C411.327 262.956 410.931 263 410.467 263H407.695V256.568H410.455C410.911 256.568 411.319 256.62 411.679 256.724C412.047 256.82 412.335 256.988 412.543 257.228C412.759 257.46 412.867 257.78 412.867 258.188ZM411.979 261.116C411.979 260.748 411.839 260.484 411.559 260.324C411.279 260.164 410.867 260.084 410.323 260.084H408.751V262.148H410.347C410.875 262.148 411.279 262.072 411.559 261.92C411.839 261.76 411.979 261.492 411.979 261.116ZM411.799 258.32C411.799 258.016 411.687 257.796 411.463 257.66C411.247 257.516 410.891 257.444 410.395 257.444H408.751V259.208H410.203C410.723 259.208 411.119 259.136 411.391 258.992C411.663 258.848 411.799 258.624 411.799 258.32ZM419.745 263H418.677V257.444H416.781C416.701 258.46 416.601 259.328 416.481 260.048C416.361 260.76 416.209 261.34 416.025 261.788C415.841 262.236 415.621 262.564 415.365 262.772C415.109 262.98 414.809 263.084 414.465 263.084C414.361 263.084 414.257 263.076 414.153 263.06C414.057 263.052 413.977 263.032 413.913 263V262.208C413.961 262.224 414.013 262.236 414.069 262.244C414.125 262.252 414.181 262.256 414.237 262.256C414.413 262.256 414.573 262.184 414.717 262.04C414.861 261.896 414.989 261.676 415.101 261.38C415.221 261.084 415.329 260.712 415.425 260.264C415.521 259.808 415.605 259.272 415.677 258.656C415.749 258.04 415.813 257.344 415.869 256.568H419.745V263ZM423.082 256.568V263H422.026V256.568H423.082ZM422.566 254.156C422.726 254.156 422.866 254.212 422.986 254.324C423.114 254.428 423.178 254.596 423.178 254.828C423.178 255.052 423.114 255.22 422.986 255.332C422.866 255.444 422.726 255.5 422.566 255.5C422.39 255.5 422.242 255.444 422.122 255.332C422.002 255.22 421.942 255.052 421.942 254.828C421.942 254.596 422.002 254.428 422.122 254.324C422.242 254.212 422.39 254.156 422.566 254.156ZM426.416 256.568V259.244H429.908V256.568H430.964V263H429.908V260.132H426.416V263H425.36V256.568H426.416ZM434.297 256.568V259.244H437.789V256.568H438.845V263H437.789V260.132H434.297V263H433.241V256.568H434.297ZM441.517 263H440.293L442.129 260.3C441.881 260.236 441.641 260.136 441.409 260C441.177 259.856 440.989 259.66 440.845 259.412C440.701 259.156 440.629 258.84 440.629 258.464C440.629 257.848 440.837 257.38 441.253 257.06C441.669 256.732 442.221 256.568 442.909 256.568H445.789V263H444.733V260.444H443.173L441.517 263ZM441.649 258.476C441.649 258.844 441.785 259.12 442.057 259.304C442.337 259.48 442.725 259.568 443.221 259.568H444.733V257.444H443.017C442.529 257.444 442.177 257.54 441.961 257.732C441.753 257.924 441.649 258.172 441.649 258.476ZM454.183 256.568H455.335L452.587 259.664L455.563 263H454.339L451.435 259.736V263H450.379V256.568H451.435V259.688L454.183 256.568ZM462.328 259.772C462.328 260.308 462.256 260.784 462.112 261.2C461.976 261.608 461.776 261.956 461.512 262.244C461.256 262.532 460.94 262.752 460.564 262.904C460.196 263.048 459.784 263.12 459.328 263.12C458.904 263.12 458.512 263.048 458.152 262.904C457.792 262.752 457.48 262.532 457.216 262.244C456.952 261.956 456.744 261.608 456.592 261.2C456.448 260.784 456.376 260.308 456.376 259.772C456.376 259.06 456.496 258.46 456.736 257.972C456.976 257.476 457.32 257.1 457.768 256.844C458.216 256.58 458.748 256.448 459.364 256.448C459.948 256.448 460.46 256.58 460.9 256.844C461.348 257.1 461.696 257.476 461.944 257.972C462.2 258.46 462.328 259.06 462.328 259.772ZM457.468 259.772C457.468 260.276 457.532 260.716 457.66 261.092C457.796 261.46 458.004 261.744 458.284 261.944C458.564 262.144 458.92 262.244 459.352 262.244C459.784 262.244 460.14 262.144 460.42 261.944C460.7 261.744 460.904 261.46 461.032 261.092C461.168 260.716 461.236 260.276 461.236 259.772C461.236 259.26 461.168 258.824 461.032 258.464C460.896 258.104 460.688 257.828 460.408 257.636C460.136 257.436 459.78 257.336 459.34 257.336C458.684 257.336 458.208 257.552 457.912 257.984C457.616 258.416 457.468 259.012 457.468 259.772ZM465.298 256.568V259.244H468.79V256.568H469.846V263H468.79V260.132H465.298V263H464.242V256.568H465.298ZM476.562 257.456H474.462V263H473.418V257.456H471.342V256.568H476.562V257.456ZM480.436 256.448C480.988 256.448 481.46 256.568 481.852 256.808C482.252 257.048 482.556 257.388 482.764 257.828C482.98 258.26 483.088 258.768 483.088 259.352V259.988H478.684C478.7 260.716 478.884 261.272 479.236 261.656C479.596 262.032 480.096 262.22 480.736 262.22C481.144 262.22 481.504 262.184 481.816 262.112C482.136 262.032 482.464 261.92 482.8 261.776V262.7C482.472 262.844 482.148 262.948 481.828 263.012C481.508 263.084 481.128 263.12 480.688 263.12C480.08 263.12 479.54 262.996 479.068 262.748C478.604 262.5 478.24 262.132 477.976 261.644C477.72 261.148 477.592 260.544 477.592 259.832C477.592 259.128 477.708 258.524 477.94 258.02C478.18 257.516 478.512 257.128 478.936 256.856C479.368 256.584 479.868 256.448 480.436 256.448ZM480.424 257.312C479.92 257.312 479.52 257.476 479.224 257.804C478.936 258.124 478.764 258.572 478.708 259.148H481.984C481.984 258.78 481.928 258.46 481.816 258.188C481.704 257.916 481.532 257.704 481.3 257.552C481.076 257.392 480.784 257.312 480.424 257.312ZM486.021 256.568V259.244H489.513V256.568H490.569V263H489.513V260.132H486.021V263H484.965V256.568H486.021ZM497.286 257.456H495.186V263H494.142V257.456H492.066V256.568H497.286V257.456ZM504.268 259.772C504.268 260.308 504.196 260.784 504.052 261.2C503.916 261.608 503.716 261.956 503.452 262.244C503.196 262.532 502.88 262.752 502.504 262.904C502.136 263.048 501.724 263.12 501.268 263.12C500.844 263.12 500.452 263.048 500.092 262.904C499.732 262.752 499.42 262.532 499.156 262.244C498.892 261.956 498.684 261.608 498.532 261.2C498.388 260.784 498.316 260.308 498.316 259.772C498.316 259.06 498.436 258.46 498.676 257.972C498.916 257.476 499.26 257.1 499.708 256.844C500.156 256.58 500.688 256.448 501.304 256.448C501.888 256.448 502.4 256.58 502.84 256.844C503.288 257.1 503.636 257.476 503.884 257.972C504.14 258.46 504.268 259.06 504.268 259.772ZM499.408 259.772C499.408 260.276 499.472 260.716 499.6 261.092C499.736 261.46 499.944 261.744 500.224 261.944C500.504 262.144 500.86 262.244 501.292 262.244C501.724 262.244 502.08 262.144 502.36 261.944C502.64 261.744 502.844 261.46 502.972 261.092C503.108 260.716 503.176 260.276 503.176 259.772C503.176 259.26 503.108 258.824 502.972 258.464C502.836 258.104 502.628 257.828 502.348 257.636C502.076 257.436 501.72 257.336 501.28 257.336C500.624 257.336 500.148 257.552 499.852 257.984C499.556 258.416 499.408 259.012 499.408 259.772ZM513.082 256.568V263H512.134V258.896C512.134 258.728 512.138 258.552 512.146 258.368C512.162 258.184 512.178 258.004 512.194 257.828H512.158L510.058 263H509.17L507.13 257.828H507.094C507.11 258.004 507.118 258.184 507.118 258.368C507.126 258.552 507.13 258.74 507.13 258.932V263H506.182V256.568H507.586L509.614 261.74L511.678 256.568H513.082Z" fill="#30CC71"/>
</g>
<g filter="url(#filter8_f_865_70285)">
<circle cx="372" cy="223" r="8" fill="#30CC71" fill-opacity="0.4"/>
</g>
<circle cx="372" cy="223" r="4" fill="#30CC71"/>
<g filter="url(#filter9_di_865_70285)">
<path d="M314.054 192.456C315.874 195.572 315.874 199.428 314.054 202.544L288.645 246.044C286.852 249.113 283.565 251 280.01 251H228.99C225.435 251 222.148 249.113 220.355 246.044L194.946 202.544C193.126 199.428 193.126 195.572 194.946 192.456L220.355 148.956C222.148 145.887 225.435 144 228.99 144H280.01C283.565 144 286.852 145.887 288.645 148.956L314.054 192.456Z" fill="white"/>
<path d="M313.622 202.292L288.213 245.792C286.51 248.707 283.387 250.5 280.01 250.5H228.99C225.613 250.5 222.49 248.707 220.787 245.792L195.378 202.292C193.649 199.331 193.649 195.669 195.378 192.708L220.787 149.208C222.49 146.293 225.613 144.5 228.99 144.5H280.01C283.387 144.5 286.51 146.293 288.213 149.208L313.622 192.708C315.351 195.669 315.351 199.331 313.622 202.292Z" stroke="url(#paint6_linear_865_70285)"/>
</g>
<path d="M260.848 185.493L253.355 192.794L263.07 202.265L270.563 194.965L260.848 185.493Z" fill="#1A7C43"/>
<path d="M263.476 175.975L246.208 192.807L238.715 200.108V185.505L255.984 168.674L263.477 175.975H263.476ZM245.802 219.096L263.071 202.263L270.564 194.962V209.565L253.295 226.397L245.802 219.096Z" fill="#30CC71"/>
<path d="M246.208 192.809L238.715 200.109L248.43 209.581L255.923 202.28L246.208 192.809Z" fill="#1A7C43"/>
<defs>
<filter id="filter0_d_865_70285" x="0" y="46" width="250" height="51" filterUnits="userSpaceOnUse" color-interpolation-filters="sRGB">
<feFlood flood-opacity="0" result="BackgroundImageFix"/>
<feColorMatrix in="SourceAlpha" type="matrix" values="0 0 0 0 0 0 0 0 0 0 0 0 0 0 0 0 0 0 127 0" result="hardAlpha"/>
<feOffset/>
<feGaussianBlur stdDeviation="5"/>
<feComposite in2="hardAlpha" operator="out"/>
<feColorMatrix type="matrix" values="0 0 0 0 0.0470588 0 0 0 0 0.0470588 0 0 0 0 0.0470588 0 0 0 0.05 0"/>
<feBlend mode="normal" in2="BackgroundImageFix" result="effect1_dropShadow_865_70285"/>
<feBlend mode="normal" in="SourceGraphic" in2="effect1_dropShadow_865_70285" result="shape"/>
</filter>
<filter id="filter1_d_865_70285" x="218" y="0" width="154" height="51" filterUnits="userSpaceOnUse" color-interpolation-filters="sRGB">
<feFlood flood-opacity="0" result="BackgroundImageFix"/>
<feColorMatrix in="SourceAlpha" type="matrix" values="0 0 0 0 0 0 0 0 0 0 0 0 0 0 0 0 0 0 127 0" result="hardAlpha"/>
<feOffset/>
<feGaussianBlur stdDeviation="5"/>
<feComposite in2="hardAlpha" operator="out"/>
<feColorMatrix type="matrix" values="0 0 0 0 0.0470588 0 0 0 0 0.0470588 0 0 0 0 0.0470588 0 0 0 0.05 0"/>
<feBlend mode="normal" in2="BackgroundImageFix" result="effect1_dropShadow_865_70285"/>
<feBlend mode="normal" in="SourceGraphic" in2="effect1_dropShadow_865_70285" result="shape"/>
</filter>
<filter id="filter2_f_865_70285" x="256" y="98" width="20" height="20" filterUnits="userSpaceOnUse" color-interpolation-filters="sRGB">
<feFlood flood-opacity="0" result="BackgroundImageFix"/>
<feBlend mode="normal" in="SourceGraphic" in2="BackgroundImageFix" result="shape"/>
<feGaussianBlur stdDeviation="1" result="effect1_foregroundBlur_865_70285"/>
</filter>
<filter id="filter3_d_865_70285" x="344" y="66" width="170" height="51" filterUnits="userSpaceOnUse" color-interpolation-filters="sRGB">
<feFlood flood-opacity="0" result="BackgroundImageFix"/>
<feColorMatrix in="SourceAlpha" type="matrix" values="0 0 0 0 0 0 0 0 0 0 0 0 0 0 0 0 0 0 127 0" result="hardAlpha"/>
<feOffset/>
<feGaussianBlur stdDeviation="5"/>
<feComposite in2="hardAlpha" operator="out"/>
<feColorMatrix type="matrix" values="0 0 0 0 0.0470588 0 0 0 0 0.0470588 0 0 0 0 0.0470588 0 0 0 0.05 0"/>
<feBlend mode="normal" in2="BackgroundImageFix" result="effect1_dropShadow_865_70285"/>
<feBlend mode="normal" in="SourceGraphic" in2="effect1_dropShadow_865_70285" result="shape"/>
</filter>
<filter id="filter4_d_865_70285" x="85" y="268" width="146" height="51" filterUnits="userSpaceOnUse" color-interpolation-filters="sRGB">
<feFlood flood-opacity="0" result="BackgroundImageFix"/>
<feColorMatrix in="SourceAlpha" type="matrix" values="0 0 0 0 0 0 0 0 0 0 0 0 0 0 0 0 0 0 127 0" result="hardAlpha"/>
<feOffset/>
<feGaussianBlur stdDeviation="5"/>
<feComposite in2="hardAlpha" operator="out"/>
<feColorMatrix type="matrix" values="0 0 0 0 0.0470588 0 0 0 0 0.0470588 0 0 0 0 0.0470588 0 0 0 0.05 0"/>
<feBlend mode="normal" in2="BackgroundImageFix" result="effect1_dropShadow_865_70285"/>
<feBlend mode="normal" in="SourceGraphic" in2="effect1_dropShadow_865_70285" result="shape"/>
</filter>
<filter id="filter5_f_865_70285" x="182" y="216" width="20" height="20" filterUnits="userSpaceOnUse" color-interpolation-filters="sRGB">
<feFlood flood-opacity="0" result="BackgroundImageFix"/>
<feBlend mode="normal" in="SourceGraphic" in2="BackgroundImageFix" result="shape"/>
<feGaussianBlur stdDeviation="1" result="effect1_foregroundBlur_865_70285"/>
</filter>
<filter id="filter6_d_865_70285" x="205" y="338" width="168" height="51" filterUnits="userSpaceOnUse" color-interpolation-filters="sRGB">
<feFlood flood-opacity="0" result="BackgroundImageFix"/>
<feColorMatrix in="SourceAlpha" type="matrix" values="0 0 0 0 0 0 0 0 0 0 0 0 0 0 0 0 0 0 127 0" result="hardAlpha"/>
<feOffset/>
<feGaussianBlur stdDeviation="5"/>
<feComposite in2="hardAlpha" operator="out"/>
<feColorMatrix type="matrix" values="0 0 0 0 0.0470588 0 0 0 0 0.0470588 0 0 0 0 0.0470588 0 0 0 0.05 0"/>
<feBlend mode="normal" in2="BackgroundImageFix" result="effect1_dropShadow_865_70285"/>
<feBlend mode="normal" in="SourceGraphic" in2="effect1_dropShadow_865_70285" result="shape"/>
</filter>
<filter id="filter7_d_865_70285" x="352" y="233" width="189" height="51" filterUnits="userSpaceOnUse" color-interpolation-filters="sRGB">
<feFlood flood-opacity="0" result="BackgroundImageFix"/>
<feColorMatrix in="SourceAlpha" type="matrix" values="0 0 0 0 0 0 0 0 0 0 0 0 0 0 0 0 0 0 127 0" result="hardAlpha"/>
<feOffset/>
<feGaussianBlur stdDeviation="5"/>
<feComposite in2="hardAlpha" operator="out"/>
<feColorMatrix type="matrix" values="0 0 0 0 0.0470588 0 0 0 0 0.0470588 0 0 0 0 0.0470588 0 0 0 0.05 0"/>
<feBlend mode="normal" in2="BackgroundImageFix" result="effect1_dropShadow_865_70285"/>
<feBlend mode="normal" in="SourceGraphic" in2="effect1_dropShadow_865_70285" result="shape"/>
</filter>
<filter id="filter8_f_865_70285" x="362" y="213" width="20" height="20" filterUnits="userSpaceOnUse" color-interpolation-filters="sRGB">
<feFlood flood-opacity="0" result="BackgroundImageFix"/>
<feBlend mode="normal" in="SourceGraphic" in2="BackgroundImageFix" result="shape"/>
<feGaussianBlur stdDeviation="1" result="effect1_foregroundBlur_865_70285"/>
</filter>
<filter id="filter9_di_865_70285" x="143.582" y="94" width="221.836" height="207" filterUnits="userSpaceOnUse" color-interpolation-filters="sRGB">
<feFlood flood-opacity="0" result="BackgroundImageFix"/>
<feColorMatrix in="SourceAlpha" type="matrix" values="0 0 0 0 0 0 0 0 0 0 0 0 0 0 0 0 0 0 127 0" result="hardAlpha"/>
<feOffset/>
<feGaussianBlur stdDeviation="25"/>
<feComposite in2="hardAlpha" operator="out"/>
<feColorMatrix type="matrix" values="0 0 0 0 0.188235 0 0 0 0 0.8 0 0 0 0 0.443137 0 0 0 0.3 0"/>
<feBlend mode="normal" in2="BackgroundImageFix" result="effect1_dropShadow_865_70285"/>
<feBlend mode="normal" in="SourceGraphic" in2="effect1_dropShadow_865_70285" result="shape"/>
<feColorMatrix in="SourceAlpha" type="matrix" values="0 0 0 0 0 0 0 0 0 0 0 0 0 0 0 0 0 0 127 0" result="hardAlpha"/>
<feOffset dy="30"/>
<feGaussianBlur stdDeviation="15"/>
<feComposite in2="hardAlpha" operator="arithmetic" k2="-1" k3="1"/>
<feColorMatrix type="matrix" values="0 0 0 0 0.503438 0 0 0 0 0.977507 0 0 0 0 0.700966 0 0 0 0.04 0"/>
<feBlend mode="normal" in2="shape" result="effect2_innerShadow_865_70285"/>
</filter>
<linearGradient id="paint0_linear_865_70285" x1="112.394" y1="246.65" x2="270.484" y2="248.249" gradientUnits="userSpaceOnUse">
<stop stop-color="#0C0C0C" stop-opacity="0.1"/>
<stop offset="0.05" stop-color="#34BE6E" stop-opacity="0.16"/>
<stop offset="0.18" stop-color="#30CC71" stop-opacity="0.401399"/>
<stop offset="0.305" stop-color="#30CC71"/>
<stop offset="0.465" stop-color="#30CC71" stop-opacity="0.4"/>
<stop offset="0.605" stop-color="#52B69A" stop-opacity="0.16"/>
<stop offset="0.86" stop-color="#52B69A" stop-opacity="0.02"/>
<stop offset="0.996703" stop-color="#0C0C0C" stop-opacity="0.1"/>
</linearGradient>
<linearGradient id="paint1_linear_865_70285" x1="260.352" y1="242.462" x2="295.952" y2="243.774" gradientUnits="userSpaceOnUse">
<stop stop-color="#0C0C0C" stop-opacity="0.2"/>
<stop offset="0.09" stop-color="#52B69A"/>
<stop offset="0.19" stop-color="#2BBC93" stop-opacity="0.8"/>
<stop offset="0.55" stop-color="#41D0A8" stop-opacity="0.7"/>
<stop offset="0.635" stop-color="#30CC71" stop-opacity="0.8"/>
<stop offset="0.76" stop-color="#52B69A" stop-opacity="0.76"/>
<stop offset="0.9" stop-color="#52B69A" stop-opacity="0.06"/>
<stop offset="1" stop-color="#0C0C0C" stop-opacity="0.2"/>
</linearGradient>
<linearGradient id="paint2_linear_865_70285" x1="294.805" y1="222.955" x2="445.508" y2="220.517" gradientUnits="userSpaceOnUse">
<stop stop-color="#30CC71"/>
<stop offset="0.0777673" stop-color="#30CC71"/>
<stop offset="0.320104" stop-color="#30CC71" stop-opacity="0.5"/>
<stop offset="0.382295" stop-color="#1DA254" stop-opacity="0.3"/>
<stop offset="0.451095" stop-color="#1EB05B" stop-opacity="0.4"/>
<stop offset="0.708389" stop-color="#52B69A" stop-opacity="0.3"/>
<stop offset="0.827999" stop-color="#52B69A" stop-opacity="0.2"/>
<stop offset="0.996703" stop-opacity="0.2"/>
</linearGradient>
<linearGradient id="paint3_linear_865_70285" x1="164.68" y1="330.912" x2="246.523" y2="328.963" gradientUnits="userSpaceOnUse">
<stop stop-color="#0C0C0C" stop-opacity="0.1"/>
<stop offset="0.035" stop-color="#30CC71" stop-opacity="0.2"/>
<stop offset="0.1" stop-color="#56E993" stop-opacity="0.4"/>
<stop offset="0.23" stop-color="#30CC71"/>
<stop offset="0.425" stop-color="#0F9949" stop-opacity="0.7"/>
<stop offset="0.47" stop-color="#52B69A" stop-opacity="0.22"/>
<stop offset="0.935" stop-color="#0C0C0C" stop-opacity="0.4"/>
</linearGradient>
<linearGradient id="paint4_linear_865_70285" x1="261.352" y1="444.259" x2="341.192" y2="438.807" gradientUnits="userSpaceOnUse">
<stop stop-color="#0C0C0C" stop-opacity="0.15"/>
<stop offset="0.22" stop-color="#76F9AC" stop-opacity="0.3"/>
<stop offset="0.345" stop-color="#51E28D" stop-opacity="0.8"/>
<stop offset="0.48" stop-color="#30CC71"/>
<stop offset="0.55" stop-color="#51E28D" stop-opacity="0.3"/>
<stop offset="0.675" stop-color="#52B69A" stop-opacity="0.5"/>
<stop offset="0.82" stop-color="#52B69A" stop-opacity="0.1"/>
<stop offset="0.996703" stop-color="#0C0C0C" stop-opacity="0.2"/>
</linearGradient>
<linearGradient id="paint5_linear_865_70285" x1="318.234" y1="269.014" x2="451.998" y2="268.213" gradientUnits="userSpaceOnUse">
<stop stop-opacity="0.2"/>
<stop offset="0.15" stop-color="#2BB865" stop-opacity="0.2"/>
<stop offset="0.27" stop-color="#2BB865" stop-opacity="0.3"/>
<stop offset="0.43" stop-color="#30CC71"/>
<stop offset="0.525" stop-color="#2BB865" stop-opacity="0.6"/>
<stop offset="0.645" stop-color="#52B69A" stop-opacity="0.3"/>
<stop offset="0.755" stop-color="#52B69A" stop-opacity="0.2"/>
<stop offset="0.996703" stop-opacity="0.2"/>
</linearGradient>
<linearGradient id="paint6_linear_865_70285" x1="192" y1="134.192" x2="329.762" y2="144.973" gradientUnits="userSpaceOnUse">
<stop stop-color="#A2D8AB"/>
<stop offset="0.529249" stop-color="#30CC71"/>
<stop offset="1" stop-color="#0DBE58"/>
</linearGradient>
</defs>
</svg>
