<svg width="533" height="389" viewBox="0 0 533 389" fill="none" xmlns="http://www.w3.org/2000/svg">
<path d="M95 81V161C95 166.523 99.4772 171 105 171H210" stroke="url(#paint0_linear_1084_1858)"/>
<g filter="url(#filter0_d_1084_1858)">
<rect x="10" y="56" width="169" height="31" rx="4" fill="white" shape-rendering="crispEdges"/>
<path d="M29.156 76.144C28.692 76.144 28.272 76.036 27.896 75.82C27.528 75.604 27.24 75.304 27.032 74.92C26.832 74.528 26.732 74.08 26.732 73.576V69.532H27.848V73.456C27.848 73.776 27.912 74.056 28.04 74.296C28.176 74.536 28.36 74.724 28.592 74.86C28.832 74.996 29.104 75.064 29.408 75.064C29.712 75.064 29.98 74.996 30.212 74.86C30.452 74.724 30.636 74.528 30.764 74.272C30.9 74.016 30.968 73.712 30.968 73.36V69.532H32.096V76H31.004V74.74L31.184 74.848C31.032 75.256 30.772 75.576 30.404 75.808C30.044 76.032 29.628 76.144 29.156 76.144ZM36.3809 76.144C35.7329 76.144 35.1689 75.984 34.6889 75.664C34.2089 75.344 33.8689 74.912 33.6689 74.368L34.5569 73.936C34.7409 74.32 34.9929 74.624 35.3129 74.848C35.6329 75.072 35.9889 75.184 36.3809 75.184C36.7329 75.184 37.0249 75.1 37.2569 74.932C37.4889 74.764 37.6049 74.544 37.6049 74.272C37.6049 74.08 37.5489 73.928 37.4369 73.816C37.3329 73.696 37.2049 73.604 37.0529 73.54C36.9009 73.468 36.7609 73.416 36.6329 73.384L35.6609 73.108C35.0769 72.94 34.6489 72.7 34.3769 72.388C34.1129 72.076 33.9809 71.712 33.9809 71.296C33.9809 70.912 34.0769 70.58 34.2689 70.3C34.4689 70.012 34.7369 69.788 35.0729 69.628C35.4169 69.468 35.8009 69.388 36.2249 69.388C36.7929 69.388 37.3009 69.532 37.7489 69.82C38.2049 70.108 38.5289 70.512 38.7209 71.032L37.8089 71.452C37.6649 71.116 37.4489 70.852 37.1609 70.66C36.8729 70.46 36.5489 70.36 36.1889 70.36C35.8609 70.36 35.6009 70.444 35.4089 70.612C35.2169 70.772 35.1209 70.976 35.1209 71.224C35.1209 71.408 35.1689 71.56 35.2649 71.68C35.3609 71.792 35.4769 71.88 35.6129 71.944C35.7489 72 35.8809 72.048 36.0089 72.088L37.0649 72.4C37.5929 72.552 38.0009 72.788 38.2889 73.108C38.5849 73.428 38.7329 73.812 38.7329 74.26C38.7329 74.62 38.6329 74.944 38.4329 75.232C38.2329 75.52 37.9569 75.744 37.6049 75.904C37.2529 76.064 36.8449 76.144 36.3809 76.144ZM43.4098 76.144C42.7858 76.144 42.2298 75.996 41.7418 75.7C41.2538 75.404 40.8698 75 40.5898 74.488C40.3098 73.968 40.1698 73.388 40.1698 72.748C40.1698 72.1 40.3058 71.524 40.5778 71.02C40.8578 70.516 41.2338 70.12 41.7058 69.832C42.1858 69.536 42.7218 69.388 43.3138 69.388C43.7938 69.388 44.2178 69.476 44.5858 69.652C44.9618 69.82 45.2778 70.052 45.5338 70.348C45.7978 70.636 45.9978 70.968 46.1338 71.344C46.2778 71.712 46.3498 72.096 46.3498 72.496C46.3498 72.584 46.3418 72.684 46.3258 72.796C46.3178 72.9 46.3058 73 46.2898 73.096H40.9858V72.136H45.6418L45.1138 72.568C45.1858 72.152 45.1458 71.78 44.9938 71.452C44.8418 71.124 44.6178 70.864 44.3218 70.672C44.0258 70.48 43.6898 70.384 43.3138 70.384C42.9378 70.384 42.5938 70.48 42.2818 70.672C41.9698 70.864 41.7258 71.14 41.5498 71.5C41.3818 71.852 41.3138 72.272 41.3458 72.76C41.3138 73.232 41.3858 73.648 41.5618 74.008C41.7458 74.36 42.0018 74.636 42.3298 74.836C42.6658 75.028 43.0298 75.124 43.4218 75.124C43.8538 75.124 44.2178 75.024 44.5138 74.824C44.8098 74.624 45.0498 74.368 45.2338 74.056L46.1698 74.536C46.0418 74.832 45.8418 75.104 45.5698 75.352C45.3058 75.592 44.9898 75.784 44.6218 75.928C44.2618 76.072 43.8578 76.144 43.4098 76.144ZM48.0449 76V69.532H49.1369V70.72L49.0169 70.552C49.1689 70.184 49.4009 69.912 49.7129 69.736C50.0249 69.552 50.4049 69.46 50.8529 69.46H51.2489V70.516H50.6849C50.2289 70.516 49.8609 70.66 49.5809 70.948C49.3009 71.228 49.1609 71.628 49.1609 72.148V76H48.0449ZM57.7345 76.144C57.1265 76.144 56.5785 75.996 56.0905 75.7C55.6105 75.404 55.2305 75 54.9505 74.488C54.6705 73.976 54.5305 73.404 54.5305 72.772C54.5305 72.124 54.6705 71.548 54.9505 71.044C55.2305 70.532 55.6105 70.128 56.0905 69.832C56.5785 69.536 57.1265 69.388 57.7345 69.388C58.2705 69.388 58.7465 69.504 59.1625 69.736C59.5785 69.96 59.9065 70.264 60.1465 70.648L59.9665 70.924V66.916H61.0945V76H60.0025V74.62L60.1465 74.812C59.9225 75.236 59.5945 75.564 59.1625 75.796C58.7385 76.028 58.2625 76.144 57.7345 76.144ZM57.8305 75.064C58.2385 75.064 58.6025 74.964 58.9225 74.764C59.2425 74.564 59.4945 74.292 59.6785 73.948C59.8705 73.596 59.9665 73.204 59.9665 72.772C59.9665 72.332 59.8705 71.94 59.6785 71.596C59.4945 71.244 59.2425 70.968 58.9225 70.768C58.6025 70.568 58.2385 70.468 57.8305 70.468C57.4305 70.468 57.0665 70.572 56.7385 70.78C56.4185 70.98 56.1665 71.252 55.9825 71.596C55.7985 71.932 55.7065 72.324 55.7065 72.772C55.7065 73.204 55.7985 73.596 55.9825 73.948C56.1665 74.292 56.4185 74.564 56.7385 74.764C57.0585 74.964 57.4225 75.064 57.8305 75.064ZM64.9578 76.144C64.5338 76.144 64.1578 76.068 63.8298 75.916C63.5098 75.756 63.2578 75.54 63.0738 75.268C62.8898 74.988 62.7978 74.668 62.7978 74.308C62.7978 73.964 62.8698 73.656 63.0138 73.384C63.1658 73.104 63.3978 72.868 63.7098 72.676C64.0298 72.484 64.4298 72.348 64.9098 72.268L67.3098 71.872V72.808L65.1618 73.168C64.7458 73.24 64.4418 73.372 64.2498 73.564C64.0658 73.756 63.9738 73.992 63.9738 74.272C63.9738 74.536 64.0778 74.756 64.2858 74.932C64.5018 75.108 64.7698 75.196 65.0898 75.196C65.4978 75.196 65.8498 75.112 66.1458 74.944C66.4498 74.768 66.6858 74.532 66.8538 74.236C67.0298 73.94 67.1178 73.612 67.1178 73.252V71.608C67.1178 71.256 66.9858 70.972 66.7218 70.756C66.4658 70.532 66.1258 70.42 65.7018 70.42C65.3338 70.42 65.0058 70.516 64.7178 70.708C64.4378 70.892 64.2298 71.14 64.0938 71.452L63.1218 70.948C63.2418 70.652 63.4338 70.388 63.6978 70.156C63.9618 69.916 64.2698 69.728 64.6218 69.592C64.9738 69.456 65.3418 69.388 65.7258 69.388C66.2218 69.388 66.6578 69.484 67.0338 69.676C67.4098 69.86 67.7018 70.12 67.9098 70.456C68.1258 70.784 68.2338 71.168 68.2338 71.608V76H67.1418V74.776L67.3458 74.848C67.2098 75.104 67.0258 75.328 66.7938 75.52C66.5618 75.712 66.2898 75.864 65.9778 75.976C65.6658 76.088 65.3258 76.144 64.9578 76.144ZM72.715 76.072C72.083 76.072 71.595 75.892 71.251 75.532C70.915 75.172 70.747 74.664 70.747 74.008V70.6H69.571V69.532H69.811C70.099 69.532 70.327 69.444 70.495 69.268C70.663 69.092 70.747 68.86 70.747 68.572V68.044H71.863V69.532H73.315V70.6H71.863V73.972C71.863 74.188 71.895 74.376 71.959 74.536C72.031 74.696 72.147 74.824 72.307 74.92C72.467 75.008 72.679 75.052 72.943 75.052C72.999 75.052 73.067 75.048 73.147 75.04C73.235 75.032 73.315 75.024 73.387 75.016V76C73.283 76.024 73.167 76.04 73.039 76.048C72.911 76.064 72.803 76.072 72.715 76.072ZM76.8987 76.144C76.4747 76.144 76.0987 76.068 75.7707 75.916C75.4507 75.756 75.1987 75.54 75.0147 75.268C74.8307 74.988 74.7387 74.668 74.7387 74.308C74.7387 73.964 74.8107 73.656 74.9547 73.384C75.1067 73.104 75.3387 72.868 75.6507 72.676C75.9707 72.484 76.3707 72.348 76.8507 72.268L79.2507 71.872V72.808L77.1027 73.168C76.6867 73.24 76.3827 73.372 76.1907 73.564C76.0067 73.756 75.9147 73.992 75.9147 74.272C75.9147 74.536 76.0187 74.756 76.2267 74.932C76.4427 75.108 76.7107 75.196 77.0307 75.196C77.4387 75.196 77.7907 75.112 78.0867 74.944C78.3907 74.768 78.6267 74.532 78.7947 74.236C78.9707 73.94 79.0587 73.612 79.0587 73.252V71.608C79.0587 71.256 78.9267 70.972 78.6627 70.756C78.4067 70.532 78.0667 70.42 77.6427 70.42C77.2747 70.42 76.9467 70.516 76.6587 70.708C76.3787 70.892 76.1707 71.14 76.0347 71.452L75.0627 70.948C75.1827 70.652 75.3747 70.388 75.6387 70.156C75.9027 69.916 76.2107 69.728 76.5627 69.592C76.9147 69.456 77.2827 69.388 77.6667 69.388C78.1627 69.388 78.5987 69.484 78.9747 69.676C79.3507 69.86 79.6427 70.12 79.8507 70.456C80.0667 70.784 80.1747 71.168 80.1747 71.608V76H79.0827V74.776L79.2867 74.848C79.1507 75.104 78.9667 75.328 78.7347 75.52C78.5027 75.712 78.2307 75.864 77.9187 75.976C77.6067 76.088 77.2667 76.144 76.8987 76.144ZM84.4593 76V69.532H85.5513V70.852L85.3953 70.648C85.5553 70.24 85.8113 69.928 86.1633 69.712C86.5153 69.496 86.9113 69.388 87.3513 69.388C87.8553 69.388 88.3073 69.528 88.7073 69.808C89.1153 70.088 89.3953 70.456 89.5473 70.912L89.2353 70.924C89.4033 70.42 89.6873 70.04 90.0873 69.784C90.4873 69.52 90.9313 69.388 91.4193 69.388C91.8673 69.388 92.2713 69.492 92.6313 69.7C92.9993 69.908 93.2913 70.196 93.5073 70.564C93.7233 70.932 93.8313 71.348 93.8313 71.812V76H92.7033V72.172C92.7033 71.812 92.6393 71.508 92.5113 71.26C92.3833 71.012 92.2073 70.82 91.9833 70.684C91.7673 70.54 91.5113 70.468 91.2153 70.468C90.9273 70.468 90.6673 70.54 90.4353 70.684C90.2113 70.82 90.0313 71.016 89.8953 71.272C89.7673 71.52 89.7033 71.82 89.7033 72.172V76H88.5753V72.172C88.5753 71.812 88.5113 71.508 88.3833 71.26C88.2553 71.012 88.0793 70.82 87.8553 70.684C87.6393 70.54 87.3833 70.468 87.0873 70.468C86.7993 70.468 86.5393 70.54 86.3073 70.684C86.0833 70.82 85.9033 71.016 85.7673 71.272C85.6393 71.52 85.5753 71.82 85.5753 72.172V76H84.4593ZM97.5523 76.144C97.1283 76.144 96.7523 76.068 96.4243 75.916C96.1043 75.756 95.8523 75.54 95.6683 75.268C95.4843 74.988 95.3923 74.668 95.3923 74.308C95.3923 73.964 95.4643 73.656 95.6083 73.384C95.7603 73.104 95.9923 72.868 96.3043 72.676C96.6243 72.484 97.0243 72.348 97.5043 72.268L99.9043 71.872V72.808L97.7563 73.168C97.3403 73.24 97.0363 73.372 96.8443 73.564C96.6603 73.756 96.5683 73.992 96.5683 74.272C96.5683 74.536 96.6723 74.756 96.8803 74.932C97.0963 75.108 97.3643 75.196 97.6843 75.196C98.0923 75.196 98.4443 75.112 98.7403 74.944C99.0443 74.768 99.2803 74.532 99.4483 74.236C99.6243 73.94 99.7123 73.612 99.7123 73.252V71.608C99.7123 71.256 99.5803 70.972 99.3163 70.756C99.0603 70.532 98.7203 70.42 98.2963 70.42C97.9283 70.42 97.6003 70.516 97.3123 70.708C97.0323 70.892 96.8243 71.14 96.6883 71.452L95.7163 70.948C95.8363 70.652 96.0283 70.388 96.2923 70.156C96.5563 69.916 96.8643 69.728 97.2163 69.592C97.5683 69.456 97.9363 69.388 98.3203 69.388C98.8163 69.388 99.2523 69.484 99.6283 69.676C100.004 69.86 100.296 70.12 100.504 70.456C100.72 70.784 100.828 71.168 100.828 71.608V76H99.7363V74.776L99.9403 74.848C99.8043 75.104 99.6203 75.328 99.3883 75.52C99.1563 75.712 98.8843 75.864 98.5723 75.976C98.2603 76.088 97.9203 76.144 97.5523 76.144ZM102.799 76V69.532H103.891V70.792L103.711 70.684C103.871 70.276 104.127 69.96 104.479 69.736C104.839 69.504 105.259 69.388 105.739 69.388C106.203 69.388 106.615 69.492 106.975 69.7C107.343 69.908 107.631 70.196 107.839 70.564C108.055 70.932 108.163 71.348 108.163 71.812V76H107.035V72.172C107.035 71.812 106.971 71.508 106.843 71.26C106.715 71.012 106.531 70.82 106.291 70.684C106.059 70.54 105.791 70.468 105.487 70.468C105.183 70.468 104.911 70.54 104.671 70.684C104.439 70.82 104.255 71.016 104.119 71.272C103.983 71.52 103.915 71.82 103.915 72.172V76H102.799ZM111.896 76.144C111.472 76.144 111.096 76.068 110.768 75.916C110.448 75.756 110.196 75.54 110.012 75.268C109.828 74.988 109.736 74.668 109.736 74.308C109.736 73.964 109.808 73.656 109.952 73.384C110.104 73.104 110.336 72.868 110.648 72.676C110.968 72.484 111.368 72.348 111.848 72.268L114.248 71.872V72.808L112.1 73.168C111.684 73.24 111.38 73.372 111.188 73.564C111.004 73.756 110.912 73.992 110.912 74.272C110.912 74.536 111.016 74.756 111.224 74.932C111.44 75.108 111.708 75.196 112.028 75.196C112.436 75.196 112.788 75.112 113.084 74.944C113.388 74.768 113.624 74.532 113.792 74.236C113.968 73.94 114.056 73.612 114.056 73.252V71.608C114.056 71.256 113.924 70.972 113.66 70.756C113.404 70.532 113.064 70.42 112.64 70.42C112.272 70.42 111.944 70.516 111.656 70.708C111.376 70.892 111.168 71.14 111.032 71.452L110.06 70.948C110.18 70.652 110.372 70.388 110.636 70.156C110.9 69.916 111.208 69.728 111.56 69.592C111.912 69.456 112.28 69.388 112.664 69.388C113.16 69.388 113.596 69.484 113.972 69.676C114.348 69.86 114.64 70.12 114.848 70.456C115.064 70.784 115.172 71.168 115.172 71.608V76H114.08V74.776L114.284 74.848C114.148 75.104 113.964 75.328 113.732 75.52C113.5 75.712 113.228 75.864 112.916 75.976C112.604 76.088 112.264 76.144 111.896 76.144ZM120.226 78.64C119.77 78.64 119.346 78.568 118.954 78.424C118.57 78.28 118.238 78.08 117.958 77.824C117.686 77.576 117.478 77.284 117.334 76.948L118.378 76.468C118.49 76.772 118.702 77.028 119.014 77.236C119.334 77.452 119.734 77.56 120.214 77.56C120.582 77.56 120.914 77.488 121.21 77.344C121.514 77.208 121.754 77 121.93 76.72C122.106 76.448 122.194 76.116 122.194 75.724V74.272L122.398 74.488C122.174 74.928 121.85 75.264 121.426 75.496C121.01 75.728 120.55 75.844 120.046 75.844C119.438 75.844 118.894 75.704 118.414 75.424C117.934 75.136 117.558 74.748 117.286 74.26C117.014 73.764 116.878 73.216 116.878 72.616C116.878 72.008 117.014 71.46 117.286 70.972C117.558 70.484 117.93 70.1 118.402 69.82C118.882 69.532 119.426 69.388 120.034 69.388C120.538 69.388 120.994 69.504 121.402 69.736C121.818 69.96 122.15 70.272 122.398 70.672L122.23 70.972V69.532H123.322V75.724C123.322 76.284 123.19 76.784 122.926 77.224C122.662 77.664 122.294 78.008 121.822 78.256C121.358 78.512 120.826 78.64 120.226 78.64ZM120.142 74.764C120.526 74.764 120.87 74.668 121.174 74.476C121.486 74.284 121.734 74.028 121.918 73.708C122.102 73.38 122.194 73.016 122.194 72.616C122.194 72.224 122.102 71.864 121.918 71.536C121.734 71.208 121.486 70.948 121.174 70.756C120.87 70.564 120.526 70.468 120.142 70.468C119.75 70.468 119.394 70.564 119.074 70.756C118.754 70.948 118.502 71.208 118.318 71.536C118.142 71.856 118.054 72.216 118.054 72.616C118.054 73.016 118.142 73.38 118.318 73.708C118.502 74.028 118.75 74.284 119.062 74.476C119.382 74.668 119.742 74.764 120.142 74.764ZM128.268 76.144C127.644 76.144 127.088 75.996 126.6 75.7C126.112 75.404 125.728 75 125.448 74.488C125.168 73.968 125.028 73.388 125.028 72.748C125.028 72.1 125.164 71.524 125.436 71.02C125.716 70.516 126.092 70.12 126.564 69.832C127.044 69.536 127.58 69.388 128.172 69.388C128.652 69.388 129.076 69.476 129.444 69.652C129.82 69.82 130.136 70.052 130.392 70.348C130.656 70.636 130.856 70.968 130.992 71.344C131.136 71.712 131.208 72.096 131.208 72.496C131.208 72.584 131.2 72.684 131.184 72.796C131.176 72.9 131.164 73 131.148 73.096H125.844V72.136H130.5L129.972 72.568C130.044 72.152 130.004 71.78 129.852 71.452C129.7 71.124 129.476 70.864 129.18 70.672C128.884 70.48 128.548 70.384 128.172 70.384C127.796 70.384 127.452 70.48 127.14 70.672C126.828 70.864 126.584 71.14 126.408 71.5C126.24 71.852 126.172 72.272 126.204 72.76C126.172 73.232 126.244 73.648 126.42 74.008C126.604 74.36 126.86 74.636 127.188 74.836C127.524 75.028 127.888 75.124 128.28 75.124C128.712 75.124 129.076 75.024 129.372 74.824C129.668 74.624 129.908 74.368 130.092 74.056L131.028 74.536C130.9 74.832 130.7 75.104 130.428 75.352C130.164 75.592 129.848 75.784 129.48 75.928C129.12 76.072 128.716 76.144 128.268 76.144ZM132.903 76V69.532H133.995V70.852L133.839 70.648C133.999 70.24 134.255 69.928 134.607 69.712C134.959 69.496 135.355 69.388 135.795 69.388C136.299 69.388 136.751 69.528 137.151 69.808C137.559 70.088 137.839 70.456 137.991 70.912L137.679 70.924C137.847 70.42 138.131 70.04 138.531 69.784C138.931 69.52 139.375 69.388 139.863 69.388C140.311 69.388 140.715 69.492 141.075 69.7C141.443 69.908 141.735 70.196 141.951 70.564C142.167 70.932 142.275 71.348 142.275 71.812V76H141.147V72.172C141.147 71.812 141.083 71.508 140.955 71.26C140.827 71.012 140.651 70.82 140.427 70.684C140.211 70.54 139.955 70.468 139.659 70.468C139.371 70.468 139.111 70.54 138.879 70.684C138.655 70.82 138.475 71.016 138.339 71.272C138.211 71.52 138.147 71.82 138.147 72.172V76H137.019V72.172C137.019 71.812 136.955 71.508 136.827 71.26C136.699 71.012 136.523 70.82 136.299 70.684C136.083 70.54 135.827 70.468 135.531 70.468C135.243 70.468 134.983 70.54 134.751 70.684C134.527 70.82 134.347 71.016 134.211 71.272C134.083 71.52 134.019 71.82 134.019 72.172V76H132.903ZM147.076 76.144C146.452 76.144 145.896 75.996 145.408 75.7C144.92 75.404 144.536 75 144.256 74.488C143.976 73.968 143.836 73.388 143.836 72.748C143.836 72.1 143.972 71.524 144.244 71.02C144.524 70.516 144.9 70.12 145.372 69.832C145.852 69.536 146.388 69.388 146.98 69.388C147.46 69.388 147.884 69.476 148.252 69.652C148.628 69.82 148.944 70.052 149.2 70.348C149.464 70.636 149.664 70.968 149.8 71.344C149.944 71.712 150.016 72.096 150.016 72.496C150.016 72.584 150.008 72.684 149.992 72.796C149.984 72.9 149.972 73 149.956 73.096H144.652V72.136H149.308L148.78 72.568C148.852 72.152 148.812 71.78 148.66 71.452C148.508 71.124 148.284 70.864 147.988 70.672C147.692 70.48 147.356 70.384 146.98 70.384C146.604 70.384 146.26 70.48 145.948 70.672C145.636 70.864 145.392 71.14 145.216 71.5C145.048 71.852 144.98 72.272 145.012 72.76C144.98 73.232 145.052 73.648 145.228 74.008C145.412 74.36 145.668 74.636 145.996 74.836C146.332 75.028 146.696 75.124 147.088 75.124C147.52 75.124 147.884 75.024 148.18 74.824C148.476 74.624 148.716 74.368 148.9 74.056L149.836 74.536C149.708 74.832 149.508 75.104 149.236 75.352C148.972 75.592 148.656 75.784 148.288 75.928C147.928 76.072 147.524 76.144 147.076 76.144ZM151.711 76V69.532H152.803V70.792L152.623 70.684C152.783 70.276 153.039 69.96 153.391 69.736C153.751 69.504 154.171 69.388 154.651 69.388C155.115 69.388 155.527 69.492 155.887 69.7C156.255 69.908 156.543 70.196 156.751 70.564C156.967 70.932 157.075 71.348 157.075 71.812V76H155.947V72.172C155.947 71.812 155.883 71.508 155.755 71.26C155.627 71.012 155.443 70.82 155.203 70.684C154.971 70.54 154.703 70.468 154.399 70.468C154.095 70.468 153.823 70.54 153.583 70.684C153.351 70.82 153.167 71.016 153.031 71.272C152.895 71.52 152.827 71.82 152.827 72.172V76H151.711ZM161.54 76.072C160.908 76.072 160.42 75.892 160.076 75.532C159.74 75.172 159.572 74.664 159.572 74.008V70.6H158.396V69.532H158.636C158.924 69.532 159.152 69.444 159.32 69.268C159.488 69.092 159.572 68.86 159.572 68.572V68.044H160.688V69.532H162.14V70.6H160.688V73.972C160.688 74.188 160.72 74.376 160.784 74.536C160.856 74.696 160.972 74.824 161.132 74.92C161.292 75.008 161.504 75.052 161.768 75.052C161.824 75.052 161.892 75.048 161.972 75.04C162.06 75.032 162.14 75.024 162.212 75.016V76C162.108 76.024 161.992 76.04 161.864 76.048C161.736 76.064 161.628 76.072 161.54 76.072Z" fill="#30CC71"/>
</g>
<path d="M296 40V98C296 103.523 291.523 108 286 108H264C258.477 108 254 112.477 254 118V150" stroke="url(#paint1_linear_1084_1858)"/>
<g filter="url(#filter1_d_1084_1858)">
<rect x="228" y="10" width="136" height="31" rx="4" fill="white" shape-rendering="crispEdges"/>
<path d="M248.068 30.144C247.5 30.144 246.98 30.04 246.508 29.832C246.036 29.616 245.636 29.324 245.308 28.956C244.98 28.588 244.744 28.176 244.6 27.72L245.62 27.3C245.836 27.876 246.156 28.32 246.58 28.632C247.012 28.936 247.516 29.088 248.092 29.088C248.444 29.088 248.752 29.032 249.016 28.92C249.28 28.808 249.484 28.652 249.628 28.452C249.78 28.244 249.856 28.004 249.856 27.732C249.856 27.356 249.748 27.06 249.532 26.844C249.324 26.62 249.016 26.452 248.608 26.34L246.964 25.836C246.316 25.636 245.82 25.32 245.476 24.888C245.132 24.456 244.96 23.96 244.96 23.4C244.96 22.912 245.076 22.484 245.308 22.116C245.548 21.74 245.876 21.448 246.292 21.24C246.716 21.024 247.196 20.916 247.732 20.916C248.268 20.916 248.752 21.012 249.184 21.204C249.624 21.396 249.996 21.656 250.3 21.984C250.604 22.304 250.828 22.672 250.972 23.088L249.964 23.508C249.772 23.004 249.484 22.624 249.1 22.368C248.716 22.104 248.264 21.972 247.744 21.972C247.424 21.972 247.14 22.028 246.892 22.14C246.652 22.244 246.464 22.4 246.328 22.608C246.2 22.808 246.136 23.048 246.136 23.328C246.136 23.656 246.24 23.948 246.448 24.204C246.656 24.46 246.972 24.656 247.396 24.792L248.896 25.236C249.6 25.452 250.132 25.76 250.492 26.16C250.852 26.56 251.032 27.056 251.032 27.648C251.032 28.136 250.904 28.568 250.648 28.944C250.4 29.32 250.052 29.616 249.604 29.832C249.164 30.04 248.652 30.144 248.068 30.144ZM252.994 30V21.06H258.814V22.14H254.17V24.972H258.574V26.052H254.17V28.92H258.814V30H252.994ZM264.783 30.144C264.151 30.144 263.559 30.032 263.007 29.808C262.455 29.576 261.971 29.252 261.555 28.836C261.147 28.42 260.827 27.932 260.595 27.372C260.363 26.804 260.247 26.188 260.247 25.524C260.247 24.852 260.363 24.236 260.595 23.676C260.827 23.116 261.147 22.628 261.555 22.212C261.971 21.796 262.451 21.476 262.995 21.252C263.547 21.028 264.143 20.916 264.783 20.916C265.423 20.916 266.015 21.032 266.559 21.264C267.111 21.488 267.591 21.808 267.999 22.224C268.415 22.632 268.739 23.116 268.971 23.676C269.211 24.236 269.331 24.852 269.331 25.524C269.331 26.188 269.211 26.804 268.971 27.372C268.739 27.932 268.415 28.42 267.999 28.836C267.591 29.252 267.111 29.576 266.559 29.808C266.015 30.032 265.423 30.144 264.783 30.144ZM264.783 29.052C265.279 29.052 265.731 28.964 266.139 28.788C266.547 28.604 266.899 28.352 267.195 28.032C267.499 27.704 267.731 27.328 267.891 26.904C268.059 26.472 268.143 26.012 268.143 25.524C268.143 25.036 268.059 24.58 267.891 24.156C267.731 23.732 267.499 23.36 267.195 23.04C266.899 22.712 266.547 22.46 266.139 22.284C265.731 22.1 265.279 22.008 264.783 22.008C264.295 22.008 263.847 22.1 263.439 22.284C263.031 22.46 262.675 22.712 262.371 23.04C262.075 23.36 261.843 23.732 261.675 24.156C261.507 24.58 261.423 25.036 261.423 25.524C261.423 26.012 261.507 26.472 261.675 26.904C261.843 27.328 262.075 27.704 262.371 28.032C262.675 28.352 263.031 28.604 263.439 28.788C263.847 28.964 264.295 29.052 264.783 29.052ZM276.541 30.144C275.917 30.144 275.353 30 274.849 29.712C274.345 29.416 273.945 29.012 273.649 28.5C273.353 27.988 273.205 27.408 273.205 26.76C273.205 26.112 273.349 25.536 273.637 25.032C273.933 24.528 274.333 24.128 274.837 23.832C275.341 23.536 275.909 23.388 276.541 23.388C277.165 23.388 277.729 23.536 278.233 23.832C278.737 24.12 279.133 24.516 279.421 25.02C279.717 25.524 279.865 26.104 279.865 26.76C279.865 27.416 279.713 28 279.409 28.512C279.105 29.016 278.701 29.416 278.197 29.712C277.701 30 277.149 30.144 276.541 30.144ZM276.541 29.064C276.941 29.064 277.301 28.964 277.621 28.764C277.949 28.564 278.205 28.288 278.389 27.936C278.581 27.584 278.677 27.192 278.677 26.76C278.677 26.32 278.581 25.932 278.389 25.596C278.205 25.252 277.949 24.98 277.621 24.78C277.301 24.572 276.941 24.468 276.541 24.468C276.133 24.468 275.765 24.572 275.437 24.78C275.117 24.98 274.861 25.252 274.669 25.596C274.477 25.932 274.381 26.32 274.381 26.76C274.381 27.192 274.477 27.584 274.669 27.936C274.861 28.288 275.117 28.564 275.437 28.764C275.765 28.964 276.133 29.064 276.541 29.064ZM281.56 32.4V23.532H282.652V24.924L282.508 24.648C282.748 24.264 283.076 23.96 283.492 23.736C283.908 23.504 284.384 23.388 284.92 23.388C285.528 23.388 286.072 23.536 286.552 23.832C287.04 24.128 287.424 24.532 287.704 25.044C287.984 25.548 288.124 26.124 288.124 26.772C288.124 27.404 287.984 27.976 287.704 28.488C287.424 29 287.04 29.404 286.552 29.7C286.072 29.996 285.524 30.144 284.908 30.144C284.388 30.144 283.912 30.028 283.48 29.796C283.056 29.564 282.728 29.236 282.496 28.812L282.676 28.62V32.4H281.56ZM284.824 29.064C285.232 29.064 285.596 28.964 285.916 28.764C286.236 28.564 286.484 28.292 286.66 27.948C286.844 27.596 286.936 27.204 286.936 26.772C286.936 26.324 286.844 25.932 286.66 25.596C286.484 25.252 286.236 24.98 285.916 24.78C285.596 24.572 285.232 24.468 284.824 24.468C284.416 24.468 284.048 24.568 283.72 24.768C283.4 24.968 283.144 25.244 282.952 25.596C282.768 25.94 282.676 26.332 282.676 26.772C282.676 27.204 282.768 27.596 282.952 27.948C283.144 28.292 283.4 28.564 283.72 28.764C284.048 28.964 284.416 29.064 284.824 29.064ZM292.338 30.072C291.706 30.072 291.218 29.892 290.874 29.532C290.538 29.172 290.37 28.664 290.37 28.008V24.6H289.194V23.532H289.434C289.722 23.532 289.95 23.444 290.118 23.268C290.286 23.092 290.37 22.86 290.37 22.572V22.044H291.486V23.532H292.938V24.6H291.486V27.972C291.486 28.188 291.518 28.376 291.582 28.536C291.654 28.696 291.77 28.824 291.93 28.92C292.09 29.008 292.302 29.052 292.566 29.052C292.622 29.052 292.69 29.048 292.77 29.04C292.858 29.032 292.938 29.024 293.01 29.016V30C292.906 30.024 292.79 30.04 292.662 30.048C292.534 30.064 292.426 30.072 292.338 30.072ZM294.708 30V23.532H295.824V30H294.708ZM294.708 22.5V21.06H295.824V22.5H294.708ZM297.796 30V23.532H298.888V24.852L298.732 24.648C298.892 24.24 299.148 23.928 299.5 23.712C299.852 23.496 300.248 23.388 300.688 23.388C301.192 23.388 301.644 23.528 302.044 23.808C302.452 24.088 302.732 24.456 302.884 24.912L302.572 24.924C302.74 24.42 303.024 24.04 303.424 23.784C303.824 23.52 304.268 23.388 304.756 23.388C305.204 23.388 305.608 23.492 305.968 23.7C306.336 23.908 306.628 24.196 306.844 24.564C307.06 24.932 307.168 25.348 307.168 25.812V30H306.04V26.172C306.04 25.812 305.976 25.508 305.848 25.26C305.72 25.012 305.544 24.82 305.32 24.684C305.104 24.54 304.848 24.468 304.552 24.468C304.264 24.468 304.004 24.54 303.772 24.684C303.548 24.82 303.368 25.016 303.232 25.272C303.104 25.52 303.04 25.82 303.04 26.172V30H301.912V26.172C301.912 25.812 301.848 25.508 301.72 25.26C301.592 25.012 301.416 24.82 301.192 24.684C300.976 24.54 300.72 24.468 300.424 24.468C300.136 24.468 299.876 24.54 299.644 24.684C299.42 24.82 299.24 25.016 299.104 25.272C298.976 25.52 298.912 25.82 298.912 26.172V30H297.796ZM308.993 30V23.532H310.109V30H308.993ZM308.993 22.5V21.06H310.109V22.5H308.993ZM311.444 30V29.052L315.296 24.192L315.488 24.6H311.636V23.532H316.484V24.48L312.668 29.352L312.476 28.932H316.508V30H311.444ZM319.736 30.144C319.312 30.144 318.936 30.068 318.608 29.916C318.288 29.756 318.036 29.54 317.852 29.268C317.668 28.988 317.576 28.668 317.576 28.308C317.576 27.964 317.648 27.656 317.792 27.384C317.944 27.104 318.176 26.868 318.488 26.676C318.808 26.484 319.208 26.348 319.688 26.268L322.088 25.872V26.808L319.94 27.168C319.524 27.24 319.22 27.372 319.028 27.564C318.844 27.756 318.752 27.992 318.752 28.272C318.752 28.536 318.856 28.756 319.064 28.932C319.28 29.108 319.548 29.196 319.868 29.196C320.276 29.196 320.628 29.112 320.924 28.944C321.228 28.768 321.464 28.532 321.632 28.236C321.808 27.94 321.896 27.612 321.896 27.252V25.608C321.896 25.256 321.764 24.972 321.5 24.756C321.244 24.532 320.904 24.42 320.48 24.42C320.112 24.42 319.784 24.516 319.496 24.708C319.216 24.892 319.008 25.14 318.872 25.452L317.9 24.948C318.02 24.652 318.212 24.388 318.476 24.156C318.74 23.916 319.048 23.728 319.4 23.592C319.752 23.456 320.12 23.388 320.504 23.388C321 23.388 321.436 23.484 321.812 23.676C322.188 23.86 322.48 24.12 322.688 24.456C322.904 24.784 323.012 25.168 323.012 25.608V30H321.92V28.776L322.124 28.848C321.988 29.104 321.804 29.328 321.572 29.52C321.34 29.712 321.068 29.864 320.756 29.976C320.444 30.088 320.104 30.144 319.736 30.144ZM327.493 30.072C326.861 30.072 326.373 29.892 326.029 29.532C325.693 29.172 325.525 28.664 325.525 28.008V24.6H324.349V23.532H324.589C324.877 23.532 325.105 23.444 325.273 23.268C325.441 23.092 325.525 22.86 325.525 22.572V22.044H326.641V23.532H328.093V24.6H326.641V27.972C326.641 28.188 326.673 28.376 326.737 28.536C326.809 28.696 326.925 28.824 327.085 28.92C327.245 29.008 327.457 29.052 327.721 29.052C327.777 29.052 327.845 29.048 327.925 29.04C328.013 29.032 328.093 29.024 328.165 29.016V30C328.061 30.024 327.945 30.04 327.817 30.048C327.689 30.064 327.581 30.072 327.493 30.072ZM329.863 30V23.532H330.979V30H329.863ZM329.863 22.5V21.06H330.979V22.5H329.863ZM336.023 30.144C335.399 30.144 334.835 30 334.331 29.712C333.827 29.416 333.427 29.012 333.131 28.5C332.835 27.988 332.687 27.408 332.687 26.76C332.687 26.112 332.831 25.536 333.119 25.032C333.415 24.528 333.815 24.128 334.319 23.832C334.823 23.536 335.391 23.388 336.023 23.388C336.647 23.388 337.211 23.536 337.715 23.832C338.219 24.12 338.615 24.516 338.903 25.02C339.199 25.524 339.347 26.104 339.347 26.76C339.347 27.416 339.195 28 338.891 28.512C338.587 29.016 338.183 29.416 337.679 29.712C337.183 30 336.631 30.144 336.023 30.144ZM336.023 29.064C336.423 29.064 336.783 28.964 337.103 28.764C337.431 28.564 337.687 28.288 337.871 27.936C338.063 27.584 338.159 27.192 338.159 26.76C338.159 26.32 338.063 25.932 337.871 25.596C337.687 25.252 337.431 24.98 337.103 24.78C336.783 24.572 336.423 24.468 336.023 24.468C335.615 24.468 335.247 24.572 334.919 24.78C334.599 24.98 334.343 25.252 334.151 25.596C333.959 25.932 333.863 26.32 333.863 26.76C333.863 27.192 333.959 27.584 334.151 27.936C334.343 28.288 334.599 28.564 334.919 28.764C335.247 28.964 335.615 29.064 336.023 29.064ZM341.042 30V23.532H342.134V24.792L341.954 24.684C342.114 24.276 342.37 23.96 342.722 23.736C343.082 23.504 343.502 23.388 343.982 23.388C344.446 23.388 344.858 23.492 345.218 23.7C345.586 23.908 345.874 24.196 346.082 24.564C346.298 24.932 346.406 25.348 346.406 25.812V30H345.278V26.172C345.278 25.812 345.214 25.508 345.086 25.26C344.958 25.012 344.774 24.82 344.534 24.684C344.302 24.54 344.034 24.468 343.73 24.468C343.426 24.468 343.154 24.54 342.914 24.684C342.682 24.82 342.498 25.016 342.362 25.272C342.226 25.52 342.158 25.82 342.158 26.172V30H341.042Z" fill="#30CC71"/>
</g>
<g filter="url(#filter2_f_1084_1858)">
<circle cx="266" cy="108" r="8" fill="#30CC71" fill-opacity="0.4"/>
</g>
<circle cx="266" cy="108" r="4" fill="#30CC71"/>
<path d="M434 107V160C434 165.523 429.523 170 424 170H270" stroke="url(#paint2_linear_1084_1858)"/>
<g filter="url(#filter3_d_1084_1858)">
<rect x="354" y="76" width="160" height="31" rx="4" fill="white" shape-rendering="crispEdges"/>
<path d="M370.864 96V86.916H371.98V90.792L371.776 90.684C371.936 90.276 372.192 89.96 372.544 89.736C372.904 89.504 373.324 89.388 373.804 89.388C374.268 89.388 374.68 89.492 375.04 89.7C375.408 89.908 375.696 90.196 375.904 90.564C376.12 90.932 376.228 91.348 376.228 91.812V96H375.1V92.172C375.1 91.812 375.032 91.508 374.896 91.26C374.768 91.012 374.588 90.82 374.356 90.684C374.124 90.54 373.856 90.468 373.552 90.468C373.256 90.468 372.988 90.54 372.748 90.684C372.508 90.82 372.32 91.016 372.184 91.272C372.048 91.52 371.98 91.82 371.98 92.172V96H370.864ZM381.137 96.144C380.513 96.144 379.949 96 379.445 95.712C378.941 95.416 378.541 95.012 378.245 94.5C377.949 93.988 377.801 93.408 377.801 92.76C377.801 92.112 377.945 91.536 378.233 91.032C378.529 90.528 378.929 90.128 379.433 89.832C379.937 89.536 380.505 89.388 381.137 89.388C381.761 89.388 382.325 89.536 382.829 89.832C383.333 90.12 383.729 90.516 384.017 91.02C384.313 91.524 384.461 92.104 384.461 92.76C384.461 93.416 384.309 94 384.005 94.512C383.701 95.016 383.297 95.416 382.793 95.712C382.297 96 381.745 96.144 381.137 96.144ZM381.137 95.064C381.537 95.064 381.897 94.964 382.217 94.764C382.545 94.564 382.801 94.288 382.985 93.936C383.177 93.584 383.273 93.192 383.273 92.76C383.273 92.32 383.177 91.932 382.985 91.596C382.801 91.252 382.545 90.98 382.217 90.78C381.897 90.572 381.537 90.468 381.137 90.468C380.729 90.468 380.361 90.572 380.033 90.78C379.713 90.98 379.457 91.252 379.265 91.596C379.073 91.932 378.977 92.32 378.977 92.76C378.977 93.192 379.073 93.584 379.265 93.936C379.457 94.288 379.713 94.564 380.033 94.764C380.361 94.964 380.729 95.064 381.137 95.064ZM388.472 96.144C387.824 96.144 387.26 95.984 386.78 95.664C386.3 95.344 385.96 94.912 385.76 94.368L386.648 93.936C386.832 94.32 387.084 94.624 387.404 94.848C387.724 95.072 388.08 95.184 388.472 95.184C388.824 95.184 389.116 95.1 389.348 94.932C389.58 94.764 389.696 94.544 389.696 94.272C389.696 94.08 389.64 93.928 389.528 93.816C389.424 93.696 389.296 93.604 389.144 93.54C388.992 93.468 388.852 93.416 388.724 93.384L387.752 93.108C387.168 92.94 386.74 92.7 386.468 92.388C386.204 92.076 386.072 91.712 386.072 91.296C386.072 90.912 386.168 90.58 386.36 90.3C386.56 90.012 386.828 89.788 387.164 89.628C387.508 89.468 387.892 89.388 388.316 89.388C388.884 89.388 389.392 89.532 389.84 89.82C390.296 90.108 390.62 90.512 390.812 91.032L389.9 91.452C389.756 91.116 389.54 90.852 389.252 90.66C388.964 90.46 388.64 90.36 388.28 90.36C387.952 90.36 387.692 90.444 387.5 90.612C387.308 90.772 387.212 90.976 387.212 91.224C387.212 91.408 387.26 91.56 387.356 91.68C387.452 91.792 387.568 91.88 387.704 91.944C387.84 92 387.972 92.048 388.1 92.088L389.156 92.4C389.684 92.552 390.092 92.788 390.38 93.108C390.676 93.428 390.824 93.812 390.824 94.26C390.824 94.62 390.724 94.944 390.524 95.232C390.324 95.52 390.048 95.744 389.696 95.904C389.344 96.064 388.936 96.144 388.472 96.144ZM395.153 96.072C394.521 96.072 394.033 95.892 393.689 95.532C393.353 95.172 393.185 94.664 393.185 94.008V90.6H392.009V89.532H392.249C392.537 89.532 392.765 89.444 392.933 89.268C393.101 89.092 393.185 88.86 393.185 88.572V88.044H394.301V89.532H395.753V90.6H394.301V93.972C394.301 94.188 394.333 94.376 394.397 94.536C394.469 94.696 394.585 94.824 394.745 94.92C394.905 95.008 395.117 95.052 395.381 95.052C395.437 95.052 395.505 95.048 395.585 95.04C395.673 95.032 395.753 95.024 395.825 95.016V96C395.721 96.024 395.605 96.04 395.477 96.048C395.349 96.064 395.241 96.072 395.153 96.072ZM397.523 96V89.532H398.639V96H397.523ZM397.523 88.5V87.06H398.639V88.5H397.523ZM400.611 96V89.532H401.703V90.792L401.523 90.684C401.683 90.276 401.939 89.96 402.291 89.736C402.651 89.504 403.071 89.388 403.551 89.388C404.015 89.388 404.427 89.492 404.787 89.7C405.155 89.908 405.443 90.196 405.651 90.564C405.867 90.932 405.975 91.348 405.975 91.812V96H404.847V92.172C404.847 91.812 404.783 91.508 404.655 91.26C404.527 91.012 404.343 90.82 404.103 90.684C403.871 90.54 403.603 90.468 403.299 90.468C402.995 90.468 402.723 90.54 402.483 90.684C402.251 90.82 402.067 91.016 401.931 91.272C401.795 91.52 401.727 91.82 401.727 92.172V96H400.611ZM410.896 98.64C410.44 98.64 410.016 98.568 409.624 98.424C409.24 98.28 408.908 98.08 408.628 97.824C408.356 97.576 408.148 97.284 408.004 96.948L409.048 96.468C409.16 96.772 409.372 97.028 409.684 97.236C410.004 97.452 410.404 97.56 410.884 97.56C411.252 97.56 411.584 97.488 411.88 97.344C412.184 97.208 412.424 97 412.6 96.72C412.776 96.448 412.864 96.116 412.864 95.724V94.272L413.068 94.488C412.844 94.928 412.52 95.264 412.096 95.496C411.68 95.728 411.22 95.844 410.716 95.844C410.108 95.844 409.564 95.704 409.084 95.424C408.604 95.136 408.228 94.748 407.956 94.26C407.684 93.764 407.548 93.216 407.548 92.616C407.548 92.008 407.684 91.46 407.956 90.972C408.228 90.484 408.6 90.1 409.072 89.82C409.552 89.532 410.096 89.388 410.704 89.388C411.208 89.388 411.664 89.504 412.072 89.736C412.488 89.96 412.82 90.272 413.068 90.672L412.9 90.972V89.532H413.992V95.724C413.992 96.284 413.86 96.784 413.596 97.224C413.332 97.664 412.964 98.008 412.492 98.256C412.028 98.512 411.496 98.64 410.896 98.64ZM410.812 94.764C411.196 94.764 411.54 94.668 411.844 94.476C412.156 94.284 412.404 94.028 412.588 93.708C412.772 93.38 412.864 93.016 412.864 92.616C412.864 92.224 412.772 91.864 412.588 91.536C412.404 91.208 412.156 90.948 411.844 90.756C411.54 90.564 411.196 90.468 410.812 90.468C410.42 90.468 410.064 90.564 409.744 90.756C409.424 90.948 409.172 91.208 408.988 91.536C408.812 91.856 408.724 92.216 408.724 92.616C408.724 93.016 408.812 93.38 408.988 93.708C409.172 94.028 409.42 94.284 409.732 94.476C410.052 94.668 410.412 94.764 410.812 94.764ZM418.276 96V89.532H419.368V90.72L419.248 90.552C419.4 90.184 419.632 89.912 419.944 89.736C420.256 89.552 420.636 89.46 421.084 89.46H421.48V90.516H420.916C420.46 90.516 420.092 90.66 419.812 90.948C419.532 91.228 419.392 91.628 419.392 92.148V96H418.276ZM425.688 96.144C425.064 96.144 424.507 95.996 424.019 95.7C423.531 95.404 423.147 95 422.867 94.488C422.587 93.968 422.447 93.388 422.447 92.748C422.447 92.1 422.583 91.524 422.855 91.02C423.135 90.516 423.511 90.12 423.983 89.832C424.463 89.536 424.999 89.388 425.591 89.388C426.071 89.388 426.495 89.476 426.863 89.652C427.24 89.82 427.556 90.052 427.811 90.348C428.076 90.636 428.276 90.968 428.412 91.344C428.556 91.712 428.627 92.096 428.627 92.496C428.627 92.584 428.619 92.684 428.604 92.796C428.596 92.9 428.584 93 428.567 93.096H423.263V92.136H427.92L427.391 92.568C427.464 92.152 427.424 91.78 427.272 91.452C427.12 91.124 426.896 90.864 426.6 90.672C426.304 90.48 425.968 90.384 425.591 90.384C425.215 90.384 424.872 90.48 424.559 90.672C424.247 90.864 424.003 91.14 423.827 91.5C423.659 91.852 423.591 92.272 423.623 92.76C423.591 93.232 423.663 93.648 423.839 94.008C424.023 94.36 424.279 94.636 424.607 94.836C424.943 95.028 425.308 95.124 425.699 95.124C426.132 95.124 426.496 95.024 426.792 94.824C427.088 94.624 427.328 94.368 427.512 94.056L428.447 94.536C428.32 94.832 428.12 95.104 427.847 95.352C427.583 95.592 427.268 95.784 426.9 95.928C426.54 96.072 426.136 96.144 425.688 96.144ZM435.495 98.4V94.62L435.675 94.812C435.451 95.236 435.123 95.564 434.691 95.796C434.267 96.028 433.791 96.144 433.263 96.144C432.655 96.144 432.107 95.996 431.619 95.7C431.139 95.404 430.759 95 430.479 94.488C430.199 93.976 430.059 93.404 430.059 92.772C430.059 92.124 430.199 91.548 430.479 91.044C430.759 90.532 431.139 90.128 431.619 89.832C432.107 89.536 432.655 89.388 433.263 89.388C433.799 89.388 434.275 89.504 434.691 89.736C435.107 89.96 435.435 90.264 435.675 90.648L435.531 90.924V89.532H436.623V98.4H435.495ZM433.359 95.064C433.767 95.064 434.131 94.964 434.451 94.764C434.771 94.564 435.023 94.292 435.207 93.948C435.399 93.596 435.495 93.204 435.495 92.772C435.495 92.332 435.399 91.94 435.207 91.596C435.023 91.244 434.771 90.968 434.451 90.768C434.131 90.568 433.767 90.468 433.359 90.468C432.959 90.468 432.595 90.572 432.267 90.78C431.947 90.98 431.695 91.252 431.511 91.596C431.327 91.932 431.235 92.324 431.235 92.772C431.235 93.204 431.327 93.596 431.511 93.948C431.695 94.292 431.947 94.564 432.267 94.764C432.587 94.964 432.951 95.064 433.359 95.064ZM440.882 96.144C440.418 96.144 439.998 96.036 439.622 95.82C439.254 95.604 438.966 95.304 438.758 94.92C438.558 94.528 438.458 94.08 438.458 93.576V89.532H439.574V93.456C439.574 93.776 439.638 94.056 439.766 94.296C439.902 94.536 440.086 94.724 440.318 94.86C440.558 94.996 440.83 95.064 441.134 95.064C441.438 95.064 441.706 94.996 441.938 94.86C442.178 94.724 442.362 94.528 442.49 94.272C442.626 94.016 442.694 93.712 442.694 93.36V89.532H443.822V96H442.73V94.74L442.91 94.848C442.758 95.256 442.498 95.576 442.13 95.808C441.77 96.032 441.354 96.144 440.882 96.144ZM445.791 96V89.532H446.907V96H445.791ZM445.791 88.5V87.06H446.907V88.5H445.791ZM448.879 96V89.532H449.971V90.72L449.851 90.552C450.003 90.184 450.235 89.912 450.547 89.736C450.859 89.552 451.239 89.46 451.687 89.46H452.083V90.516H451.519C451.063 90.516 450.695 90.66 450.415 90.948C450.135 91.228 449.995 91.628 449.995 92.148V96H448.879ZM456.29 96.144C455.666 96.144 455.11 95.996 454.622 95.7C454.134 95.404 453.75 95 453.47 94.488C453.19 93.968 453.05 93.388 453.05 92.748C453.05 92.1 453.186 91.524 453.458 91.02C453.738 90.516 454.114 90.12 454.586 89.832C455.066 89.536 455.602 89.388 456.194 89.388C456.674 89.388 457.098 89.476 457.466 89.652C457.842 89.82 458.158 90.052 458.414 90.348C458.678 90.636 458.878 90.968 459.014 91.344C459.158 91.712 459.23 92.096 459.23 92.496C459.23 92.584 459.222 92.684 459.206 92.796C459.198 92.9 459.186 93 459.17 93.096H453.866V92.136H458.522L457.994 92.568C458.066 92.152 458.026 91.78 457.874 91.452C457.722 91.124 457.498 90.864 457.202 90.672C456.906 90.48 456.57 90.384 456.194 90.384C455.818 90.384 455.474 90.48 455.162 90.672C454.85 90.864 454.606 91.14 454.43 91.5C454.262 91.852 454.194 92.272 454.226 92.76C454.194 93.232 454.266 93.648 454.442 94.008C454.626 94.36 454.882 94.636 455.21 94.836C455.546 95.028 455.91 95.124 456.302 95.124C456.734 95.124 457.098 95.024 457.394 94.824C457.69 94.624 457.93 94.368 458.114 94.056L459.05 94.536C458.922 94.832 458.722 95.104 458.45 95.352C458.186 95.592 457.87 95.784 457.502 95.928C457.142 96.072 456.738 96.144 456.29 96.144ZM460.925 96V89.532H462.017V90.852L461.861 90.648C462.021 90.24 462.277 89.928 462.629 89.712C462.981 89.496 463.377 89.388 463.817 89.388C464.321 89.388 464.773 89.528 465.173 89.808C465.581 90.088 465.861 90.456 466.013 90.912L465.701 90.924C465.869 90.42 466.153 90.04 466.553 89.784C466.953 89.52 467.397 89.388 467.885 89.388C468.333 89.388 468.737 89.492 469.097 89.7C469.465 89.908 469.757 90.196 469.973 90.564C470.189 90.932 470.297 91.348 470.297 91.812V96H469.169V92.172C469.169 91.812 469.105 91.508 468.977 91.26C468.849 91.012 468.673 90.82 468.449 90.684C468.233 90.54 467.977 90.468 467.681 90.468C467.393 90.468 467.133 90.54 466.901 90.684C466.677 90.82 466.497 91.016 466.361 91.272C466.233 91.52 466.169 91.82 466.169 92.172V96H465.041V92.172C465.041 91.812 464.977 91.508 464.849 91.26C464.721 91.012 464.545 90.82 464.321 90.684C464.105 90.54 463.849 90.468 463.553 90.468C463.265 90.468 463.005 90.54 462.773 90.684C462.549 90.82 462.369 91.016 462.233 91.272C462.105 91.52 462.041 91.82 462.041 92.172V96H460.925ZM475.098 96.144C474.474 96.144 473.918 95.996 473.43 95.7C472.942 95.404 472.558 95 472.278 94.488C471.998 93.968 471.858 93.388 471.858 92.748C471.858 92.1 471.994 91.524 472.266 91.02C472.546 90.516 472.922 90.12 473.394 89.832C473.874 89.536 474.41 89.388 475.002 89.388C475.482 89.388 475.906 89.476 476.274 89.652C476.65 89.82 476.966 90.052 477.222 90.348C477.486 90.636 477.686 90.968 477.822 91.344C477.966 91.712 478.038 92.096 478.038 92.496C478.038 92.584 478.03 92.684 478.014 92.796C478.006 92.9 477.994 93 477.978 93.096H472.674V92.136H477.33L476.802 92.568C476.874 92.152 476.834 91.78 476.682 91.452C476.53 91.124 476.306 90.864 476.01 90.672C475.714 90.48 475.378 90.384 475.002 90.384C474.626 90.384 474.282 90.48 473.97 90.672C473.658 90.864 473.414 91.14 473.238 91.5C473.07 91.852 473.002 92.272 473.034 92.76C473.002 93.232 473.074 93.648 473.25 94.008C473.434 94.36 473.69 94.636 474.018 94.836C474.354 95.028 474.718 95.124 475.11 95.124C475.542 95.124 475.906 95.024 476.202 94.824C476.498 94.624 476.738 94.368 476.922 94.056L477.858 94.536C477.73 94.832 477.53 95.104 477.258 95.352C476.994 95.592 476.678 95.784 476.31 95.928C475.95 96.072 475.546 96.144 475.098 96.144ZM479.733 96V89.532H480.825V90.792L480.645 90.684C480.805 90.276 481.061 89.96 481.413 89.736C481.773 89.504 482.193 89.388 482.673 89.388C483.137 89.388 483.549 89.492 483.909 89.7C484.277 89.908 484.565 90.196 484.773 90.564C484.989 90.932 485.097 91.348 485.097 91.812V96H483.969V92.172C483.969 91.812 483.905 91.508 483.777 91.26C483.649 91.012 483.465 90.82 483.225 90.684C482.993 90.54 482.725 90.468 482.421 90.468C482.117 90.468 481.845 90.54 481.605 90.684C481.373 90.82 481.189 91.016 481.053 91.272C480.917 91.52 480.849 91.82 480.849 92.172V96H479.733ZM489.562 96.072C488.93 96.072 488.442 95.892 488.098 95.532C487.762 95.172 487.594 94.664 487.594 94.008V90.6H486.418V89.532H486.658C486.946 89.532 487.174 89.444 487.342 89.268C487.51 89.092 487.594 88.86 487.594 88.572V88.044H488.71V89.532H490.162V90.6H488.71V93.972C488.71 94.188 488.742 94.376 488.806 94.536C488.878 94.696 488.994 94.824 489.154 94.92C489.314 95.008 489.526 95.052 489.79 95.052C489.846 95.052 489.914 95.048 489.994 95.04C490.082 95.032 490.162 95.024 490.234 95.016V96C490.13 96.024 490.014 96.04 489.886 96.048C489.758 96.064 489.65 96.072 489.562 96.072ZM494.248 96.144C493.6 96.144 493.036 95.984 492.556 95.664C492.076 95.344 491.736 94.912 491.536 94.368L492.424 93.936C492.608 94.32 492.86 94.624 493.18 94.848C493.5 95.072 493.856 95.184 494.248 95.184C494.6 95.184 494.892 95.1 495.124 94.932C495.356 94.764 495.472 94.544 495.472 94.272C495.472 94.08 495.416 93.928 495.304 93.816C495.2 93.696 495.072 93.604 494.92 93.54C494.768 93.468 494.628 93.416 494.5 93.384L493.528 93.108C492.944 92.94 492.516 92.7 492.244 92.388C491.98 92.076 491.848 91.712 491.848 91.296C491.848 90.912 491.944 90.58 492.136 90.3C492.336 90.012 492.604 89.788 492.94 89.628C493.284 89.468 493.668 89.388 494.092 89.388C494.66 89.388 495.168 89.532 495.616 89.82C496.072 90.108 496.396 90.512 496.588 91.032L495.676 91.452C495.532 91.116 495.316 90.852 495.028 90.66C494.74 90.46 494.416 90.36 494.056 90.36C493.728 90.36 493.468 90.444 493.276 90.612C493.084 90.772 492.988 90.976 492.988 91.224C492.988 91.408 493.036 91.56 493.132 91.68C493.228 91.792 493.344 91.88 493.48 91.944C493.616 92 493.748 92.048 493.876 92.088L494.932 92.4C495.46 92.552 495.868 92.788 496.156 93.108C496.452 93.428 496.6 93.812 496.6 94.26C496.6 94.62 496.5 94.944 496.3 95.232C496.1 95.52 495.824 95.744 495.472 95.904C495.12 96.064 494.712 96.144 494.248 96.144Z" fill="#30CC71"/>
</g>
<path d="M155 283V236C155 230.477 159.477 226 165 226H219" stroke="url(#paint3_linear_1084_1858)"/>
<g filter="url(#filter4_d_1084_1858)">
<rect x="95" y="278" width="120" height="31" rx="4" fill="white" shape-rendering="crispEdges"/>
<path d="M111.132 298L114.336 289.06H115.728L118.932 298H117.672L116.94 295.9H113.124L112.392 298H111.132ZM113.496 294.82H116.568L114.864 289.912H115.2L113.496 294.82ZM120.298 298V289.06H123.454C124.046 289.06 124.566 289.172 125.014 289.396C125.462 289.62 125.81 289.94 126.059 290.356C126.315 290.772 126.443 291.26 126.443 291.82C126.443 292.38 126.315 292.868 126.059 293.284C125.81 293.692 125.462 294.012 125.014 294.244C124.575 294.468 124.055 294.58 123.454 294.58H121.474V298H120.298ZM121.474 293.5H123.49C123.85 293.5 124.163 293.432 124.426 293.296C124.69 293.16 124.894 292.964 125.038 292.708C125.183 292.452 125.255 292.156 125.255 291.82C125.255 291.476 125.183 291.18 125.038 290.932C124.894 290.676 124.69 290.48 124.426 290.344C124.163 290.208 123.85 290.14 123.49 290.14H121.474V293.5ZM128.273 298V289.06H129.449V298H128.273ZM133.859 298V291.532H134.975V298H133.859ZM133.859 290.5V289.06H134.975V290.5H133.859ZM136.947 298V291.532H138.039V292.792L137.859 292.684C138.019 292.276 138.275 291.96 138.627 291.736C138.987 291.504 139.407 291.388 139.887 291.388C140.351 291.388 140.763 291.492 141.123 291.7C141.491 291.908 141.779 292.196 141.987 292.564C142.203 292.932 142.311 293.348 142.311 293.812V298H141.183V294.172C141.183 293.812 141.119 293.508 140.991 293.26C140.863 293.012 140.679 292.82 140.439 292.684C140.207 292.54 139.939 292.468 139.635 292.468C139.331 292.468 139.059 292.54 138.819 292.684C138.587 292.82 138.403 293.016 138.267 293.272C138.131 293.52 138.063 293.82 138.063 294.172V298H136.947ZM146.776 298.072C146.144 298.072 145.656 297.892 145.312 297.532C144.976 297.172 144.808 296.664 144.808 296.008V292.6H143.632V291.532H143.872C144.16 291.532 144.388 291.444 144.556 291.268C144.724 291.092 144.808 290.86 144.808 290.572V290.044H145.924V291.532H147.376V292.6H145.924V295.972C145.924 296.188 145.956 296.376 146.02 296.536C146.092 296.696 146.208 296.824 146.368 296.92C146.528 297.008 146.74 297.052 147.004 297.052C147.06 297.052 147.128 297.048 147.208 297.04C147.296 297.032 147.376 297.024 147.448 297.016V298C147.344 298.024 147.228 298.04 147.1 298.048C146.972 298.064 146.864 298.072 146.776 298.072ZM151.946 298.144C151.322 298.144 150.766 297.996 150.278 297.7C149.79 297.404 149.406 297 149.126 296.488C148.846 295.968 148.706 295.388 148.706 294.748C148.706 294.1 148.842 293.524 149.114 293.02C149.394 292.516 149.77 292.12 150.242 291.832C150.722 291.536 151.258 291.388 151.85 291.388C152.33 291.388 152.754 291.476 153.122 291.652C153.498 291.82 153.814 292.052 154.07 292.348C154.334 292.636 154.534 292.968 154.67 293.344C154.814 293.712 154.886 294.096 154.886 294.496C154.886 294.584 154.878 294.684 154.862 294.796C154.854 294.9 154.842 295 154.826 295.096H149.522V294.136H154.178L153.65 294.568C153.722 294.152 153.682 293.78 153.53 293.452C153.378 293.124 153.154 292.864 152.858 292.672C152.562 292.48 152.226 292.384 151.85 292.384C151.474 292.384 151.13 292.48 150.818 292.672C150.506 292.864 150.262 293.14 150.086 293.5C149.918 293.852 149.85 294.272 149.882 294.76C149.85 295.232 149.922 295.648 150.098 296.008C150.282 296.36 150.538 296.636 150.866 296.836C151.202 297.028 151.566 297.124 151.958 297.124C152.39 297.124 152.754 297.024 153.05 296.824C153.346 296.624 153.586 296.368 153.77 296.056L154.706 296.536C154.578 296.832 154.378 297.104 154.106 297.352C153.842 297.592 153.526 297.784 153.158 297.928C152.798 298.072 152.394 298.144 151.946 298.144ZM159.665 300.64C159.209 300.64 158.785 300.568 158.393 300.424C158.009 300.28 157.677 300.08 157.397 299.824C157.125 299.576 156.917 299.284 156.773 298.948L157.817 298.468C157.929 298.772 158.141 299.028 158.453 299.236C158.773 299.452 159.173 299.56 159.653 299.56C160.021 299.56 160.353 299.488 160.649 299.344C160.953 299.208 161.193 299 161.369 298.72C161.545 298.448 161.633 298.116 161.633 297.724V296.272L161.837 296.488C161.613 296.928 161.289 297.264 160.865 297.496C160.449 297.728 159.989 297.844 159.485 297.844C158.877 297.844 158.333 297.704 157.853 297.424C157.373 297.136 156.997 296.748 156.725 296.26C156.453 295.764 156.317 295.216 156.317 294.616C156.317 294.008 156.453 293.46 156.725 292.972C156.997 292.484 157.369 292.1 157.841 291.82C158.321 291.532 158.865 291.388 159.473 291.388C159.977 291.388 160.433 291.504 160.841 291.736C161.257 291.96 161.589 292.272 161.837 292.672L161.669 292.972V291.532H162.761V297.724C162.761 298.284 162.629 298.784 162.365 299.224C162.101 299.664 161.733 300.008 161.261 300.256C160.797 300.512 160.265 300.64 159.665 300.64ZM159.581 296.764C159.965 296.764 160.309 296.668 160.613 296.476C160.925 296.284 161.173 296.028 161.357 295.708C161.541 295.38 161.633 295.016 161.633 294.616C161.633 294.224 161.541 293.864 161.357 293.536C161.173 293.208 160.925 292.948 160.613 292.756C160.309 292.564 159.965 292.468 159.581 292.468C159.189 292.468 158.833 292.564 158.513 292.756C158.193 292.948 157.941 293.208 157.757 293.536C157.581 293.856 157.493 294.216 157.493 294.616C157.493 295.016 157.581 295.38 157.757 295.708C157.941 296.028 158.189 296.284 158.501 296.476C158.821 296.668 159.181 296.764 159.581 296.764ZM164.731 298V291.532H165.823V292.72L165.703 292.552C165.855 292.184 166.087 291.912 166.399 291.736C166.711 291.552 167.091 291.46 167.539 291.46H167.935V292.516H167.371C166.915 292.516 166.547 292.66 166.267 292.948C165.987 293.228 165.847 293.628 165.847 294.148V298H164.731ZM171.062 298.144C170.638 298.144 170.262 298.068 169.934 297.916C169.614 297.756 169.362 297.54 169.178 297.268C168.994 296.988 168.902 296.668 168.902 296.308C168.902 295.964 168.974 295.656 169.118 295.384C169.27 295.104 169.502 294.868 169.814 294.676C170.134 294.484 170.534 294.348 171.014 294.268L173.414 293.872V294.808L171.266 295.168C170.85 295.24 170.546 295.372 170.354 295.564C170.17 295.756 170.078 295.992 170.078 296.272C170.078 296.536 170.182 296.756 170.39 296.932C170.606 297.108 170.874 297.196 171.194 297.196C171.602 297.196 171.954 297.112 172.25 296.944C172.554 296.768 172.79 296.532 172.958 296.236C173.134 295.94 173.222 295.612 173.222 295.252V293.608C173.222 293.256 173.09 292.972 172.826 292.756C172.57 292.532 172.23 292.42 171.806 292.42C171.438 292.42 171.11 292.516 170.822 292.708C170.542 292.892 170.334 293.14 170.198 293.452L169.226 292.948C169.346 292.652 169.538 292.388 169.802 292.156C170.066 291.916 170.374 291.728 170.726 291.592C171.078 291.456 171.446 291.388 171.83 291.388C172.326 291.388 172.762 291.484 173.138 291.676C173.514 291.86 173.806 292.12 174.014 292.456C174.23 292.784 174.338 293.168 174.338 293.608V298H173.246V296.776L173.45 296.848C173.314 297.104 173.13 297.328 172.898 297.52C172.666 297.712 172.394 297.864 172.082 297.976C171.77 298.088 171.43 298.144 171.062 298.144ZM178.819 298.072C178.187 298.072 177.699 297.892 177.355 297.532C177.019 297.172 176.851 296.664 176.851 296.008V292.6H175.675V291.532H175.915C176.203 291.532 176.431 291.444 176.599 291.268C176.767 291.092 176.851 290.86 176.851 290.572V290.044H177.967V291.532H179.419V292.6H177.967V295.972C177.967 296.188 177.999 296.376 178.063 296.536C178.135 296.696 178.251 296.824 178.411 296.92C178.571 297.008 178.783 297.052 179.047 297.052C179.103 297.052 179.171 297.048 179.251 297.04C179.339 297.032 179.419 297.024 179.491 297.016V298C179.387 298.024 179.271 298.04 179.143 298.048C179.015 298.064 178.907 298.072 178.819 298.072ZM181.189 298V291.532H182.305V298H181.189ZM181.189 290.5V289.06H182.305V290.5H181.189ZM187.349 298.144C186.725 298.144 186.161 298 185.657 297.712C185.153 297.416 184.753 297.012 184.457 296.5C184.161 295.988 184.013 295.408 184.013 294.76C184.013 294.112 184.157 293.536 184.445 293.032C184.741 292.528 185.141 292.128 185.645 291.832C186.149 291.536 186.717 291.388 187.349 291.388C187.973 291.388 188.537 291.536 189.041 291.832C189.545 292.12 189.941 292.516 190.229 293.02C190.525 293.524 190.673 294.104 190.673 294.76C190.673 295.416 190.521 296 190.217 296.512C189.913 297.016 189.509 297.416 189.005 297.712C188.509 298 187.957 298.144 187.349 298.144ZM187.349 297.064C187.749 297.064 188.109 296.964 188.429 296.764C188.757 296.564 189.013 296.288 189.197 295.936C189.389 295.584 189.485 295.192 189.485 294.76C189.485 294.32 189.389 293.932 189.197 293.596C189.013 293.252 188.757 292.98 188.429 292.78C188.109 292.572 187.749 292.468 187.349 292.468C186.941 292.468 186.573 292.572 186.245 292.78C185.925 292.98 185.669 293.252 185.477 293.596C185.285 293.932 185.189 294.32 185.189 294.76C185.189 295.192 185.285 295.584 185.477 295.936C185.669 296.288 185.925 296.564 186.245 296.764C186.573 296.964 186.941 297.064 187.349 297.064ZM192.369 298V291.532H193.461V292.792L193.281 292.684C193.441 292.276 193.697 291.96 194.049 291.736C194.409 291.504 194.829 291.388 195.309 291.388C195.773 291.388 196.185 291.492 196.545 291.7C196.913 291.908 197.201 292.196 197.409 292.564C197.625 292.932 197.733 293.348 197.733 293.812V298H196.605V294.172C196.605 293.812 196.541 293.508 196.413 293.26C196.285 293.012 196.101 292.82 195.861 292.684C195.629 292.54 195.361 292.468 195.057 292.468C194.753 292.468 194.481 292.54 194.241 292.684C194.009 292.82 193.825 293.016 193.689 293.272C193.553 293.52 193.485 293.82 193.485 294.172V298H192.369Z" fill="#30CC71"/>
</g>
<g filter="url(#filter5_f_1084_1858)">
<circle cx="192" cy="226" r="8" fill="#30CC71" fill-opacity="0.4"/>
</g>
<circle cx="192" cy="226" r="4" fill="#30CC71"/>
<path d="M297 356V331.19C297 325.667 292.523 321.19 287 321.19H265C259.477 321.19 255 316.713 255 311.19V251" stroke="url(#paint4_linear_1084_1858)"/>
<g filter="url(#filter6_d_1084_1858)">
<rect x="215" y="348" width="163" height="31" rx="4" fill="white" shape-rendering="crispEdges"/>
<path d="M234.84 368.144C234.216 368.144 233.66 367.996 233.172 367.7C232.684 367.404 232.3 367 232.02 366.488C231.74 365.968 231.6 365.388 231.6 364.748C231.6 364.1 231.736 363.524 232.008 363.02C232.288 362.516 232.664 362.12 233.136 361.832C233.616 361.536 234.152 361.388 234.744 361.388C235.224 361.388 235.648 361.476 236.016 361.652C236.392 361.82 236.708 362.052 236.964 362.348C237.228 362.636 237.428 362.968 237.564 363.344C237.708 363.712 237.78 364.096 237.78 364.496C237.78 364.584 237.772 364.684 237.756 364.796C237.748 364.9 237.736 365 237.72 365.096H232.416V364.136H237.072L236.544 364.568C236.616 364.152 236.576 363.78 236.424 363.452C236.272 363.124 236.048 362.864 235.752 362.672C235.456 362.48 235.12 362.384 234.744 362.384C234.368 362.384 234.024 362.48 233.712 362.672C233.4 362.864 233.156 363.14 232.98 363.5C232.812 363.852 232.744 364.272 232.776 364.76C232.744 365.232 232.816 365.648 232.992 366.008C233.176 366.36 233.432 366.636 233.76 366.836C234.096 367.028 234.46 367.124 234.852 367.124C235.284 367.124 235.648 367.024 235.944 366.824C236.24 366.624 236.48 366.368 236.664 366.056L237.6 366.536C237.472 366.832 237.272 367.104 237 367.352C236.736 367.592 236.42 367.784 236.052 367.928C235.692 368.072 235.288 368.144 234.84 368.144ZM239.475 368V361.532H240.567V362.792L240.387 362.684C240.547 362.276 240.803 361.96 241.155 361.736C241.515 361.504 241.935 361.388 242.415 361.388C242.879 361.388 243.291 361.492 243.651 361.7C244.019 361.908 244.307 362.196 244.515 362.564C244.731 362.932 244.839 363.348 244.839 363.812V368H243.711V364.172C243.711 363.812 243.647 363.508 243.519 363.26C243.391 363.012 243.207 362.82 242.967 362.684C242.735 362.54 242.467 362.468 242.163 362.468C241.859 362.468 241.587 362.54 241.347 362.684C241.115 362.82 240.931 363.016 240.795 363.272C240.659 363.52 240.591 363.82 240.591 364.172V368H239.475ZM248.359 368L245.827 361.532H247.075L249.103 367.004H248.671L250.711 361.532H251.959L249.415 368H248.359ZM253.197 368V361.532H254.313V368H253.197ZM253.197 360.5V359.06H254.313V360.5H253.197ZM256.285 368V361.532H257.377V362.72L257.257 362.552C257.409 362.184 257.641 361.912 257.953 361.736C258.265 361.552 258.645 361.46 259.093 361.46H259.489V362.516H258.925C258.469 362.516 258.101 362.66 257.821 362.948C257.541 363.228 257.401 363.628 257.401 364.148V368H256.285ZM263.792 368.144C263.168 368.144 262.604 368 262.1 367.712C261.596 367.416 261.196 367.012 260.9 366.5C260.604 365.988 260.456 365.408 260.456 364.76C260.456 364.112 260.6 363.536 260.888 363.032C261.184 362.528 261.584 362.128 262.088 361.832C262.592 361.536 263.16 361.388 263.792 361.388C264.416 361.388 264.98 361.536 265.484 361.832C265.988 362.12 266.384 362.516 266.672 363.02C266.968 363.524 267.116 364.104 267.116 364.76C267.116 365.416 266.964 366 266.66 366.512C266.356 367.016 265.952 367.416 265.448 367.712C264.952 368 264.4 368.144 263.792 368.144ZM263.792 367.064C264.192 367.064 264.552 366.964 264.872 366.764C265.2 366.564 265.456 366.288 265.64 365.936C265.832 365.584 265.928 365.192 265.928 364.76C265.928 364.32 265.832 363.932 265.64 363.596C265.456 363.252 265.2 362.98 264.872 362.78C264.552 362.572 264.192 362.468 263.792 362.468C263.384 362.468 263.016 362.572 262.688 362.78C262.368 362.98 262.112 363.252 261.92 363.596C261.728 363.932 261.632 364.32 261.632 364.76C261.632 365.192 261.728 365.584 261.92 365.936C262.112 366.288 262.368 366.564 262.688 366.764C263.016 366.964 263.384 367.064 263.792 367.064ZM268.812 368V361.532H269.904V362.792L269.724 362.684C269.884 362.276 270.14 361.96 270.492 361.736C270.852 361.504 271.272 361.388 271.752 361.388C272.216 361.388 272.628 361.492 272.988 361.7C273.356 361.908 273.644 362.196 273.852 362.564C274.068 362.932 274.176 363.348 274.176 363.812V368H273.048V364.172C273.048 363.812 272.984 363.508 272.856 363.26C272.728 363.012 272.544 362.82 272.304 362.684C272.072 362.54 271.804 362.468 271.5 362.468C271.196 362.468 270.924 362.54 270.684 362.684C270.452 362.82 270.268 363.016 270.132 363.272C269.996 363.52 269.928 363.82 269.928 364.172V368H268.812ZM276.013 368V361.532H277.105V362.852L276.949 362.648C277.109 362.24 277.365 361.928 277.717 361.712C278.069 361.496 278.465 361.388 278.905 361.388C279.409 361.388 279.861 361.528 280.261 361.808C280.669 362.088 280.949 362.456 281.101 362.912L280.789 362.924C280.957 362.42 281.241 362.04 281.641 361.784C282.041 361.52 282.485 361.388 282.973 361.388C283.421 361.388 283.825 361.492 284.185 361.7C284.553 361.908 284.845 362.196 285.061 362.564C285.277 362.932 285.385 363.348 285.385 363.812V368H284.257V364.172C284.257 363.812 284.193 363.508 284.065 363.26C283.937 363.012 283.761 362.82 283.537 362.684C283.321 362.54 283.065 362.468 282.769 362.468C282.481 362.468 282.221 362.54 281.989 362.684C281.765 362.82 281.585 363.016 281.449 363.272C281.321 363.52 281.257 363.82 281.257 364.172V368H280.129V364.172C280.129 363.812 280.065 363.508 279.937 363.26C279.809 363.012 279.633 362.82 279.409 362.684C279.193 362.54 278.937 362.468 278.641 362.468C278.353 362.468 278.093 362.54 277.861 362.684C277.637 362.82 277.457 363.016 277.321 363.272C277.193 363.52 277.129 363.82 277.129 364.172V368H276.013ZM290.186 368.144C289.562 368.144 289.006 367.996 288.518 367.7C288.03 367.404 287.646 367 287.366 366.488C287.086 365.968 286.946 365.388 286.946 364.748C286.946 364.1 287.082 363.524 287.354 363.02C287.634 362.516 288.01 362.12 288.482 361.832C288.962 361.536 289.498 361.388 290.09 361.388C290.57 361.388 290.994 361.476 291.362 361.652C291.738 361.82 292.054 362.052 292.31 362.348C292.574 362.636 292.774 362.968 292.91 363.344C293.054 363.712 293.126 364.096 293.126 364.496C293.126 364.584 293.118 364.684 293.102 364.796C293.094 364.9 293.082 365 293.066 365.096H287.762V364.136H292.418L291.89 364.568C291.962 364.152 291.922 363.78 291.77 363.452C291.618 363.124 291.394 362.864 291.098 362.672C290.802 362.48 290.466 362.384 290.09 362.384C289.714 362.384 289.37 362.48 289.058 362.672C288.746 362.864 288.502 363.14 288.326 363.5C288.158 363.852 288.09 364.272 288.122 364.76C288.09 365.232 288.162 365.648 288.338 366.008C288.522 366.36 288.778 366.636 289.106 366.836C289.442 367.028 289.806 367.124 290.198 367.124C290.63 367.124 290.994 367.024 291.29 366.824C291.586 366.624 291.826 366.368 292.01 366.056L292.946 366.536C292.818 366.832 292.618 367.104 292.346 367.352C292.082 367.592 291.766 367.784 291.398 367.928C291.038 368.072 290.634 368.144 290.186 368.144ZM294.821 368V361.532H295.913V362.792L295.733 362.684C295.893 362.276 296.149 361.96 296.501 361.736C296.861 361.504 297.281 361.388 297.761 361.388C298.225 361.388 298.637 361.492 298.997 361.7C299.365 361.908 299.653 362.196 299.861 362.564C300.077 362.932 300.185 363.348 300.185 363.812V368H299.057V364.172C299.057 363.812 298.993 363.508 298.865 363.26C298.737 363.012 298.553 362.82 298.313 362.684C298.081 362.54 297.813 362.468 297.509 362.468C297.205 362.468 296.933 362.54 296.693 362.684C296.461 362.82 296.277 363.016 296.141 363.272C296.005 363.52 295.937 363.82 295.937 364.172V368H294.821ZM304.65 368.072C304.018 368.072 303.53 367.892 303.186 367.532C302.85 367.172 302.682 366.664 302.682 366.008V362.6H301.506V361.532H301.746C302.034 361.532 302.262 361.444 302.43 361.268C302.598 361.092 302.682 360.86 302.682 360.572V360.044H303.798V361.532H305.25V362.6H303.798V365.972C303.798 366.188 303.83 366.376 303.894 366.536C303.966 366.696 304.082 366.824 304.242 366.92C304.402 367.008 304.614 367.052 304.878 367.052C304.934 367.052 305.002 367.048 305.082 367.04C305.17 367.032 305.25 367.024 305.322 367.016V368C305.218 368.024 305.102 368.04 304.974 368.048C304.846 368.064 304.738 368.072 304.65 368.072ZM311.134 368L308.602 361.532H309.85L311.878 367.004H311.446L313.486 361.532H314.734L312.19 368H311.134ZM317.634 368.144C317.21 368.144 316.834 368.068 316.506 367.916C316.186 367.756 315.934 367.54 315.75 367.268C315.566 366.988 315.474 366.668 315.474 366.308C315.474 365.964 315.546 365.656 315.69 365.384C315.842 365.104 316.074 364.868 316.386 364.676C316.706 364.484 317.106 364.348 317.586 364.268L319.986 363.872V364.808L317.838 365.168C317.422 365.24 317.118 365.372 316.926 365.564C316.742 365.756 316.65 365.992 316.65 366.272C316.65 366.536 316.754 366.756 316.962 366.932C317.178 367.108 317.446 367.196 317.766 367.196C318.174 367.196 318.526 367.112 318.822 366.944C319.126 366.768 319.362 366.532 319.53 366.236C319.706 365.94 319.794 365.612 319.794 365.252V363.608C319.794 363.256 319.662 362.972 319.398 362.756C319.142 362.532 318.802 362.42 318.378 362.42C318.01 362.42 317.682 362.516 317.394 362.708C317.114 362.892 316.906 363.14 316.77 363.452L315.798 362.948C315.918 362.652 316.11 362.388 316.374 362.156C316.638 361.916 316.946 361.728 317.298 361.592C317.65 361.456 318.018 361.388 318.402 361.388C318.898 361.388 319.334 361.484 319.71 361.676C320.086 361.86 320.378 362.12 320.586 362.456C320.802 362.784 320.91 363.168 320.91 363.608V368H319.818V366.776L320.022 366.848C319.886 367.104 319.702 367.328 319.47 367.52C319.238 367.712 318.966 367.864 318.654 367.976C318.342 368.088 318.002 368.144 317.634 368.144ZM322.88 368V361.532H323.972V362.72L323.852 362.552C324.004 362.184 324.236 361.912 324.548 361.736C324.86 361.552 325.24 361.46 325.688 361.46H326.084V362.516H325.52C325.064 362.516 324.696 362.66 324.416 362.948C324.136 363.228 323.996 363.628 323.996 364.148V368H322.88ZM327.316 368V361.532H328.432V368H327.316ZM327.316 360.5V359.06H328.432V360.5H327.316ZM332.299 368.144C331.875 368.144 331.499 368.068 331.171 367.916C330.851 367.756 330.599 367.54 330.415 367.268C330.231 366.988 330.139 366.668 330.139 366.308C330.139 365.964 330.211 365.656 330.355 365.384C330.507 365.104 330.739 364.868 331.051 364.676C331.371 364.484 331.771 364.348 332.251 364.268L334.651 363.872V364.808L332.503 365.168C332.087 365.24 331.783 365.372 331.591 365.564C331.407 365.756 331.315 365.992 331.315 366.272C331.315 366.536 331.419 366.756 331.627 366.932C331.843 367.108 332.111 367.196 332.431 367.196C332.839 367.196 333.191 367.112 333.487 366.944C333.791 366.768 334.027 366.532 334.195 366.236C334.371 365.94 334.459 365.612 334.459 365.252V363.608C334.459 363.256 334.327 362.972 334.063 362.756C333.807 362.532 333.467 362.42 333.043 362.42C332.675 362.42 332.347 362.516 332.059 362.708C331.779 362.892 331.571 363.14 331.435 363.452L330.463 362.948C330.583 362.652 330.775 362.388 331.039 362.156C331.303 361.916 331.611 361.728 331.963 361.592C332.315 361.456 332.683 361.388 333.067 361.388C333.563 361.388 333.999 361.484 334.375 361.676C334.751 361.86 335.043 362.12 335.251 362.456C335.467 362.784 335.575 363.168 335.575 363.608V368H334.483V366.776L334.687 366.848C334.551 367.104 334.367 367.328 334.135 367.52C333.903 367.712 333.631 367.864 333.319 367.976C333.007 368.088 332.667 368.144 332.299 368.144ZM340.894 368.144C340.374 368.144 339.898 368.028 339.466 367.796C339.042 367.564 338.714 367.236 338.482 366.812L338.638 366.62V368H337.546V358.916H338.662V362.924L338.494 362.648C338.734 362.264 339.062 361.96 339.478 361.736C339.894 361.504 340.37 361.388 340.906 361.388C341.514 361.388 342.058 361.536 342.538 361.832C343.026 362.128 343.41 362.532 343.69 363.044C343.97 363.548 344.11 364.124 344.11 364.772C344.11 365.404 343.97 365.976 343.69 366.488C343.41 367 343.026 367.404 342.538 367.7C342.058 367.996 341.51 368.144 340.894 368.144ZM340.81 367.064C341.218 367.064 341.582 366.964 341.902 366.764C342.222 366.564 342.47 366.292 342.646 365.948C342.83 365.596 342.922 365.204 342.922 364.772C342.922 364.324 342.83 363.932 342.646 363.596C342.47 363.252 342.222 362.98 341.902 362.78C341.582 362.572 341.218 362.468 340.81 362.468C340.402 362.468 340.034 362.568 339.706 362.768C339.386 362.968 339.13 363.244 338.938 363.596C338.754 363.94 338.662 364.332 338.662 364.772C338.662 365.204 338.754 365.596 338.938 365.948C339.13 366.292 339.386 366.564 339.706 366.764C340.034 366.964 340.402 367.064 340.81 367.064ZM345.813 368V358.916H346.929V368H345.813ZM351.877 368.144C351.253 368.144 350.697 367.996 350.209 367.7C349.721 367.404 349.337 367 349.057 366.488C348.777 365.968 348.637 365.388 348.637 364.748C348.637 364.1 348.773 363.524 349.045 363.02C349.325 362.516 349.701 362.12 350.173 361.832C350.653 361.536 351.189 361.388 351.781 361.388C352.261 361.388 352.685 361.476 353.053 361.652C353.429 361.82 353.745 362.052 354.001 362.348C354.265 362.636 354.465 362.968 354.601 363.344C354.745 363.712 354.817 364.096 354.817 364.496C354.817 364.584 354.809 364.684 354.793 364.796C354.785 364.9 354.773 365 354.757 365.096H349.453V364.136H354.109L353.581 364.568C353.653 364.152 353.613 363.78 353.461 363.452C353.309 363.124 353.085 362.864 352.789 362.672C352.493 362.48 352.157 362.384 351.781 362.384C351.405 362.384 351.061 362.48 350.749 362.672C350.437 362.864 350.193 363.14 350.017 363.5C349.849 363.852 349.781 364.272 349.813 364.76C349.781 365.232 349.853 365.648 350.029 366.008C350.213 366.36 350.469 366.636 350.797 366.836C351.133 367.028 351.497 367.124 351.889 367.124C352.321 367.124 352.685 367.024 352.981 366.824C353.277 366.624 353.517 366.368 353.701 366.056L354.637 366.536C354.509 366.832 354.309 367.104 354.037 367.352C353.773 367.592 353.457 367.784 353.089 367.928C352.729 368.072 352.325 368.144 351.877 368.144ZM358.828 368.144C358.18 368.144 357.616 367.984 357.136 367.664C356.656 367.344 356.316 366.912 356.116 366.368L357.004 365.936C357.188 366.32 357.44 366.624 357.76 366.848C358.08 367.072 358.436 367.184 358.828 367.184C359.18 367.184 359.472 367.1 359.704 366.932C359.936 366.764 360.052 366.544 360.052 366.272C360.052 366.08 359.996 365.928 359.884 365.816C359.78 365.696 359.652 365.604 359.5 365.54C359.348 365.468 359.208 365.416 359.08 365.384L358.108 365.108C357.524 364.94 357.096 364.7 356.824 364.388C356.56 364.076 356.428 363.712 356.428 363.296C356.428 362.912 356.524 362.58 356.716 362.3C356.916 362.012 357.184 361.788 357.52 361.628C357.864 361.468 358.248 361.388 358.672 361.388C359.24 361.388 359.748 361.532 360.196 361.82C360.652 362.108 360.976 362.512 361.168 363.032L360.256 363.452C360.112 363.116 359.896 362.852 359.608 362.66C359.32 362.46 358.996 362.36 358.636 362.36C358.308 362.36 358.048 362.444 357.856 362.612C357.664 362.772 357.568 362.976 357.568 363.224C357.568 363.408 357.616 363.56 357.712 363.68C357.808 363.792 357.924 363.88 358.06 363.944C358.196 364 358.328 364.048 358.456 364.088L359.512 364.4C360.04 364.552 360.448 364.788 360.736 365.108C361.032 365.428 361.18 365.812 361.18 366.26C361.18 366.62 361.08 366.944 360.88 367.232C360.68 367.52 360.404 367.744 360.052 367.904C359.7 368.064 359.292 368.144 358.828 368.144Z" fill="#30CC71"/>
</g>
<path d="M443 248V233C443 227.477 438.523 223 433 223H296" stroke="url(#paint5_linear_1084_1858)"/>
<g filter="url(#filter7_d_1084_1858)">
<rect x="362" y="243" width="161" height="31" rx="4" fill="white" shape-rendering="crispEdges"/>
<path d="M381.864 263.144C381.232 263.144 380.668 262.996 380.172 262.7C379.684 262.404 379.3 262 379.02 261.488C378.74 260.976 378.6 260.4 378.6 259.76C378.6 259.112 378.74 258.536 379.02 258.032C379.3 257.528 379.684 257.128 380.172 256.832C380.668 256.536 381.232 256.388 381.864 256.388C382.288 256.388 382.684 256.464 383.052 256.616C383.42 256.768 383.744 256.972 384.024 257.228C384.304 257.484 384.508 257.784 384.636 258.128L383.64 258.608C383.488 258.272 383.256 258 382.944 257.792C382.632 257.576 382.272 257.468 381.864 257.468C381.472 257.468 381.116 257.568 380.796 257.768C380.484 257.968 380.236 258.24 380.052 258.584C379.868 258.928 379.776 259.324 379.776 259.772C379.776 260.204 379.868 260.596 380.052 260.948C380.236 261.292 380.484 261.564 380.796 261.764C381.116 261.964 381.472 262.064 381.864 262.064C382.272 262.064 382.632 261.96 382.944 261.752C383.256 261.536 383.488 261.252 383.64 260.9L384.636 261.404C384.508 261.74 384.304 262.04 384.024 262.304C383.744 262.56 383.42 262.764 383.052 262.916C382.684 263.068 382.288 263.144 381.864 263.144ZM389.406 263.144C388.782 263.144 388.218 263 387.714 262.712C387.21 262.416 386.81 262.012 386.514 261.5C386.218 260.988 386.07 260.408 386.07 259.76C386.07 259.112 386.214 258.536 386.502 258.032C386.798 257.528 387.198 257.128 387.702 256.832C388.206 256.536 388.774 256.388 389.406 256.388C390.03 256.388 390.594 256.536 391.098 256.832C391.602 257.12 391.998 257.516 392.286 258.02C392.582 258.524 392.73 259.104 392.73 259.76C392.73 260.416 392.578 261 392.274 261.512C391.97 262.016 391.566 262.416 391.062 262.712C390.566 263 390.014 263.144 389.406 263.144ZM389.406 262.064C389.806 262.064 390.166 261.964 390.486 261.764C390.814 261.564 391.07 261.288 391.254 260.936C391.446 260.584 391.542 260.192 391.542 259.76C391.542 259.32 391.446 258.932 391.254 258.596C391.07 258.252 390.814 257.98 390.486 257.78C390.166 257.572 389.806 257.468 389.406 257.468C388.998 257.468 388.63 257.572 388.302 257.78C387.982 257.98 387.726 258.252 387.534 258.596C387.342 258.932 387.246 259.32 387.246 259.76C387.246 260.192 387.342 260.584 387.534 260.936C387.726 261.288 387.982 261.564 388.302 261.764C388.63 261.964 388.998 262.064 389.406 262.064ZM394.426 263V256.532H395.518V257.792L395.338 257.684C395.498 257.276 395.754 256.96 396.106 256.736C396.466 256.504 396.886 256.388 397.366 256.388C397.83 256.388 398.242 256.492 398.602 256.7C398.97 256.908 399.258 257.196 399.466 257.564C399.682 257.932 399.79 258.348 399.79 258.812V263H398.662V259.172C398.662 258.812 398.598 258.508 398.47 258.26C398.342 258.012 398.158 257.82 397.918 257.684C397.686 257.54 397.418 257.468 397.114 257.468C396.81 257.468 396.538 257.54 396.298 257.684C396.066 257.82 395.882 258.016 395.746 258.272C395.61 258.52 395.542 258.82 395.542 259.172V263H394.426ZM404.255 263.072C403.623 263.072 403.135 262.892 402.791 262.532C402.455 262.172 402.287 261.664 402.287 261.008V257.6H401.111V256.532H401.351C401.639 256.532 401.867 256.444 402.035 256.268C402.203 256.092 402.287 255.86 402.287 255.572V255.044H403.403V256.532H404.855V257.6H403.403V260.972C403.403 261.188 403.435 261.376 403.499 261.536C403.571 261.696 403.687 261.824 403.847 261.92C404.007 262.008 404.219 262.052 404.483 262.052C404.539 262.052 404.607 262.048 404.687 262.04C404.775 262.032 404.855 262.024 404.927 262.016V263C404.823 263.024 404.707 263.04 404.579 263.048C404.451 263.064 404.343 263.072 404.255 263.072ZM409.425 263.144C408.801 263.144 408.245 262.996 407.757 262.7C407.269 262.404 406.885 262 406.605 261.488C406.325 260.968 406.185 260.388 406.185 259.748C406.185 259.1 406.321 258.524 406.593 258.02C406.873 257.516 407.249 257.12 407.721 256.832C408.201 256.536 408.737 256.388 409.329 256.388C409.809 256.388 410.233 256.476 410.601 256.652C410.977 256.82 411.293 257.052 411.549 257.348C411.813 257.636 412.013 257.968 412.149 258.344C412.293 258.712 412.365 259.096 412.365 259.496C412.365 259.584 412.357 259.684 412.341 259.796C412.333 259.9 412.321 260 412.305 260.096H407.001V259.136H411.657L411.129 259.568C411.201 259.152 411.161 258.78 411.009 258.452C410.857 258.124 410.633 257.864 410.337 257.672C410.041 257.48 409.705 257.384 409.329 257.384C408.953 257.384 408.609 257.48 408.297 257.672C407.985 257.864 407.741 258.14 407.565 258.5C407.397 258.852 407.329 259.272 407.361 259.76C407.329 260.232 407.401 260.648 407.577 261.008C407.761 261.36 408.017 261.636 408.345 261.836C408.681 262.028 409.045 262.124 409.437 262.124C409.869 262.124 410.233 262.024 410.529 261.824C410.825 261.624 411.065 261.368 411.249 261.056L412.185 261.536C412.057 261.832 411.857 262.104 411.585 262.352C411.321 262.592 411.005 262.784 410.637 262.928C410.277 263.072 409.873 263.144 409.425 263.144ZM414.06 263V256.532H415.152V257.792L414.972 257.684C415.132 257.276 415.388 256.96 415.74 256.736C416.1 256.504 416.52 256.388 417 256.388C417.464 256.388 417.876 256.492 418.236 256.7C418.604 256.908 418.892 257.196 419.1 257.564C419.316 257.932 419.424 258.348 419.424 258.812V263H418.296V259.172C418.296 258.812 418.232 258.508 418.104 258.26C417.976 258.012 417.792 257.82 417.552 257.684C417.32 257.54 417.052 257.468 416.748 257.468C416.444 257.468 416.172 257.54 415.932 257.684C415.7 257.82 415.516 258.016 415.38 258.272C415.244 258.52 415.176 258.82 415.176 259.172V263H414.06ZM423.889 263.072C423.257 263.072 422.769 262.892 422.425 262.532C422.089 262.172 421.921 261.664 421.921 261.008V257.6H420.745V256.532H420.985C421.273 256.532 421.501 256.444 421.669 256.268C421.837 256.092 421.921 255.86 421.921 255.572V255.044H423.037V256.532H424.489V257.6H423.037V260.972C423.037 261.188 423.069 261.376 423.133 261.536C423.205 261.696 423.321 261.824 423.481 261.92C423.641 262.008 423.853 262.052 424.117 262.052C424.173 262.052 424.241 262.048 424.321 262.04C424.409 262.032 424.489 262.024 424.561 262.016V263C424.457 263.024 424.341 263.04 424.213 263.048C424.085 263.064 423.977 263.072 423.889 263.072ZM428.573 263V256.532H429.665V257.852L429.509 257.648C429.669 257.24 429.925 256.928 430.277 256.712C430.629 256.496 431.025 256.388 431.465 256.388C431.969 256.388 432.421 256.528 432.821 256.808C433.229 257.088 433.509 257.456 433.661 257.912L433.349 257.924C433.517 257.42 433.801 257.04 434.201 256.784C434.601 256.52 435.045 256.388 435.533 256.388C435.981 256.388 436.385 256.492 436.745 256.7C437.113 256.908 437.405 257.196 437.621 257.564C437.837 257.932 437.945 258.348 437.945 258.812V263H436.817V259.172C436.817 258.812 436.753 258.508 436.625 258.26C436.497 258.012 436.321 257.82 436.097 257.684C435.881 257.54 435.625 257.468 435.329 257.468C435.041 257.468 434.781 257.54 434.549 257.684C434.325 257.82 434.145 258.016 434.009 258.272C433.881 258.52 433.817 258.82 433.817 259.172V263H432.689V259.172C432.689 258.812 432.625 258.508 432.497 258.26C432.369 258.012 432.193 257.82 431.969 257.684C431.753 257.54 431.497 257.468 431.201 257.468C430.913 257.468 430.653 257.54 430.421 257.684C430.197 257.82 430.017 258.016 429.881 258.272C429.753 258.52 429.689 258.82 429.689 259.172V263H428.573ZM441.666 263.144C441.242 263.144 440.866 263.068 440.538 262.916C440.218 262.756 439.966 262.54 439.782 262.268C439.598 261.988 439.506 261.668 439.506 261.308C439.506 260.964 439.578 260.656 439.722 260.384C439.874 260.104 440.106 259.868 440.418 259.676C440.738 259.484 441.138 259.348 441.618 259.268L444.018 258.872V259.808L441.87 260.168C441.454 260.24 441.15 260.372 440.958 260.564C440.774 260.756 440.682 260.992 440.682 261.272C440.682 261.536 440.786 261.756 440.994 261.932C441.21 262.108 441.478 262.196 441.798 262.196C442.206 262.196 442.558 262.112 442.854 261.944C443.158 261.768 443.394 261.532 443.562 261.236C443.738 260.94 443.826 260.612 443.826 260.252V258.608C443.826 258.256 443.694 257.972 443.43 257.756C443.174 257.532 442.834 257.42 442.41 257.42C442.042 257.42 441.714 257.516 441.426 257.708C441.146 257.892 440.938 258.14 440.802 258.452L439.83 257.948C439.95 257.652 440.142 257.388 440.406 257.156C440.67 256.916 440.978 256.728 441.33 256.592C441.682 256.456 442.05 256.388 442.434 256.388C442.93 256.388 443.366 256.484 443.742 256.676C444.118 256.86 444.41 257.12 444.618 257.456C444.834 257.784 444.942 258.168 444.942 258.608V263H443.85V261.776L444.054 261.848C443.918 262.104 443.734 262.328 443.502 262.52C443.27 262.712 442.998 262.864 442.686 262.976C442.374 263.088 442.034 263.144 441.666 263.144ZM446.912 263V256.532H448.004V257.792L447.824 257.684C447.984 257.276 448.24 256.96 448.592 256.736C448.952 256.504 449.372 256.388 449.852 256.388C450.316 256.388 450.728 256.492 451.088 256.7C451.456 256.908 451.744 257.196 451.952 257.564C452.168 257.932 452.276 258.348 452.276 258.812V263H451.148V259.172C451.148 258.812 451.084 258.508 450.956 258.26C450.828 258.012 450.644 257.82 450.404 257.684C450.172 257.54 449.904 257.468 449.6 257.468C449.296 257.468 449.024 257.54 448.784 257.684C448.552 257.82 448.368 258.016 448.232 258.272C448.096 258.52 448.028 258.82 448.028 259.172V263H446.912ZM456.009 263.144C455.585 263.144 455.209 263.068 454.881 262.916C454.561 262.756 454.309 262.54 454.125 262.268C453.941 261.988 453.849 261.668 453.849 261.308C453.849 260.964 453.921 260.656 454.065 260.384C454.217 260.104 454.449 259.868 454.761 259.676C455.081 259.484 455.481 259.348 455.961 259.268L458.361 258.872V259.808L456.213 260.168C455.797 260.24 455.493 260.372 455.301 260.564C455.117 260.756 455.025 260.992 455.025 261.272C455.025 261.536 455.129 261.756 455.337 261.932C455.553 262.108 455.821 262.196 456.141 262.196C456.549 262.196 456.901 262.112 457.197 261.944C457.501 261.768 457.737 261.532 457.905 261.236C458.081 260.94 458.169 260.612 458.169 260.252V258.608C458.169 258.256 458.037 257.972 457.773 257.756C457.517 257.532 457.177 257.42 456.753 257.42C456.385 257.42 456.057 257.516 455.769 257.708C455.489 257.892 455.281 258.14 455.145 258.452L454.173 257.948C454.293 257.652 454.485 257.388 454.749 257.156C455.013 256.916 455.321 256.728 455.673 256.592C456.025 256.456 456.393 256.388 456.777 256.388C457.273 256.388 457.709 256.484 458.085 256.676C458.461 256.86 458.753 257.12 458.961 257.456C459.177 257.784 459.285 258.168 459.285 258.608V263H458.193V261.776L458.397 261.848C458.261 262.104 458.077 262.328 457.845 262.52C457.613 262.712 457.341 262.864 457.029 262.976C456.717 263.088 456.377 263.144 456.009 263.144ZM464.34 265.64C463.884 265.64 463.46 265.568 463.068 265.424C462.684 265.28 462.352 265.08 462.072 264.824C461.8 264.576 461.592 264.284 461.448 263.948L462.492 263.468C462.604 263.772 462.816 264.028 463.128 264.236C463.448 264.452 463.848 264.56 464.328 264.56C464.696 264.56 465.028 264.488 465.324 264.344C465.628 264.208 465.868 264 466.044 263.72C466.22 263.448 466.308 263.116 466.308 262.724V261.272L466.512 261.488C466.288 261.928 465.964 262.264 465.54 262.496C465.124 262.728 464.664 262.844 464.16 262.844C463.552 262.844 463.008 262.704 462.528 262.424C462.048 262.136 461.672 261.748 461.4 261.26C461.128 260.764 460.992 260.216 460.992 259.616C460.992 259.008 461.128 258.46 461.4 257.972C461.672 257.484 462.044 257.1 462.516 256.82C462.996 256.532 463.54 256.388 464.148 256.388C464.652 256.388 465.108 256.504 465.516 256.736C465.932 256.96 466.264 257.272 466.512 257.672L466.344 257.972V256.532H467.436V262.724C467.436 263.284 467.304 263.784 467.04 264.224C466.776 264.664 466.408 265.008 465.936 265.256C465.472 265.512 464.94 265.64 464.34 265.64ZM464.256 261.764C464.64 261.764 464.984 261.668 465.288 261.476C465.6 261.284 465.848 261.028 466.032 260.708C466.216 260.38 466.308 260.016 466.308 259.616C466.308 259.224 466.216 258.864 466.032 258.536C465.848 258.208 465.6 257.948 465.288 257.756C464.984 257.564 464.64 257.468 464.256 257.468C463.864 257.468 463.508 257.564 463.188 257.756C462.868 257.948 462.616 258.208 462.432 258.536C462.256 258.856 462.168 259.216 462.168 259.616C462.168 260.016 462.256 260.38 462.432 260.708C462.616 261.028 462.864 261.284 463.176 261.476C463.496 261.668 463.856 261.764 464.256 261.764ZM472.382 263.144C471.758 263.144 471.202 262.996 470.714 262.7C470.226 262.404 469.842 262 469.562 261.488C469.282 260.968 469.142 260.388 469.142 259.748C469.142 259.1 469.278 258.524 469.55 258.02C469.83 257.516 470.206 257.12 470.678 256.832C471.158 256.536 471.694 256.388 472.286 256.388C472.766 256.388 473.19 256.476 473.558 256.652C473.934 256.82 474.25 257.052 474.506 257.348C474.77 257.636 474.97 257.968 475.106 258.344C475.25 258.712 475.322 259.096 475.322 259.496C475.322 259.584 475.314 259.684 475.298 259.796C475.29 259.9 475.278 260 475.262 260.096H469.958V259.136H474.614L474.086 259.568C474.158 259.152 474.118 258.78 473.966 258.452C473.814 258.124 473.59 257.864 473.294 257.672C472.998 257.48 472.662 257.384 472.286 257.384C471.91 257.384 471.566 257.48 471.254 257.672C470.942 257.864 470.698 258.14 470.522 258.5C470.354 258.852 470.286 259.272 470.318 259.76C470.286 260.232 470.358 260.648 470.534 261.008C470.718 261.36 470.974 261.636 471.302 261.836C471.638 262.028 472.002 262.124 472.394 262.124C472.826 262.124 473.19 262.024 473.486 261.824C473.782 261.624 474.022 261.368 474.206 261.056L475.142 261.536C475.014 261.832 474.814 262.104 474.542 262.352C474.278 262.592 473.962 262.784 473.594 262.928C473.234 263.072 472.83 263.144 472.382 263.144ZM477.017 263V256.532H478.109V257.852L477.953 257.648C478.113 257.24 478.369 256.928 478.721 256.712C479.073 256.496 479.469 256.388 479.909 256.388C480.413 256.388 480.865 256.528 481.265 256.808C481.673 257.088 481.953 257.456 482.105 257.912L481.793 257.924C481.961 257.42 482.245 257.04 482.645 256.784C483.045 256.52 483.489 256.388 483.977 256.388C484.425 256.388 484.829 256.492 485.189 256.7C485.557 256.908 485.849 257.196 486.065 257.564C486.281 257.932 486.389 258.348 486.389 258.812V263H485.261V259.172C485.261 258.812 485.197 258.508 485.069 258.26C484.941 258.012 484.765 257.82 484.541 257.684C484.325 257.54 484.069 257.468 483.773 257.468C483.485 257.468 483.225 257.54 482.993 257.684C482.769 257.82 482.589 258.016 482.453 258.272C482.325 258.52 482.261 258.82 482.261 259.172V263H481.133V259.172C481.133 258.812 481.069 258.508 480.941 258.26C480.813 258.012 480.637 257.82 480.413 257.684C480.197 257.54 479.941 257.468 479.645 257.468C479.357 257.468 479.097 257.54 478.865 257.684C478.641 257.82 478.461 258.016 478.325 258.272C478.197 258.52 478.133 258.82 478.133 259.172V263H477.017ZM491.19 263.144C490.566 263.144 490.01 262.996 489.522 262.7C489.034 262.404 488.65 262 488.37 261.488C488.09 260.968 487.95 260.388 487.95 259.748C487.95 259.1 488.086 258.524 488.358 258.02C488.638 257.516 489.014 257.12 489.486 256.832C489.966 256.536 490.502 256.388 491.094 256.388C491.574 256.388 491.998 256.476 492.366 256.652C492.742 256.82 493.058 257.052 493.314 257.348C493.578 257.636 493.778 257.968 493.914 258.344C494.058 258.712 494.13 259.096 494.13 259.496C494.13 259.584 494.122 259.684 494.106 259.796C494.098 259.9 494.086 260 494.07 260.096H488.766V259.136H493.422L492.894 259.568C492.966 259.152 492.926 258.78 492.774 258.452C492.622 258.124 492.398 257.864 492.102 257.672C491.806 257.48 491.47 257.384 491.094 257.384C490.718 257.384 490.374 257.48 490.062 257.672C489.75 257.864 489.506 258.14 489.33 258.5C489.162 258.852 489.094 259.272 489.126 259.76C489.094 260.232 489.166 260.648 489.342 261.008C489.526 261.36 489.782 261.636 490.11 261.836C490.446 262.028 490.81 262.124 491.202 262.124C491.634 262.124 491.998 262.024 492.294 261.824C492.59 261.624 492.83 261.368 493.014 261.056L493.95 261.536C493.822 261.832 493.622 262.104 493.35 262.352C493.086 262.592 492.77 262.784 492.402 262.928C492.042 263.072 491.638 263.144 491.19 263.144ZM495.825 263V256.532H496.917V257.792L496.737 257.684C496.897 257.276 497.153 256.96 497.505 256.736C497.865 256.504 498.285 256.388 498.765 256.388C499.229 256.388 499.641 256.492 500.001 256.7C500.369 256.908 500.657 257.196 500.865 257.564C501.081 257.932 501.189 258.348 501.189 258.812V263H500.061V259.172C500.061 258.812 499.997 258.508 499.869 258.26C499.741 258.012 499.557 257.82 499.317 257.684C499.085 257.54 498.817 257.468 498.513 257.468C498.209 257.468 497.937 257.54 497.697 257.684C497.465 257.82 497.281 258.016 497.145 258.272C497.009 258.52 496.941 258.82 496.941 259.172V263H495.825ZM505.654 263.072C505.022 263.072 504.534 262.892 504.19 262.532C503.854 262.172 503.686 261.664 503.686 261.008V257.6H502.51V256.532H502.75C503.038 256.532 503.266 256.444 503.434 256.268C503.602 256.092 503.686 255.86 503.686 255.572V255.044H504.802V256.532H506.254V257.6H504.802V260.972C504.802 261.188 504.834 261.376 504.898 261.536C504.97 261.696 505.086 261.824 505.246 261.92C505.406 262.008 505.618 262.052 505.882 262.052C505.938 262.052 506.006 262.048 506.086 262.04C506.174 262.032 506.254 262.024 506.326 262.016V263C506.222 263.024 506.106 263.04 505.978 263.048C505.85 263.064 505.742 263.072 505.654 263.072Z" fill="#30CC71"/>
</g>
<g filter="url(#filter8_f_1084_1858)">
<circle cx="372" cy="223" r="8" fill="#30CC71" fill-opacity="0.4"/>
</g>
<circle cx="372" cy="223" r="4" fill="#30CC71"/>
<g filter="url(#filter9_di_1084_1858)">
<path d="M314.054 192.456C315.874 195.572 315.874 199.428 314.054 202.544L288.645 246.044C286.852 249.113 283.565 251 280.01 251H228.99C225.435 251 222.148 249.113 220.355 246.044L194.946 202.544C193.126 199.428 193.126 195.572 194.946 192.456L220.355 148.956C222.148 145.887 225.435 144 228.99 144H280.01C283.565 144 286.852 145.887 288.645 148.956L314.054 192.456Z" fill="white"/>
<path d="M313.622 202.292L288.213 245.792C286.51 248.707 283.387 250.5 280.01 250.5H228.99C225.613 250.5 222.49 248.707 220.787 245.792L195.378 202.292C193.649 199.331 193.649 195.669 195.378 192.708L220.787 149.208C222.49 146.293 225.613 144.5 228.99 144.5H280.01C283.387 144.5 286.51 146.293 288.213 149.208L313.622 192.708C315.351 195.669 315.351 199.331 313.622 202.292Z" stroke="url(#paint6_linear_1084_1858)"/>
</g>
<path d="M260.847 185.493L253.354 192.794L263.069 202.266L270.562 194.965L260.847 185.493Z" fill="#1A7C43"/>
<path d="M263.476 175.975L246.208 192.807L238.715 200.108V185.505L255.984 168.674L263.477 175.975H263.476ZM245.802 219.096L263.071 202.263L270.564 194.962V209.565L253.295 226.397L245.802 219.096Z" fill="#30CC71"/>
<path d="M246.207 192.809L238.714 200.109L248.429 209.581L255.922 202.28L246.207 192.809Z" fill="#1A7C43"/>
<defs>
<filter id="filter0_d_1084_1858" x="0" y="46" width="189" height="51" filterUnits="userSpaceOnUse" color-interpolation-filters="sRGB">
<feFlood flood-opacity="0" result="BackgroundImageFix"/>
<feColorMatrix in="SourceAlpha" type="matrix" values="0 0 0 0 0 0 0 0 0 0 0 0 0 0 0 0 0 0 127 0" result="hardAlpha"/>
<feOffset/>
<feGaussianBlur stdDeviation="5"/>
<feComposite in2="hardAlpha" operator="out"/>
<feColorMatrix type="matrix" values="0 0 0 0 0.0470588 0 0 0 0 0.0470588 0 0 0 0 0.0470588 0 0 0 0.05 0"/>
<feBlend mode="normal" in2="BackgroundImageFix" result="effect1_dropShadow_1084_1858"/>
<feBlend mode="normal" in="SourceGraphic" in2="effect1_dropShadow_1084_1858" result="shape"/>
</filter>
<filter id="filter1_d_1084_1858" x="218" y="0" width="156" height="51" filterUnits="userSpaceOnUse" color-interpolation-filters="sRGB">
<feFlood flood-opacity="0" result="BackgroundImageFix"/>
<feColorMatrix in="SourceAlpha" type="matrix" values="0 0 0 0 0 0 0 0 0 0 0 0 0 0 0 0 0 0 127 0" result="hardAlpha"/>
<feOffset/>
<feGaussianBlur stdDeviation="5"/>
<feComposite in2="hardAlpha" operator="out"/>
<feColorMatrix type="matrix" values="0 0 0 0 0.0470588 0 0 0 0 0.0470588 0 0 0 0 0.0470588 0 0 0 0.05 0"/>
<feBlend mode="normal" in2="BackgroundImageFix" result="effect1_dropShadow_1084_1858"/>
<feBlend mode="normal" in="SourceGraphic" in2="effect1_dropShadow_1084_1858" result="shape"/>
</filter>
<filter id="filter2_f_1084_1858" x="256" y="98" width="20" height="20" filterUnits="userSpaceOnUse" color-interpolation-filters="sRGB">
<feFlood flood-opacity="0" result="BackgroundImageFix"/>
<feBlend mode="normal" in="SourceGraphic" in2="BackgroundImageFix" result="shape"/>
<feGaussianBlur stdDeviation="1" result="effect1_foregroundBlur_1084_1858"/>
</filter>
<filter id="filter3_d_1084_1858" x="344" y="66" width="180" height="51" filterUnits="userSpaceOnUse" color-interpolation-filters="sRGB">
<feFlood flood-opacity="0" result="BackgroundImageFix"/>
<feColorMatrix in="SourceAlpha" type="matrix" values="0 0 0 0 0 0 0 0 0 0 0 0 0 0 0 0 0 0 127 0" result="hardAlpha"/>
<feOffset/>
<feGaussianBlur stdDeviation="5"/>
<feComposite in2="hardAlpha" operator="out"/>
<feColorMatrix type="matrix" values="0 0 0 0 0.0470588 0 0 0 0 0.0470588 0 0 0 0 0.0470588 0 0 0 0.05 0"/>
<feBlend mode="normal" in2="BackgroundImageFix" result="effect1_dropShadow_1084_1858"/>
<feBlend mode="normal" in="SourceGraphic" in2="effect1_dropShadow_1084_1858" result="shape"/>
</filter>
<filter id="filter4_d_1084_1858" x="85" y="268" width="140" height="51" filterUnits="userSpaceOnUse" color-interpolation-filters="sRGB">
<feFlood flood-opacity="0" result="BackgroundImageFix"/>
<feColorMatrix in="SourceAlpha" type="matrix" values="0 0 0 0 0 0 0 0 0 0 0 0 0 0 0 0 0 0 127 0" result="hardAlpha"/>
<feOffset/>
<feGaussianBlur stdDeviation="5"/>
<feComposite in2="hardAlpha" operator="out"/>
<feColorMatrix type="matrix" values="0 0 0 0 0.0470588 0 0 0 0 0.0470588 0 0 0 0 0.0470588 0 0 0 0.05 0"/>
<feBlend mode="normal" in2="BackgroundImageFix" result="effect1_dropShadow_1084_1858"/>
<feBlend mode="normal" in="SourceGraphic" in2="effect1_dropShadow_1084_1858" result="shape"/>
</filter>
<filter id="filter5_f_1084_1858" x="182" y="216" width="20" height="20" filterUnits="userSpaceOnUse" color-interpolation-filters="sRGB">
<feFlood flood-opacity="0" result="BackgroundImageFix"/>
<feBlend mode="normal" in="SourceGraphic" in2="BackgroundImageFix" result="shape"/>
<feGaussianBlur stdDeviation="1" result="effect1_foregroundBlur_1084_1858"/>
</filter>
<filter id="filter6_d_1084_1858" x="205" y="338" width="183" height="51" filterUnits="userSpaceOnUse" color-interpolation-filters="sRGB">
<feFlood flood-opacity="0" result="BackgroundImageFix"/>
<feColorMatrix in="SourceAlpha" type="matrix" values="0 0 0 0 0 0 0 0 0 0 0 0 0 0 0 0 0 0 127 0" result="hardAlpha"/>
<feOffset/>
<feGaussianBlur stdDeviation="5"/>
<feComposite in2="hardAlpha" operator="out"/>
<feColorMatrix type="matrix" values="0 0 0 0 0.0470588 0 0 0 0 0.0470588 0 0 0 0 0.0470588 0 0 0 0.05 0"/>
<feBlend mode="normal" in2="BackgroundImageFix" result="effect1_dropShadow_1084_1858"/>
<feBlend mode="normal" in="SourceGraphic" in2="effect1_dropShadow_1084_1858" result="shape"/>
</filter>
<filter id="filter7_d_1084_1858" x="352" y="233" width="181" height="51" filterUnits="userSpaceOnUse" color-interpolation-filters="sRGB">
<feFlood flood-opacity="0" result="BackgroundImageFix"/>
<feColorMatrix in="SourceAlpha" type="matrix" values="0 0 0 0 0 0 0 0 0 0 0 0 0 0 0 0 0 0 127 0" result="hardAlpha"/>
<feOffset/>
<feGaussianBlur stdDeviation="5"/>
<feComposite in2="hardAlpha" operator="out"/>
<feColorMatrix type="matrix" values="0 0 0 0 0.0470588 0 0 0 0 0.0470588 0 0 0 0 0.0470588 0 0 0 0.05 0"/>
<feBlend mode="normal" in2="BackgroundImageFix" result="effect1_dropShadow_1084_1858"/>
<feBlend mode="normal" in="SourceGraphic" in2="effect1_dropShadow_1084_1858" result="shape"/>
</filter>
<filter id="filter8_f_1084_1858" x="362" y="213" width="20" height="20" filterUnits="userSpaceOnUse" color-interpolation-filters="sRGB">
<feFlood flood-opacity="0" result="BackgroundImageFix"/>
<feBlend mode="normal" in="SourceGraphic" in2="BackgroundImageFix" result="shape"/>
<feGaussianBlur stdDeviation="1" result="effect1_foregroundBlur_1084_1858"/>
</filter>
<filter id="filter9_di_1084_1858" x="143.581" y="94" width="221.838" height="207" filterUnits="userSpaceOnUse" color-interpolation-filters="sRGB">
<feFlood flood-opacity="0" result="BackgroundImageFix"/>
<feColorMatrix in="SourceAlpha" type="matrix" values="0 0 0 0 0 0 0 0 0 0 0 0 0 0 0 0 0 0 127 0" result="hardAlpha"/>
<feOffset/>
<feGaussianBlur stdDeviation="25"/>
<feComposite in2="hardAlpha" operator="out"/>
<feColorMatrix type="matrix" values="0 0 0 0 0.188235 0 0 0 0 0.8 0 0 0 0 0.443137 0 0 0 0.3 0"/>
<feBlend mode="normal" in2="BackgroundImageFix" result="effect1_dropShadow_1084_1858"/>
<feBlend mode="normal" in="SourceGraphic" in2="effect1_dropShadow_1084_1858" result="shape"/>
<feColorMatrix in="SourceAlpha" type="matrix" values="0 0 0 0 0 0 0 0 0 0 0 0 0 0 0 0 0 0 127 0" result="hardAlpha"/>
<feOffset dy="30"/>
<feGaussianBlur stdDeviation="15"/>
<feComposite in2="hardAlpha" operator="arithmetic" k2="-1" k3="1"/>
<feColorMatrix type="matrix" values="0 0 0 0 0.503438 0 0 0 0 0.977507 0 0 0 0 0.700966 0 0 0 0.04 0"/>
<feBlend mode="normal" in2="shape" result="effect2_innerShadow_1084_1858"/>
</filter>
<linearGradient id="paint0_linear_1084_1858" x1="112.394" y1="246.65" x2="270.484" y2="248.249" gradientUnits="userSpaceOnUse">
<stop stop-color="#0C0C0C" stop-opacity="0.1"/>
<stop offset="0.05" stop-color="#34BE6E" stop-opacity="0.16"/>
<stop offset="0.18" stop-color="#30CC71" stop-opacity="0.401399"/>
<stop offset="0.305" stop-color="#30CC71"/>
<stop offset="0.465" stop-color="#30CC71" stop-opacity="0.4"/>
<stop offset="0.605" stop-color="#52B69A" stop-opacity="0.16"/>
<stop offset="0.86" stop-color="#52B69A" stop-opacity="0.02"/>
<stop offset="0.996703" stop-color="#0C0C0C" stop-opacity="0.1"/>
</linearGradient>
<linearGradient id="paint1_linear_1084_1858" x1="260.352" y1="242.462" x2="295.952" y2="243.774" gradientUnits="userSpaceOnUse">
<stop stop-color="#0C0C0C" stop-opacity="0.2"/>
<stop offset="0.09" stop-color="#52B69A"/>
<stop offset="0.19" stop-color="#2BBC93" stop-opacity="0.8"/>
<stop offset="0.55" stop-color="#41D0A8" stop-opacity="0.7"/>
<stop offset="0.635" stop-color="#30CC71" stop-opacity="0.8"/>
<stop offset="0.76" stop-color="#52B69A" stop-opacity="0.76"/>
<stop offset="0.9" stop-color="#52B69A" stop-opacity="0.06"/>
<stop offset="1" stop-color="#0C0C0C" stop-opacity="0.2"/>
</linearGradient>
<linearGradient id="paint2_linear_1084_1858" x1="294.805" y1="222.955" x2="445.508" y2="220.517" gradientUnits="userSpaceOnUse">
<stop stop-color="#30CC71"/>
<stop offset="0.0777673" stop-color="#30CC71"/>
<stop offset="0.320104" stop-color="#30CC71" stop-opacity="0.5"/>
<stop offset="0.382295" stop-color="#1DA254" stop-opacity="0.3"/>
<stop offset="0.451095" stop-color="#1EB05B" stop-opacity="0.4"/>
<stop offset="0.708389" stop-color="#52B69A" stop-opacity="0.3"/>
<stop offset="0.827999" stop-color="#52B69A" stop-opacity="0.2"/>
<stop offset="0.996703" stop-opacity="0.2"/>
</linearGradient>
<linearGradient id="paint3_linear_1084_1858" x1="164.68" y1="330.912" x2="246.523" y2="328.963" gradientUnits="userSpaceOnUse">
<stop stop-color="#0C0C0C" stop-opacity="0.1"/>
<stop offset="0.035" stop-color="#30CC71" stop-opacity="0.2"/>
<stop offset="0.1" stop-color="#56E993" stop-opacity="0.4"/>
<stop offset="0.23" stop-color="#30CC71"/>
<stop offset="0.425" stop-color="#0F9949" stop-opacity="0.7"/>
<stop offset="0.47" stop-color="#52B69A" stop-opacity="0.22"/>
<stop offset="0.935" stop-color="#0C0C0C" stop-opacity="0.4"/>
</linearGradient>
<linearGradient id="paint4_linear_1084_1858" x1="261.352" y1="444.259" x2="341.192" y2="438.807" gradientUnits="userSpaceOnUse">
<stop stop-color="#0C0C0C" stop-opacity="0.15"/>
<stop offset="0.22" stop-color="#76F9AC" stop-opacity="0.3"/>
<stop offset="0.345" stop-color="#51E28D" stop-opacity="0.8"/>
<stop offset="0.48" stop-color="#30CC71"/>
<stop offset="0.55" stop-color="#51E28D" stop-opacity="0.3"/>
<stop offset="0.675" stop-color="#52B69A" stop-opacity="0.5"/>
<stop offset="0.82" stop-color="#52B69A" stop-opacity="0.1"/>
<stop offset="0.996703" stop-color="#0C0C0C" stop-opacity="0.2"/>
</linearGradient>
<linearGradient id="paint5_linear_1084_1858" x1="318.234" y1="269.014" x2="451.998" y2="268.213" gradientUnits="userSpaceOnUse">
<stop stop-opacity="0.2"/>
<stop offset="0.15" stop-color="#2BB865" stop-opacity="0.2"/>
<stop offset="0.27" stop-color="#2BB865" stop-opacity="0.3"/>
<stop offset="0.43" stop-color="#30CC71"/>
<stop offset="0.525" stop-color="#2BB865" stop-opacity="0.6"/>
<stop offset="0.645" stop-color="#52B69A" stop-opacity="0.3"/>
<stop offset="0.755" stop-color="#52B69A" stop-opacity="0.2"/>
<stop offset="0.996703" stop-opacity="0.2"/>
</linearGradient>
<linearGradient id="paint6_linear_1084_1858" x1="192" y1="134.192" x2="329.762" y2="144.973" gradientUnits="userSpaceOnUse">
<stop stop-color="#A2D8AB"/>
<stop offset="0.529249" stop-color="#30CC71"/>
<stop offset="1" stop-color="#0DBE58"/>
</linearGradient>
</defs>
</svg>
