<svg width="2003" height="242" viewBox="0 0 2003 242" fill="none" xmlns="http://www.w3.org/2000/svg">
<mask id="path-1-outside-1_720_69873" maskUnits="userSpaceOnUse" x="0" y="0" width="2003" height="242" fill="black">
<rect fill="white" width="2003" height="242"/>
<path d="M115.889 241C93.7548 241 72.3925 238.692 51.8024 234.077C31.4696 229.242 14.8688 223.088 2 215.615L27.0942 167.484C39.1909 174.077 53.0893 179.571 68.7892 183.967C84.7466 188.143 100.575 190.231 116.275 190.231C126.828 190.231 135.321 189.462 141.755 187.923C148.19 186.165 152.823 183.967 155.654 181.33C158.742 178.473 160.287 175.176 160.287 171.44C160.287 166.165 157.455 161.989 151.793 158.912C146.131 155.835 138.796 153.308 129.787 151.33C120.779 149.352 110.742 147.374 99.6744 145.396C88.8646 143.418 77.9261 140.89 66.8589 137.813C56.0491 134.736 46.1401 130.78 37.1319 125.945C28.1237 120.89 20.7885 114.407 15.1262 106.495C9.46392 98.3626 6.63278 88.1429 6.63278 75.8352C6.63278 61.989 11.0082 49.4615 19.759 38.2528C28.7672 27.044 42.1507 18.033 59.9097 11.2198C77.6687 4.4066 99.8031 1 126.313 1C144.072 1 161.445 2.75825 178.432 6.27474C195.676 9.57144 210.99 14.5165 224.373 21.1099L200.823 69.5714C187.955 63.6374 175.214 59.2418 162.603 56.3846C149.992 53.3077 137.766 51.7692 125.927 51.7692C115.374 51.7692 106.881 52.7583 100.447 54.7363C94.0121 56.4945 89.3794 58.9121 86.5482 61.989C83.7171 65.0659 82.3015 68.5824 82.3015 72.5385C82.3015 77.5934 85.0039 81.6593 90.4089 84.7363C96.0711 87.5934 103.406 90.011 112.415 91.989C121.68 93.7473 131.718 95.6154 142.528 97.5934C153.595 99.5714 164.533 102.099 175.343 105.176C186.41 108.033 196.448 111.989 205.456 117.044C214.464 121.879 221.671 128.363 227.076 136.495C232.738 144.407 235.569 154.407 235.569 166.495C235.569 179.901 231.065 192.319 222.057 203.747C213.306 214.956 200.051 223.967 182.292 230.78C164.791 237.593 142.656 241 115.889 241Z"/>
<path d="M414.881 241C393.262 241 373.315 238.033 355.041 232.099C336.767 226.165 320.81 217.813 307.169 207.044C293.786 196.055 283.362 183.308 275.898 168.802C268.434 154.297 264.702 138.363 264.702 121C264.702 103.637 268.434 87.7033 275.898 73.1978C283.362 58.6923 293.786 46.0549 307.169 35.2857C320.81 24.2967 336.767 15.8352 355.041 9.9011C373.315 3.96703 393.262 1 414.881 1C436.758 1 456.705 3.96703 474.721 9.9011C492.995 15.8352 508.824 24.2967 522.207 35.2857C535.591 46.0549 546.015 58.6923 553.479 73.1978C561.2 87.7033 565.06 103.637 565.06 121C565.06 138.363 561.2 154.407 553.479 169.132C546.015 183.637 535.591 196.275 522.207 207.044C508.824 217.813 492.995 226.165 474.721 232.099C456.705 238.033 436.758 241 414.881 241ZM414.881 186.934C425.176 186.934 434.699 185.396 443.45 182.319C452.458 179.242 460.18 174.846 466.614 169.132C473.306 163.198 478.453 156.165 482.057 148.033C485.917 139.901 487.848 130.89 487.848 121C487.848 110.89 485.917 101.879 482.057 93.967C478.453 85.8352 473.306 78.9121 466.614 73.1978C460.18 67.2637 452.458 62.7583 443.45 59.6813C434.699 56.6044 425.176 55.0659 414.881 55.0659C404.586 55.0659 394.935 56.6044 385.926 59.6813C377.176 62.7583 369.454 67.2637 362.763 73.1978C356.328 78.9121 351.181 85.8352 347.32 93.967C343.717 101.879 341.915 110.89 341.915 121C341.915 130.89 343.717 139.901 347.32 148.033C351.181 156.165 356.328 163.198 362.763 169.132C369.454 174.846 377.176 179.242 385.926 182.319C394.935 185.396 404.586 186.934 414.881 186.934Z"/>
<path d="M612.818 236.385V5.61538H675.746L787.705 162.538H754.504L863.374 5.61538H926.303L927.075 236.385H856.811L856.039 96.9341H868.007L786.547 213.637H752.573L668.797 96.9341H683.468V236.385H612.818Z"/>
<path d="M988.884 236.385V5.61538H1051.81L1163.77 162.538H1130.57L1239.44 5.61538H1302.37L1303.14 236.385H1232.88L1232.11 96.9341H1244.07L1162.61 213.637H1128.64L1044.86 96.9341H1059.53V236.385H988.884Z"/>
<path d="M1435.21 94.956H1560.69V143.747H1435.21V94.956ZM1440.62 185.945H1581.92V236.385H1364.95V5.61538H1576.9V56.0549H1440.62V185.945Z"/>
<path d="M1632.06 236.385V5.61538H1755.6C1780.31 5.61538 1801.54 9.02198 1819.3 15.8352C1837.32 22.6484 1851.22 32.5385 1861 45.5055C1870.78 58.2527 1875.67 73.4176 1875.67 91C1875.67 108.363 1870.78 123.418 1861 136.165C1851.22 148.692 1837.32 158.363 1819.3 165.176C1801.54 171.769 1780.31 175.066 1755.6 175.066H1674.53L1708.5 147.703V236.385H1632.06ZM1799.23 236.385L1732.05 152.319H1813.51L1881.07 236.385H1799.23ZM1708.5 154.626L1674.53 124.626H1750.97C1766.92 124.626 1778.76 121.659 1786.49 115.725C1794.46 109.791 1798.45 101.549 1798.45 91C1798.45 80.2308 1794.46 71.8791 1786.49 65.9451C1778.76 60.011 1766.92 57.044 1750.97 57.044H1674.53L1708.5 27.044V154.626Z"/>
<path d="M1925.56 236.385V5.61538H2002V236.385H1925.56Z"/>
</mask>
<path d="M115.889 241C93.7548 241 72.3925 238.692 51.8024 234.077C31.4696 229.242 14.8688 223.088 2 215.615L27.0942 167.484C39.1909 174.077 53.0893 179.571 68.7892 183.967C84.7466 188.143 100.575 190.231 116.275 190.231C126.828 190.231 135.321 189.462 141.755 187.923C148.19 186.165 152.823 183.967 155.654 181.33C158.742 178.473 160.287 175.176 160.287 171.44C160.287 166.165 157.455 161.989 151.793 158.912C146.131 155.835 138.796 153.308 129.787 151.33C120.779 149.352 110.742 147.374 99.6744 145.396C88.8646 143.418 77.9261 140.89 66.8589 137.813C56.0491 134.736 46.1401 130.78 37.1319 125.945C28.1237 120.89 20.7885 114.407 15.1262 106.495C9.46392 98.3626 6.63278 88.1429 6.63278 75.8352C6.63278 61.989 11.0082 49.4615 19.759 38.2528C28.7672 27.044 42.1507 18.033 59.9097 11.2198C77.6687 4.4066 99.8031 1 126.313 1C144.072 1 161.445 2.75825 178.432 6.27474C195.676 9.57144 210.99 14.5165 224.373 21.1099L200.823 69.5714C187.955 63.6374 175.214 59.2418 162.603 56.3846C149.992 53.3077 137.766 51.7692 125.927 51.7692C115.374 51.7692 106.881 52.7583 100.447 54.7363C94.0121 56.4945 89.3794 58.9121 86.5482 61.989C83.7171 65.0659 82.3015 68.5824 82.3015 72.5385C82.3015 77.5934 85.0039 81.6593 90.4089 84.7363C96.0711 87.5934 103.406 90.011 112.415 91.989C121.68 93.7473 131.718 95.6154 142.528 97.5934C153.595 99.5714 164.533 102.099 175.343 105.176C186.41 108.033 196.448 111.989 205.456 117.044C214.464 121.879 221.671 128.363 227.076 136.495C232.738 144.407 235.569 154.407 235.569 166.495C235.569 179.901 231.065 192.319 222.057 203.747C213.306 214.956 200.051 223.967 182.292 230.78C164.791 237.593 142.656 241 115.889 241Z" stroke="#111111" stroke-width="2" mask="url(#path-1-outside-1_720_69873)"/>
<path d="M414.881 241C393.262 241 373.315 238.033 355.041 232.099C336.767 226.165 320.81 217.813 307.169 207.044C293.786 196.055 283.362 183.308 275.898 168.802C268.434 154.297 264.702 138.363 264.702 121C264.702 103.637 268.434 87.7033 275.898 73.1978C283.362 58.6923 293.786 46.0549 307.169 35.2857C320.81 24.2967 336.767 15.8352 355.041 9.9011C373.315 3.96703 393.262 1 414.881 1C436.758 1 456.705 3.96703 474.721 9.9011C492.995 15.8352 508.824 24.2967 522.207 35.2857C535.591 46.0549 546.015 58.6923 553.479 73.1978C561.2 87.7033 565.06 103.637 565.06 121C565.06 138.363 561.2 154.407 553.479 169.132C546.015 183.637 535.591 196.275 522.207 207.044C508.824 217.813 492.995 226.165 474.721 232.099C456.705 238.033 436.758 241 414.881 241ZM414.881 186.934C425.176 186.934 434.699 185.396 443.45 182.319C452.458 179.242 460.18 174.846 466.614 169.132C473.306 163.198 478.453 156.165 482.057 148.033C485.917 139.901 487.848 130.89 487.848 121C487.848 110.89 485.917 101.879 482.057 93.967C478.453 85.8352 473.306 78.9121 466.614 73.1978C460.18 67.2637 452.458 62.7583 443.45 59.6813C434.699 56.6044 425.176 55.0659 414.881 55.0659C404.586 55.0659 394.935 56.6044 385.926 59.6813C377.176 62.7583 369.454 67.2637 362.763 73.1978C356.328 78.9121 351.181 85.8352 347.32 93.967C343.717 101.879 341.915 110.89 341.915 121C341.915 130.89 343.717 139.901 347.32 148.033C351.181 156.165 356.328 163.198 362.763 169.132C369.454 174.846 377.176 179.242 385.926 182.319C394.935 185.396 404.586 186.934 414.881 186.934Z" stroke="#111111" stroke-width="2" mask="url(#path-1-outside-1_720_69873)"/>
<path d="M612.818 236.385V5.61538H675.746L787.705 162.538H754.504L863.374 5.61538H926.303L927.075 236.385H856.811L856.039 96.9341H868.007L786.547 213.637H752.573L668.797 96.9341H683.468V236.385H612.818Z" stroke="#111111" stroke-width="2" mask="url(#path-1-outside-1_720_69873)"/>
<path d="M988.884 236.385V5.61538H1051.81L1163.77 162.538H1130.57L1239.44 5.61538H1302.37L1303.14 236.385H1232.88L1232.11 96.9341H1244.07L1162.61 213.637H1128.64L1044.86 96.9341H1059.53V236.385H988.884Z" stroke="#111111" stroke-width="2" mask="url(#path-1-outside-1_720_69873)"/>
<path d="M1435.21 94.956H1560.69V143.747H1435.21V94.956ZM1440.62 185.945H1581.92V236.385H1364.95V5.61538H1576.9V56.0549H1440.62V185.945Z" stroke="#111111" stroke-width="2" mask="url(#path-1-outside-1_720_69873)"/>
<path d="M1632.06 236.385V5.61538H1755.6C1780.31 5.61538 1801.54 9.02198 1819.3 15.8352C1837.32 22.6484 1851.22 32.5385 1861 45.5055C1870.78 58.2527 1875.67 73.4176 1875.67 91C1875.67 108.363 1870.78 123.418 1861 136.165C1851.22 148.692 1837.32 158.363 1819.3 165.176C1801.54 171.769 1780.31 175.066 1755.6 175.066H1674.53L1708.5 147.703V236.385H1632.06ZM1799.23 236.385L1732.05 152.319H1813.51L1881.07 236.385H1799.23ZM1708.5 154.626L1674.53 124.626H1750.97C1766.92 124.626 1778.76 121.659 1786.49 115.725C1794.46 109.791 1798.45 101.549 1798.45 91C1798.45 80.2308 1794.46 71.8791 1786.49 65.9451C1778.76 60.011 1766.92 57.044 1750.97 57.044H1674.53L1708.5 27.044V154.626Z" stroke="#111111" stroke-width="2" mask="url(#path-1-outside-1_720_69873)"/>
<path d="M1925.56 236.385V5.61538H2002V236.385H1925.56Z" stroke="#111111" stroke-width="2" mask="url(#path-1-outside-1_720_69873)"/>
</svg>
