<svg width="22" height="16" viewBox="0 0 22 16" fill="none" xmlns="http://www.w3.org/2000/svg">
<g clip-path="url(#clip0_459_278)">
<path d="M19.5556 0.055542H2.44444C1.79614 0.055542 1.17438 0.314882 0.715961 0.77651C0.257539 1.23814 0 1.86424 0 2.51708V8.05554H22V2.51708C22 1.86424 21.7425 1.23814 21.284 0.77651C20.8256 0.314882 20.2039 0.055542 19.5556 0.055542Z" fill="#005BBB"/>
<path d="M22 13.594C22 14.2468 21.7425 14.8729 21.284 15.3346C20.8256 15.7962 20.2039 16.0555 19.5556 16.0555H2.44444C1.79614 16.0555 1.17438 15.7962 0.715961 15.3346C0.257539 14.8729 0 14.2468 0 13.594V8.05554H22V13.594Z" fill="#FFD500"/>
</g>
<defs>
<clipPath id="clip0_459_278">
<rect width="22" height="16" fill="white"/>
</clipPath>
</defs>
</svg>
