<svg width="22" height="16" viewBox="0 0 22 16" fill="none" xmlns="http://www.w3.org/2000/svg">
<path d="M0 2.55339V4.97862H3.43933L0 2.55339ZM2.85022 16.0555H7.94444V12.4635L2.85022 16.0555ZM14.0556 12.4642V16.0555H19.1492L14.0556 12.4642ZM0 11.1325V13.5577L3.44056 11.1325H0ZM19.1504 0.055542H14.0556V3.64754L19.1504 0.055542ZM22 13.5583V11.1325H18.5588L22 13.5583ZM22 4.97862V2.55339L18.5601 4.97862H22ZM7.94444 0.055542H2.85022L7.94444 3.64754V0.055542Z" fill="#00247D"/>
<path d="M15.3633 11.1325L21.2984 15.3177C21.5878 15.0166 21.796 14.6462 21.9034 14.2414L17.4943 11.1325H15.3633ZM7.94444 11.1325H6.63606L0.701556 15.3171C1.01994 15.6432 1.42817 15.8765 1.88589 15.9848L7.94444 11.7128V11.1325ZM14.0556 4.97862H15.3639L21.2984 0.794004C20.9743 0.46342 20.564 0.231938 20.1147 0.126311L14.0556 4.39831V4.97862ZM6.63606 4.97862L0.701556 0.794004C0.411991 1.09501 0.203538 1.46548 0.0959444 1.87031L4.50511 4.97862H6.63606Z" fill="#CF1B2B"/>
<path d="M22 9.9017H12.8333V16.0555H14.0556V12.4642L19.1492 16.0555H19.5556C19.8802 16.0552 20.2015 15.9899 20.5007 15.8632C20.7999 15.7365 21.0711 15.5511 21.2984 15.3177L15.3633 11.1325H17.4943L21.9034 14.2414C21.9603 14.034 22 13.8192 22 13.594V13.5583L18.5588 11.1325H22V9.9017ZM0 9.9017V11.1325H3.44056L0 13.5577V13.594C0 14.2654 0.268278 14.8728 0.701556 15.3171L6.63606 11.1325H7.94444V11.7128L1.88589 15.9848C2.06556 16.0279 2.25133 16.0555 2.44444 16.0555H2.85022L7.94444 12.4635V16.0555H9.16667V9.9017H0ZM22 2.51708C22.0006 1.87211 21.7485 1.25294 21.2984 0.794004L15.3639 4.97862H14.0556V4.39831L20.1147 0.126311C19.9317 0.0810917 19.744 0.0573443 19.5556 0.055542H19.1504L14.0556 3.64754V0.055542H12.8333V6.20939H22V4.97862H18.5601L22 2.55339V2.51708ZM7.94444 0.055542V3.64754L2.85022 0.055542H2.44444C2.11979 0.0559158 1.79846 0.121409 1.49922 0.248198C1.19998 0.374988 0.928813 0.560533 0.701556 0.794004L6.63606 4.97862H4.50511L0.0959444 1.87031C0.0355402 2.08064 0.00327408 2.29815 0 2.51708V2.55339L3.43933 4.97862H0V6.20939H9.16667V0.055542H7.94444Z" fill="#EEEEEE"/>
<path d="M12.8333 6.20939V0.055542H9.16667V6.20939H0V9.9017H9.16667V16.0555H12.8333V9.9017H22V6.20939H12.8333Z" fill="#CF1B2B"/>
</svg>
