<svg width="22" height="16" viewBox="0 0 22 16" fill="none" xmlns="http://www.w3.org/2000/svg">
<g clip-path="url(#clip0_459_307)">
<path d="M21.6608 1.28631C21.2373 0.553388 20.4582 0.055542 19.5556 0.055542H11V1.28631H21.6608ZM0 12.3632H22V13.594H0V12.3632ZM11 7.44016H22V8.67093H11V7.44016ZM11 4.97862H22V6.20939H11V4.97862ZM0 9.9017H22V11.1325H0V9.9017ZM2.44444 16.0555H19.5556C20.4582 16.0555 21.2373 15.5577 21.6608 14.8248H0.339167C0.762667 15.5577 1.54183 16.0555 2.44444 16.0555ZM11 2.51708H22V3.74785H11V2.51708Z" fill="#B22334"/>
<path d="M0.0415556 14.0119C0.0517407 14.0693 0.0637593 14.1261 0.0776111 14.1823C0.0939074 14.2438 0.112648 14.3046 0.133833 14.3645C0.188222 14.5239 0.254222 14.6777 0.337333 14.8217L0.339167 14.8248H21.6608L21.6621 14.8223C21.7449 14.6776 21.8128 14.5248 21.8649 14.3663C21.9046 14.2506 21.9357 14.1322 21.9578 14.0119C21.9829 13.8765 22 13.7374 22 13.594H0C0 13.7374 0.0171111 13.8759 0.0415556 14.0119ZM0 11.1325H22V12.3632H0V11.1325ZM0 8.67093V9.9017H22V8.67093H11H0ZM11 6.20939H22V7.44016H11V6.20939ZM11 3.74785H22V4.97862H11V3.74785ZM0.0782222 1.92877C0.0935 1.866 0.114889 1.80631 0.134444 1.746C0.113359 1.80617 0.0946036 1.86714 0.0782222 1.92877ZM11 2.51708H22C22 2.3737 21.9829 2.23462 21.9578 2.09862C21.9364 1.97807 21.9052 1.85951 21.8643 1.74416C21.8122 1.58496 21.744 1.43155 21.6608 1.28631H11V2.51708Z" fill="#EEEEEE"/>
<path d="M11 0.055542H2.44444C1.79614 0.055542 1.17438 0.314882 0.715961 0.77651C0.257539 1.23814 0 1.86424 0 2.51708V8.67093H11V0.055542Z" fill="#3C3B6E"/>
<path d="M1.22283 1.73308L1.6005 2.00939L1.45628 2.45554L1.83333 2.17985L2.211 2.45554L2.06678 2.00939L2.44444 1.73308H1.97756L1.83333 1.28631L1.68972 1.73308H1.22283ZM2.44506 2.96385L2.82272 3.24016L2.6785 3.68631L3.05556 3.41062L3.43322 3.68631L3.289 3.24016L3.66667 2.96385H3.19978L3.05556 2.51708L2.91194 2.96385H2.44506ZM4.8895 2.96385L5.26717 3.24016L5.12294 3.68631L5.5 3.41062L5.87767 3.68631L5.73344 3.24016L6.11111 2.96385H5.64422L5.5 2.51708L5.35639 2.96385H4.8895ZM7.33394 2.96385L7.71161 3.24016L7.56739 3.68631L7.94444 3.41062L8.32211 3.68631L8.17789 3.24016L8.55556 2.96385H8.08867L7.94444 2.51708L7.80083 2.96385H7.33394ZM2.44506 5.42539L2.82272 5.7017L2.6785 6.14785L3.05556 5.87216L3.43322 6.14785L3.289 5.7017L3.66667 5.42539H3.19978L3.05556 4.97862L2.91194 5.42539H2.44506ZM4.8895 5.42539L5.26717 5.7017L5.12294 6.14785L5.5 5.87216L5.87767 6.14785L5.73344 5.7017L6.11111 5.42539H5.64422L5.5 4.97862L5.35639 5.42539H4.8895ZM7.33394 5.42539L7.71161 5.7017L7.56739 6.14785L7.94444 5.87216L8.32211 6.14785L8.17789 5.7017L8.55556 5.42539H8.08867L7.94444 4.97862L7.80083 5.42539H7.33394ZM3.66728 1.73308L4.04494 2.00939L3.90072 2.45554L4.27778 2.17985L4.65544 2.45554L4.51122 2.00939L4.88889 1.73308H4.422L4.27778 1.28631L4.13417 1.73308H3.66728ZM6.11172 1.73308L6.48939 2.00939L6.34517 2.45554L6.72222 2.17985L7.09989 2.45554L6.95567 2.00939L7.33333 1.73308H6.86644L6.72222 1.28631L6.57861 1.73308H6.11172ZM8.55617 1.73308L8.93383 2.00939L8.78961 2.45554L9.16667 2.17985L9.54433 2.45554L9.40011 2.00939L9.77778 1.73308H9.31089L9.16667 1.28631L9.02306 1.73308H8.55617ZM1.22283 4.19462L1.6005 4.47093L1.45628 4.91708L1.83333 4.64139L2.211 4.91708L2.06678 4.47093L2.44444 4.19462H1.97756L1.83333 3.74785L1.68972 4.19462H1.22283ZM3.90072 4.91708L4.27778 4.64139L4.65544 4.91708L4.51122 4.47093L4.88889 4.19462H4.422L4.27778 3.74785L4.13417 4.19462H3.66728L4.04494 4.47093L3.90072 4.91708ZM6.11172 4.19462L6.48939 4.47093L6.34517 4.91708L6.72222 4.64139L7.09989 4.91708L6.95567 4.47093L7.33333 4.19462H6.86644L6.72222 3.74785L6.57861 4.19462H6.11172ZM8.55617 4.19462L8.93383 4.47093L8.78961 4.91708L9.16667 4.64139L9.54433 4.91708L9.40011 4.47093L9.77778 4.19462H9.31089L9.16667 3.74785L9.02306 4.19462H8.55617ZM1.22283 6.65616L1.6005 6.93246L1.45628 7.37862L1.83333 7.10293L2.211 7.37862L2.06678 6.93246L2.44444 6.65616H1.97756L1.83333 6.20939L1.68972 6.65616H1.22283ZM3.90072 7.37862L4.27778 7.10293L4.65544 7.37862L4.51122 6.93246L4.88889 6.65616H4.422L4.27778 6.20939L4.13417 6.65616H3.66728L4.04494 6.93246L3.90072 7.37862ZM6.11172 6.65616L6.48939 6.93246L6.34517 7.37862L6.72222 7.10293L7.09989 7.37862L6.95567 6.93246L7.33333 6.65616H6.86644L6.72222 6.20939L6.57861 6.65616H6.11172ZM8.55617 6.65616L8.93383 6.93246L8.78961 7.37862L9.16667 7.10293L9.54433 7.37862L9.40011 6.93246L9.77778 6.65616H9.31089L9.16667 6.20939L9.02306 6.65616H8.55617Z" fill="white"/>
</g>
<defs>
<clipPath id="clip0_459_307">
<rect width="22" height="16" fill="white"/>
</clipPath>
</defs>
</svg>
