<svg width="28" height="28" viewBox="0 0 28 28" fill="none" xmlns="http://www.w3.org/2000/svg">
<path fill-rule="evenodd" clip-rule="evenodd" d="M7.43118 0.712188C11.6793 -0.237396 16.0846 -0.237396 20.3327 0.712188L20.7852 0.812313C22.0267 1.09063 23.1669 1.70734 24.0793 2.59407C24.9917 3.4808 25.6407 4.60289 25.9544 5.83594C27.0337 10.085 27.0337 14.5364 25.9544 18.7855C25.6407 20.0185 24.9917 21.1406 24.0793 22.0274C23.1669 22.9141 22.0267 23.5308 20.7852 23.8091L20.3313 23.9092C17.6706 24.5034 14.9406 24.7275 12.2185 24.5754L8.67674 27.7447C8.54322 27.8643 8.38005 27.9458 8.20427 27.9807C8.02849 28.0157 7.84654 28.0029 7.67742 27.9436C7.5083 27.8842 7.3582 27.7806 7.2428 27.6435C7.12739 27.5063 7.05091 27.3407 7.02134 27.164L6.43527 23.6636C5.31175 23.3133 4.29669 22.6811 3.48691 21.8271C2.67713 20.9732 2.09963 19.926 1.80948 18.7855C0.730174 14.5364 0.730174 10.085 1.80948 5.83594C2.12313 4.60289 2.77213 3.4808 3.68455 2.59407C4.59696 1.70734 5.73712 1.09063 6.97862 0.812313L7.43118 0.712188Z" fill="#7360F2"/>
<path d="M8.62988 5.80916C8.38176 5.77283 8.12868 5.82278 7.91298 5.95067H7.89429C7.39366 6.24437 6.94243 6.61417 6.55795 7.04938C6.23755 7.41917 6.064 7.79298 6.01861 8.15343C5.99191 8.36703 6.0106 8.5833 6.07334 8.78755L6.09737 8.8009C6.45782 9.85956 6.92775 10.8782 7.5018 11.8367C8.24232 13.1828 9.15317 14.428 10.2119 15.5413L10.2439 15.5867L10.2946 15.6241L10.3253 15.6602L10.3627 15.6922C11.4801 16.754 12.7281 17.6691 14.0767 18.4156C15.6186 19.2553 16.5545 19.6518 17.1165 19.8174V19.8254C17.2807 19.8761 17.4302 19.8988 17.5811 19.8988C18.06 19.8644 18.5134 19.6697 18.868 19.3461C19.3019 18.9616 19.669 18.5091 19.9547 18.0058V17.9964C20.2231 17.4891 20.1323 17.0112 19.7451 16.6868C18.9681 16.0065 18.1272 15.4029 17.234 14.8845C16.6359 14.5601 16.0285 14.7564 15.7828 15.0848L15.2582 15.7469C14.9885 16.0753 14.4999 16.03 14.4999 16.03L14.4865 16.038C10.8406 15.1075 9.86743 11.4162 9.86743 11.4162C9.86743 11.4162 9.82204 10.9142 10.1598 10.6579L10.8166 10.1292C11.1317 9.87291 11.3506 9.26682 11.0129 8.66874C10.4956 7.77619 9.89344 6.93568 9.21461 6.15893C9.06612 5.97654 8.85817 5.85224 8.62721 5.80782M14.7909 4.20448C14.6139 4.20448 14.4441 4.27481 14.3189 4.39999C14.1937 4.52517 14.1234 4.69495 14.1234 4.87199C14.1234 5.04902 14.1937 5.2188 14.3189 5.34398C14.4441 5.46916 14.6139 5.53949 14.7909 5.53949C16.4784 5.53949 17.8801 6.09085 18.9895 7.14817C19.5596 7.72623 20.0041 8.41108 20.2951 9.16136C20.5875 9.91296 20.721 10.7153 20.6863 11.519C20.6789 11.696 20.7421 11.8687 20.862 11.9992C20.9819 12.1296 21.1487 12.2071 21.3258 12.2145C21.5028 12.2219 21.6755 12.1588 21.806 12.0388C21.9364 11.9189 22.0139 11.7521 22.0213 11.575C22.0611 10.5866 21.8971 9.60044 21.5394 8.67808C21.18 7.75104 20.6328 6.90835 19.932 6.20299L19.9187 6.18964C18.5423 4.87466 16.8014 4.20448 14.7909 4.20448Z" fill="white"/>
<path d="M14.7442 6.39923C14.5672 6.39923 14.3974 6.46956 14.2722 6.59474C14.147 6.71992 14.0767 6.8897 14.0767 7.06673C14.0767 7.24377 14.147 7.41355 14.2722 7.53873C14.3974 7.66391 14.5672 7.73424 14.7442 7.73424H14.7669C15.9844 7.82101 16.8709 8.22685 17.4916 8.89302C18.1284 9.57921 18.4582 10.4323 18.4328 11.4869C18.4287 11.664 18.4952 11.8354 18.6175 11.9634C18.7398 12.0915 18.9079 12.1657 19.085 12.1698C19.262 12.1739 19.4334 12.1074 19.5615 11.9851C19.6895 11.8628 19.7638 11.6947 19.7678 11.5176C19.7999 10.1332 19.354 8.93841 18.4702 7.98522V7.98255C17.5664 7.01333 16.3262 6.50069 14.8336 6.40057L14.8109 6.3979L14.7442 6.39923Z" fill="white"/>
<path d="M14.7188 8.63537C14.6295 8.62748 14.5395 8.63768 14.4542 8.66535C14.3689 8.69302 14.29 8.7376 14.2224 8.79642C14.1547 8.85524 14.0995 8.92709 14.0602 9.00769C14.0209 9.0883 13.9982 9.17599 13.9936 9.26555C13.9889 9.35511 14.0023 9.44469 14.033 9.52894C14.0638 9.61319 14.1111 9.69039 14.1724 9.75592C14.2336 9.82146 14.3074 9.87399 14.3893 9.91037C14.4713 9.94676 14.5597 9.96626 14.6494 9.9677C15.2074 9.99707 15.5639 10.1653 15.7882 10.3909C16.0138 10.6178 16.182 10.9823 16.2127 11.5523C16.2144 11.6419 16.2341 11.7303 16.2706 11.8121C16.3071 11.8939 16.3597 11.9675 16.4253 12.0285C16.4909 12.0896 16.5681 12.1368 16.6523 12.1674C16.7365 12.1979 16.826 12.2113 16.9155 12.2065C17.005 12.2017 17.0926 12.179 17.1731 12.1397C17.2536 12.1004 17.3253 12.0453 17.3841 11.9776C17.4428 11.91 17.4873 11.8312 17.515 11.746C17.5427 11.6608 17.5529 11.5708 17.545 11.4816C17.5023 10.6806 17.2513 9.97304 16.7374 9.45239C16.2207 8.93174 15.5172 8.67809 14.7188 8.63537Z" fill="white"/>
</svg>
