<svg width="44" height="40" viewBox="0 0 44 40" fill="none" xmlns="http://www.w3.org/2000/svg">
<g clip-path="url(#clip0_181_350)">
<path d="M0.734055 10.0002H37.4001C37.6641 10.0002 37.9061 9.88018 38.0381 9.68518L43.9041 0.935181C43.9668 0.843111 44.0001 0.734145 43.9996 0.622714C43.9991 0.511283 43.9647 0.402643 43.9011 0.311181C43.8278 0.212386 43.7318 0.132593 43.6214 0.0784841C43.5109 0.0243747 43.389 -0.0024759 43.2661 0.000180699H6.60005C6.47621 -0.00250247 6.35356 0.0247305 6.24249 0.0795683C6.13142 0.134406 6.03522 0.21523 5.96205 0.315181L0.0960545 9.06518C0.0332832 9.15725 -4.10856e-05 9.26622 0.000494641 9.37765C0.00103037 9.48908 0.0354008 9.59772 0.0990545 9.68918C0.172358 9.78797 0.268266 9.86777 0.378746 9.92188C0.489227 9.97599 0.611064 10.0028 0.734055 10.0002Z" fill="#168AAD"/>
<mask id="mask0_181_350" style="mask-type:alpha" maskUnits="userSpaceOnUse" x="0" y="0" width="45" height="10">
<path d="M37.4 9.5H0.734C0.615 9.5 0.54 9.446 0.512 9.407C0.504982 9.39772 0.500813 9.3866 0.5 9.375C0.5 9.369 0.501 9.359 0.512 9.343L6.376 0.594C6.405 0.555 6.482 0.5 6.6 0.5H43.266C43.385 0.5 43.461 0.554 43.488 0.593C43.4973 0.609 43.5013 0.619667 43.5 0.625C43.4992 0.636604 43.495 0.647722 43.488 0.657L37.624 9.405C37.596 9.445 37.519 9.5 37.4 9.5Z" stroke="black"/>
</mask>
<g mask="url(#mask0_181_350)">
<g style="mix-blend-mode:overlay" filter="url(#filter0_f_181_350)">
<path d="M-11 -7.04707L41.239 -15.9971L44.109 0.75993L-8.129 9.70893L-11 -7.04707Z" fill="white"/>
</g>
</g>
<path d="M43.2661 10.0002H6.60005C6.47621 9.9975 6.35356 10.0247 6.24249 10.0796C6.13142 10.1344 6.03522 10.2152 5.96205 10.3152L0.0960545 19.0652C0.0332832 19.1573 -4.10856e-05 19.2662 0.000494641 19.3776C0.00103037 19.4891 0.0354008 19.5977 0.0990545 19.6892C0.172358 19.788 0.268266 19.8678 0.378746 19.9219C0.489227 19.976 0.611064 20.0028 0.734055 20.0002H37.4001C37.6641 20.0002 37.9061 19.8802 38.0381 19.6852L43.9041 10.9352C43.9668 10.8431 44.0001 10.7341 43.9996 10.6227C43.9991 10.5113 43.9647 10.4026 43.9011 10.3112C43.8278 10.2124 43.7318 10.1326 43.6214 10.0785C43.5109 10.0244 43.389 9.99752 43.2661 10.0002Z" fill="#168AAD" fill-opacity="0.7"/>
<path d="M43.2661 20.0002H6.60005C6.47621 19.9975 6.35356 20.0247 6.24249 20.0796C6.13142 20.1344 6.03522 20.2152 5.96205 20.3152L0.0960545 29.0652C0.0332832 29.1573 -4.10856e-05 29.2662 0.000494641 29.3776C0.00103037 29.4891 0.0354008 29.5977 0.0990545 29.6892C0.172358 29.788 0.268266 29.8678 0.378746 29.9219C0.489227 29.976 0.611064 30.0028 0.734055 30.0002H37.4001C37.6641 30.0002 37.9061 29.8802 38.0381 29.6852L43.9041 20.9352C43.9668 20.8431 44.0001 20.7341 43.9996 20.6227C43.9991 20.5113 43.9647 20.4026 43.9011 20.3112C43.8278 20.2124 43.7318 20.1326 43.6214 20.0785C43.5109 20.0244 43.389 19.9975 43.2661 20.0002Z" fill="#168AAD" fill-opacity="0.4"/>
<path d="M43.2661 30.0002H6.60005C6.47621 29.9975 6.35356 30.0247 6.24249 30.0796C6.13142 30.1344 6.03522 30.2152 5.96205 30.3152L0.0960545 39.0652C0.0332832 39.1572 -4.10856e-05 39.2662 0.000494641 39.3776C0.00103037 39.4891 0.0354008 39.5977 0.0990545 39.6892C0.172358 39.788 0.268266 39.8678 0.378746 39.9219C0.489227 39.976 0.611064 40.0028 0.734055 40.0002H37.4001C37.6641 40.0002 37.9061 39.8802 38.0381 39.6852L43.9041 30.9352C43.9668 30.8431 44.0001 30.7341 43.9996 30.6227C43.9991 30.5113 43.9647 30.4026 43.9011 30.3112C43.8278 30.2124 43.7318 30.1326 43.6214 30.0785C43.5109 30.0244 43.389 29.9975 43.2661 30.0002Z" fill="#168AAD" fill-opacity="0.2"/>
<mask id="mask1_181_350" style="mask-type:alpha" maskUnits="userSpaceOnUse" x="0" y="0" width="44" height="41">
<path fill-rule="evenodd" clip-rule="evenodd" d="M6.60005 10.0002H0.734055C0.611064 10.0028 0.489227 9.97599 0.378746 9.92188C0.268266 9.86777 0.172358 9.78797 0.0990545 9.68918C0.0354008 9.59772 0.00103037 9.48908 0.000494641 9.37765C-4.10856e-05 9.26622 0.0332832 9.15725 0.0960545 9.06518L5.96205 0.315181C6.03522 0.21523 6.13142 0.134406 6.24249 0.0795683C6.35356 0.0247305 6.47621 -0.00250247 6.60005 0.000180699H43.2661C43.5291 0.000180699 43.7691 0.119181 43.9011 0.311181C44.0311 0.504181 44.0331 0.741181 43.9041 0.935181L38.0381 9.68518C37.9649 9.78513 37.8687 9.86595 37.7576 9.92079C37.6466 9.97563 37.5239 10.0029 37.4001 10.0002H43.2661C43.5291 10.0002 43.7691 10.1192 43.9011 10.3112C44.0311 10.5042 44.0331 10.7412 43.9041 10.9352L38.0381 19.6852C37.9649 19.7851 37.8687 19.866 37.7576 19.9208C37.6466 19.9756 37.5239 20.0029 37.4001 20.0002H43.2661C43.5291 20.0002 43.7691 20.1192 43.9011 20.3112C44.0311 20.5042 44.0331 20.7412 43.9041 20.9352L38.0381 29.6852C37.9649 29.7851 37.8687 29.866 37.7576 29.9208C37.6466 29.9756 37.5239 30.0029 37.4001 30.0002H43.2661C43.5291 30.0002 43.7691 30.1192 43.9011 30.3112C44.0311 30.5042 44.0331 30.7412 43.9041 30.9352L38.0381 39.6852C37.9649 39.7851 37.8687 39.866 37.7576 39.9208C37.6466 39.9756 37.5239 40.0029 37.4001 40.0002H0.734055C0.611064 40.0028 0.489227 39.976 0.378746 39.9219C0.268266 39.8678 0.172358 39.788 0.0990545 39.6892C0.0354008 39.5977 0.00103037 39.4891 0.000494641 39.3776C-4.10856e-05 39.2662 0.0332832 39.1572 0.0960545 39.0652L5.96205 30.3152C6.03522 30.2152 6.13142 30.1344 6.24249 30.0796C6.35356 30.0247 6.47621 29.9975 6.60005 30.0002H0.734055C0.611064 30.0028 0.489227 29.976 0.378746 29.9219C0.268266 29.8678 0.172358 29.788 0.0990545 29.6892C0.0354008 29.5977 0.00103037 29.4891 0.000494641 29.3776C-4.10856e-05 29.2662 0.0332832 29.1573 0.0960545 29.0652L5.96205 20.3152C6.03522 20.2152 6.13142 20.1344 6.24249 20.0796C6.35356 20.0247 6.47621 19.9975 6.60005 20.0002H0.734055C0.611064 20.0028 0.489227 19.976 0.378746 19.9219C0.268266 19.8678 0.172358 19.788 0.0990545 19.6892C0.0354008 19.5977 0.00103037 19.4891 0.000494641 19.3776C-4.10856e-05 19.2662 0.0332832 19.1573 0.0960545 19.0652L5.96205 10.3152C6.03522 10.2152 6.13142 10.1344 6.24249 10.0796C6.35356 10.0247 6.47621 9.9975 6.60005 10.0002Z" fill="#0B0D10"/>
</mask>
<g mask="url(#mask1_181_350)">
<g opacity="0.6" filter="url(#filter1_f_181_350)">
<path d="M43.5 10C64.2107 10 81 -7.23704 81 -28.5C81 -49.763 64.2107 -67 43.5 -67C22.7893 -67 6 -49.763 6 -28.5C6 -7.23704 22.7893 10 43.5 10Z" fill="#52B69A"/>
</g>
</g>
</g>
<defs>
<filter id="filter0_f_181_350" x="-18" y="-22.9971" width="69.1089" height="39.7061" filterUnits="userSpaceOnUse" color-interpolation-filters="sRGB">
<feFlood flood-opacity="0" result="BackgroundImageFix"/>
<feBlend mode="normal" in="SourceGraphic" in2="BackgroundImageFix" result="shape"/>
<feGaussianBlur stdDeviation="3.5" result="effect1_foregroundBlur_181_350"/>
</filter>
<filter id="filter1_f_181_350" x="-8" y="-81" width="103" height="105" filterUnits="userSpaceOnUse" color-interpolation-filters="sRGB">
<feFlood flood-opacity="0" result="BackgroundImageFix"/>
<feBlend mode="normal" in="SourceGraphic" in2="BackgroundImageFix" result="shape"/>
<feGaussianBlur stdDeviation="7" result="effect1_foregroundBlur_181_350"/>
</filter>
<clipPath id="clip0_181_350">
<rect width="44" height="40" fill="white"/>
</clipPath>
</defs>
</svg>
