<svg width="40" height="40" viewBox="0 0 40 40" fill="none" xmlns="http://www.w3.org/2000/svg">
<path opacity="0.6" d="M20 11.25C22.758 11.25 25 9.007 25 6.25C25 3.493 22.758 1.25 20 1.25C17.242 1.25 15 3.493 15 6.25C15 9.007 17.242 11.25 20 11.25Z" fill="#30CC71"/>
<path opacity="0.2" d="M33.75 11.25C36.508 11.25 38.75 9.007 38.75 6.25C38.75 3.493 36.508 1.25 33.75 1.25C30.992 1.25 28.75 3.493 28.75 6.25C28.75 9.007 30.992 11.25 33.75 11.25Z" fill="#30CC71"/>
<path opacity="0.6" d="M33.75 15C30.992 15 28.75 17.243 28.75 20C28.75 22.757 30.992 25 33.75 25C36.508 25 38.75 22.757 38.75 20C38.75 17.243 36.508 15 33.75 15ZM6.25 28.75C3.492 28.75 1.25 30.993 1.25 33.75C1.25 36.507 3.492 38.75 6.25 38.75C9.008 38.75 11.25 36.507 11.25 33.75C11.25 30.993 9.008 28.75 6.25 28.75Z" fill="#30CC71"/>
<path d="M33.75 28.75C31.427 28.75 29.486 30.35 28.927 32.5H24.823C24.5994 31.6403 24.1503 30.8559 23.5222 30.2278C22.8941 29.5997 22.1097 29.1506 21.25 28.927V24.823C23.4 24.263 25 22.323 25 20C25 17.243 22.758 15 20 15C17.677 15 15.736 16.6 15.178 18.75H11.072C10.8483 17.8906 10.3993 17.1065 9.7714 16.4786C9.14348 15.8507 8.35937 15.4017 7.5 15.178V11.072C9.65 10.514 11.25 8.572 11.25 6.25C11.25 3.493 9.008 1.25 6.25 1.25C3.492 1.25 1.25 3.493 1.25 6.25C1.25 8.573 2.85 10.514 5 11.073V15.178C2.85 15.736 1.25 17.678 1.25 20C1.25 22.757 3.492 25 6.25 25C8.573 25 10.514 23.4 11.073 21.25H15.178C15.4015 22.1096 15.8505 22.8939 16.4784 23.522C17.1063 24.1501 17.8905 24.5992 18.75 24.823V28.927C16.6 29.487 15 31.427 15 33.75C15 36.507 17.242 38.75 20 38.75C22.323 38.75 24.264 37.15 24.823 35H28.927C29.487 37.15 31.427 38.75 33.75 38.75C36.508 38.75 38.75 36.507 38.75 33.75C38.75 30.993 36.508 28.75 33.75 28.75Z" fill="#30CC71"/>
<mask id="mask0_181_284" style="mask-type:alpha" maskUnits="userSpaceOnUse" x="1" y="1" width="38" height="38">
<path d="M28.928 33H29.314L29.412 32.626C29.916 30.686 31.664 29.25 33.75 29.25C36.231 29.25 38.25 31.27 38.25 33.75C38.25 36.23 36.231 38.25 33.75 38.25C31.663 38.25 29.916 36.813 29.412 34.874L29.314 34.5H24.436L24.338 34.874C23.834 36.814 22.087 38.25 20 38.25C17.519 38.25 15.5 36.23 15.5 33.75C15.5 31.664 16.936 29.915 18.876 29.411L19.25 29.314V24.436L18.876 24.339C18.1025 24.1378 17.3967 23.7337 16.8315 23.1685C16.2663 22.6033 15.8622 21.8975 15.661 21.124L15.564 20.75H10.686L10.588 21.124C10.085 23.064 8.336 24.5 6.25 24.5C3.769 24.5 1.75 22.48 1.75 20C1.75 17.914 3.187 16.165 5.126 15.661L5.5 15.564V10.686L5.126 10.589C3.186 10.085 1.75 8.336 1.75 6.25C1.75 3.77 3.769 1.75 6.25 1.75C8.731 1.75 10.75 3.77 10.75 6.25C10.75 6.906 10.902 7.52 11.077 8.06C11.165 8.33 11.261 8.588 11.348 8.824L11.35 8.829C11.439 9.067 11.518 9.279 11.58 9.474C11.714 9.894 11.728 10.12 11.684 10.249C11.66 10.321 11.581 10.47 11.124 10.589L10.75 10.686V15.564L11.124 15.661C11.2216 15.6796 11.3148 15.7162 11.399 15.769C11.3931 15.8079 11.3834 15.846 11.37 15.883C11.3226 16.0086 11.2668 16.1309 11.203 16.249L11.12 16.406C10.9506 16.711 10.8041 17.0282 10.682 17.355C10.53 17.795 10.442 18.313 10.588 18.875L10.686 19.25H15.564L15.662 18.876C16.166 16.936 17.913 15.5 20 15.5C22.481 15.5 24.5 17.52 24.5 20C24.5 22.086 23.064 23.835 21.124 24.339L20.75 24.436V29.314L21.124 29.411C21.8975 29.6122 22.6033 30.0163 23.1685 30.5815C23.7337 31.1467 24.1378 31.8525 24.339 32.626L24.436 33H28.928ZM11.418 15.79C11.4167 15.79 11.4133 15.7853 11.408 15.776C11.4173 15.784 11.4207 15.7883 11.418 15.789V15.79Z" stroke="black"/>
</mask>
<g mask="url(#mask0_181_284)">
<g style="mix-blend-mode:overlay" filter="url(#filter0_f_181_284)">
<path d="M1.078 -8L9.77 -5.666L0.691 28.137L-8 25.802L1.078 -8Z" fill="white"/>
</g>
</g>
<mask id="mask1_181_284" style="mask-type:alpha" maskUnits="userSpaceOnUse" x="1" y="1" width="38" height="38">
<path fill-rule="evenodd" clip-rule="evenodd" d="M20 11.25C22.758 11.25 25 9.007 25 6.25C25 3.493 22.758 1.25 20 1.25C17.242 1.25 15 3.493 15 6.25C15 9.007 17.242 11.25 20 11.25ZM33.75 11.25C36.508 11.25 38.75 9.007 38.75 6.25C38.75 3.493 36.508 1.25 33.75 1.25C30.992 1.25 28.75 3.493 28.75 6.25C28.75 9.007 30.992 11.25 33.75 11.25ZM28.75 20C28.75 17.243 30.992 15 33.75 15C36.508 15 38.75 17.243 38.75 20C38.75 22.757 36.508 25 33.75 25C30.992 25 28.75 22.757 28.75 20ZM6.25 28.75C3.492 28.75 1.25 30.993 1.25 33.75C1.25 36.507 3.492 38.75 6.25 38.75C9.008 38.75 11.25 36.507 11.25 33.75C11.25 30.993 9.008 28.75 6.25 28.75ZM28.928 32.5C29.486 30.35 31.427 28.75 33.75 28.75C36.508 28.75 38.75 30.993 38.75 33.75C38.75 36.507 36.508 38.75 33.75 38.75C31.427 38.75 29.486 37.15 28.927 35H24.823C24.263 37.15 22.323 38.75 20 38.75C17.242 38.75 15 36.507 15 33.75C15 31.427 16.6 29.486 18.75 28.927V24.823C17.8905 24.5992 17.1063 24.1501 16.4784 23.522C15.8505 22.8939 15.4015 22.1096 15.178 21.25H11.072C10.515 23.4 8.574 25 6.25 25C3.492 25 1.25 22.757 1.25 20C1.25 17.677 2.85 15.736 5 15.178V11.072C2.85 10.514 1.25 8.572 1.25 6.25C1.25 3.493 3.492 1.25 6.25 1.25C9.008 1.25 11.25 3.493 11.25 6.25C11.25 8.573 9.65 10.514 7.5 11.073V15.178C8.35956 15.4015 9.14387 15.8505 9.77198 16.4784C10.4001 17.1063 10.8492 17.8905 11.073 18.75H15.178C15.736 16.6 17.677 15 20 15C22.758 15 25 17.243 25 20C25 22.323 23.4 24.264 21.25 24.823V28.927C22.1097 29.1506 22.8941 29.5997 23.5222 30.2278C24.1503 30.8559 24.5994 31.6403 24.823 32.5H28.928Z" fill="#0B0D10"/>
</mask>
<g mask="url(#mask1_181_284)">
<g opacity="0.6" filter="url(#filter1_f_181_284)">
<path d="M-14.5 17C-0.41674 17 11 5.58326 11 -8.5C11 -22.5833 -0.41674 -34 -14.5 -34C-28.5833 -34 -40 -22.5833 -40 -8.5C-40 5.58326 -28.5833 17 -14.5 17Z" fill="#28B665"/>
</g>
</g>
<defs>
<filter id="filter0_f_181_284" x="-12" y="-12" width="25.77" height="44.1372" filterUnits="userSpaceOnUse" color-interpolation-filters="sRGB">
<feFlood flood-opacity="0" result="BackgroundImageFix"/>
<feBlend mode="normal" in="SourceGraphic" in2="BackgroundImageFix" result="shape"/>
<feGaussianBlur stdDeviation="2" result="effect1_foregroundBlur_181_284"/>
</filter>
<filter id="filter1_f_181_284" x="-54" y="-48" width="79" height="79" filterUnits="userSpaceOnUse" color-interpolation-filters="sRGB">
<feFlood flood-opacity="0" result="BackgroundImageFix"/>
<feBlend mode="normal" in="SourceGraphic" in2="BackgroundImageFix" result="shape"/>
<feGaussianBlur stdDeviation="7" result="effect1_foregroundBlur_181_284"/>
</filter>
</defs>
</svg>
