<svg width="40" height="40" viewBox="0 0 40 40" fill="none" xmlns="http://www.w3.org/2000/svg">
<g clip-path="url(#clip0_181_371)">
<path opacity="0.2" d="M35 0H5C2.23858 0 0 2.23858 0 5V35C0 37.7614 2.23858 40 5 40H35C37.7614 40 40 37.7614 40 35V5C40 2.23858 37.7614 0 35 0Z" fill="#168AAD"/>
<path fill-rule="evenodd" clip-rule="evenodd" d="M20 35C28.284 35 35 28.284 35 20C35 11.716 28.284 5 20 5C11.716 5 5 11.716 5 20C5 28.284 11.716 35 20 35ZM23.372 23.93C23.4978 23.8796 23.6121 23.8041 23.7078 23.7082C23.8036 23.6123 23.8788 23.4979 23.929 23.372L28.361 12.288C28.3974 12.1971 28.4063 12.0976 28.3866 12.0017C28.3669 11.9058 28.3196 11.8178 28.2504 11.7486C28.1812 11.6794 28.0932 11.6321 27.9973 11.6124C27.9014 11.5927 27.8019 11.6016 27.711 11.638L16.628 16.071C16.5023 16.1213 16.3881 16.1966 16.2923 16.2923C16.1966 16.3881 16.1213 16.5023 16.071 16.628L11.638 27.712C11.6016 27.8029 11.5927 27.9024 11.6124 27.9983C11.6321 28.0942 11.6794 28.1822 11.7486 28.2514C11.8178 28.3206 11.9058 28.3679 12.0017 28.3876C12.0976 28.4073 12.1971 28.3984 12.288 28.362L23.372 23.93Z" fill="#168AAD"/>
<mask id="mask0_181_371" style="mask-type:alpha" maskUnits="userSpaceOnUse" x="5" y="5" width="30" height="30">
<path d="M20 34.5C28.0081 34.5 34.5 28.0081 34.5 20C34.5 11.9919 28.0081 5.5 20 5.5C11.9919 5.5 5.5 11.9919 5.5 20C5.5 28.0081 11.9919 34.5 20 34.5Z" stroke="black"/>
</mask>
<g mask="url(#mask0_181_371)">
<g style="mix-blend-mode:overlay" filter="url(#filter0_f_181_371)">
<path d="M33.5 20C41.5081 20 48 13.2843 48 5C48 -3.28427 41.5081 -10 33.5 -10C25.4919 -10 19 -3.28427 19 5C19 13.2843 25.4919 20 33.5 20Z" fill="white"/>
</g>
</g>
<path d="M20 22C20.5304 22 21.0391 21.7893 21.4142 21.4142C21.7893 21.0391 22 20.5304 22 20C22 19.4696 21.7893 18.9609 21.4142 18.5858C21.0391 18.2107 20.5304 18 20 18C19.4696 18 18.9609 18.2107 18.5858 18.5858C18.2107 18.9609 18 19.4696 18 20C18 20.5304 18.2107 21.0391 18.5858 21.4142C18.9609 21.7893 19.4696 22 20 22Z" fill="#168AAD"/>
<mask id="mask1_181_371" style="mask-type:alpha" maskUnits="userSpaceOnUse" x="5" y="5" width="30" height="30">
<path fill-rule="evenodd" clip-rule="evenodd" d="M20 35C28.284 35 35 28.284 35 20C35 11.716 28.284 5 20 5C11.716 5 5 11.716 5 20C5 28.284 11.716 35 20 35ZM23.372 23.93C23.4978 23.8796 23.6121 23.8041 23.7078 23.7082C23.8036 23.6123 23.8788 23.4979 23.929 23.372L28.361 12.288C28.3974 12.1971 28.4063 12.0976 28.3866 12.0017C28.3669 11.9058 28.3196 11.8178 28.2504 11.7486C28.1812 11.6794 28.0932 11.6321 27.9973 11.6124C27.9014 11.5927 27.8019 11.6016 27.711 11.638L16.628 16.071C16.5023 16.1213 16.3881 16.1966 16.2923 16.2923C16.1966 16.3881 16.1213 16.5023 16.071 16.628L11.638 27.712C11.6016 27.8029 11.5927 27.9024 11.6124 27.9983C11.6321 28.0942 11.6794 28.1822 11.7486 28.2514C11.8178 28.3206 11.9058 28.3679 12.0017 28.3876C12.0976 28.4073 12.1971 28.3984 12.288 28.362L23.372 23.93Z" fill="#0B0D10"/>
</mask>
<g mask="url(#mask1_181_371)">
<g opacity="0.6" filter="url(#filter1_f_181_371)">
<path d="M40 26C52.1503 26 62 15.9264 62 3.5C62 -8.92641 52.1503 -19 40 -19C27.8497 -19 18 -8.92641 18 3.5C18 15.9264 27.8497 26 40 26Z" fill="#52B69A"/>
</g>
</g>
</g>
<defs>
<filter id="filter0_f_181_371" x="-1" y="-30" width="69" height="70" filterUnits="userSpaceOnUse" color-interpolation-filters="sRGB">
<feFlood flood-opacity="0" result="BackgroundImageFix"/>
<feBlend mode="normal" in="SourceGraphic" in2="BackgroundImageFix" result="shape"/>
<feGaussianBlur stdDeviation="10" result="effect1_foregroundBlur_181_371"/>
</filter>
<filter id="filter1_f_181_371" x="4" y="-33" width="72" height="73" filterUnits="userSpaceOnUse" color-interpolation-filters="sRGB">
<feFlood flood-opacity="0" result="BackgroundImageFix"/>
<feBlend mode="normal" in="SourceGraphic" in2="BackgroundImageFix" result="shape"/>
<feGaussianBlur stdDeviation="7" result="effect1_foregroundBlur_181_371"/>
</filter>
<clipPath id="clip0_181_371">
<rect width="40" height="40" fill="white"/>
</clipPath>
</defs>
</svg>
