<svg width="40" height="40" viewBox="0 0 40 40" fill="none" xmlns="http://www.w3.org/2000/svg">
<g clip-path="url(#clip0_181_326)">
<path d="M10.5 12H1.5C1.10218 12 0.720644 11.842 0.43934 11.5607C0.158035 11.2794 0 10.8978 0 10.5L0 1.5C0 1.10218 0.158035 0.720644 0.43934 0.43934C0.720644 0.158035 1.10218 0 1.5 0L10.5 0C10.8978 0 11.2794 0.158035 11.5607 0.43934C11.842 0.720644 12 1.10218 12 1.5V10.5C12 10.8978 11.842 11.2794 11.5607 11.5607C11.2794 11.842 10.8978 12 10.5 12Z" fill="#30CC71"/>
<mask id="mask0_181_326" style="mask-type:alpha" maskUnits="userSpaceOnUse" x="0" y="0" width="12" height="12">
<path d="M10.5 11.5H1.5C1.23478 11.5 0.98043 11.3946 0.792893 11.2071C0.605357 11.0196 0.5 10.7652 0.5 10.5V1.5C0.5 1.23478 0.605357 0.98043 0.792893 0.792893C0.98043 0.605357 1.23478 0.5 1.5 0.5H10.5C10.7652 0.5 11.0196 0.605357 11.2071 0.792893C11.3946 0.98043 11.5 1.23478 11.5 1.5V10.5C11.5 10.7652 11.3946 11.0196 11.2071 11.2071C11.0196 11.3946 10.7652 11.5 10.5 11.5Z" stroke="black"/>
</mask>
<g mask="url(#mask0_181_326)">
<g style="mix-blend-mode:overlay" filter="url(#filter0_f_181_326)">
<path d="M-3 8C3.07513 8 8 3.07513 8 -3C8 -9.07513 3.07513 -14 -3 -14C-9.07513 -14 -14 -9.07513 -14 -3C-14 3.07513 -9.07513 8 -3 8Z" fill="white"/>
</g>
</g>
<path opacity="0.8" d="M24.5 12H15.5C15.1022 12 14.7206 11.842 14.4393 11.5607C14.158 11.2794 14 10.8978 14 10.5V1.5C14 1.10218 14.158 0.720644 14.4393 0.43934C14.7206 0.158035 15.1022 0 15.5 0L24.5 0C24.8978 0 25.2794 0.158035 25.5607 0.43934C25.842 0.720644 26 1.10218 26 1.5V10.5C26 10.8978 25.842 11.2794 25.5607 11.5607C25.2794 11.842 24.8978 12 24.5 12Z" fill="#30CC71"/>
<path opacity="0.6" d="M24.5 26H15.5C15.1022 26 14.7206 25.842 14.4393 25.5607C14.158 25.2794 14 24.8978 14 24.5V15.5C14 15.1022 14.158 14.7206 14.4393 14.4393C14.7206 14.158 15.1022 14 15.5 14H24.5C24.8978 14 25.2794 14.158 25.5607 14.4393C25.842 14.7206 26 15.1022 26 15.5V24.5C26 24.8978 25.842 25.2794 25.5607 25.5607C25.2794 25.842 24.8978 26 24.5 26ZM38.5 12H29.5C29.1022 12 28.7206 11.842 28.4393 11.5607C28.158 11.2794 28 10.8978 28 10.5V1.5C28 1.10218 28.158 0.720644 28.4393 0.43934C28.7206 0.158035 29.1022 0 29.5 0L38.5 0C38.8978 0 39.2794 0.158035 39.5607 0.43934C39.842 0.720644 40 1.10218 40 1.5V10.5C40 10.8978 39.842 11.2794 39.5607 11.5607C39.2794 11.842 38.8978 12 38.5 12Z" fill="#30CC71"/>
<path opacity="0.8" d="M10.5 26H1.5C1.10218 26 0.720644 25.842 0.43934 25.5607C0.158035 25.2794 0 24.8978 0 24.5L0 15.5C0 15.1022 0.158035 14.7206 0.43934 14.4393C0.720644 14.158 1.10218 14 1.5 14H10.5C10.8978 14 11.2794 14.158 11.5607 14.4393C11.842 14.7206 12 15.1022 12 15.5V24.5C12 24.8978 11.842 25.2794 11.5607 25.5607C11.2794 25.842 10.8978 26 10.5 26Z" fill="#30CC71"/>
<path opacity="0.6" d="M10.5 40H1.5C1.10218 40 0.720644 39.842 0.43934 39.5607C0.158035 39.2794 0 38.8978 0 38.5L0 29.5C0 29.1022 0.158035 28.7206 0.43934 28.4393C0.720644 28.158 1.10218 28 1.5 28H10.5C10.8978 28 11.2794 28.158 11.5607 28.4393C11.842 28.7206 12 29.1022 12 29.5V38.5C12 38.8978 11.842 39.2794 11.5607 39.5607C11.2794 39.842 10.8978 40 10.5 40Z" fill="#30CC71"/>
<path opacity="0.4" d="M37 24H31C30.7348 24 30.4804 23.8946 30.2929 23.7071C30.1054 23.5196 30 23.2652 30 23V17C30 16.7348 30.1054 16.4804 30.2929 16.2929C30.4804 16.1054 30.7348 16 31 16H37C37.2652 16 37.5196 16.1054 37.7071 16.2929C37.8946 16.4804 38 16.7348 38 17V23C38 23.2652 37.8946 23.5196 37.7071 23.7071C37.5196 23.8946 37.2652 24 37 24ZM23 39H17C16.7348 39 16.4804 38.8946 16.2929 38.7071C16.1054 38.5196 16 38.2652 16 38V32C16 31.7348 16.1054 31.4804 16.2929 31.2929C16.4804 31.1054 16.7348 31 17 31H23C23.2652 31 23.5196 31.1054 23.7071 31.2929C23.8946 31.4804 24 31.7348 24 32V38C24 38.2652 23.8946 38.5196 23.7071 38.7071C23.5196 38.8946 23.2652 39 23 39Z" fill="#30CC71"/>
<path opacity="0.2" d="M37 39H31C30.7348 39 30.4804 38.8946 30.2929 38.7071C30.1054 38.5196 30 38.2652 30 38V32C30 31.7348 30.1054 31.4804 30.2929 31.2929C30.4804 31.1054 30.7348 31 31 31H37C37.2652 31 37.5196 31.1054 37.7071 31.2929C37.8946 31.4804 38 31.7348 38 32V38C38 38.2652 37.8946 38.5196 37.7071 38.7071C37.5196 38.8946 37.2652 39 37 39Z" fill="#30CC71"/>
<mask id="mask1_181_326" style="mask-type:alpha" maskUnits="userSpaceOnUse" x="0" y="0" width="40" height="40">
<path fill-rule="evenodd" clip-rule="evenodd" d="M10.5 12H1.5C1.10218 12 0.720644 11.842 0.43934 11.5607C0.158035 11.2794 0 10.8978 0 10.5L0 1.5C0 1.10218 0.158035 0.720644 0.43934 0.43934C0.720644 0.158035 1.10218 0 1.5 0L10.5 0C10.8978 0 11.2794 0.158035 11.5607 0.43934C11.842 0.720644 12 1.10218 12 1.5V10.5C12 10.8978 11.842 11.2794 11.5607 11.5607C11.2794 11.842 10.8978 12 10.5 12ZM24.5 12H15.5C15.1022 12 14.7206 11.842 14.4393 11.5607C14.158 11.2794 14 10.8978 14 10.5V1.5C14 1.10218 14.158 0.720644 14.4393 0.43934C14.7206 0.158035 15.1022 0 15.5 0L24.5 0C24.8978 0 25.2794 0.158035 25.5607 0.43934C25.842 0.720644 26 1.10218 26 1.5V10.5C26 10.8978 25.842 11.2794 25.5607 11.5607C25.2794 11.842 24.8978 12 24.5 12ZM15.5 26H24.5C24.8978 26 25.2794 25.842 25.5607 25.5607C25.842 25.2794 26 24.8978 26 24.5V15.5C26 15.1022 25.842 14.7206 25.5607 14.4393C25.2794 14.158 24.8978 14 24.5 14H15.5C15.1022 14 14.7206 14.158 14.4393 14.4393C14.158 14.7206 14 15.1022 14 15.5V24.5C14 24.8978 14.158 25.2794 14.4393 25.5607C14.7206 25.842 15.1022 26 15.5 26ZM38.5 12H29.5C29.1022 12 28.7206 11.842 28.4393 11.5607C28.158 11.2794 28 10.8978 28 10.5V1.5C28 1.10218 28.158 0.720644 28.4393 0.43934C28.7206 0.158035 29.1022 0 29.5 0L38.5 0C38.8978 0 39.2794 0.158035 39.5607 0.43934C39.842 0.720644 40 1.10218 40 1.5V10.5C40 10.8978 39.842 11.2794 39.5607 11.5607C39.2794 11.842 38.8978 12 38.5 12ZM1.5 26H10.5C10.8978 26 11.2794 25.842 11.5607 25.5607C11.842 25.2794 12 24.8978 12 24.5V15.5C12 15.1022 11.842 14.7206 11.5607 14.4393C11.2794 14.158 10.8978 14 10.5 14H1.5C1.10218 14 0.720644 14.158 0.43934 14.4393C0.158035 14.7206 0 15.1022 0 15.5L0 24.5C0 24.8978 0.158035 25.2794 0.43934 25.5607C0.720644 25.842 1.10218 26 1.5 26ZM10.5 40H1.5C1.10218 40 0.720644 39.842 0.43934 39.5607C0.158035 39.2794 0 38.8978 0 38.5L0 29.5C0 29.1022 0.158035 28.7206 0.43934 28.4393C0.720644 28.158 1.10218 28 1.5 28H10.5C10.8978 28 11.2794 28.158 11.5607 28.4393C11.842 28.7206 12 29.1022 12 29.5V38.5C12 38.8978 11.842 39.2794 11.5607 39.5607C11.2794 39.842 10.8978 40 10.5 40ZM31 24H37C37.2652 24 37.5196 23.8946 37.7071 23.7071C37.8946 23.5196 38 23.2652 38 23V17C38 16.7348 37.8946 16.4804 37.7071 16.2929C37.5196 16.1054 37.2652 16 37 16H31C30.7348 16 30.4804 16.1054 30.2929 16.2929C30.1054 16.4804 30 16.7348 30 17V23C30 23.2652 30.1054 23.5196 30.2929 23.7071C30.4804 23.8946 30.7348 24 31 24ZM23 39H17C16.7348 39 16.4804 38.8946 16.2929 38.7071C16.1054 38.5196 16 38.2652 16 38V32C16 31.7348 16.1054 31.4804 16.2929 31.2929C16.4804 31.1054 16.7348 31 17 31H23C23.2652 31 23.5196 31.1054 23.7071 31.2929C23.8946 31.4804 24 31.7348 24 32V38C24 38.2652 23.8946 38.5196 23.7071 38.7071C23.5196 38.8946 23.2652 39 23 39ZM31 39H37C37.2652 39 37.5196 38.8946 37.7071 38.7071C37.8946 38.5196 38 38.2652 38 38V32C38 31.7348 37.8946 31.4804 37.7071 31.2929C37.5196 31.1054 37.2652 31 37 31H31C30.7348 31 30.4804 31.1054 30.2929 31.2929C30.1054 31.4804 30 31.7348 30 32V38C30 38.2652 30.1054 38.5196 30.2929 38.7071C30.4804 38.8946 30.7348 39 31 39Z" fill="#5ED489"/>
</mask>
<g mask="url(#mask1_181_326)">
<g opacity="0.8" filter="url(#filter1_f_181_326)">
<path d="M28 10C45.6731 10 60 -4.55074 60 -22.5C60 -40.4493 45.6731 -55 28 -55C10.3269 -55 -4 -40.4493 -4 -22.5C-4 -4.55074 10.3269 10 28 10Z" fill="#28B665"/>
</g>
</g>
</g>
<defs>
<filter id="filter0_f_181_326" x="-25" y="-25" width="44" height="44" filterUnits="userSpaceOnUse" color-interpolation-filters="sRGB">
<feFlood flood-opacity="0" result="BackgroundImageFix"/>
<feBlend mode="normal" in="SourceGraphic" in2="BackgroundImageFix" result="shape"/>
<feGaussianBlur stdDeviation="5.5" result="effect1_foregroundBlur_181_326"/>
</filter>
<filter id="filter1_f_181_326" x="-14" y="-65" width="84" height="85" filterUnits="userSpaceOnUse" color-interpolation-filters="sRGB">
<feFlood flood-opacity="0" result="BackgroundImageFix"/>
<feBlend mode="normal" in="SourceGraphic" in2="BackgroundImageFix" result="shape"/>
<feGaussianBlur stdDeviation="5" result="effect1_foregroundBlur_181_326"/>
</filter>
<clipPath id="clip0_181_326">
<rect width="40" height="40" fill="white"/>
</clipPath>
</defs>
</svg>
