<svg width="38" height="40" viewBox="0 0 38 40" fill="none" xmlns="http://www.w3.org/2000/svg">
<g clip-path="url(#clip0_181_265)">
<path opacity="0.6" d="M5.5 36H24C29.799 36 34.5 31.299 34.5 25.5C34.5 19.701 29.799 15 24 15H13.845" stroke="#30CC71" stroke-width="6" stroke-linecap="round"/>
<path d="M32.5 4.5H14C8.201 4.5 3.5 9.201 3.5 15C3.5 20.799 8.201 25.5 14 25.5H24.042" stroke="#30CC71" stroke-width="6" stroke-linecap="round"/>
<mask id="mask0_181_265" style="mask-type:alpha" maskUnits="userSpaceOnUse" x="0" y="1" width="36" height="28">
<path opacity="0.6" d="M6 15C6 12.8783 6.84285 10.8434 8.34315 9.34315C9.84344 7.84285 11.8783 7 14 7H32.5C33.163 7 33.7989 6.73661 34.2678 6.26777C34.7366 5.79893 35 5.16304 35 4.5C35 3.83696 34.7366 3.20107 34.2678 2.73223C33.7989 2.26339 33.163 2 32.5 2H14C6.82 2 1 7.82 1 15C1 22.18 6.82 28 14 28H24.042C24.705 28 25.3409 27.7366 25.8098 27.2678C26.2786 26.7989 26.542 26.163 26.542 25.5C26.542 24.837 26.2786 24.2011 25.8098 23.7322C25.3409 23.2634 24.705 23 24.042 23H14C11.8783 23 9.84344 22.1571 8.34315 20.6569C6.84285 19.1566 6 17.1217 6 15Z" stroke="black" stroke-linecap="round"/>
</mask>
<g mask="url(#mask0_181_265)">
<g style="mix-blend-mode:overlay" filter="url(#filter0_f_181_265)">
<path d="M5.77697 8.35411C1.13797 15.2171 4.14597 25.9591 -2.48903 21.4741C-9.12403 16.9921 -10.742 7.79211 -6.10303 0.929114C-1.46303 -5.93589 7.67497 -7.86489 14.31 -3.37989C20.945 1.10511 10.416 1.49011 5.77697 8.35411Z" fill="white"/>
</g>
</g>
<mask id="mask1_181_265" style="mask-type:alpha" maskUnits="userSpaceOnUse" x="0" y="1" width="38" height="38">
<path fill-rule="evenodd" clip-rule="evenodd" d="M14 7.5C12.0109 7.5 10.1032 8.29018 8.6967 9.6967C7.29018 11.1032 6.5 13.0109 6.5 15C6.5 16.9891 7.29018 18.8968 8.6967 20.3033C10.1032 21.7098 12.0109 22.5 14 22.5H24.042C24.8376 22.5 25.6007 22.8161 26.1633 23.3787C26.7259 23.9413 27.042 24.7044 27.042 25.5C27.042 26.2956 26.7259 27.0587 26.1633 27.6213C25.6007 28.1839 24.8376 28.5 24.042 28.5H14C6.544 28.5 0.5 22.456 0.5 15C0.5 7.544 6.544 1.5 14 1.5H32.5C33.2957 1.5 34.0587 1.81607 34.6213 2.37868C35.1839 2.94129 35.5 3.70435 35.5 4.5C35.5 5.29565 35.1839 6.05871 34.6213 6.62132C34.0587 7.18393 33.2957 7.5 32.5 7.5H14ZM24 33C25.9891 33 27.8968 32.2098 29.3033 30.8033C30.7098 29.3968 31.5 27.4891 31.5 25.5C31.5 23.5109 30.7098 21.6032 29.3033 20.1967C27.8968 18.7902 25.9891 18 24 18H13.845C13.0494 18 12.2863 17.6839 11.7237 17.1213C11.1611 16.5587 10.845 15.7956 10.845 15C10.845 14.2044 11.1611 13.4413 11.7237 12.8787C12.2863 12.3161 13.0494 12 13.845 12H24C31.456 12 37.5 18.044 37.5 25.5C37.5 32.956 31.456 39 24 39H5.5C4.70435 39 3.94129 38.6839 3.37868 38.1213C2.81607 37.5587 2.5 36.7957 2.5 36C2.5 35.2043 2.81607 34.4413 3.37868 33.8787C3.94129 33.3161 4.70435 33 5.5 33H24Z" fill="#5ED489"/>
</mask>
<g mask="url(#mask1_181_265)">
<g filter="url(#filter1_f_181_265)">
<path d="M56 23C77.8152 23 95.5 11.5833 95.5 -2.5C95.5 -16.5833 77.8152 -28 56 -28C34.1848 -28 16.5 -16.5833 16.5 -2.5C16.5 11.5833 34.1848 23 56 23Z" fill="#28B665"/>
</g>
</g>
</g>
<defs>
<filter id="filter0_f_181_265" x="-11.7495" y="-8.79932" width="31.1943" height="34.3354" filterUnits="userSpaceOnUse" color-interpolation-filters="sRGB">
<feFlood flood-opacity="0" result="BackgroundImageFix"/>
<feBlend mode="normal" in="SourceGraphic" in2="BackgroundImageFix" result="shape"/>
<feGaussianBlur stdDeviation="1.5" result="effect1_foregroundBlur_181_265"/>
</filter>
<filter id="filter1_f_181_265" x="2.5" y="-42" width="107" height="79" filterUnits="userSpaceOnUse" color-interpolation-filters="sRGB">
<feFlood flood-opacity="0" result="BackgroundImageFix"/>
<feBlend mode="normal" in="SourceGraphic" in2="BackgroundImageFix" result="shape"/>
<feGaussianBlur stdDeviation="7" result="effect1_foregroundBlur_181_265"/>
</filter>
<clipPath id="clip0_181_265">
<rect width="37" height="40" fill="white" transform="translate(0.5)"/>
</clipPath>
</defs>
</svg>
