<svg width="1440" height="717" viewBox="0 0 1440 717" fill="none" xmlns="http://www.w3.org/2000/svg">
<path d="M-111.999 677.056C-111.999 677.056 -99.3046 684.528 -95.6609 696.705C-92.0171 708.974 -78.5001 716.908 -78.5001 716.908M-111.999 643.846C-111.999 643.846 -68.509 654.362 -56.99 680.838C-45.9412 706.576 -1.27587 717 -1.27587 717M-112 610.636C-112 610.636 -37.7144 624.197 -18.4378 664.879C0.25114 704.085 75.9472 717 75.9472 717M-112 577.333C-112 577.333 -7.03602 594.031 20.2334 648.919C46.2098 701.594 153.172 717 153.172 717M-111.999 544.123C-111.999 544.123 23.7602 563.865 58.7872 632.96C92.2862 699.196 230.279 717 230.279 717M-112 510.821C-112 510.821 54.555 533.607 97.4573 617.001C138.479 696.705 307.502 717 307.502 717M-111.999 477.611C-111.999 477.611 85.2337 503.533 136.011 601.042C184.438 694.214 384.609 717 384.609 717M-111.999 444.401C-111.999 444.401 116.029 473.368 174.682 585.175C230.631 691.816 461.95 717 461.95 717M-111.999 411.099C-111.999 411.099 146.825 443.11 213.353 569.123C276.707 689.325 539.175 717 539.175 717M-111.999 377.889C-111.999 377.889 177.503 412.944 251.906 553.256C322.783 686.834 616.399 717 616.399 717M-111.999 344.679C-111.999 344.679 208.298 382.87 290.577 537.297C368.858 684.436 693.505 717 693.505 717M-111.999 311.376C-111.999 311.376 239.094 352.612 329.13 521.337C414.934 681.945 770.729 717 770.729 717M-111.999 278.167C-111.999 278.167 269.772 322.446 367.801 505.378C461.011 679.546 847.954 717 847.954 717M-112 244.957C-112 244.957 300.567 292.281 406.353 489.419C507.085 677.055 925.177 717 925.177 717M-111.999 211.655C-111.999 211.655 331.363 262.115 445.025 473.46C553.162 674.565 1002.28 717 1002.28 717M-111.999 178.445C-111.999 178.445 362.042 231.95 483.578 457.501C599.238 672.166 1079.51 717 1079.51 717M-112 145.235C-112 145.235 392.836 201.784 522.248 441.634C645.313 669.676 1156.73 717 1156.73 717M-112 111.932C-112 111.932 423.632 171.618 560.919 425.582C691.389 667.185 1233.96 717 1233.96 717M-111.999 78.7223C-111.999 78.7223 454.31 141.452 599.473 409.715C737.465 664.786 1311.18 717 1311.18 717M-112 45.5123C-112 45.5123 485.105 111.287 638.143 393.756C783.54 662.296 1388.29 717 1388.29 717M-112 12.21C-112 12.21 515.901 81.0285 676.696 377.797C829.734 659.805 1465.51 717 1465.51 717M-111.999 -21C-111.999 -21 546.579 50.955 715.367 361.837C875.81 657.406 1542.73 717 1542.73 717" stroke="url(#paint0_radial_181_259)"/>
<defs>
<radialGradient id="paint0_radial_181_259" cx="0" cy="0" r="1" gradientUnits="userSpaceOnUse" gradientTransform="translate(506.694 380.695) rotate(151.423) scale(381.124 335.594)">
<stop stop-color="#28B665" stop-opacity="0.1"/>
<stop offset="0.552643" stop-color="#30CC71" stop-opacity="0.06"/>
<stop offset="1" stop-color="#30CC71" stop-opacity="0.02"/>
</radialGradient>
</defs>
</svg>
