<svg width="1200" height="217" viewBox="0 0 1200 217" fill="none" xmlns="http://www.w3.org/2000/svg">
<path d="M0.000854492 332.453C0.000854492 332.453 12.6954 338.526 16.3391 348.423C19.9829 358.395 33.4999 364.842 33.4999 364.842M0.000976562 305.462C0.000976562 305.462 43.4911 314.01 55.01 335.527C66.0588 356.445 110.724 364.917 110.724 364.917M0 278.472C0 278.472 74.2856 289.493 93.5623 322.557C112.251 354.421 187.947 364.917 187.947 364.917M0.000488281 251.406C0.000488281 251.406 104.964 264.976 132.233 309.586C158.21 352.397 265.172 364.917 265.172 364.917M0.000976562 224.415C0.000976562 224.415 135.76 240.459 170.787 296.615C204.286 350.447 342.279 364.917 342.279 364.917M0.00012207 197.349C0.00012207 197.349 166.555 215.868 209.457 283.645C250.479 348.423 419.502 364.917 419.502 364.917M0.000854492 170.358C0.000854492 170.358 197.234 191.426 248.011 270.674C296.438 346.398 496.609 364.917 496.609 364.917M0.000610352 143.367C0.000610352 143.367 228.029 166.909 286.682 257.778C342.631 344.449 573.95 364.917 573.95 364.917M0.000854492 116.301C0.000854492 116.301 258.825 142.317 325.353 244.733C388.707 342.425 651.175 364.917 651.175 364.917M0.00109863 89.3102C0.00109863 89.3102 289.503 117.801 363.906 231.837C434.783 340.401 728.399 364.917 728.399 364.917M0.000610352 62.3193C0.000610352 62.3193 320.298 93.3589 402.577 218.867C480.858 338.451 805.505 364.917 805.505 364.917M0.000854492 35.2533C0.000854492 35.2533 351.094 68.767 441.13 205.896C526.934 336.427 882.729 364.917 882.729 364.917M0.000976562 8.26246C0.000976562 8.26246 381.772 44.2503 479.801 192.925C573.011 334.477 959.953 364.917 959.953 364.917M0.00012207 -18.7284C0.00012207 -18.7284 412.567 19.7336 518.353 179.955C619.086 332.453 1037.18 364.917 1037.18 364.917M0.000854492 -45.794C0.000854492 -45.794 443.363 -4.78285 557.025 166.984C665.162 330.429 1114.28 364.917 1114.28 364.917M0.000976562 -72.7849C0.000976562 -72.7849 474.041 -29.2996 595.578 154.014C711.238 328.48 1191.51 364.917 1191.51 364.917M0.00012207 -99.7758C0.00012207 -99.7758 504.836 -53.8163 634.248 141.118C757.313 326.455 1268.73 364.917 1268.73 364.917M0.000366211 -126.842C0.000366211 -126.842 535.632 -78.3331 672.919 128.072C803.389 324.431 1345.96 364.917 1345.96 364.917M0.000610352 -153.833C0.000610352 -153.833 566.31 -102.85 711.473 115.177C849.465 322.482 1423.18 364.917 1423.18 364.917M0.00012207 -180.824C0.00012207 -180.824 597.105 -127.367 750.143 102.206C895.54 320.457 1500.29 364.917 1500.29 364.917M0.000488281 -207.889C0.000488281 -207.889 627.901 -151.958 788.696 89.2353C941.734 318.433 1577.51 364.917 1577.51 364.917M0.000610352 -234.88C0.000610352 -234.88 658.579 -176.4 827.367 76.2647C987.81 316.484 1654.73 364.917 1654.73 364.917" stroke="url(#paint0_radial_877_73110)"/>
<defs>
<radialGradient id="paint0_radial_877_73110" cx="0" cy="0" r="1" gradientUnits="userSpaceOnUse" gradientTransform="translate(618.694 91.5907) rotate(156.122) scale(366.023 284.001)">
<stop stop-color="#56E893" stop-opacity="0.1"/>
<stop offset="0.552643" stop-color="#0DAB4E" stop-opacity="0.06"/>
<stop offset="1" stop-color="#30CC71" stop-opacity="0.02"/>
</radialGradient>
</defs>
</svg>
