<svg width="60" height="40" viewBox="0 0 60 40" fill="none" xmlns="http://www.w3.org/2000/svg">
<g clip-path="url(#clip0_181_305)">
<path opacity="0.2" fill-rule="evenodd" clip-rule="evenodd" d="M38.3831 34.3859L40.9691 36.9719C41.3441 37.3468 41.8527 37.5575 42.3831 37.5575C42.9134 37.5575 43.422 37.3468 43.7971 36.9719L59.3531 21.4159C59.5389 21.2302 59.6863 21.0096 59.7868 20.7669C59.8874 20.5242 59.9391 20.2641 59.9391 20.0014C59.9391 19.7387 59.8874 19.4785 59.7868 19.2358C59.6863 18.9931 59.5389 18.7726 59.3531 18.5869L43.7971 3.03089C43.422 2.65594 42.9134 2.44531 42.3831 2.44531C41.8527 2.44531 41.3441 2.65594 40.9691 3.03089L38.3831 5.61689L51.3531 18.5869C51.5389 18.7726 51.6863 18.9931 51.7868 19.2358C51.8874 19.4785 51.9391 19.7387 51.9391 20.0014C51.9391 20.2641 51.8874 20.5242 51.7868 20.7669C51.6863 21.0096 51.5389 21.2302 51.3531 21.4159L38.3831 34.3859Z" fill="#168AAD"/>
<path opacity="0.4" fill-rule="evenodd" clip-rule="evenodd" d="M30.3831 34.3859L32.9691 36.9719C33.3441 37.3468 33.8527 37.5575 34.3831 37.5575C34.9134 37.5575 35.422 37.3468 35.7971 36.9719L51.3531 21.4159C51.5389 21.2302 51.6863 21.0096 51.7868 20.7669C51.8874 20.5242 51.9391 20.2641 51.9391 20.0014C51.9391 19.7387 51.8874 19.4785 51.7868 19.2358C51.6863 18.9931 51.5389 18.7726 51.3531 18.5869L35.7971 3.03089C35.422 2.65594 34.9134 2.44531 34.3831 2.44531C33.8527 2.44531 33.3441 2.65594 32.9691 3.03089L30.3831 5.61689L43.3531 18.5869C43.5389 18.7726 43.6863 18.9931 43.7868 19.2358C43.8874 19.4785 43.9391 19.7387 43.9391 20.0014C43.9391 20.2641 43.8874 20.5242 43.7868 20.7669C43.6863 21.0096 43.5389 21.2302 43.3531 21.4159L30.3831 34.3859Z" fill="#168AAD"/>
<path opacity="0.7" d="M43.3536 18.5877L27.7973 3.0314C27.0162 2.25035 25.7499 2.25035 24.9688 3.0314L9.41249 18.5877C8.63144 19.3688 8.63145 20.6351 9.41249 21.4162L24.9688 36.9725C25.7499 37.7536 27.0162 37.7536 27.7973 36.9725L43.3536 21.4162C44.1347 20.6351 44.1347 19.3688 43.3536 18.5877Z" fill="#168AAD"/>
<path d="M35.3536 18.5877L19.7973 3.0314C19.0162 2.25035 17.7499 2.25035 16.9688 3.0314L1.41249 18.5877C0.631445 19.3688 0.631446 20.6351 1.41249 21.4162L16.9688 36.9725C17.7499 37.7536 19.0162 37.7536 19.7973 36.9725L35.3536 21.4162C36.1347 20.6351 36.1347 19.3688 35.3536 18.5877Z" fill="#168AAD"/>
<mask id="mask0_181_305" style="mask-type:alpha" maskUnits="userSpaceOnUse" x="0" y="2" width="36" height="36">
<path d="M35.0001 18.9412L19.4437 3.38488C18.8579 2.79909 17.9082 2.79909 17.3224 3.38488L1.76605 18.9412C1.18026 19.527 1.18026 20.4768 1.76605 21.0625L17.3224 36.6189C17.9082 37.2047 18.8579 37.2047 19.4437 36.6189L35.0001 21.0625C35.5859 20.4768 35.5859 19.527 35.0001 18.9412Z" stroke="black"/>
</mask>
<g mask="url(#mask0_181_305)">
<g style="mix-blend-mode:overlay" filter="url(#filter0_f_181_305)">
<path d="M18.5 17C26.5081 17 33 10.2843 33 2C33 -6.28427 26.5081 -13 18.5 -13C10.4919 -13 4 -6.28427 4 2C4 10.2843 10.4919 17 18.5 17Z" fill="white"/>
</g>
</g>
<mask id="mask1_181_305" style="mask-type:alpha" maskUnits="userSpaceOnUse" x="0" y="2" width="60" height="36">
<path fill-rule="evenodd" clip-rule="evenodd" d="M32.97 36.9719L30.385 34.3859L27.799 36.9719C27.6132 37.1577 27.3927 37.3051 27.15 37.4057C26.9073 37.5062 26.6472 37.558 26.3845 37.558C26.1217 37.558 25.8616 37.5062 25.6189 37.4057C25.3762 37.3051 25.1557 37.1577 24.97 36.9719L22.385 34.3859L19.799 36.9719C19.6132 37.1577 19.3927 37.3051 19.15 37.4057C18.9073 37.5062 18.6472 37.558 18.3845 37.558C18.1217 37.558 17.8616 37.5062 17.6189 37.4057C17.3762 37.3051 17.1557 37.1577 16.97 36.9719L1.41395 21.4159C1.22815 21.2302 1.08076 21.0097 0.980199 20.767C0.879639 20.5243 0.827881 20.2641 0.827881 20.0014C0.827881 19.7387 0.879639 19.4786 0.980199 19.2359C1.08076 18.9932 1.22815 18.7726 1.41395 18.5869L16.97 3.03092C17.1557 2.84512 17.3762 2.69773 17.6189 2.59717C17.8616 2.49661 18.1217 2.44485 18.3845 2.44485C18.6472 2.44485 18.9073 2.49661 19.15 2.59717C19.3927 2.69773 19.6132 2.84512 19.799 3.03092L22.384 5.61692L24.97 3.02992C25.1557 2.84412 25.3762 2.69673 25.6189 2.59617C25.8616 2.49561 26.1217 2.44385 26.3845 2.44385C26.6472 2.44385 26.9073 2.49561 27.15 2.59617C27.3927 2.69673 27.6132 2.84412 27.799 3.02992L30.384 5.61592L32.97 3.02992C33.1557 2.84412 33.3762 2.69673 33.6189 2.59617C33.8616 2.49561 34.1217 2.44385 34.3845 2.44385C34.6472 2.44385 34.9073 2.49561 35.15 2.59617C35.3927 2.69673 35.6132 2.84412 35.799 3.02992L38.385 5.61592L40.97 3.02992C41.1557 2.84412 41.3762 2.69673 41.6189 2.59617C41.8616 2.49561 42.1217 2.44385 42.3845 2.44385C42.6472 2.44385 42.9073 2.49561 43.15 2.59617C43.3927 2.69673 43.6132 2.84412 43.799 3.02992L59.355 18.5859C59.5408 18.7716 59.6881 18.9922 59.7887 19.2349C59.8893 19.4776 59.941 19.7377 59.941 20.0004C59.941 20.2631 59.8893 20.5233 59.7887 20.766C59.6881 21.0087 59.5408 21.2292 59.355 21.4149L43.799 36.9719C43.6132 37.1577 43.3927 37.3051 43.15 37.4057C42.9073 37.5062 42.6472 37.558 42.3845 37.558C42.1217 37.558 41.8616 37.5062 41.6189 37.4057C41.3762 37.3051 41.1557 37.1577 40.97 36.9719L38.385 34.3859L35.799 36.9719C35.6132 37.1577 35.3927 37.3051 35.15 37.4057C34.9073 37.5062 34.6472 37.558 34.3845 37.558C34.1217 37.558 33.8616 37.5062 33.6189 37.4057C33.3762 37.3051 33.1557 37.1577 32.97 36.9719Z" fill="#42A9F3"/>
</mask>
<g mask="url(#mask1_181_305)">
<g opacity="0.6" filter="url(#filter1_f_181_305)">
<path d="M10 14C27.6731 14 42 3.92641 42 -8.5C42 -20.9264 27.6731 -31 10 -31C-7.67311 -31 -22 -20.9264 -22 -8.5C-22 3.92641 -7.67311 14 10 14Z" fill="#52B69A"/>
</g>
</g>
</g>
<defs>
<filter id="filter0_f_181_305" x="-16" y="-33" width="69" height="70" filterUnits="userSpaceOnUse" color-interpolation-filters="sRGB">
<feFlood flood-opacity="0" result="BackgroundImageFix"/>
<feBlend mode="normal" in="SourceGraphic" in2="BackgroundImageFix" result="shape"/>
<feGaussianBlur stdDeviation="10" result="effect1_foregroundBlur_181_305"/>
</filter>
<filter id="filter1_f_181_305" x="-36" y="-45" width="92" height="73" filterUnits="userSpaceOnUse" color-interpolation-filters="sRGB">
<feFlood flood-opacity="0" result="BackgroundImageFix"/>
<feBlend mode="normal" in="SourceGraphic" in2="BackgroundImageFix" result="shape"/>
<feGaussianBlur stdDeviation="7" result="effect1_foregroundBlur_181_305"/>
</filter>
<clipPath id="clip0_181_305">
<rect width="60" height="40" fill="white"/>
</clipPath>
</defs>
</svg>
